<?xml version="1.0" encoding="UTF-8"?><svg width="974" height="500" xmlns="http://www.w3.org/2000/svg"><!--Generator: Sketch 50.2 (55047) - http://www.bohemiancoding.com/sketch--><defs><linearGradient x1="116.1%" y1="11%" x2="-270.7%" y2="239.4%" id="linearGradient-1"><stop stop-color="#F2F2F2" offset="0%"/><stop stop-color="#DCEEFB" offset="100%"/></linearGradient><linearGradient x1="50%" y1="7.5%" x2="50%" y2="72.1%" id="linearGradient-2"><stop stop-color="#EBEBEB" offset="0%"/><stop stop-color="#EFEFEF" offset="45%"/><stop stop-color="#FCFCFC" offset="91%"/><stop stop-color="#FFF" offset="100%"/></linearGradient><linearGradient x1="50%" y1="72.2%" x2="50%" y2="4.2%" id="linearGradient-3"><stop stop-color="#4D88FF" offset="0%"/><stop stop-color="#F9346C" offset="100%"/></linearGradient><linearGradient x1="-22.3%" y1="240.3%" x2="109.8%" y2="360.2%" id="linearGradient-4"><stop stop-color="#4D88FF" offset="0%"/><stop stop-color="#F9346C" offset="100%"/></linearGradient><linearGradient x1="-175.9%" y1="1134.2%" x2="6237.9%" y2="1134.2%" id="linearGradient-5"><stop stop-color="#4D88FF" offset="0%"/><stop stop-color="#F9346C" offset="100%"/></linearGradient><linearGradient x1="-342.8%" y1="1127%" x2="6071%" y2="1127%" id="linearGradient-6"><stop stop-color="#4D88FF" offset="0%"/><stop stop-color="#F9346C" offset="100%"/></linearGradient><linearGradient x1="-506.2%" y1="1119.7%" x2="5863.7%" y2="1119.7%" id="linearGradient-7"><stop stop-color="#4D88FF" offset="0%"/><stop stop-color="#F9346C" offset="100%"/></linearGradient><linearGradient x1="-677.2%" y1="1112.5%" x2="5736.6%" y2="1112.5%" id="linearGradient-8"><stop stop-color="#4D88FF" offset="0%"/><stop stop-color="#F9346C" offset="100%"/></linearGradient><linearGradient x1="-844.1%" y1="1105.4%" x2="5569.7%" y2="1105.4%" id="linearGradient-9"><stop stop-color="#4D88FF" offset="0%"/><stop stop-color="#F9346C" offset="100%"/></linearGradient><linearGradient x1="-1011%" y1="1098.1%" x2="5402.1%" y2="1098.1%" id="linearGradient-10"><stop stop-color="#4D88FF" offset="0%"/><stop stop-color="#F9346C" offset="100%"/></linearGradient><linearGradient x1="-1177.9%" y1="1090.9%" x2="5235.2%" y2="1090.9%" id="linearGradient-11"><stop stop-color="#4D88FF" offset="0%"/><stop stop-color="#F9346C" offset="100%"/></linearGradient><linearGradient x1="-1344.8%" y1="1083.6%" x2="5068.3%" y2="1083.6%" id="linearGradient-12"><stop stop-color="#4D88FF" offset="0%"/><stop stop-color="#F9346C" offset="100%"/></linearGradient><linearGradient x1="-1511.7%" y1="1076.4%" x2="4901.4%" y2="1076.4%" id="linearGradient-13"><stop stop-color="#4D88FF" offset="0%"/><stop stop-color="#F9346C" offset="100%"/></linearGradient><linearGradient x1="-1678.6%" y1="1069.1%" x2="4735.2%" y2="1069.1%" id="linearGradient-14"><stop stop-color="#4D88FF" offset="0%"/><stop stop-color="#F9346C" offset="100%"/></linearGradient><linearGradient x1="-1832.9%" y1="1061.9%" x2="4537%" y2="1061.9%" id="linearGradient-15"><stop stop-color="#4D88FF" offset="0%"/><stop stop-color="#F9346C" offset="100%"/></linearGradient><linearGradient x1="-1998.6%" y1="1054.6%" x2="4371.2%" y2="1054.6%" id="linearGradient-16"><stop stop-color="#4D88FF" offset="0%"/><stop stop-color="#F9346C" offset="100%"/></linearGradient><linearGradient x1="-2180%" y1="1047.5%" x2="4233.8%" y2="1047.5%" id="linearGradient-17"><stop stop-color="#4D88FF" offset="0%"/><stop stop-color="#F9346C" offset="100%"/></linearGradient><linearGradient x1="-2346.9%" y1="1040.2%" x2="4066.9%" y2="1040.2%" id="linearGradient-18"><stop stop-color="#4D88FF" offset="0%"/><stop stop-color="#F9346C" offset="100%"/></linearGradient><linearGradient x1="-2513.8%" y1="1033%" x2="3900%" y2="1033%" id="linearGradient-19"><stop stop-color="#4D88FF" offset="0%"/><stop stop-color="#F9346C" offset="100%"/></linearGradient><linearGradient x1="-2680.7%" y1="1025.8%" x2="3733.1%" y2="1025.8%" id="linearGradient-20"><stop stop-color="#4D88FF" offset="0%"/><stop stop-color="#F9346C" offset="100%"/></linearGradient><linearGradient x1="-2828.1%" y1="1018.5%" x2="3541.8%" y2="1018.5%" id="linearGradient-21"><stop stop-color="#4D88FF" offset="0%"/><stop stop-color="#F9346C" offset="100%"/></linearGradient><linearGradient x1="-2993.8%" y1="1011.3%" x2="3376%" y2="1011.3%" id="linearGradient-22"><stop stop-color="#4D88FF" offset="0%"/><stop stop-color="#F9346C" offset="100%"/></linearGradient><linearGradient x1="-3159.6%" y1="1004%" x2="3210.3%" y2="1004%" id="linearGradient-23"><stop stop-color="#4D88FF" offset="0%"/><stop stop-color="#F9346C" offset="100%"/></linearGradient><linearGradient x1="-3349%" y1="995.8%" x2="3064.8%" y2="995.8%" id="linearGradient-24"><stop stop-color="#4D88FF" offset="0%"/><stop stop-color="#F9346C" offset="100%"/></linearGradient><linearGradient x1="-3515.9%" y1="989.6%" x2="2897.9%" y2="989.6%" id="linearGradient-25"><stop stop-color="#4D88FF" offset="0%"/><stop stop-color="#F9346C" offset="100%"/></linearGradient><linearGradient x1="-3682.8%" y1="982.4%" x2="2731%" y2="982.4%" id="linearGradient-26"><stop stop-color="#4D88FF" offset="0%"/><stop stop-color="#F9346C" offset="100%"/></linearGradient><linearGradient x1="-3849.7%" y1="975.1%" x2="2563.4%" y2="975.1%" id="linearGradient-27"><stop stop-color="#4D88FF" offset="0%"/><stop stop-color="#F9346C" offset="100%"/></linearGradient><linearGradient x1="-4016.6%" y1="967.9%" x2="2396.6%" y2="967.9%" id="linearGradient-28"><stop stop-color="#4D88FF" offset="0%"/><stop stop-color="#F9346C" offset="100%"/></linearGradient><linearGradient x1="-3.9%" y1="-35.5%" x2="268.8%" y2="437%" id="linearGradient-29"><stop stop-color="#4D88FF" offset="0%"/><stop stop-color="#F9346C" offset="100%"/></linearGradient><linearGradient x1="-13.2%" y1="-13.2%" x2="907.9%" y2="1181.1%" id="linearGradient-30"><stop stop-color="#4D88FF" offset="0%"/><stop stop-color="#F9346C" offset="100%"/></linearGradient><linearGradient x1="-6.3%" y1="-28.4%" x2="434.5%" y2="673.4%" id="linearGradient-31"><stop stop-color="#4D88FF" offset="0%"/><stop stop-color="#F9346C" offset="100%"/></linearGradient><linearGradient x1="-3.2%" y1="-37.9%" x2="218.3%" y2="355.9%" id="linearGradient-32"><stop stop-color="#4D88FF" offset="0%"/><stop stop-color="#F9346C" offset="100%"/></linearGradient><linearGradient x1="-1507.4%" y1="1589.6%" x2="556.7%" y2="1589.6%" id="linearGradient-33"><stop stop-color="#4D88FF" offset="0%"/><stop stop-color="#F9346C" offset="100%"/></linearGradient><linearGradient x1="-1766%" y1="1539%" x2="298.2%" y2="1539%" id="linearGradient-34"><stop stop-color="#4D88FF" offset="0%"/><stop stop-color="#F9346C" offset="100%"/></linearGradient><linearGradient x1="-1507.4%" y1="1587.8%" x2="556.7%" y2="1587.8%" id="linearGradient-35"><stop stop-color="#4D88FF" offset="0%"/><stop stop-color="#F9346C" offset="100%"/></linearGradient><linearGradient x1="-1766%" y1="1540.9%" x2="298.2%" y2="1540.9%" id="linearGradient-36"><stop stop-color="#4D88FF" offset="0%"/><stop stop-color="#F9346C" offset="100%"/></linearGradient><linearGradient x1="-474.4%" y1="1782.5%" x2="1593.4%" y2="1782.5%" id="linearGradient-37"><stop stop-color="#4D88FF" offset="0%"/><stop stop-color="#F9346C" offset="100%"/></linearGradient><linearGradient x1="50.1%" y1="323.7%" x2="50.1%" y2="-30%" id="linearGradient-38"><stop stop-color="#4D88FF" offset="0%"/><stop stop-color="#F9346C" offset="100%"/></linearGradient><linearGradient x1="50.2%" y1="121.3%" x2="50.2%" y2="-91.3%" id="linearGradient-39"><stop stop-color="#4D88FF" offset="0%"/><stop stop-color="#F9346C" offset="100%"/></linearGradient><linearGradient x1="50%" y1="212.7%" x2="50%" y2="-64.6%" id="linearGradient-40"><stop stop-color="#4D88FF" offset="0%"/><stop stop-color="#F9346C" offset="100%"/></linearGradient><linearGradient x1="50.1%" y1="320.5%" x2="50.1%" y2="-220.7%" id="linearGradient-41"><stop stop-color="#4D88FF" offset="0%"/><stop stop-color="#F9346C" offset="100%"/></linearGradient><linearGradient x1="50.2%" y1="102.3%" x2="50.2%" y2="-11.2%" id="linearGradient-42"><stop stop-color="#4D88FF" offset="0%"/><stop stop-color="#F9346C" offset="100%"/></linearGradient><linearGradient x1="30.9%" y1="84.7%" x2="114.7%" y2="-82.2%" id="linearGradient-43"><stop stop-color="#F9346C" offset="0%"/><stop stop-color="#F9386D" offset="16%"/><stop stop-color="#FA446E" offset="32%"/><stop stop-color="#FA5871" offset="47%"/><stop stop-color="#FB7576" offset="63%"/><stop stop-color="#FD997B" offset="79%"/><stop stop-color="#FEC582" offset="95%"/><stop stop-color="#FFD584" offset="100%"/></linearGradient><linearGradient x1="-90%" y1="-19.3%" x2="347.1%" y2="206.2%" id="linearGradient-44"><stop stop-color="#4D88FF" offset="0%"/><stop stop-color="#300C6D" offset="100%"/></linearGradient><linearGradient x1="-129%" y1="71.9%" x2="472.4%" y2="4.4%" id="linearGradient-45"><stop stop-color="#4D88FF" offset="0%"/><stop stop-color="#300C6D" offset="100%"/></linearGradient><linearGradient x1="93.5%" y1="286.9%" x2="-14.1%" y2="-332.9%" id="linearGradient-46"><stop stop-color="#F9346C" offset="0%"/><stop stop-color="#F9386D" offset="16%"/><stop stop-color="#FA446E" offset="32%"/><stop stop-color="#FA5871" offset="47%"/><stop stop-color="#FB7576" offset="63%"/><stop stop-color="#FD997B" offset="79%"/><stop stop-color="#FEC582" offset="95%"/><stop stop-color="#FFD584" offset="100%"/></linearGradient><linearGradient x1="68.9%" y1="761%" x2="-65.3%" y2="-4487%" id="linearGradient-47"><stop stop-color="#F2F2F2" offset="0%"/><stop stop-color="#DCEEFB" offset="100%"/></linearGradient><linearGradient x1="85%" y1="363.9%" x2="-98.3%" y2="-1284.5%" id="linearGradient-48"><stop stop-color="#4D88FF" offset="0%"/><stop stop-color="#F9346C" offset="100%"/></linearGradient><linearGradient x1="83%" y1="180%" x2="44.9%" y2="-.8%" id="linearGradient-49"><stop stop-color="#4D88FF" offset="0%"/><stop stop-color="#300C6D" offset="62%"/></linearGradient><linearGradient x1="177.2%" y1="158%" x2="73.6%" y2="52.7%" id="linearGradient-50"><stop stop-color="#4D88FF" offset="0%"/><stop stop-color="#300C6D" offset="100%"/></linearGradient><linearGradient x1="-85.5%" y1="-25.9%" x2="81.6%" y2="68.7%" id="linearGradient-51"><stop stop-color="#4D88FF" offset="0%"/><stop stop-color="#300C6D" offset="100%"/></linearGradient><linearGradient x1="50%" y1="-23.2%" x2="50%" y2="77.6%" id="linearGradient-52"><stop stop-color="#4D88FF" offset="0%"/><stop stop-color="#300C6D" offset="100%"/></linearGradient><linearGradient x1="-16%" y1="-75.6%" x2="111.7%" y2="168.8%" id="linearGradient-53"><stop stop-color="#4D88FF" offset="0%"/><stop stop-color="#75E5FF" offset="100%"/></linearGradient><linearGradient x1="387.5%" y1="2009.1%" x2="-619.4%" y2="-4035.7%" id="linearGradient-54"><stop stop-color="#4D88FF" offset="0%"/><stop stop-color="#F9346C" offset="100%"/></linearGradient><linearGradient x1="402.1%" y1="2104.1%" x2="-604.8%" y2="-3939.6%" id="linearGradient-55"><stop stop-color="#4D88FF" offset="0%"/><stop stop-color="#F9346C" offset="100%"/></linearGradient><linearGradient x1="417.6%" y1="2200.7%" x2="-589.3%" y2="-3844.1%" id="linearGradient-56"><stop stop-color="#4D88FF" offset="0%"/><stop stop-color="#F9346C" offset="100%"/></linearGradient><linearGradient x1="433.6%" y1="2296.9%" x2="-573.8%" y2="-3747.9%" id="linearGradient-57"><stop stop-color="#4D88FF" offset="0%"/><stop stop-color="#F9346C" offset="100%"/></linearGradient><linearGradient x1="449.1%" y1="2391.6%" x2="-558.3%" y2="-3652.2%" id="linearGradient-58"><stop stop-color="#4D88FF" offset="0%"/><stop stop-color="#F9346C" offset="100%"/></linearGradient><linearGradient x1="464.7%" y1="2493.1%" x2="-542.2%" y2="-3564.2%" id="linearGradient-59"><stop stop-color="#4D88FF" offset="0%"/><stop stop-color="#F9346C" offset="100%"/></linearGradient><linearGradient x1="480.1%" y1="2583.1%" x2="-526.7%" y2="-3460.6%" id="linearGradient-60"><stop stop-color="#4D88FF" offset="0%"/><stop stop-color="#F9346C" offset="100%"/></linearGradient><linearGradient x1="494.8%" y1="2679.6%" x2="-512.1%" y2="-3365.2%" id="linearGradient-61"><stop stop-color="#4D88FF" offset="0%"/><stop stop-color="#F9346C" offset="100%"/></linearGradient><linearGradient x1="510%" y1="2775.4%" x2="-496.9%" y2="-3269.4%" id="linearGradient-62"><stop stop-color="#4D88FF" offset="0%"/><stop stop-color="#F9346C" offset="100%"/></linearGradient><linearGradient x1="525.7%" y1="2870.5%" x2="-481.7%" y2="-3173.2%" id="linearGradient-63"><stop stop-color="#4D88FF" offset="0%"/><stop stop-color="#F9346C" offset="100%"/></linearGradient><linearGradient x1="541%" y1="2967%" x2="-466.4%" y2="-3077.9%" id="linearGradient-64"><stop stop-color="#4D88FF" offset="0%"/><stop stop-color="#F9346C" offset="100%"/></linearGradient><linearGradient x1="556.3%" y1="3060.9%" x2="-450.6%" y2="-2978.6%" id="linearGradient-65"><stop stop-color="#4D88FF" offset="0%"/><stop stop-color="#F9346C" offset="100%"/></linearGradient><linearGradient x1="571.5%" y1="3155.9%" x2="-435.3%" y2="-2883.7%" id="linearGradient-66"><stop stop-color="#4D88FF" offset="0%"/><stop stop-color="#F9346C" offset="100%"/></linearGradient><linearGradient x1="586.7%" y1="3254.4%" x2="-420.1%" y2="-2790.3%" id="linearGradient-67"><stop stop-color="#4D88FF" offset="0%"/><stop stop-color="#F9346C" offset="100%"/></linearGradient><linearGradient x1="305.7%" y1="1572.1%" x2="-430.3%" y2="-2952.5%" id="linearGradient-68"><stop stop-color="#4D88FF" offset="0%"/><stop stop-color="#F9346C" offset="100%"/></linearGradient><linearGradient x1="316.8%" y1="1630.8%" x2="-418.8%" y2="-2851.5%" id="linearGradient-69"><stop stop-color="#4D88FF" offset="0%"/><stop stop-color="#F9346C" offset="100%"/></linearGradient><linearGradient x1="327.9%" y1="1700.3%" x2="-407.7%" y2="-2777.9%" id="linearGradient-70"><stop stop-color="#4D88FF" offset="0%"/><stop stop-color="#F9346C" offset="100%"/></linearGradient><linearGradient x1="339.1%" y1="1770%" x2="-396.5%" y2="-2705.4%" id="linearGradient-71"><stop stop-color="#4D88FF" offset="0%"/><stop stop-color="#F9346C" offset="100%"/></linearGradient><linearGradient x1="350.3%" y1="1843.8%" x2="-385.4%" y2="-2638.5%" id="linearGradient-72"><stop stop-color="#4D88FF" offset="0%"/><stop stop-color="#F9346C" offset="100%"/></linearGradient><linearGradient x1="361.8%" y1="1914.7%" x2="-374.2%" y2="-2567.6%" id="linearGradient-73"><stop stop-color="#4D88FF" offset="0%"/><stop stop-color="#F9346C" offset="100%"/></linearGradient><linearGradient x1="372.9%" y1="1983.8%" x2="-362.7%" y2="-2491.6%" id="linearGradient-74"><stop stop-color="#4D88FF" offset="0%"/><stop stop-color="#F9346C" offset="100%"/></linearGradient><linearGradient x1="383.9%" y1="2055.2%" x2="-351.4%" y2="-2423.1%" id="linearGradient-75"><stop stop-color="#4D88FF" offset="0%"/><stop stop-color="#F9346C" offset="100%"/></linearGradient><linearGradient x1="395%" y1="2124.6%" x2="-340.2%" y2="-2350.8%" id="linearGradient-76"><stop stop-color="#4D88FF" offset="0%"/><stop stop-color="#F9346C" offset="100%"/></linearGradient><linearGradient x1="406.3%" y1="2199%" x2="-329.3%" y2="-2283.3%" id="linearGradient-77"><stop stop-color="#4D88FF" offset="0%"/><stop stop-color="#F9346C" offset="100%"/></linearGradient><linearGradient x1="417.9%" y1="2269.9%" x2="-318.2%" y2="-2212.4%" id="linearGradient-78"><stop stop-color="#4D88FF" offset="0%"/><stop stop-color="#F9346C" offset="100%"/></linearGradient><linearGradient x1="429%" y1="2337.7%" x2="-307%" y2="-2137.9%" id="linearGradient-79"><stop stop-color="#4D88FF" offset="0%"/><stop stop-color="#F9346C" offset="100%"/></linearGradient><linearGradient x1="292.4%" y1="1486.7%" x2="-158.2%" y2="-1198.8%" id="linearGradient-80"><stop stop-color="#4D88FF" offset="0%"/><stop stop-color="#F9346C" offset="100%"/></linearGradient><linearGradient x1="272.2%" y1="1354.7%" x2="-333.3%" y2="-2299.7%" id="linearGradient-81"><stop stop-color="#4D88FF" offset="0%"/><stop stop-color="#F9346C" offset="100%"/></linearGradient><linearGradient x1="332.9%" y1="1733.1%" x2="-402.7%" y2="-2749.3%" id="linearGradient-82"><stop stop-color="#4D88FF" offset="0%"/><stop stop-color="#F9346C" offset="100%"/></linearGradient><linearGradient x1="344.3%" y1="1802.1%" x2="-391.4%" y2="-2673.4%" id="linearGradient-83"><stop stop-color="#4D88FF" offset="0%"/><stop stop-color="#F9346C" offset="100%"/></linearGradient><linearGradient x1="355.4%" y1="1873.8%" x2="-380.2%" y2="-2604.6%" id="linearGradient-84"><stop stop-color="#4D88FF" offset="0%"/><stop stop-color="#F9346C" offset="100%"/></linearGradient><linearGradient x1="366.5%" y1="1943.3%" x2="-369.1%" y2="-2532.2%" id="linearGradient-85"><stop stop-color="#4D88FF" offset="0%"/><stop stop-color="#F9346C" offset="100%"/></linearGradient><linearGradient x1="378%" y1="2017.4%" x2="-358%" y2="-2465%" id="linearGradient-86"><stop stop-color="#4D88FF" offset="0%"/><stop stop-color="#F9346C" offset="100%"/></linearGradient><linearGradient x1="389.2%" y1="2088.3%" x2="-346.9%" y2="-2394%" id="linearGradient-87"><stop stop-color="#4D88FF" offset="0%"/><stop stop-color="#F9346C" offset="100%"/></linearGradient><linearGradient x1="400.3%" y1="2156.3%" x2="-335.3%" y2="-2319.2%" id="linearGradient-88"><stop stop-color="#4D88FF" offset="0%"/><stop stop-color="#F9346C" offset="100%"/></linearGradient><linearGradient x1="411.5%" y1="2228.7%" x2="-324.2%" y2="-2249.7%" id="linearGradient-89"><stop stop-color="#4D88FF" offset="0%"/><stop stop-color="#F9346C" offset="100%"/></linearGradient><linearGradient x1="422.6%" y1="2301.3%" x2="-313.1%" y2="-2181%" id="linearGradient-90"><stop stop-color="#4D88FF" offset="0%"/><stop stop-color="#F9346C" offset="100%"/></linearGradient><linearGradient x1="433.7%" y1="2373.5%" x2="-301.9%" y2="-2108.9%" id="linearGradient-91"><stop stop-color="#4D88FF" offset="0%"/><stop stop-color="#F9346C" offset="100%"/></linearGradient><linearGradient x1="445.1%" y1="2441.4%" x2="-290.6%" y2="-2036.8%" id="linearGradient-92"><stop stop-color="#4D88FF" offset="0%"/><stop stop-color="#F9346C" offset="100%"/></linearGradient><linearGradient x1="339%" y1="1775.3%" x2="-179.6%" y2="-1332.3%" id="linearGradient-93"><stop stop-color="#4D88FF" offset="0%"/><stop stop-color="#F9346C" offset="100%"/></linearGradient><linearGradient x1="221.4%" y1="1040.5%" x2="-219.5%" y2="-1574.8%" id="linearGradient-94"><stop stop-color="#4D88FF" offset="0%"/><stop stop-color="#F9346C" offset="100%"/></linearGradient><linearGradient x1="352.3%" y1="1853.5%" x2="-383.3%" y2="-2621.9%" id="linearGradient-95"><stop stop-color="#4D88FF" offset="0%"/><stop stop-color="#F9346C" offset="100%"/></linearGradient><linearGradient x1="363.8%" y1="1925.7%" x2="-372.2%" y2="-2549.7%" id="linearGradient-96"><stop stop-color="#4D88FF" offset="0%"/><stop stop-color="#F9346C" offset="100%"/></linearGradient><linearGradient x1="374.9%" y1="1995.7%" x2="-360.9%" y2="-2479.7%" id="linearGradient-97"><stop stop-color="#4D88FF" offset="0%"/><stop stop-color="#F9346C" offset="100%"/></linearGradient><linearGradient x1="386.2%" y1="2069.5%" x2="-349.5%" y2="-2412.9%" id="linearGradient-98"><stop stop-color="#4D88FF" offset="0%"/><stop stop-color="#F9346C" offset="100%"/></linearGradient><linearGradient x1="397.3%" y1="2137.4%" x2="-338.3%" y2="-2338%" id="linearGradient-99"><stop stop-color="#4D88FF" offset="0%"/><stop stop-color="#F9346C" offset="100%"/></linearGradient><linearGradient x1="408.4%" y1="2209.8%" x2="-327.2%" y2="-2268.5%" id="linearGradient-100"><stop stop-color="#4D88FF" offset="0%"/><stop stop-color="#F9346C" offset="100%"/></linearGradient><linearGradient x1="419.9%" y1="2279.2%" x2="-316.1%" y2="-2196.3%" id="linearGradient-101"><stop stop-color="#4D88FF" offset="0%"/><stop stop-color="#F9346C" offset="100%"/></linearGradient><linearGradient x1="431.1%" y1="2353.8%" x2="-304.9%" y2="-2128.6%" id="linearGradient-102"><stop stop-color="#4D88FF" offset="0%"/><stop stop-color="#F9346C" offset="100%"/></linearGradient><linearGradient x1="442.2%" y1="2424.6%" x2="-293.4%" y2="-2057.7%" id="linearGradient-103"><stop stop-color="#4D88FF" offset="0%"/><stop stop-color="#F9346C" offset="100%"/></linearGradient><linearGradient x1="453.4%" y1="2493.8%" x2="-282.3%" y2="-1981.7%" id="linearGradient-104"><stop stop-color="#4D88FF" offset="0%"/><stop stop-color="#F9346C" offset="100%"/></linearGradient><linearGradient x1="311%" y1="1601.8%" x2="-146.4%" y2="-1125.4%" id="linearGradient-105"><stop stop-color="#4D88FF" offset="0%"/><stop stop-color="#F9346C" offset="100%"/></linearGradient><linearGradient x1="290.9%" y1="1470.9%" x2="-314.5%" y2="-2178.8%" id="linearGradient-106"><stop stop-color="#4D88FF" offset="0%"/><stop stop-color="#F9346C" offset="100%"/></linearGradient><linearGradient x1="356%" y1="1875.1%" x2="-380%" y2="-2600.4%" id="linearGradient-107"><stop stop-color="#4D88FF" offset="0%"/><stop stop-color="#F9346C" offset="100%"/></linearGradient><linearGradient x1="367.2%" y1="1949.2%" x2="-368.5%" y2="-2533.2%" id="linearGradient-108"><stop stop-color="#4D88FF" offset="0%"/><stop stop-color="#F9346C" offset="100%"/></linearGradient><linearGradient x1="378.3%" y1="2018.3%" x2="-357.4%" y2="-2460%" id="linearGradient-109"><stop stop-color="#4D88FF" offset="0%"/><stop stop-color="#F9346C" offset="100%"/></linearGradient><linearGradient x1="151.5%" y1="639.7%" x2="-54.9%" y2="-571.2%" id="linearGradient-110"><stop stop-color="#4D88FF" offset="0%"/><stop stop-color="#F9346C" offset="100%"/></linearGradient><linearGradient x1="445.3%" y1="2444.6%" x2="-289.9%" y2="-2034%" id="linearGradient-111"><stop stop-color="#4D88FF" offset="0%"/><stop stop-color="#F9346C" offset="100%"/></linearGradient><linearGradient x1="456.7%" y1="2517.4%" x2="-278.9%" y2="-1965%" id="linearGradient-112"><stop stop-color="#4D88FF" offset="0%"/><stop stop-color="#F9346C" offset="100%"/></linearGradient><linearGradient x1="468.2%" y1="2588.2%" x2="-267.8%" y2="-1894.1%" id="linearGradient-113"><stop stop-color="#4D88FF" offset="0%"/><stop stop-color="#F9346C" offset="100%"/></linearGradient><linearGradient x1="354.9%" y1="1876.3%" x2="-163.9%" y2="-1232.4%" id="linearGradient-114"><stop stop-color="#4D88FF" offset="0%"/><stop stop-color="#F9346C" offset="100%"/></linearGradient><linearGradient x1="-344.2%" y1="25.9%" x2="740.1%" y2="92.4%" id="linearGradient-115"><stop stop-color="#4D88FF" offset="0%"/><stop stop-color="#F9346C" offset="100%"/></linearGradient><linearGradient x1="130.1%" y1="10.3%" x2="-211.7%" y2="249.3%" id="linearGradient-116"><stop stop-color="#F2F2F2" offset="0%"/><stop stop-color="#DCEEFB" offset="100%"/></linearGradient><linearGradient x1="9.9%" y1="20.4%" x2="192.5%" y2="155.3%" id="linearGradient-117"><stop stop-color="#F2F2F2" offset="0%"/><stop stop-color="#DCEEFB" offset="100%"/></linearGradient><linearGradient x1="-47%" y1="-67%" x2="62.2%" y2="80.2%" id="linearGradient-118"><stop stop-color="#4D88FF" offset="0%"/><stop stop-color="#300C6D" offset="100%"/></linearGradient><linearGradient x1="0%" y1="50%" y2="50%" id="linearGradient-119"><stop stop-color="#C9D1D6" offset="0%"/><stop stop-color="#F2F2F2" offset="100%"/></linearGradient><linearGradient x1="50%" y1="-49.6%" x2="50%" y2="117.8%" id="linearGradient-120"><stop stop-color="#4D88FF" offset="0%"/><stop stop-color="#300C6D" offset="100%"/></linearGradient><linearGradient x1="-267.5%" y1="48.6%" x2="298%" y2="50.9%" id="linearGradient-121"><stop stop-color="#F9346C" offset="0%"/><stop stop-color="#FFD584" offset="100%"/></linearGradient><linearGradient x1="31.8%" y1="39.2%" x2="147.5%" y2="105.7%" id="linearGradient-122"><stop stop-color="#4D88FF" offset="0%"/><stop stop-color="#75E5FF" offset="100%"/></linearGradient><linearGradient x1="-259%" y1="-38%" x2="109.3%" y2="73.4%" id="linearGradient-123"><stop stop-color="#4D88FF" offset="0%"/><stop stop-color="#75E5FF" offset="100%"/></linearGradient><linearGradient x1="-30.1%" y1="10.3%" x2="311.7%" y2="249.3%" id="linearGradient-124"><stop stop-color="#F2F2F2" offset="0%"/><stop stop-color="#DCEEFB" offset="100%"/></linearGradient><linearGradient x1="-10.5%" y1="-93.4%" x2="115%" y2="191%" id="linearGradient-125"><stop stop-color="#4D88FF" offset="0%"/><stop stop-color="#75E5FF" offset="100%"/></linearGradient><linearGradient x1="23.6%" y1="29.5%" x2="185.3%" y2="209.3%" id="linearGradient-126"><stop stop-color="#4D88FF" offset="0%"/><stop stop-color="#300C6D" offset="100%"/></linearGradient><linearGradient x1="76.6%" y1="221.7%" x2="39.7%" y2="-26.2%" id="linearGradient-127"><stop stop-color="#F9346C" offset="0%"/><stop stop-color="#FFD584" offset="100%"/></linearGradient></defs><g id="Page-1" fill="none" fill-rule="evenodd"><g id="06-报表" transform="translate(-266 -180)"><g id="Group-6" transform="translate(266 180)"><g id="Group-5" transform="translate(584 94)" font-family="PingFang-SC-Semibold, PingFang SC" font-weight="500"><text id="eport" font-size="60" fill="#F2F2F2"><tspan x="123" y="164">eport</tspan></text><text id="ainbow" font-size="60" fill="#F2F2F2"><tspan x="123" y="111">ainbow</tspan></text><text id="R" font-size="160" fill="#E1E1E1"><tspan x="0" y="170">R</tspan></text></g><text id="一键生成各类生产、管理、财务报表信息图" font-family="PingFang-SC-Medium, PingFang SC" font-size="20" font-weight="400" fill="#454545"><tspan x="595" y="308">一键生成各类生产、管理、财务报表信息图</tspan> <tspan x="595" y="348">风险预警、未来趋势全在您的掌控之中</tspan></text><g id="资源-1" fill-rule="nonzero"><path id="Shape" fill="url(#linearGradient-1)" d="M477 319l-297-79.6V0l297 79.6z"/><path id="Shape" fill="#FFF" d="M466 191l-264-70.7V19l264 70.7zM369 277l-167-44.7V131l167 44.7z"/><path d="M221.1 92.7c8 2.3 16.4-17 25.6-14.8 9.3 2.3 16.5 21 25.7 23.5s14.5-33.2 25.6-30.2c11.2 3 16 33.2 25.7 35.7s16.1-.1 25.6 2c9.5 2.3 14.7 15.8 25.6 18.6l9.1 2.4V149l-168-44.8V91.3l5.1 1.4z" id="Shape" fill="url(#linearGradient-2)"/><path d="M220.5 107c-.3 0-.5-.3-.5-.6V85.6c0-.3.2-.6.5-.6s.5.3.5.6v20.8c0 .3-.2.6-.5.6z" id="Shape" fill="#C9D1D6"/><path id="Shape" fill="#CBCBCB" d="M224 113.2l-8-2.2v3.8l8 2.2z"/><path d="M246.5 114c-.3 0-.5-.3-.5-.6V62.6c0-.3.2-.6.5-.6s.5.3.5.6v50.8c0 .3-.2.6-.5.6z" id="Shape" fill="#C9D1D6"/><path id="Shape" fill="#CBCBCB" d="M250 120.2l-8-2.2v3.8l8 2.2z"/><path d="M271.5 121c-.3 0-.5-.3-.5-.6V99.6c0-.3.2-.6.5-.6s.5.3.5.6v20.8c0 .3-.2.6-.5.6z" id="Shape" fill="#C9D1D6"/><path id="Shape" fill="#CBCBCB" d="M276 127.2l-8-2.2v3.8l8 2.2z"/><path d="M297.5 128c-.3 0-.5-.3-.5-.6V76.6c0-.3.2-.6.5-.6s.5.3.5.6v50.8c0 .3-.2.6-.5.6z" id="Shape" fill="#C9D1D6"/><path id="Shape" fill="#CBCBCB" d="M302 134.2l-8-2.2v3.8l8 2.2z"/><path d="M323.5 135c-.3 0-.5-.3-.5-.6v-20.8c0-.3.2-.6.5-.6s.5.3.5.6v20.8c0 .3-.2.6-.5.6z" id="Shape" fill="#C9D1D6"/><path id="Shape" fill="#CBCBCB" d="M327 141.2l-8-2.2v3.8l8 2.2z"/><path d="M349.5 142c-.3 0-.5-.3-.5-.6V90.6c0-.3.2-.6.5-.6s.5.3.5.6v50.8c0 .3-.2.6-.5.6z" id="Shape" fill="#C9D1D6"/><path id="Shape" fill="#CBCBCB" d="M353 148.2l-8-2.2v3.8l8 2.2z"/><path d="M374.5 148c-.3 0-.5-.3-.5-.6v-20.8c0-.3.2-.6.5-.6s.5.3.5.6v20.8c0 .3-.2.6-.5.6z" id="Shape" fill="#C9D1D6"/><path id="Shape" fill="#CBCBCB" d="M379 155.2l-8-2.2v3.8l8 2.2z"/><path d="M216 91.5c-.6-.2-1-.7-1-1.3 0-.6.4-1 1-.8l5 1.3h.1c3.5 1 7.4-3 11.2-6.9 4.6-4.5 9.2-9.1 14.4-7.9h.1c5 1.4 9.2 6.9 13.4 12.2 3.9 5 8 10.2 12.2 11.3 3.8 1 7.3-6.5 10.7-13.8 4.2-8.9 8.5-18.1 15-16.4 6.2 1.7 10.4 10.8 14.4 19.5 3.6 7.7 7 15 11.1 16.2 5 1.2 9.1 1.1 13.1 1a49 49 0 0 1 12.6 1c5 1.2 8.8 5.2 12.5 9 3.8 4 7.8 8.1 13 9.5h.2l9 2.4c.6.2 1 .8 1 1.4 0 .6-.4 1-1 .8l-9-2.4h-.2c-5.8-1.6-10-6-14-10.1-3.7-3.8-7.1-7.4-11.4-8.4-4.6-1-8.3-1-12.3-1-4 .1-8.3.2-13.4-1.1-5.3-1.4-9-9.2-12.7-17.6-3.8-8.2-7.8-16.7-13-18-5.2-1.4-9.5 7.6-13.2 15.6-3.8 8.2-7.5 15.9-12.4 14.5-5-1.3-9.3-6.8-13.4-12.1-4.1-5.2-8-10.1-12.2-11.3-4.4-1-8.8 3.4-13 7.6-4.3 4.2-8.4 8.3-12.7 7.2l-5.2-1.4z" id="Shape" fill="url(#linearGradient-3)"/><path id="Shape" fill="#FFF" d="M466 201.5L378 178v101.5l88 23.5z"/><path id="Shape" fill="#CBCBCB" d="M422 110.7l-17-4.7v2.3l17 4.7zM422 116.7l-17-4.7v2.3l17 4.7zM422 104.7l-17-4.7v2.3l17 4.7zM411 119.7l-6-1.7v2.3l6 1.7z"/><path d="M430.5 127c-.3 0-.5-.3-.5-.6v-19.8c0-.3.2-.6.5-.6s.5.3.5.6v19.8c0 .3-.2.6-.5.6z" id="Shape" fill="#C9D1D6"/><path d="M444.5 110.3c-4.7-1.3-8.5 2.2-8.5 7.8 0 5.7 3.8 11.3 8.5 12.6 4.7 1.3 8.5-2.2 8.5-7.8 0-5.7-3.8-11.3-8.5-12.6zm0 18c-3.6-1-6.5-5.3-6.5-9.6 0-4.4 3-7 6.5-6 3.6 1 6.5 5.3 6.5 9.6s-3 7-6.5 6z" id="Shape" fill="#CBCBCB"/><path d="M454.3 141h-.2l-48.6-12.8a.6.6 0 0 1-.4-.3c-.1-.1-.1-.3 0-.4 0-.4.4-.6.7-.5l48.6 12.8c.4 0 .6.3.6.7 0 .3-.4.5-.7.5z" id="Shape" fill="#C9D1D6"/><path d="M451.9 122.4c0 2.4-1 4.4-2.8 5.3a1 1 0 0 0-.3 1.4c.4.7 1 1 1.6.8 2.2-1.2 3.6-3.8 3.6-7 0-5-3.4-10-7.8-11.8a.8.8 0 0 0-.9 0c-.2.2-.3.5-.3.8 0 .6.4 1.2 1 1.4 3.3 1.4 5.9 5.2 5.9 9z" id="Shape" fill="url(#linearGradient-4)"/><path id="Shape" fill="url(#linearGradient-5)" d="M407 156l-1-.3V150l1 .3z"/><path id="Shape" fill="url(#linearGradient-6)" d="M408 157l-1-.3V151l1 .3z"/><path id="Shape" fill="url(#linearGradient-7)" d="M410 157l-1-.3V151l1 .3z"/><path id="Shape" fill="url(#linearGradient-8)" d="M411 158l-1-.3V152l1 .3z"/><path id="Shape" fill="url(#linearGradient-9)" d="M413 158l-1-.3V152l1 .3z"/><path id="Shape" fill="url(#linearGradient-10)" d="M414 158l-1-.3V152l1 .3z"/><path id="Shape" fill="url(#linearGradient-11)" d="M416 159l-1-.3V153l1 .3z"/><path id="Shape" fill="url(#linearGradient-12)" d="M417 159l-1-.3V153l1 .3z"/><path id="Shape" fill="url(#linearGradient-13)" d="M419 160l-1-.3V154l1 .3z"/><path id="Shape" fill="url(#linearGradient-14)" d="M420 160l-1-.3V154l1 .3z"/><path id="Shape" fill="url(#linearGradient-15)" d="M422 160l-1-.3V154l1 .3z"/><path id="Shape" fill="url(#linearGradient-16)" d="M423 161l-1-.3V155l1 .3z"/><path id="Shape" fill="url(#linearGradient-17)" d="M425 161l-1-.3V155l1 .3z"/><path id="Shape" fill="url(#linearGradient-18)" d="M426 162l-1-.3V156l1 .3z"/><path id="Shape" fill="url(#linearGradient-19)" d="M428 162l-1-.3V156l1 .3z"/><path id="Shape" fill="url(#linearGradient-20)" d="M429 162l-1-.3V156l1 .3z"/><path id="Shape" fill="url(#linearGradient-21)" d="M431 163l-1-.3V157l1 .3z"/><path id="Shape" fill="url(#linearGradient-22)" d="M432 163l-1-.3V157l1 .3z"/><path id="Shape" fill="url(#linearGradient-23)" d="M434 164l-1-.3V158l1 .3z"/><path id="Shape" fill="url(#linearGradient-24)" d="M435 164l-1-.3V158l1 .3z"/><path id="Shape" fill="url(#linearGradient-25)" d="M437 165l-1-.3V159l1 .3z"/><path id="Shape" fill="url(#linearGradient-26)" d="M438 165l-1-.3V159l1 .3z"/><path id="Shape" fill="url(#linearGradient-27)" d="M440 165l-1-.3V159l1 .3z"/><path id="Shape" fill="url(#linearGradient-28)" d="M442 166l-1-.3V160l1 .3z"/><path id="Shape" fill="#CBCBCB" d="M443 166l-1-.3V160l1 .3zM445 167l-1-.3V161l1 .3zM446 167l-1-.3V161l1 .3zM448 167l-1-.3V161l1 .3zM449 168l-1-.3V162l1 .3zM451 168l-1-.3V162l1 .3zM452 169l-1-.3V163l1 .3zM454 169l-1-.3V163l1 .3z"/><path id="Shape" fill="#F9346C" d="M442.1 171.6L441 168l-1.1 3-2.9-.8v6.6l8 2.2v-6.6z"/><path d="M273.4 172h-.2l-23.8-6.7a.7.7 0 0 1-.4-.8c.1-.4.4-.6.8-.5l23.7 6.7c.2 0 .3.2.4.3v.5c0 .3-.2.5-.5.5zM273.3 193h-.2l-51.6-13.8a.6.6 0 1 1-.3-1c.2-.2.4-.2.6-.2l51.7 13.8a.6.6 0 1 1-.2 1.2zM273.3 214h-.2l-38.6-10.7a.6.6 0 0 1-.4-.3v-.5c0-.2 0-.3.2-.4h.5l38.7 10.6c.3 0 .5.4.5.7 0 .4-.4.6-.7.6zM273.3 235h-.2l-23.7-6.7a.7.7 0 0 1-.4-.8c.1-.4.4-.6.8-.5l23.7 6.7c.3 0 .5.4.5.7 0 .4-.4.6-.7.6z" id="Shape" fill="#C9D1D6"/><path d="M193 105c0-1.3-.8-2.5-2-3-1.1-.2-2 .6-2 2 0 1.3.8 2.5 2 3 1.1.3 2-.6 2-2z" id="Shape" fill="#CBCBCB"/><ellipse id="Oval" fill="#CBCBCB" transform="rotate(-26.5 191 79.5)" cx="191" cy="79.5" rx="2" ry="2.5"/><path d="M193 55c0-1.3-.8-2.5-2-3-1.1-.2-2 .6-2 2 0 1.3.8 2.5 2 3 1.1.2 2-.6 2-2z" id="Shape" fill="#CBCBCB"/><path id="Shape" fill="#4D88FF" d="M180 38.5l2 .5V13.5l-2-.5zM193 29c0-1.3-.8-2.5-2-3-1.1-.2-2 .6-2 2 0 1.3.8 2.5 2 3 1.1.3 2-.6 2-2z"/><path d="M193 29c0-1.3-.8-2.5-2-3-1.1-.2-2 .6-2 2 0 1.3.8 2.5 2 3 1.1.3 2-.6 2-2z" id="Shape" fill="#4D88FF"/><path d="M252.9 167l-36.8-9.8c-.6-.2-1-.7-1.1-1.4 0-.2.1-.5.3-.6.3-.2.5-.2.8-.1l36.8 9.7c.6.2 1 .7 1.1 1.4 0 .2-.1.5-.3.6-.3.2-.5.2-.8.1z" id="Shape" fill="url(#linearGradient-29)"/><path d="M225.8 181l-9.7-2.7c-.6-.1-1-.7-1.1-1.4a.9.9 0 0 1 1.1-.8l9.7 2.6c.7.1 1.2.7 1.2 1.4a.9.9 0 0 1-1.2.8z" id="Shape" fill="url(#linearGradient-30)"/><path d="M237.9 205l-21.8-5.8c-.6-.2-1-.7-1.1-1.4 0-.2.1-.5.3-.6.3-.2.5-.2.8-.1l21.8 5.7c.6.2 1 .7 1.1 1.4 0 .2-.1.5-.3.6-.3.2-.5.2-.8.1z" id="Shape" fill="url(#linearGradient-31)"/><path d="M261.9 232L216 219.2c-.6-.2-1-.7-1.1-1.4 0-.3.1-.6.3-.7.3-.2.5-.2.8-.1l45.8 12.6c.6.2 1 .7 1.1 1.4 0 .3-.1.6-.3.7-.3.2-.5.2-.8.1z" id="Shape" fill="url(#linearGradient-32)"/><path id="Shape" fill="#CBCBCB" d="M231 150.2l-16-4.2v3.8l16 4.2zM422 140.2l-16-4.2v3.8l16 4.2zM231 171.2l-16-4.2v3.8l16 4.2zM231 192.2l-16-4.2v3.8l16 4.2zM231 213.2l-16-4.2v3.8l16 4.2z"/><path d="M286.5 241c-.3 0-.5-.3-.5-.6v-74.8c0-.3.2-.6.5-.6s.5.3.5.6v74.8c0 .3-.2.6-.5.6z" id="Shape" fill="#C9D1D6"/><path id="Shape" fill="#CBCBCB" d="M325 207l4 1v-4l-4-1zM334 209l4 1v-4l-4-1z"/><path id="Shape" fill="url(#linearGradient-33)" d="M344 212l4 1v-4l-4-1z"/><path id="Shape" fill="url(#linearGradient-34)" d="M353 214l4 1v-4l-4-1z"/><path id="Shape" fill="#CBCBCB" d="M298 210l4 1v-4l-4-1zM307 213l4 1v-4l-4-1zM316 215l4 1v-4l-4-1zM325 217l4 1v-4l-4-1zM334 220l4 1v-4l-4-1z"/><path id="Shape" fill="url(#linearGradient-35)" d="M344 222l4 1v-4l-4-1z"/><path id="Shape" fill="url(#linearGradient-36)" d="M353 225l4 1v-4l-4-1z"/><path id="Shape" fill="#CBCBCB" d="M298 221l4 1v-4l-4-1z"/><path id="Shape" fill="url(#linearGradient-37)" d="M307 223l4 1v-4l-4-1z"/><path id="Shape" fill="#CBCBCB" d="M316 225l4 1v-4l-4-1zM325 228l4 1v-4l-4-1zM334 230l4 1v-4l-4-1z"/><path id="Shape" fill="url(#linearGradient-35)" d="M344 233l4 1v-4l-4-1z"/><path id="Shape" fill="url(#linearGradient-36)" d="M353 235l4 1v-4l-4-1z"/><path id="Shape" fill="#CBCBCB" d="M298 231l4 1v-4l-4-1zM307 233l4 1v-4l-4-1zM316 236l4 1v-4l-4-1zM325 238l4 1v-4l-4-1zM334 241l4 1v-4l-4-1z"/><path id="Shape" fill="url(#linearGradient-35)" d="M344 243l4 1v-4l-4-1z"/><path id="Shape" fill="url(#linearGradient-34)" d="M353 246l4 1v-4l-4-1z"/><path id="Shape" fill="#CBCBCB" d="M298 242l4 1v-4l-4-1zM307 244l4 1v-4l-4-1zM316 246l4 1v-4l-4-1zM325 249l4 1v-4l-4-1zM334 251l4 1v-4l-4-1zM315 172.7l-17-4.7v2.3l17 4.7zM315 178.7l-17-4.7v2.3l17 4.7zM304 181.7l-6-1.7v2.3l6 1.7z"/><path id="Shape" fill="#4D88FF" d="M262 161.2l-.7-.3v1.1l-.6-.2v-1l-.7-.3v-.7l.7.3V159l.6.2v1l.7.3zM266 162c0 .3-.1.6-.4.8-.3.2-.7.3-1 .1-1.1-.2-1.6-1.1-1.6-2.2s.7-1.9 1.7-1.7c.5.2.9.4 1.1.7l-.3.6c-.2-.3-.5-.5-.8-.5-.5-.2-.8.2-.9.8.3-.2.6-.2 1-.1.7.2 1.2.8 1.2 1.5zm-.8-.2c0-.4-.3-.7-.7-.7h-.4c-.2 0-.3.1-.3.3 0 .4.3.7.7.8h.5l.2-.4zM266 163l.5-.4c.2.3.6.5 1 .6.4.1.7 0 .7-.3 0-.4-.3-.7-.7-.7h-.7l-.6-.3V160l2.6.6v.6l-1.8-.3v.8c.2-.1.5-.2.7-.1.8.2 1.3.8 1.3 1.4 0 .3-.1.6-.4.8-.4.2-.8.3-1.1.1-.6-.1-1.2-.4-1.5-.9zM271 161.9c0-.6.4-1 .9-.9.6.2 1 .8.9 1.3 0 .7-.4 1-1 .9-.5-.2-.8-.7-.8-1.3zm3-.3l.5.2-2.5 3.5-.5-.1 2.5-3.6zm-1.7.6c0-.3-.1-.6-.4-.7-.2 0-.4.1-.4.5 0 .3.1.5.4.7.2 0 .4-.1.4-.5zm.9 2.4c0-.6.4-1 .9-.8.6.2 1 .7.9 1.3 0 .6-.4 1-.9.9-.6-.2-1-.8-1-1.4h.1zm1.3.4c0-.3-.1-.6-.4-.7-.2 0-.4.1-.4.4 0 .3.1.6.4.7.2 0 .4-.1.4-.4zM262 182.2l-.7-.3v1.1l-.6-.2v-1l-.7-.3v-.7l.7.3V180l.6.2v1l.7.3zM264 181l-.6.2-.4-.7 1.3-.5.7.2v3.8l-1-.2zM268 183.3c0 1.2-.7 1.9-1.7 1.7-.5-.2-.9-.4-1.1-.7l.3-.6c.2.3.5.4.8.5.5.1.8-.2.9-.8-.3.2-.6.2-1 .1-.7-.2-1.2-.8-1.2-1.5 0-.3.1-.6.4-.8.3-.2.7-.3 1-.1 1.1.2 1.6 1.1 1.6 2.2zm-.8-.7c-.1-.4-.3-.7-.7-.8h-.5l-.2.4c0 .4.3.7.7.7.3.1.6 0 .7-.3zM270 182.9c0-.6.4-1 1-.9.5.2.8.8.8 1.4 0 .6-.4 1-.9.8-.6-.2-1-.7-.9-1.3zm3-.3l.5.2-2.5 3.5-.5-.1 2.5-3.6zm-1.7.6c0-.3-.1-.6-.4-.7-.2 0-.4.1-.4.5 0 .3.1.6.4.7.2 0 .4-.1.4-.5zm.9 2.4c0-.6.4-1 .9-.8.6.2 1 .7.9 1.3 0 .6-.4 1-.9.9-.6-.2-1-.8-.9-1.4zm1.3.4c0-.3-.1-.6-.4-.7-.2 0-.4.1-.4.5 0 .2.1.5.4.6.2.1.4 0 .4-.4zM442 120.8l1.5-1.8.9.2v2.3l.6.2v.6l-.6-.1v.8l-.7-.2v-.8l-1.7-.4v-.8zm1.7-1l-1.1 1.3 1.1.3v-1.7zM445.4 121.5c0 .4.3.7.6.9.3 0 .5-.1.5-.5s-.2-.8-.5-.9l-.5.1-.4-.4.3-1.7 1.4.5v.6l-1-.4-.2.9c.1-.2.3-.2.5-.1.5.2 1 .8.9 1.5 0 .3 0 .6-.3.8-.2.2-.5.3-.7.1-.5-.1-1-.7-1-1.4h.4zM262 203.2l-.7-.3v1.1l-.6-.2v-1l-.7-.3v-.7l.7.3V201l.6.2v1l.7.3zM263 205l.5-.5c.2.4.6.6 1 .7.4.1.6 0 .6-.3 0-.2-.2-.5-.7-.6h-.4v-.8l.4.1c.5.1.7 0 .7-.2 0-.3-.3-.6-.6-.6a1 1 0 0 0-1 .2l-.4-.6c.4-.4 1-.5 1.4-.3.8 0 1.4.6 1.4 1.3 0 .2 0 .3-.2.5l-.5.2c.5.2.8.6.8 1 0 .7-.6 1-1.4.8-.7-.1-1.3-.5-1.6-1zM266 204.5c0-.4.3-.7.7-.7-.4-.3-.6-.6-.6-1 0-.7.7-1 1.4-.7.8.1 1.3.6 1.4 1.3 0 .4-.2.7-.7.7.5.3.8.7.8 1.1 0 .7-.7 1-1.5.7-.8-.1-1.4-.7-1.5-1.4zm2.2.4c0-.3-.3-.5-.7-.6-.3-.1-.7 0-.7.3s.3.6.7.7c.4 0 .7 0 .7-.4zm0-1.6c0-.3-.3-.5-.7-.6-.3 0-.6 0-.6.3s.3.6.6.6c.3.1.7 0 .7-.3zM270 203.9c0-.6.4-1 .9-.9.6.2 1 .8.9 1.4 0 .6-.4 1-1 .8-.5-.2-.8-.7-.8-1.3zm3-.3l.5.2-2.5 3.5-.5-.1 2.5-3.6zm-1.7.6c0-.3-.1-.5-.4-.6-.2 0-.4 0-.4.4 0 .3.1.6.4.7.2 0 .4-.1.4-.5zm.9 2.4c0-.6.4-1 .9-.8.6.2 1 .7.9 1.3 0 .6-.4 1-.9.9-.6-.2-1-.8-.9-1.4zm1.3.4c0-.3-.1-.6-.4-.7-.2 0-.4.1-.4.5 0 .2.1.5.4.6.2 0 .4 0 .4-.4zM262 225.2l-.7-.3v1.1l-.6-.2v-1l-.7-.3v-.7l.7.3V223l.6.2v1l.7.3zM263 225.5c0-.4.3-.7.7-.7-.3-.3-.6-.6-.6-1 0-.7.7-1 1.4-.7.8 0 1.3.6 1.4 1.3 0 .4-.2.7-.6.7.4.3.7.7.7 1.1 0 .7-.7 1-1.5.7-.8-.1-1.4-.7-1.5-1.4zm2.2.4c0-.3-.4-.5-.7-.6-.3-.1-.7 0-.7.3s.3.6.7.7c.4 0 .7 0 .7-.4zm0-1.6c0-.3-.3-.5-.7-.6-.3 0-.6 0-.6.3s.3.5.6.6c.3.1.7 0 .7-.3z"/><path d="M266 225.6c0-1.1.6-1.8 1.5-1.6 1 .4 1.6 1.4 1.5 2.4 0 1.1-.6 1.8-1.5 1.6-1-.4-1.6-1.4-1.5-2.4zm2.3.6c0-.7-.4-1.3-.8-1.4-.5-.1-.8.3-.8 1s.3 1.3.8 1.4c.4.1.8-.3.8-1zM271 225.9c0-.6.4-1 .9-.9.6.2 1 .8.9 1.4 0 .6-.4 1-1 .8-.5-.2-.8-.7-.8-1.3zm3-.3l.5.2-2.5 3.5-.5-.1 2.5-3.6zm-1.7.6c0-.3-.1-.5-.4-.6-.2 0-.4 0-.4.4 0 .3.1.6.4.7.2 0 .4-.1.4-.5zm.9 2.4c0-.6.4-1 .9-.8.6.2 1 .7.9 1.3 0 .6-.4 1-.9.9-.6-.2-1-.8-.9-1.4zm1.3.4c0-.3-.1-.6-.4-.7-.2 0-.4.1-.4.5 0 .2.1.5.4.6.2 0 .4 0 .4-.4z" id="Shape" fill="#4D88FF"/><path id="Shape" fill="#CBCBCB" d="M405 197.8l-17-4.8v4.2l17 4.8z"/><path id="Shape" fill="#F2F2F2" d="M390 267l-2-.5V210l2 .5zM406 271l-2-.5V214l2 .5zM422 275l-2-.5V218l2 .5zM438 280l-2-.5V223l2 .5zM454 284l-2-.5V227l2 .5z"/><path d="M388 226.1v-10c0-.4.2-.7.5-.9.3-.2.6-.3 1-.1a2 2 0 0 1 1.5 1.8v10c0 .4-.2.7-.5.9-.3.2-.7.3-1 .1a2 2 0 0 1-1.5-1.8z" id="Shape" fill="url(#linearGradient-38)"/><path d="M404 256.1v-19c0-.3.2-.7.5-.9.3-.2.7-.3 1-.1a2 2 0 0 1 1.5 1.8v19c0 .3-.2.7-.5.9-.3.2-.6.3-1 .1a2 2 0 0 1-1.5-1.8z" id="Shape" fill="url(#linearGradient-39)"/><path d="M436 250v-13.9c0-.3.2-.7.5-.9.3-.2.6-.3 1-.1a2 2 0 0 1 1.5 1.8v14c0 .3-.2.7-.5.9-.3.2-.7.3-1 .1a2 2 0 0 1-1.5-1.8z" id="Shape" fill="url(#linearGradient-40)"/><path d="M452 255v-5.8a1.1 1.1 0 0 1 1.5-1.1 2 2 0 0 1 1.5 1.9v5.8a1.1 1.1 0 0 1-1.5 1.1 2 2 0 0 1-1.5-1.9z" id="Shape" fill="url(#linearGradient-41)"/><path d="M420 264.1v-38c0-.3.2-.7.5-.9.3-.2.7-.3 1-.1a2 2 0 0 1 1.5 1.8v38c0 .3-.2.7-.5.9-.3.2-.7.3-1 .1a2 2 0 0 1-1.5-1.8z" id="Shape" fill="url(#linearGradient-42)"/><path id="Shape" fill="#F9346C" d="M296.9 63.4L298 67l1.1-3 2.9.8v-6.6l-8-2.2v6.6z"/><path id="Shape" fill="#4D88FF" d="M373.9 117.4l1.1 3.6 1.1-3 2.9.8v-6.6l-8-2.2v6.6z"/><path d="M517.4 414c4.8 6.4 2.5 11.8-3.1 15.2-6 3.6-19.5 15.6-24 12.2-1.6-1.2 2.7-3.7 4.8-6.5 3.8-5 7.6-11 8.4-13.6l2.4-7.3h11.5z" id="Shape" fill="#DAE3E8"/><path d="M502.3 436c1.1 6.4 1.6 12.1-3.9 15.8-6 4-20.5 13.6-26.8 7-3.9-4 13-10.3 14.3-14.4a14 14 0 0 0 .1-7.7l16.3-.7z" id="Shape" fill="#DAE3E8"/><path d="M491.5 146.6c-2.7 11.2 6-15.7 20.3-1.2 7.2 7.2 11.9 4 12.2 15.8.3 11.9 6.6 8.5 8.6 18.2 2 9.8-3.4 8.9-2.3 15.3s7.5 8.2 6.2 17.4c-.9 6-4.2 7-5.7 13.4-3 11.8 3.8 13.1 6.6 24.6 4.2 17-15.6 32.5-27.3 15.6-11.6-17 0-56.4 0-56.4l-18.6-62.7z" id="Shape" fill="url(#linearGradient-43)"/><path d="M464 271.7c.7 50.7-1.3 69.6 11 87.5 10.7 15.6 26.7 67.8 26.7 67.8l22.3-11.9s-22-68.4-21-83.9c.9-15.5-15.4-71.5-15.4-71.5L464.8 247s-.9 18.5-.8 24.7z" id="Shape" fill="url(#linearGradient-44)"/><path d="M473.8 257.6c1.7 26.5-5.6 85-3.4 103.3L481 441l25.2-1.8s-1.4-63.7-3.9-79c-1-6.6 13.2-46.2 13.7-64.7.8-28.2-7.5-25.2-6.9-44.4.6-19.2-35.2 6.5-35.2 6.5z" id="Shape" fill="url(#linearGradient-45)"/><path d="M481 184.3c7.6 1.7 10.7 2 12.1-.9 1.5-2.8-2.4-6.4-2.4-6.4s9.2 1.8 16.5 2.4c0 0-2 10.4.7 12.9 2.6 2.5 10.1 7 10.1 7l-11 5.7-25.8-9-.2-11.7zM465.2 210c.1-6-.3-6.6-1.9-6.7-1.6-.2-34.1-6.4-36.7-10.9-2.6-4.4-19-42.3-20.9-44-1.9-1.7-6.8-7.8-6.7-9.9.1-2.3 3.5 2.7 4.8 2.8l-2-7.6c-1-5.5 3.1-10.8 7-2 1.7 3.7 3 5.6 3 13.1.1 4.8 22.6 40.3 22.6 40.3L475 183l1 18.8-10.8 8.2z" id="Shape" fill="#FF9B75"/><path d="M475.3 182c-.9 12.7-9.5 25-10.8 27.2-1.3 2.1-2.2 30.7-2.5 40.3-.3 9.6 10.3 12.1 21.1 7.9 10.8-4.2 24.5 9 31.5 1 7.1-8 19.2-48 10.2-56l-6.1-3.9s-22.4 1.9-31.6-5.7c-4.6-3.7-5.8-9.3-5.8-9.3l-6-1.5z" id="Shape" fill="#FFF"/><path d="M474 241a1 1 0 1 0-2 0 1 1 0 0 0 2 0z" id="Shape" fill="#1AD3FF" opacity=".2"/><path id="Shape" fill="#2B0073" d="M448 215l12.3 45.4L488 272l-10.1-43.7z"/><path d="M522.6 228.3c3.5-7.8 2.5-23.6 1.2-24 0 0-1.4-2-8 4a32.5 32.5 0 0 0-8.2 15.4s-7.7 26.9-10.9 25.9c-19-6-32.2-6.7-34.7-9.7-2.5-3-6.4-2-8-3.5l-1.6-6a12 12 0 0 0-2.5 2.1c-3.1 3.6 2.5 14.5 6.8 15.9 4.5 1.4 5.6.2 8.2 1.5 12.4 5.8 34.2 13.9 37.8 13 10.4-2.4 20-34.6 20-34.6z" id="Shape" fill="#FF9B75"/><path d="M458 238.4c-1.3-2.5-2.7-6.2-1.7-7.2 1-1 2.1 2 3.9 4.6 1.7 2.5 4.8 6.2 4.8 6.2l-7-3.6z" id="Shape" fill="#FF9B75"/><path d="M484 203a1 1 0 1 0-2 0 1 1 0 0 0 2 0zM478 211a1 1 0 1 0-2 0 1 1 0 0 0 2 0zM475 221a1 1 0 1 0-2 0 1 1 0 0 0 2 0z" id="Shape" fill="#CBCBCB"/><path d="M488.4 152.3a12 12 0 0 0-1.9 8.3c.1 1.1.6 3.2-.6 5.3-1.8 3.2-.4 3 .2 4.7.5 1.8-1 7 3.2 9 4.1 2 13.5 1.5 16.7.6 3.3-.9 12.7-9.7 10.7-22.4-1.7-11.1-19.4-19.4-28.3-5.5z" id="Shape" fill="#FF9B75"/><path d="M495.2 145c-7.8 1.3-10 4.2-10.2 10.3-.1 6.2 7.8 5 13.1 7.6 2.8 1.3 2.9 4.1 4.4 5.3 3.4 2.8 3.8 12.8 3.8 12.8l8.7-.6 6-22.6-11.5-12.2-14.3-.6z" id="Shape" fill="url(#linearGradient-46)"/><path d="M500 166.9c3.6-3.8 6.5-3.5 7.7-1.1 1.5 2.8-3.7 5.2-3.7 5.2l-4-4.1z" id="Shape" fill="#FF9B75"/><path id="Shape" fill="#2B0073" d="M407 151l1.3 3 5.7-3-1.4-3z"/><path d="M413.8 148.9c.4 1.4.2 2.7-.5 3-.7.4-1.6-.5-2-1.8-.5-1.4-.3-2.7.4-3 .7-.4 1.7.5 2 1.8z" id="Shape" fill="#4D88FF"/><path d="M478.6 453c-.2 0-.3 0-.4-.2-1.2-1-2.6-3-2-4.3.2-.5.9-.8 1.5-.7 1.1.3 2.2.6 3.3 1.1 1.5.6 4.7 1.8 5.5 1.6a3 3 0 0 0-.5-.9c-2.2-3.3-3-4.5-2.4-5.3.5-.6 1.4-.4 4 .7a.6.6 0 1 1-.5 1.1l-2.4-.9a31 31 0 0 0 2.3 3.7c.5.7 1 1.6.5 2.3-.8 1-3.1.2-7-1.2a21.3 21.3 0 0 0-3.3-1c-.1.3.5 1.8 1.8 3a.6.6 0 0 1-.4 1zM511.4 284l-.4-.1c-.6-.5-15.7-11.1-18.9-15.9a.6.6 0 0 1 .2-.9c.3-.2.6-.1.8.2 3.1 4.6 18.5 15.4 18.6 15.5.3.2.4.6.2 1l-.5.2z" id="Shape" fill="#14003C"/><path d="M477.6 226a.6.6 0 0 1-.6-.7c1.3-10.8 6-16.4 8.8-19.8.7-.7 1.3-1.6 1.9-2.5.8-1.5-2.4-5-5-7.8-1.7-2-3.4-3.8-4.2-5.3-.1-.3 0-.7.3-.8.1-.1.3-.1.4 0 .2 0 .3 0 .4.2.7 1.4 2.3 3.2 4 5 3.2 3.6 6.3 7 5.1 9.3-.5 1-1.2 2-2 2.8-2.7 3.2-7.3 8.7-8.5 19 0 .4-.3.6-.6.6z" id="Shape" fill="#C9D1D6"/><path d="M57.6 412a13 13 0 0 1-3.3-.5L10.8 400a3.8 3.8 0 0 1 0-7.4l36.6-9.7c6-1.6 12.2-1.6 18.1 0h.3v-23.9c0-7-4.7-13-11.5-14.9l-36.1-9.7a7.2 7.2 0 0 1-.3-13.8l39.8-12.4c.5-.2 1-.1 1.5 0l48.5 21.2a20 20 0 0 1 14.3 19.1v37.3a12.6 12.6 0 0 1-16 12.1l-35.8-9.4v11c0 7-5.7 12.6-12.6 12.6zM14 396.2l41.4 11.1a8.2 8.2 0 0 0 10.4-8v-12l-1.4-.4a31.2 31.2 0 0 0-15.9 0L14 396.3zM70 384l37 9.7a8.2 8.2 0 0 0 10.4-8l.1-37.2a15.5 15.5 0 0 0-11.5-15l-47.9-20.9-39 12.2a2.8 2.8 0 0 0 .1 5.4l36.1 9.7a19.9 19.9 0 0 1 14.7 19.1v25z" id="Shape" fill="#DAE3E8"/><path d="M92.6 305.7c-13-3.5-25.4-6.3-23-21.5 0 0 2.7-19.6 3.1-26 .7-12-5-47.9-5-47.9-1-5.5-3.3-7.3-5.7-8.8l-3.8-1.5L15 210.5 8.6 217l1 31.8 4.2 31L8 305l5.8 17.6L62.2 337l57.9-15.8a4 4 0 0 0 0-7.8l-27.5-7.7z" id="Shape" fill="#FFF"/><path id="Shape" fill="url(#linearGradient-47)" d="M118 336l-1 .5z"/><path d="M123 329.6V320l-3 .8-4 15.2 1.3-.4 1.2-.3a6 6 0 0 0 4.5-5.7z" id="Shape" fill="url(#linearGradient-48)"/><path d="M120 321l-38.3 10.4a50.9 50.9 0 0 1-26.4 0l-29.4-8a20.5 20.5 0 0 1-14.5-23.8c1.2-6.4 2.8-19.6 3.1-26 .7-12-5-48-5-48-1.3-6.7 3-13.4 9.7-15.2l35.5-9.6c3-.8 6.2-.2 8.7 1.6a13 13 0 0 0-12.1-3l-4 1.1-29.7 8c-7 1.9-12.8 9.4-12.8 16.7 0 0 4.4 35.3 2.7 46.9-.9 6-4 17.8-5.9 23.6a31.3 31.3 0 0 0 20.9 40.5l32.7 9c8.7 2.4 17.9 2.4 26.6 0l35.6-9.5 1.2-.3a6 6 0 0 0 4.4-5.7v-12.5a4 4 0 0 1-3 3.9z" id="Shape" fill="#DAE3E8"/><path d="M78 213.6l-2-1.6c0 1 0 2.1.4 3.1L78 218v-4.4z" id="Shape" fill="#C2DDE1"/><path d="M174.3 439.7c-6.8 4.3-33 1.3-33 1.3-13.9-.2-15.8-1-17-6.5-.3-2-.4-3.9-.3-5.8.1-2.1.4-3.7.4-3.7l20.3 1.6s18 4.5 22.4 5.4c10.5 2.1 12.2 4.5 7.2 7.7z" id="Shape" fill="#2B0073"/><path d="M141.3 422.1c2.6 2.8 6.5 4.3 5.5 4.6-3.4.7-21.7.5-21.4-4.2.5-9.9-2.3-10-2.4-9.2l18.3 8.8z" id="Shape" fill="#FFF"/><path d="M121.7 420c-9.6 0-41.8-17.5-38.5-27.5 1.3-3.9 8.6-7.5 8.6-7.5l13.4 12.9s10 12 14.4 13.4c4.2 1.4 19.8 8.8 2.1 8.7z" id="Shape" fill="#2B0073"/><path d="M106.3 388.5c-4 5.7-.1 10.2.5 11 2.5 3.2-18.9-10-14.1-14.5l3.9-3 9.7 6.5z" id="Shape" fill="#FFF"/><path d="M86 179.9c-1.6 7.4-.2 14.3-2 20.7-1 3.9-1 7.8-7.5 7.4-4.3-.3-9.5-.7-14.2-5.8-2.8-3.2-8.8-9.4-2.5-18.3 6.3-9 24.5-9.9 24.5-9.9l1.7 5.9z" id="Shape" fill="#FF9B75"/><path d="M78.9 206s-1.6 8.1 0 12.1c1 2.8-4.8 10.4-14.8 7-10.1-3.4-6.4-14.3-6.4-14.3l5.6-9.8 15.6 5z" id="Shape" fill="#FF9B75"/><path d="M84.9 173.2c6.6 0 4.4 9.6-.6 9.3-8.9-.5-9 7-15.5 8.3-7.3 1.5-6 12.3-6 12.3s-3 5.3-4.7 3.6c-1.8-1.8-7.6-13.1-8-19.9-.3-3.1.9-6.9 2.8-10 .7-1.2 1.6-.8 1.7-1.2 1-5.7 6.8-7.5 14.3-7.6 9.7-.2 8.8 5 16 5.2z" id="Shape" fill="#2B0073"/><path d="M76.6 283c18.4 4.5 60.6 10.9 65 24.8 4.3 13.9-22.6 72-30.8 83.2 0 0-10.3-6-18-9.8l18.7-59L54 295.8l7.1-19.7s10.5 5.7 15.5 7z" id="Shape" fill="url(#linearGradient-49)"/><path d="M63 295.6s53.4 18.9 60 27c6.6 8 20 100 20 100l-23.9 3.4s-20.7-71.5-22-77.5C94 335 52 329 39.7 323.8 27.4 318.6 26 308.6 26 308.6L55.2 295l7.8.6z" id="Shape" fill="url(#linearGradient-50)"/><path d="M64 195c-1.4-3.5-3.3-3.8-4.7-1.6-1.4 2.1 2.4 7.6 2.4 7.6l2.3-6z" id="Shape" fill="#FF9B75"/><path d="M79.7 217l3.2 2.8s-8.2 25.2-5.3 43c3 17.6 13.6 23.2 2.3 31.7s-13.6.1-20.7 3.1c-7 3-13.4 3-22.3 1-9-2 16.6-81.6 16.6-81.6l14.7 7.9 11.5-7.9z" id="Shape" fill="#FFF"/><path d="M70 227l.9-4 4.1 8-5-4zM65 223l-.6 4.3L57 230z" id="Shape" fill="#C2DDE1"/><path d="M71 224.4c-.4-.6-1.5-1.5-2-1.4-3.4 1-4.2-.2-5.3.6-1 .7-.7 3.7-.1 5 .2.4.3.6.5.7 1.7.4 3.7 1 4.1.5.9-.7 3.3-4.5 2.7-5.4z" id="Shape" fill="#F9346C"/><path d="M66 223.1l-8.6 6.9s-2.4-2.4-4.2-7.5c-2.7-7.5 0-12.5 0-12.5l4.5-2 2.8 6.5c2.8 6.4 5.5 8.6 5.5 8.6zM71 222.6l4.2 7.4s7.3-8.2 6.8-12.3l-3.3-3.7c.6 3.6-4 6.5-7.7 8.6z" id="Shape" fill="#FFF"/><path d="M76 229.4c-4.2 12.4-7.8 29.4-5 42.5 2.7 13.3 33 29.1 33 29.1s-7.1-12.4-11.8-15.6C88.6 283 81 283.5 81 263.5c0-12.2 7.3-31.7 7.3-31.7l-2.5-10.5-5.2-4.3s-3.7 9.4-4.7 12.4z" id="Shape" fill="url(#linearGradient-51)"/><path d="M55 234c-2.4 45.2-11.7 109-11.7 109s-26.1-11.4-28.9-23c-2.7-11.8 8.2-86.1 17.7-98.2 9.5-12 21-12.8 21-12.8s2.3 16 1.8 25z" id="Shape" fill="url(#linearGradient-52)"/><path d="M64.5 229c-2.4 5.7-7.1 29-5 48.3l6.2 6.7c-.1-.4 3.3-10 3.3-10s-4-21.7-.6-43.7l-4-1.3z" id="Shape" fill="#F9346C"/><path d="M201 393c2 9 5.5 17 27.6 8.3 13.2-5.2 26-11.3 38.4-18.3l19-12.7s-3-3.2-10.5-6-14.4-.7-24.5 2-41.2 9.8-41.2 9.8L201 393z" id="Shape" fill="url(#linearGradient-53)"/><path d="M413.4 323l-231-62.3c-3.8-1-7.7-1-11.4 0L39 296.3l-8-2.7v7.4c0 1.5 1 2.8 2.4 3.1l238 64.2c3.8 1 7.7 1 11.4 0L423 330.5a2.5 2.5 0 0 0 1.9-2.5v-7.3l-11.6 2.3z" id="Shape" fill="#DAE3E8"/><path d="M271.5 361.3L33.5 297a3.3 3.3 0 0 1 0-6.3l137.5-37c3.7-1 7.6-1 11.3 0l240.8 64.8a2.5 2.5 0 0 1 0 4.9l-140.3 37.8c-3.7 1-7.6 1-11.3 0z" id="Shape" fill="#FFF"/><path d="M189 287v-3l-2.4 1-30.6-8.3a19 19 0 0 0-9.9 0l-50.9 13.8h-.1l-1.1-1.3v2.8c0 .8.5 1.5 1.2 1.7l31.8 8.6c3.3 1 6.7 1 9.9 0l50.9-13.8c.6-.1 1.1-.7 1.2-1.4z" id="Shape" fill="#DAE3E8"/><path d="M95.2 290l31.5 8.4c3.2.8 6.5.8 9.7 0l50.4-13.4c.7-.2 1.2-.8 1.2-1.5s-.5-1.3-1.2-1.5l-31.5-8.4a19 19 0 0 0-9.7 0L95.2 287c-.7.2-1.2.8-1.2 1.5s.5 1.3 1.2 1.5z" id="Shape" fill="#FFF"/><path d="M125.9 298l-.5-.2c-.5 0-.5-.2-.1-.3l1.6-.4h1.7c.5.2.5.3.1.4l-1.6.4H126z" id="Shape" fill="url(#linearGradient-54)"/><path d="M129.9 297l-.5-.2c-.5 0-.5-.2-.1-.3l1.6-.4h1.7c.5.2.5.3.1.4l-1.6.4H130z" id="Shape" fill="url(#linearGradient-55)"/><path d="M133.9 296l-.5-.2c-.5 0-.5-.2-.1-.3l1.6-.4h1.7c.5.2.5.3.1.4l-1.6.4H134z" id="Shape" fill="url(#linearGradient-56)"/><path d="M137.9 295l-.5-.2c-.5 0-.5-.2-.1-.3l1.6-.4h1.7c.5.2.5.3.1.4l-1.6.4H138z" id="Shape" fill="url(#linearGradient-57)"/><path d="M140.9 294l-.5-.2c-.5 0-.5-.2-.1-.3l1.6-.4h1.7c.5.2.5.3.1.4l-1.6.4H141z" id="Shape" fill="url(#linearGradient-58)"/><path d="M144.9 293l-.5-.2c-.5 0-.5-.2-.1-.3l1.6-.4h1.7c.5.2.5.3.1.4l-1.6.4H145z" id="Shape" fill="url(#linearGradient-59)"/><path d="M148.9 292l-.5-.2c-.5 0-.5-.2-.1-.3l1.6-.4h1.7c.5.2.5.3.1.4l-1.6.4H149z" id="Shape" fill="url(#linearGradient-60)"/><path d="M152.9 291l-.5-.2c-.5 0-.5-.2-.1-.3l1.6-.4h1.7c.5.2.5.3.1.4l-1.6.4H153z" id="Shape" fill="url(#linearGradient-61)"/><path d="M155.9 290l-.5-.2c-.5 0-.5-.2-.1-.3l1.6-.4h1.7c.5.2.5.3.1.4l-1.6.4H156z" id="Shape" fill="url(#linearGradient-62)"/><path d="M159.9 289l-.5-.2c-.5 0-.5-.2-.1-.3l1.6-.4h1.7c.5.2.5.3.1.4l-1.6.4H160z" id="Shape" fill="url(#linearGradient-63)"/><path d="M163.9 288l-.5-.2c-.5 0-.5-.2-.1-.3l1.6-.4h1.7c.5.2.5.3.1.4l-1.6.4H164z" id="Shape" fill="url(#linearGradient-64)"/><path d="M167.9 287l-.5-.2c-.5 0-.5-.2-.1-.3l1.6-.4h1.7c.5.2.5.3.1.4l-1.6.5H168z" id="Shape" fill="url(#linearGradient-65)"/><path d="M170.9 286l-.5-.2c-.5 0-.5-.2-.1-.3l1.6-.4h1.7c.5.2.5.3.1.4l-1.6.4H171z" id="Shape" fill="url(#linearGradient-66)"/><path d="M174.9 285l-.5-.2c-.5 0-.5-.2-.1-.3l1.6-.4h1.7c.5.2.5.3.1.4l-1.6.4H175z" id="Shape" fill="url(#linearGradient-67)"/><path d="M123.6 297l-2.1-.4c-.6 0-.7-.2-.2-.3l1.8-.3h1.3l2.1.4c.6 0 .7.2.2.3l-1.8.3h-1.3z" id="Shape" fill="url(#linearGradient-68)"/><path d="M127.6 297l-2.1-.7c-.6-.2-.7-.4-.2-.6l1.8-.6h1.3l2.1.6c.6.2.7.4.2.6l-1.8.6h-1.3z" id="Shape" fill="url(#linearGradient-69)"/><path d="M130.6 296l-2.1-.7c-.6-.2-.7-.4-.2-.6l1.8-.6a3 3 0 0 1 1.3 0l2.1.6c.6.2.7.4.2.6l-1.8.6a3 3 0 0 1-1.3 0z" id="Shape" fill="url(#linearGradient-70)"/><path d="M134.6 295l-2.1-.8c-.6-.1-.7-.3-.2-.5l1.8-.6a3 3 0 0 1 1.3 0l2.1.7c.6.1.7.3.2.5l-1.8.6h-1.3z" id="Shape" fill="url(#linearGradient-71)"/><path d="M138.6 294l-2.1-.7c-.6-.2-.7-.4-.2-.6l1.8-.6h1.3l2.1.6c.6.2.7.4.2.6l-1.8.6h-1.3z" id="Shape" fill="url(#linearGradient-72)"/><path d="M142.6 293l-2.1-.8c-.6-.1-.7-.4-.2-.5l1.8-.6h1.3l2.1.6c.6.2.7.4.2.6l-1.8.6h-1.3z" id="Shape" fill="url(#linearGradient-73)"/><path d="M145.6 292l-2.1-.7c-.6-.2-.7-.4-.2-.6l1.8-.6h1.3l2.1.6c.6.2.7.4.2.6l-1.8.6a3 3 0 0 1-1.3 0z" id="Shape" fill="url(#linearGradient-74)"/><path d="M149.6 291l-2.1-.7c-.6-.2-.7-.4-.2-.6l1.8-.6a3 3 0 0 1 1.3 0l2.1.6c.6.2.7.4.2.6l-1.8.6a3 3 0 0 1-1.3 0z" id="Shape" fill="url(#linearGradient-75)"/><path d="M153.6 290l-2.1-.8c-.6-.1-.7-.3-.2-.5l1.8-.6a3 3 0 0 1 1.3 0l2.1.7c.6.1.7.3.2.5l-1.8.6h-1.3z" id="Shape" fill="url(#linearGradient-76)"/><path d="M157.6 289l-2.1-.7c-.6-.2-.7-.4-.2-.6l1.8-.6h1.3l2.1.6c.6.2.7.4.2.6l-1.8.6h-1.3z" id="Shape" fill="url(#linearGradient-77)"/><path d="M160.6 288l-2.1-.8c-.6-.1-.7-.4-.2-.5l1.8-.6h1.3l2.1.6c.6.2.7.4.2.6l-1.8.6h-1.3z" id="Shape" fill="url(#linearGradient-78)"/><path d="M164.6 287l-2.1-.7c-.6-.2-.7-.4-.2-.6l1.8-.6h1.3l2.1.6c.6.2.7.4.2.6l-1.8.6a3 3 0 0 1-1.3 0z" id="Shape" fill="url(#linearGradient-79)"/><path d="M168.6 286l-2.1-.7c-.6-.1-.7-.3-.2-.5l5.7-1.7h1.4l2.1.6c.6.1.7.3.2.5l-5.7 1.7h-1.4z" id="Shape" fill="url(#linearGradient-80)"/><path d="M118.5 296l-2-.6c-.6-.2-.7-.3-.2-.5l3-.8h1.2l2 .5c.6.2.7.3.2.5l-3 .8h-1.2z" id="Shape" fill="url(#linearGradient-81)"/><path d="M123.6 295l-2.1-.8c-.6-.1-.7-.4-.2-.5l1.8-.6h1.3l2.1.6c.6.2.7.4.2.6l-1.8.6h-1.3z" id="Shape" fill="url(#linearGradient-82)"/><path d="M127.6 294l-2.1-.7c-.6-.2-.7-.4-.2-.6l1.8-.6h1.3l2.1.6c.6.2.7.4.2.6l-1.8.6a3 3 0 0 1-1.3 0z" id="Shape" fill="url(#linearGradient-83)"/><path d="M131.6 293l-2.1-.7c-.6-.2-.7-.4-.2-.6l1.8-.6a3 3 0 0 1 1.3 0l2.1.6c.6.2.7.4.2.6l-1.8.6a3 3 0 0 1-1.3 0z" id="Shape" fill="url(#linearGradient-84)"/><path d="M135.6 292l-2.1-.8c-.6-.1-.7-.4-.2-.5l1.8-.6a3 3 0 0 1 1.3 0l2.1.7c.6.1.7.3.2.5l-1.8.6h-1.3z" id="Shape" fill="url(#linearGradient-85)"/><path d="M139.6 291l-2.1-.7c-.6-.2-.7-.4-.2-.6l1.8-.6h1.3l2.1.6c.6.2.7.4.2.6l-1.8.6h-1.3z" id="Shape" fill="url(#linearGradient-86)"/><path d="M142.6 290l-2.1-.8c-.6-.1-.7-.4-.2-.5l1.8-.6h1.3l2.1.6c.6.2.7.4.2.6l-1.8.6h-1.3z" id="Shape" fill="url(#linearGradient-87)"/><path d="M146.6 289l-2.1-.7c-.6-.2-.7-.4-.2-.6l1.8-.6h1.3l2.1.6c.6.2.7.4.2.6l-1.8.6a3 3 0 0 1-1.3 0z" id="Shape" fill="url(#linearGradient-88)"/><path d="M150.6 288l-2.1-.7c-.6-.2-.7-.4-.2-.6l1.8-.6a3 3 0 0 1 1.3 0l2.1.6c.6.2.7.4.2.6l-1.8.6a3 3 0 0 1-1.3 0z" id="Shape" fill="url(#linearGradient-89)"/><path d="M154.6 287l-2.1-.8c-.6-.1-.7-.4-.2-.5l1.8-.6h1.3l2.1.6c.6.2.7.4.2.6l-1.8.6h-1.3z" id="Shape" fill="url(#linearGradient-90)"/><path d="M157.6 286l-2.1-.7c-.6-.2-.7-.4-.2-.6l1.8-.6h1.3l2.1.6c.6.2.7.4.2.6l-1.8.6h-1.3z" id="Shape" fill="url(#linearGradient-91)"/><path d="M161.6 285l-2.1-.7c-.6-.2-.7-.4-.2-.6l1.8-.6a3 3 0 0 1 1.3 0l2.1.6c.6.2.7.4.2.6l-1.8.6a3 3 0 0 1-1.3 0z" id="Shape" fill="url(#linearGradient-92)"/><path d="M165.4 283l-2-.5c-.5-.1-.5-.3-.1-.4l4-1h1.3l2 .4c.5.1.5.3.1.4l-4 1a4 4 0 0 1-1.3 0z" id="Shape" fill="url(#linearGradient-93)"/><path d="M114.6 295l-2.1-.7c-.6-.1-.7-.3-.2-.5l5.8-1.7h1.3l2.1.6c.6.1.7.3.2.4L116 295h-1.4z" id="Shape" fill="url(#linearGradient-94)"/><path d="M122.6 293l-2.1-.7c-.6-.2-.7-.5-.2-.6l1.8-.6h1.3l2.1.6c.6.2.7.4.2.6l-1.8.6a3 3 0 0 1-1.3 0z" id="Shape" fill="url(#linearGradient-95)"/><path d="M125.6 292l-2.1-.8c-.6-.1-.7-.4-.2-.5l1.8-.6a3 3 0 0 1 1.3 0l2.1.7c.6.1.7.3.2.5l-1.8.6h-1.3z" id="Shape" fill="url(#linearGradient-96)"/><path d="M129.6 291l-2.1-.7c-.6-.2-.7-.4-.2-.6l1.8-.6a3 3 0 0 1 1.3 0l2.1.6c.6.2.7.4.2.6l-1.8.6h-1.3z" id="Shape" fill="url(#linearGradient-97)"/><path d="M133.6 290l-2.1-.8c-.6-.1-.7-.4-.2-.5l1.8-.6h1.3l2.1.6c.6.2.7.4.2.6l-1.8.6h-1.3z" id="Shape" fill="url(#linearGradient-98)"/><path d="M137.6 289l-2.1-.7c-.6-.2-.7-.4-.2-.6l1.8-.6h1.3l2.1.6c.6.2.7.4.2.6l-1.8.6a3 3 0 0 1-1.3 0z" id="Shape" fill="url(#linearGradient-99)"/><path d="M140.6 288l-2.1-.7c-.6-.2-.7-.4-.2-.6l1.8-.6a3 3 0 0 1 1.3 0l2.1.6c.6.2.7.4.2.6l-1.8.6a3 3 0 0 1-1.3 0z" id="Shape" fill="url(#linearGradient-100)"/><path d="M144.6 287l-2.1-.8c-.6-.1-.7-.4-.2-.5l1.8-.6a3 3 0 0 1 1.3 0l2.1.7c.6.1.7.3.2.5l-1.8.6h-1.3z" id="Shape" fill="url(#linearGradient-101)"/><path d="M148.6 286l-2.1-.7c-.6-.2-.7-.4-.2-.6l1.8-.6h1.3l2.1.6c.6.2.7.4.2.6l-1.8.6h-1.3z" id="Shape" fill="url(#linearGradient-102)"/><path d="M152.6 285l-2.1-.8c-.6-.1-.7-.4-.2-.5l1.8-.6h1.3l2.1.6c.6.2.7.4.2.6l-1.8.6h-1.3z" id="Shape" fill="url(#linearGradient-103)"/><path d="M155.6 284l-2.1-.7c-.6-.2-.7-.4-.2-.6l1.8-.6h1.3l2.1.6c.6.2.7.4.2.6l-1.8.6a3 3 0 0 1-1.3 0z" id="Shape" fill="url(#linearGradient-104)"/><path d="M159.4 282l-2-.5c-.5 0-.5-.2-.1-.3l5-1.2h1.3l2 .5c.5 0 .5.2.1.3l-5 1.2h-1.3z" id="Shape" fill="url(#linearGradient-105)"/><path d="M109.5 294l-2-.6c-.6-.2-.7-.3-.2-.5l3-.8h1.2l2 .5c.6.2.7.3.2.5l-3 .8h-1.2z" id="Shape" fill="url(#linearGradient-106)"/><path d="M114.6 293l-2.1-.8c-.6-.1-.7-.4-.2-.5l1.8-.6a3 3 0 0 1 1.3 0l2.1.7c.6.1.7.3.2.5l-1.8.6h-1.3z" id="Shape" fill="url(#linearGradient-107)"/><path d="M118.6 292l-2.1-.7c-.6-.2-.7-.4-.2-.6l1.8-.6h1.3l2.1.6c.6.2.7.4.2.6l-1.8.6h-1.3z" id="Shape" fill="url(#linearGradient-108)"/><path d="M122.6 291l-2.1-.8c-.6-.1-.7-.3-.2-.5l1.8-.6a3 3 0 0 1 1.3 0l2.1.6c.6.2.7.4.2.6l-1.8.6a3 3 0 0 1-1.3 0z" id="Shape" fill="url(#linearGradient-109)"/><path d="M126.5 290l-2-.6c-.6-.2-.7-.3-.2-.5l16.8-4.8h1.4l2 .5c.6.2.7.3.2.5l-16.8 4.8h-1.4z" id="Shape" fill="url(#linearGradient-110)"/><path d="M144.6 285l-2.1-.8c-.6-.1-.7-.3-.2-.5l1.8-.6a3 3 0 0 1 1.3 0l2.1.7c.6.1.7.3.2.5l-1.7.6h-1.4z" id="Shape" fill="url(#linearGradient-111)"/><path d="M148.6 284l-2.1-.7c-.6-.2-.7-.4-.2-.6l1.8-.6h1.3l2.1.6c.6.2.7.4.2.6l-1.8.6h-1.3z" id="Shape" fill="url(#linearGradient-112)"/><path d="M152.6 283l-2.1-.8c-.6-.1-.7-.4-.2-.5l1.8-.6h1.3l2.1.6c.6.2.7.4.2.6l-1.8.6h-1.3z" id="Shape" fill="url(#linearGradient-113)"/><path d="M156.4 281l-2-.5c-.5-.1-.5-.3-.1-.4l4-1h1.3l2 .4c.5.1.6.3.1.4l-4 1h-1.3z" id="Shape" fill="url(#linearGradient-114)"/><path d="M118.4 284l6.7 1.7c1.3.4 2.6.4 3.9 0l12.6-3.4c.2 0 .4-.3.4-.6s-.2-.5-.4-.6l-6.7-1.8a7.4 7.4 0 0 0-3.8 0l-12.6 3.4c-.3 0-.5.3-.5.6s.2.5.4.6z" id="Shape" fill="url(#linearGradient-115)"/><path d="M409.3 315h-.2l-155.6-41.8a.6.6 0 1 1 .3-1.2l155.6 41.7a.6.6 0 0 1-.1 1.3zM412.4 478c-3.7 0-7.3-.5-10.8-1.4l-30.4-8a21.8 21.8 0 0 1-16.2-21.1v-37.7a12.2 12.2 0 0 1 15.5-11.8l38 10.1c1.6.5 3.2.6 4.8.5v-14.4a12.2 12.2 0 0 1 15.5-11.8l39.1 10.9a2.8 2.8 0 0 1 0 5.4l-50.2 13.6v19.6c0 7.9 5.4 14.8 13 16.8l31.4 8.4a4.7 4.7 0 0 1 0 9.1l-39 10.4c-3.4 1-7 1.4-10.7 1.4zm-45.1-76.1a8 8 0 0 0-8 7.9v37.6c.1 8 5.4 14.8 13 16.9l30.4 8c6.4 1.8 13 1.8 19.4 0L461 462a.4.4 0 0 0 0-.7l-31.4-8.4a21.8 21.8 0 0 1-16.2-21v-19c-2 .2-4 0-6-.6l-38-10.1-2.1-.3zm58.4-15.5a8 8 0 0 0-8 7.9v13.5l43.7-11.8-33.7-9.4a8 8 0 0 0-2-.3z" id="Shape" fill="#DAE3E8"/><path d="M395.2 366.5l-39.5 10.4a6.3 6.3 0 0 0 0 12.1l64.3 17 1-38.7-3.2-.8c-7.4-2-15.2-2-22.6 0z" id="Shape" fill="url(#linearGradient-116)"/><path d="M479.5 290.2h-.3a4 4 0 0 0-2 0l-1.5.3-31.3 8.4c-7.8 2-14 8-16.3 15.6-4.4 14-11 36.1-12 46v.2c-.3 3.2 1.2 25.9 1.8 31.5a9.6 9.6 0 0 1-12.1 10.3l-35-9.4-13-3.4-2.1-.6a6.2 6.2 0 0 1-4.7-6.1v13.4c0 .8.2 1.6.5 2.4a6.1 6.1 0 0 0 4.2 3.6l52.5 14a15.3 15.3 0 0 0 14.7-3.7c3.7-3.6 5.3-8.7 4.4-13.7a233.6 233.6 0 0 1-4.3-36.7c.4-9.7 5.6-31.6 9.4-45.8a23.5 23.5 0 0 1 16.6-16.8l34-8.6-3.5-.9z" id="Shape" fill="#DAE3E8"/><path id="Shape" fill="#CBCBCB" d="M430 310z"/><path d="M486.5 301.9c2.1-8.2-3.2-11.6-6.1-10.8l-32 8.7a23.4 23.4 0 0 0-16.5 16.9c-3.7 14.2-9 36.2-9.3 46-.3 7.8 2 23.4 4.3 36.8A15.5 15.5 0 0 1 416 417l54-14.6c7.9-2 12.9-9.7 11.5-17.7-2.3-13.4-4.6-29-4.3-36.8.4-9.8 5.6-31.7 9.3-46z" id="Shape" fill="#FFF"/><path d="M427.7 376a.6.6 0 0 1-.7-.5c0-.4.2-.7.5-.7l48.7-12.8c.2 0 .5 0 .6.2.2.1.2.4.2.6 0 .2-.3.3-.5.4L428 376h-.2z" id="Shape" fill="#DAE3E8"/><path d="M135.2 264.7s11.6-1.2 14.7-.4c3.1.8 10.3 10.7 9 15.3-1.4 4.6-10.6-3.5-13-4.9-2.6-1.4 2.9 3 3.1 4.4.3 1.5-1.8 2.3-4.4.4-3.9-2.8-14.6-6.2-14.6-6.2l5.2-8.6z" id="Shape" fill="#FF9B75"/><path d="M130.8 262l8.2 2.4c-2.3 1.2-3.3 8.7-3.3 8.7h-3.2l3 1v1.9l-9.2-1-2.3-9.7 6.8-3.3z" id="Shape" fill="#FFF"/><path d="M135 270.7a1 1 0 1 0-2 .6 1 1 0 0 0 2-.6z" id="Shape" fill="#08217E"/><path d="M147.4 260.8l-14.3 37.4a1.4 1.4 0 0 0 1.6 1.8l55.6-15c2-.5 3.6-2 4.3-3.8l14.3-37.4a1.3 1.3 0 0 0-1.6-1.8l-55.6 15c-2 .5-3.6 2-4.3 3.8z" id="Shape" fill="url(#linearGradient-117)"/><path d="M136.6 298h-.2a.6.6 0 0 1-.4-.8l13.7-35.1c.7-2 2.4-3.5 4.5-4h.6a.6.6 0 0 1-.3 1.1c-1.7.5-3 1.7-3.6 3.3l-13.7 35.1c0 .2-.3.4-.6.4z" id="Shape" fill="#C9D1D6"/><path d="M86.2 222c5.8 8.5 19.7 30 24 32.4 6 3.4 10.4 3.6 21.8 7.8 0 0-6 3.5-4.3 13.8 0 0-20.8-3.3-23.6-4-7.5-2-24.1-21.2-24.1-21.2l3.6-16 2.6-12.8z" id="Shape" fill="url(#linearGradient-118)"/><path d="M52.3 250a.6.6 0 0 1-.6-.5l-1.5-6v-.4l1.5-2.1-1.5-5.3v-.2c0-.1 1.4-12.9-.2-22.8a.6.6 0 0 1 1.3-.2c1.5 9.6.4 21.7.2 23L53 241l-.1.5-1.4 2.1 1.5 5.7a.6.6 0 0 1-.5.8h-.2z" id="Shape" fill="#14003C"/><path d="M100.5 303.6c-5.4 3.2-1.4 4.5 5.5 6.4 7 1.9 16 1 14.9-1.8-1.1-2.8-10.8-7.8-14.6-7.1-2.1.3-4.1 1.2-5.8 2.5z" id="Shape" fill="url(#linearGradient-119)"/><path d="M83 295.3s4.8 9.2 8.5 10.2c4.6 1.3 8.3 6.2 14 1.8 2.4-1.7 4 2.4 4 3.4 0 1.4 7 2.8 7.4-2.2.4-2.7-.4-5.4-2.2-7.4-1.8-1.9-4.6-3.2-8.8-3.2-8.5-.2-9 .6-10.7-.3-1.7-.9-4.2-2.6-4.2-2.6l-8 .3z" id="Shape" fill="#FF9B75"/><path d="M86.4 306.3l6.4 1.7.6-3.7-4.4-2.5 5.3.2s2.5-3.4 4.7-4.2l-3.5-1.3-4.2-.5-5.3 5v5l.4.3z" id="Shape" fill="#FFF"/><path d="M40.5 218.9c7.3 7.2 10.2 42.9 20 49.8 5.7 4 35.5 28.2 35.5 28.2s-2.4-1.1-5.5 1.2c-4.4 3.5-5 8.9-5 8.9s-35-14.6-42.1-23A65.5 65.5 0 0 1 30 231.6c2.9-12.7 7.8-15.3 10.4-12.7z" id="Shape" fill="url(#linearGradient-120)"/><path d="M112 300c3.8 2.3 5 3.6 6.2 5.2 1 1.5 1.1 2.8 0 2.8-1.2 0-4.5-2.5-4.5-2.5L112 300z" id="Shape" fill="#FF9B75"/><path d="M49.3 290s-3.2-2.3-6.2-4.7A50.2 50.2 0 0 1 30 255.1l1.2-.1A49 49 0 0 0 44 284.4L50 289l-.7 1z" id="Shape" fill="#FFF"/><path d="M72.6 263a.6.6 0 0 1-.6-.6 81 81 0 0 1 5-16.3l-1-3.2c0-.3 0-.6.4-.8L79 241l2.7-20.4c0-.3.4-.5.7-.5.4 0 .6.4.6.7l-2.8 20.7c0 .2-.1.4-.3.5l-2.5 1.1 1 3v.4a83.2 83.2 0 0 0-5.1 16c0 .3-.3.5-.6.5v.1z" id="Shape" fill="#14003C"/><path d="M109.1 414c-.1 0-.3 0-.4-.2a.7.7 0 0 1-.2-.4c0-.2 0-.4.2-.5 0 0 2-2.3.7-4a4 4 0 0 0-2-1c-.7-.2-1.3-.4-1.4-1.1 0-.7.6-1.3 3.3-2.7.1-.1.3-.1.4 0 .2 0 .3.1.4.3.1.3 0 .7-.3.8l-2.3 1.4h.3a5 5 0 0 1 2.5 1.6c1.5 2 .2 4.5-.7 5.6l-.5.2zM150 434c-.5 0-.8-.1-1.2-.3a4 4 0 0 1-2-3.2l-.7.8c-.2.3-.6.3-.9.1a.5.5 0 0 1 0-.8c1-1.3 1.5-1.7 2.1-1.6.6.2.6.7.7 1.2.1.8.3 1.9 1.4 2.5.8.4 1.2 0 2.1-1.4.6-1 1.2-2 2.3-2.1.8 0 1.5.3 2 .8.2.2.2.4.2.6 0 .2-.2.3-.4.4-.3 0-.5 0-.6-.2l-1-.5c-.5 0-1 .9-1.4 1.5-.6 1-1.4 2.2-2.7 2.2z" id="Shape" fill="#FFF"/><path id="Shape" fill="#F9346C" d="M277.8 324l-33.8-9 41-11 34 9z"/><path d="M282.3 307L258 318.3s20 5.1 29.3 4.7a678 678 0 0 0 23.7-11.2l-28.7-4.8z" id="Shape" fill="#FFF"/><path d="M297 329l1.7 18.6c0 .8 2.2 1.4 4.8 1.4 2.6 0 4.8-.6 4.8-1.4L310 329h-13z" id="Shape" fill="url(#linearGradient-121)"/><path d="M308.6 327.6v.2a17 17 0 0 0-5.6-.8c-2.6 0-4.9.4-6 1v-.4h-1v1.4c0 1.1 3.1 2 7 2s7-.9 7-2v-1.4h-1.4z" id="Shape" fill="#F9346C"/><path d="M310 327c0-1.1-3.1-2-7-2s-7 .9-7 2 3.1 2 7 2 7-.9 7-2z" id="Shape" fill="#FFD584"/><path d="M309 327.7l-1.3-1.5h-2.3a17 17 0 0 0-4.8 0h-2.3l-1 1.1-.2.3-.1.4c0 1.1 2.7 2 6 2s6-.9 6-2l-.1-.4h.1z" id="Shape" fill="#F9346C"/><path d="M309 326.5c0-.8-2.2-1.5-5-1.5-2.1 0-4 .4-4.7 1-.2 0-.3.3-.3.5 0 .8 2.2 1.5 5 1.5 2.7 0 5-.7 5-1.5z" id="Shape" fill="#FFD584"/><path d="M307 325.5c0 .3-.9.5-2 .5s-2-.2-2-.5.9-.5 2-.5 2 .2 2 .5z" id="Shape" fill="#F9346C"/><path d="M284 463c0 4.9-1.6 5.5-2 11.3-.4 5.7 10.4 3.1 15.5 3.1 5.2 0 17 0 15.4-4.6-1.6-4.5-13-3.4-16.1-7-5-5.6-2.8-6.8-2.8-6.8l-10 4z" id="Shape" fill="#4D88FF"/><path d="M261.7 457c-.5 5-1.5 11.4.4 12.7 1.9 1.3 22.9-2.3 26-7.5 3.2-5.1-3-4.8-6.1-4.3-3.1.4-11.7-2.9-11.7-2.9l-8.6 2z" id="Shape" fill="#4D88FF"/><path d="M257 427.7c.8 18.7 3.1 30.3 3.1 30.3s15.5-.4 23.5-6.6c0 0 10.4-60 10.4-65.9 0-18.6-38.5 5-37 42.2z" id="Shape" fill="url(#linearGradient-122)"/><path d="M284.2 398c0 9.4-2.2 70-2.2 70s18.1-1.7 25.3-9c0 0 10.7-60-.2-77.3-11.7-18.7-22.8 6.6-22.9 16.2z" id="Shape" fill="url(#linearGradient-123)"/><path d="M226.6 500c-3.6 0-7.3-.5-10.8-1.4l-39-10.4a4.7 4.7 0 0 1 0-9.1l31.5-8.4c7.6-2 13-9 13-16.8v-19.6L171 420.7a2.8 2.8 0 0 1 0-5.4l39-10.9a12.3 12.3 0 0 1 15.5 11.8v14.4c1.7.1 3.3 0 4.9-.5l38-10.1a12.3 12.3 0 0 1 15.5 11.8v37.7c0 9.8-6.7 18.4-16.2 21l-30.4 8c-3.5 1-7.2 1.5-10.8 1.5zm-1-65v18.9c0 9.8-6.6 18.5-16.2 21l-31.4 8.4a.4.4 0 0 0 0 .7l39 10.4c6.2 1.7 13 1.7 19.3 0l30.3-8c7.7-2.1 13-9 13-17v-37.6a7.9 7.9 0 0 0-10-7.6l-38 10.1c-2 .5-4 .8-6 .7zm-48-17l43.7 11.8v-13.6a7.9 7.9 0 0 0-10-7.6l-33.7 9.4z" id="Shape" fill="#DAE3E8"/><path d="M243.8 385.5l39.5 10.4a6.3 6.3 0 0 1 0 12.1L219 425l-1-38.7 3.2-.8c7.4-2 15.2-2 22.6 0z" id="Shape" fill="url(#linearGradient-124)"/><path d="M214.1 335c28.1-4.7 44.9-9.7 50.6-13.6 5.8-3.8 9.1-5.3 18-5.4 4.8 0 9 4.6 8.2 5.9-.9 1.2-4.3-.7-6.6 0-2.4.6-4.3 4.9-9.2 5.4-4.9.4-5.8-.2-7.7.5-1.8.7-34 16.7-44.5 18.1-10.5 1.4-8.8-11-8.8-11z" id="Shape" fill="#633B25"/><path d="M186 404.8c2 9 29.8 22.1 61.7 10.9 13.8-5 27.4-10.6 40.7-17l15.6-20.4s-3-3.2-10.5-6-14.5-.7-24.6 2a463.8 463.8 0 0 0-40.1 16.2L186 404.8z" id="Shape" fill="url(#linearGradient-125)"/><path d="M196.6 298c-17 9-2.6 53.2-13.7 72.8-20.2 35.9 27.8 46.5 35.7 42.4 8-4.1 9-20.1 21.7-21.9 3-.4 17.9-3.2 10.8-6.3-13.9-6.3-12.2-13-12.5-15.1-2.4-16.1 5-40.3 1-52.3-2.6-8.4-11.2-11-11.2-11l-30.3-8-1.5-.6z" id="Shape" fill="url(#linearGradient-126)"/><path d="M198 299c-1.4 11 18.1 4 30 8 0 0-9.3-.9-8.1-11 .8-7-10.9-11-10.9-11s-1.7 11.7-4.3 13.1c-3 1.6-6.6.8-6.6.8z" id="Shape" fill="#633B25"/><path d="M202.1 275.2c2.1 15.8 14.7 22 19.8 20.6 2.8-.8 6-6 7-12.4.3-1.7-.5-3-.5-4.8 0-.6.6-3.8.5-4.4a15 15 0 0 0-3-8c-8.5-13.4-25.3-2.5-23.8 9z" id="Shape" fill="#633B25"/><path d="M235.3 392h-.2a.6.6 0 0 1-.3-.9c.7-1.6 1.7-6.7.1-9a2.7 2.7 0 0 0-2.6-1.1c-10.7.6-37.8-5.9-51-14.9a.6.6 0 0 1 .2-1h.5a110.9 110.9 0 0 0 50.2 14.7 4 4 0 0 1 3.8 1.7c1.9 2.8.7 8.5 0 10.2-.2.2-.4.3-.7.3z" id="Shape" fill="#FFF"/><path d="M238.3 406l-.3-.1c-3.6-2.4-3-5.7-2-8.9l.6-2.1c.9-3 2-6.6 2-9.6 0-2.5-.7-4-1.4-4.7-.7 1.2-1.7 2.5-2.5 2.6-1.1.1-2.1-.4-2.5-1.4-.5-1 0-2.3 1-3 1-.7 2.4-.8 3.6-.1 1.5-2.9 2.2-5.7 1.8-6.8v-.7a.7.7 0 0 1 1.2.2c.8 2-.7 5.8-1.9 8 1 1 2 2.7 2 6 0 3.1-1.1 6.8-2 9.8a57 57 0 0 0-.7 2.1c-.9 3-1.3 5.6 1.5 7.5.3.2.4.5.3.7-.1.3-.4.5-.6.5zm-3.3-26.5c-.4 0-.8.1-1.1.4-.5.3-.7.9-.5 1.5.1.4.6.6 1 .6.2 0 1-.7 1.8-2.2l-1.2-.3z" id="Shape" fill="#FFF"/><path d="M277.7 324.2c5.4-1.3 8.4-2 8.3 0 0 2-11.8 3-13.7 2.8-1.9-.2 5.4-2.8 5.4-2.8z" id="Shape" fill="#633B25"/><path d="M159.5 309.2h.4a4 4 0 0 1 1.8 0l1.6.3 31.3 8.4c7.8 2 14 8 16.4 15.6 4.3 14 11 36.1 11.9 46v.2c.3 3.2-1.2 25.9-1.8 31.5a9.6 9.6 0 0 0 12.1 10.3l35-9.4 13-3.5 2.1-.5a6.2 6.2 0 0 0 4.7-6.1v13.4c0 .8-.2 1.6-.5 2.4a6.1 6.1 0 0 1-4.2 3.6l-52.5 14a15.3 15.3 0 0 1-14.7-3.7 15.2 15.2 0 0 1-4.5-13.7c2.4-13.4 4.6-28.9 4.4-36.7-.4-9.7-5.6-31.6-9.4-45.8a23.5 23.5 0 0 0-16.6-16.7l-34-8.7 3.5-.9z" id="Shape" fill="#DAE3E8"/><path id="Shape" fill="#CBCBCB" d="M209 330z"/><path d="M151.5 320.9c-2.1-8.2 3.2-11.6 6.1-10.8l32 8.7a23.4 23.4 0 0 1 16.5 16.9c3.7 14.2 9 36.2 9.3 46 .3 7.8-2 23.4-4.3 36.8A15.5 15.5 0 0 0 222 436l-54-14.6a15.5 15.5 0 0 1-11.5-17.7c2.3-13.4 4.6-29 4.3-36.7-.4-9.9-5.6-31.8-9.3-46.1z" id="Shape" fill="#FFF"/><path d="M212.3 433h-.2L168 421a16 16 0 0 1-12-18.3c3-17.5 4.5-30.1 4.3-36.4a306.5 306.5 0 0 0-9.2-46 .6.6 0 0 1 1.1 0c4.1 15.7 9 36.4 9.4 46 .2 8-2.2 24.4-4.4 36.7a14.8 14.8 0 0 0 11 16.8l44.3 11.9a.6.6 0 1 1-.2 1.2z" id="Shape" fill="#DAE3E8"/><path d="M211.3 395h-.2l-48.7-12.8a.6.6 0 0 1-.4-.8c.1-.3.4-.5.8-.4l48.7 12.8c.3 0 .5.3.5.7 0 .3-.4.5-.7.5z" id="Shape" fill="#DAE3E8"/><path d="M206 252c-3.3 5-7.7.3-10 6.9-2.4 6.6-3.4 4-7.4 8-4 3.8 0 9.9 4.6 11.1 4.7 1.3 5.4 3.7 4.2 7.3-1.1 3.6 5.5 6.7 7.1 6.5 1.7-.2 7.5-1.6 10 .8 2.3 2.3 6-5.4 5.7-7.5-.4-2 .5-7.2 4.2-7.8 3.6-.5 5.5-2.8 7.4-4 2.6-1.6 8-9.6 0-14.3a32.7 32.7 0 0 1-9.4-7c-3-3.3-13.5-4.6-16.4 0z" id="Shape" fill="url(#linearGradient-127)"/><path d="M220 277.5c-2 1.7-3 5-.8 6.4.8.5 2.7-1 2.7-1s2.7-4.5 2-5.4c-.7-.9-3.4-.4-3.9 0zM311.9 339c-1-4.9-3.7 2-12.4-.5 0 0-1.2-.3-1.5-.8l-.2-2.7-1.6 1c-1.6 1-3 5.2-3 5.2l-.6.7-.6.8-34.3 5.4s-15.6-26.5-20.4-33.6c-5-7.3-11.5 13.8-8.6 18.2 6 9 14.5 29 23.8 28.3 7-.7 30.4-8.5 44.1-13.2 1-.3 3.6.5 4.5.5 5 0 7.9-1.3 9.4-3.6 1-1.6 1.8-3.2 1.4-5.6z" id="Shape" fill="#633B25"/><path d="M286.4 394a1 1 0 0 1-.9-.4c-.6-.7-.2-2.2 1.7-5.7v-.3l.4-1c-.6.7-1.9 2.2-4.4 6.4l-.4.3-.5-.1a.6.6 0 0 1-.2-.9c4.5-7.4 5.5-7.6 6.3-7.2 1.1.7 0 3 0 3l-.1.3a14.1 14.1 0 0 0-1.7 4.3c1.8-.5 6.4-3.1 6.4-3.2.3-.2.7 0 1 .2 0 .3 0 .7-.3 1-.2 0-5 2.7-7 3.2l-.3.1z" id="Shape" fill="#4D88FF"/></g></g></g></g></svg>