<?xml version="1.0" encoding="UTF-8"?><svg width="964" height="427" xmlns="http://www.w3.org/2000/svg"><!--Generator: Sketch 50.2 (55047) - http://www.bohemiancoding.com/sketch--><defs><linearGradient x1="50%" y1="100%" x2="50%" y2="0%" id="linearGradient-1"><stop stop-color="#C0D6FF" offset="0%"/><stop stop-color="#C5DBFF" offset="30%"/><stop stop-color="#D3E9FF" offset="65%"/><stop stop-color="#E9FFFF" offset="100%"/></linearGradient><linearGradient x1="100%" y1="50%" x2="0%" y2="50%" id="linearGradient-2"><stop stop-color="#5778FF" offset="0%"/><stop stop-color="#5C7DFF" offset="18%"/><stop stop-color="#6A8AFF" offset="39%"/><stop stop-color="#82A0FF" offset="61%"/><stop stop-color="#A3BEFF" offset="85%"/><stop stop-color="#BCD5FF" offset="100%"/></linearGradient><linearGradient x1="-3082.4%" y1="50%" x2="-2982.4%" y2="50%" id="linearGradient-3"><stop stop-color="#C0D6FF" offset="0%"/><stop stop-color="#C5DBFF" offset="30%"/><stop stop-color="#D3E9FF" offset="65%"/><stop stop-color="#E9FFFF" offset="100%"/></linearGradient><linearGradient x1="-1198.8%" y1="50%" x2="-1098.8%" y2="50%" id="linearGradient-4"><stop stop-color="#C0D6FF" offset="0%"/><stop stop-color="#C5DBFF" offset="30%"/><stop stop-color="#D3E9FF" offset="65%"/><stop stop-color="#E9FFFF" offset="100%"/></linearGradient><linearGradient x1="-10564.4%" y1="50.1%" x2="-10464.4%" y2="50.1%" id="linearGradient-5"><stop stop-color="#5778FF" offset="0%"/><stop stop-color="#5C7DFF" offset="18%"/><stop stop-color="#6A8AFF" offset="39%"/><stop stop-color="#82A0FF" offset="61%"/><stop stop-color="#A3BEFF" offset="85%"/><stop stop-color="#BCD5FF" offset="100%"/></linearGradient><linearGradient x1="-10519.6%" y1="49.9%" x2="-10419.5%" y2="49.9%" id="linearGradient-6"><stop stop-color="#5778FF" offset="0%"/><stop stop-color="#5C7DFF" offset="18%"/><stop stop-color="#6A8AFF" offset="39%"/><stop stop-color="#82A0FF" offset="61%"/><stop stop-color="#A3BEFF" offset="85%"/><stop stop-color="#BCD5FF" offset="100%"/></linearGradient><linearGradient x1="-10460.6%" y1="50.1%" x2="-10360.6%" y2="50.1%" id="linearGradient-7"><stop stop-color="#5778FF" offset="0%"/><stop stop-color="#5C7DFF" offset="18%"/><stop stop-color="#6A8AFF" offset="39%"/><stop stop-color="#82A0FF" offset="61%"/><stop stop-color="#A3BEFF" offset="85%"/><stop stop-color="#BCD5FF" offset="100%"/></linearGradient><linearGradient x1="-10408.7%" y1="49.9%" x2="-10308.7%" y2="49.9%" id="linearGradient-8"><stop stop-color="#5778FF" offset="0%"/><stop stop-color="#5C7DFF" offset="18%"/><stop stop-color="#6A8AFF" offset="39%"/><stop stop-color="#82A0FF" offset="61%"/><stop stop-color="#A3BEFF" offset="85%"/><stop stop-color="#BCD5FF" offset="100%"/></linearGradient><linearGradient x1="-10256.9%" y1="49.9%" x2="-10156.9%" y2="49.9%" id="linearGradient-9"><stop stop-color="#5778FF" offset="0%"/><stop stop-color="#5C7DFF" offset="18%"/><stop stop-color="#6A8AFF" offset="39%"/><stop stop-color="#82A0FF" offset="61%"/><stop stop-color="#A3BEFF" offset="85%"/><stop stop-color="#BCD5FF" offset="100%"/></linearGradient><linearGradient x1="-10211.9%" y1="50%" x2="-10111.8%" y2="50%" id="linearGradient-10"><stop stop-color="#5778FF" offset="0%"/><stop stop-color="#5C7DFF" offset="18%"/><stop stop-color="#6A8AFF" offset="39%"/><stop stop-color="#82A0FF" offset="61%"/><stop stop-color="#A3BEFF" offset="85%"/><stop stop-color="#BCD5FF" offset="100%"/></linearGradient><linearGradient x1="-10153.1%" y1="50.1%" x2="-10053.1%" y2="50.1%" id="linearGradient-11"><stop stop-color="#5778FF" offset="0%"/><stop stop-color="#5C7DFF" offset="18%"/><stop stop-color="#6A8AFF" offset="39%"/><stop stop-color="#82A0FF" offset="61%"/><stop stop-color="#A3BEFF" offset="85%"/><stop stop-color="#BCD5FF" offset="100%"/></linearGradient><linearGradient x1="-10101.1%" y1="49.9%" x2="-10001.2%" y2="49.9%" id="linearGradient-12"><stop stop-color="#5778FF" offset="0%"/><stop stop-color="#5C7DFF" offset="18%"/><stop stop-color="#6A8AFF" offset="39%"/><stop stop-color="#82A0FF" offset="61%"/><stop stop-color="#A3BEFF" offset="85%"/><stop stop-color="#BCD5FF" offset="100%"/></linearGradient><linearGradient x1="-9949.3%" y1="49.9%" x2="-9849.4%" y2="49.9%" id="linearGradient-13"><stop stop-color="#5778FF" offset="0%"/><stop stop-color="#5C7DFF" offset="18%"/><stop stop-color="#6A8AFF" offset="39%"/><stop stop-color="#82A0FF" offset="61%"/><stop stop-color="#A3BEFF" offset="85%"/><stop stop-color="#BCD5FF" offset="100%"/></linearGradient><linearGradient x1="-9897.4%" y1="50%" x2="-9797.4%" y2="50%" id="linearGradient-14"><stop stop-color="#5778FF" offset="0%"/><stop stop-color="#5C7DFF" offset="18%"/><stop stop-color="#6A8AFF" offset="39%"/><stop stop-color="#82A0FF" offset="61%"/><stop stop-color="#A3BEFF" offset="85%"/><stop stop-color="#BCD5FF" offset="100%"/></linearGradient><linearGradient x1="-9852.2%" y1="49.9%" x2="-9752.1%" y2="49.9%" id="linearGradient-15"><stop stop-color="#5778FF" offset="0%"/><stop stop-color="#5C7DFF" offset="18%"/><stop stop-color="#6A8AFF" offset="39%"/><stop stop-color="#82A0FF" offset="61%"/><stop stop-color="#A3BEFF" offset="85%"/><stop stop-color="#BCD5FF" offset="100%"/></linearGradient><linearGradient x1="-9793.6%" y1="50%" x2="-9693.6%" y2="50%" id="linearGradient-16"><stop stop-color="#5778FF" offset="0%"/><stop stop-color="#5C7DFF" offset="18%"/><stop stop-color="#6A8AFF" offset="39%"/><stop stop-color="#82A0FF" offset="61%"/><stop stop-color="#A3BEFF" offset="85%"/><stop stop-color="#BCD5FF" offset="100%"/></linearGradient><linearGradient x1="-39190.7%" y1="50.4%" x2="-39091.1%" y2="50.4%" id="linearGradient-17"><stop stop-color="#C0D6FF" offset="0%"/><stop stop-color="#C5DBFF" offset="30%"/><stop stop-color="#D3E9FF" offset="65%"/><stop stop-color="#E9FFFF" offset="100%"/></linearGradient><linearGradient x1="-47647.9%" y1="50.1%" x2="-47547.6%" y2="50.1%" id="linearGradient-18"><stop stop-color="#5778FF" offset="0%"/><stop stop-color="#5C7DFF" offset="18%"/><stop stop-color="#6A8AFF" offset="39%"/><stop stop-color="#82A0FF" offset="61%"/><stop stop-color="#A3BEFF" offset="85%"/><stop stop-color="#BCD5FF" offset="100%"/></linearGradient><linearGradient x1="-43137.7%" y1="49.8%" x2="-43038.2%" y2="49.8%" id="linearGradient-19"><stop stop-color="#C0D6FF" offset="0%"/><stop stop-color="#C5DBFF" offset="30%"/><stop stop-color="#D3E9FF" offset="65%"/><stop stop-color="#E9FFFF" offset="100%"/></linearGradient><linearGradient x1="-52601%" y1="49.9%" x2="-52500.6%" y2="49.9%" id="linearGradient-20"><stop stop-color="#5778FF" offset="0%"/><stop stop-color="#5C7DFF" offset="18%"/><stop stop-color="#6A8AFF" offset="39%"/><stop stop-color="#82A0FF" offset="61%"/><stop stop-color="#A3BEFF" offset="85%"/><stop stop-color="#BCD5FF" offset="100%"/></linearGradient><linearGradient x1="-39174.3%" y1="50.1%" x2="-39074.8%" y2="50.1%" id="linearGradient-21"><stop stop-color="#C0D6FF" offset="0%"/><stop stop-color="#C5DBFF" offset="30%"/><stop stop-color="#D3E9FF" offset="65%"/><stop stop-color="#E9FFFF" offset="100%"/></linearGradient><linearGradient x1="-49320.1%" y1="49.8%" x2="-49216.2%" y2="49.8%" id="linearGradient-22"><stop stop-color="#5778FF" offset="0%"/><stop stop-color="#5C7DFF" offset="18%"/><stop stop-color="#6A8AFF" offset="39%"/><stop stop-color="#82A0FF" offset="61%"/><stop stop-color="#A3BEFF" offset="85%"/><stop stop-color="#BCD5FF" offset="100%"/></linearGradient><linearGradient x1="-55720.9%" y1="50.4%" x2="-55579.4%" y2="50.4%" id="linearGradient-23"><stop stop-color="#C0D6FF" offset="0%"/><stop stop-color="#C5DBFF" offset="30%"/><stop stop-color="#D3E9FF" offset="65%"/><stop stop-color="#E9FFFF" offset="100%"/></linearGradient><linearGradient x1="-55738.4%" y1="50.4%" x2="-55621%" y2="50.4%" id="linearGradient-24"><stop stop-color="#5778FF" offset="0%"/><stop stop-color="#5C7DFF" offset="18%"/><stop stop-color="#6A8AFF" offset="39%"/><stop stop-color="#82A0FF" offset="61%"/><stop stop-color="#A3BEFF" offset="85%"/><stop stop-color="#BCD5FF" offset="100%"/></linearGradient><linearGradient x1="-43173.1%" y1="49.5%" x2="-43073.5%" y2="49.5%" id="linearGradient-25"><stop stop-color="#C0D6FF" offset="0%"/><stop stop-color="#C5DBFF" offset="30%"/><stop stop-color="#D3E9FF" offset="65%"/><stop stop-color="#E9FFFF" offset="100%"/></linearGradient><linearGradient x1="-54413.4%" y1="49.7%" x2="-54309.7%" y2="49.7%" id="linearGradient-26"><stop stop-color="#5778FF" offset="0%"/><stop stop-color="#5C7DFF" offset="18%"/><stop stop-color="#6A8AFF" offset="39%"/><stop stop-color="#82A0FF" offset="61%"/><stop stop-color="#A3BEFF" offset="85%"/><stop stop-color="#BCD5FF" offset="100%"/></linearGradient><linearGradient x1="-61508.7%" y1="50.3%" x2="-61367.2%" y2="50.3%" id="linearGradient-27"><stop stop-color="#C0D6FF" offset="0%"/><stop stop-color="#C5DBFF" offset="30%"/><stop stop-color="#D3E9FF" offset="65%"/><stop stop-color="#E9FFFF" offset="100%"/></linearGradient><linearGradient x1="-61526.2%" y1="50.3%" x2="-61408.8%" y2="50.3%" id="linearGradient-28"><stop stop-color="#5778FF" offset="0%"/><stop stop-color="#5C7DFF" offset="18%"/><stop stop-color="#6A8AFF" offset="39%"/><stop stop-color="#82A0FF" offset="61%"/><stop stop-color="#A3BEFF" offset="85%"/><stop stop-color="#BCD5FF" offset="100%"/></linearGradient><linearGradient x1="42.2%" y1="69.8%" x2="73.1%" y2="-8.7%" id="linearGradient-29"><stop stop-color="#E9FFFF" offset="0%"/><stop stop-color="#D3EBFF" offset="4%"/><stop stop-color="#B2CCFF" offset="11%"/><stop stop-color="#96B2FF" offset="18%"/><stop stop-color="#7F9DFF" offset="27%"/><stop stop-color="#6D8CFF" offset="36%"/><stop stop-color="#6081FF" offset="48%"/><stop stop-color="#597AFF" offset="64%"/><stop stop-color="#5778FF" offset="100%"/></linearGradient><linearGradient x1="18.2%" y1="114.1%" x2="66.7%" y2="-.8%" id="linearGradient-30"><stop stop-color="#5778FF" offset="0%"/><stop stop-color="#5C7DFF" offset="4%"/><stop stop-color="#6A8AFF" offset="9%"/><stop stop-color="#82A0FF" offset="14%"/><stop stop-color="#A3BEFF" offset="19%"/><stop stop-color="#BCD5FF" offset="22%"/></linearGradient><linearGradient x1="75.9%" y1="115.3%" x2="41.1%" y2="27.5%" id="linearGradient-31"><stop stop-color="#C0D6FF" offset="0%"/><stop stop-color="#C5DBFF" offset="30%"/><stop stop-color="#D3E9FF" offset="65%"/><stop stop-color="#E9FFFF" offset="100%"/></linearGradient><linearGradient x1="70.4%" y1="95.4%" x2="25.8%" y2="3.6%" id="linearGradient-32"><stop stop-color="#C0D6FF" offset="0%"/><stop stop-color="#D6ECFF" offset="12%"/><stop stop-color="#E9FFFF" offset="21%"/><stop stop-color="#E3F9FF" offset="25%"/><stop stop-color="#C9DFFF" offset="41%"/><stop stop-color="#C0D6FF" offset="51%"/><stop stop-color="#D0E6FF" offset="62%"/><stop stop-color="#E9FFFF" offset="75%"/><stop stop-color="#C0D6FF" offset="100%"/></linearGradient><linearGradient x1="78.6%" y1="2.6%" x2=".7%" y2="110.9%" id="linearGradient-33"><stop stop-color="#BCD5FF" offset="0%"/><stop stop-color="#A3BEFF" offset="15%"/><stop stop-color="#82A0FF" offset="39%"/><stop stop-color="#6A8AFF" offset="61%"/><stop stop-color="#5C7DFF" offset="82%"/><stop stop-color="#5778FF" offset="100%"/></linearGradient><linearGradient x1="93.5%" y1="53.7%" x2="-24.9%" y2="49.4%" id="linearGradient-34"><stop stop-color="#C0D6FF" offset="0%"/><stop stop-color="#C5DBFF" offset="30%"/><stop stop-color="#D3E9FF" offset="65%"/><stop stop-color="#E9FFFF" offset="100%"/></linearGradient><linearGradient x1="78.6%" y1="2.6%" x2=".7%" y2="110.9%" id="linearGradient-35"><stop stop-color="#BCD5FF" offset="0%"/><stop stop-color="#A3BEFF" offset="15%"/><stop stop-color="#82A0FF" offset="39%"/><stop stop-color="#6A8AFF" offset="61%"/><stop stop-color="#5C7DFF" offset="82%"/><stop stop-color="#5778FF" offset="100%"/></linearGradient><linearGradient x1="93.5%" y1="53.6%" x2="-25%" y2="49.3%" id="linearGradient-36"><stop stop-color="#C0D6FF" offset="0%"/><stop stop-color="#C5DBFF" offset="30%"/><stop stop-color="#D3E9FF" offset="65%"/><stop stop-color="#E9FFFF" offset="100%"/></linearGradient><linearGradient x1="78.6%" y1="2.6%" x2=".7%" y2="110.9%" id="linearGradient-37"><stop stop-color="#BCD5FF" offset="0%"/><stop stop-color="#A3BEFF" offset="15%"/><stop stop-color="#82A0FF" offset="39%"/><stop stop-color="#6A8AFF" offset="61%"/><stop stop-color="#5C7DFF" offset="82%"/><stop stop-color="#5778FF" offset="100%"/></linearGradient><linearGradient x1="93.8%" y1="55.4%" x2="-24.6%" y2="51.1%" id="linearGradient-38"><stop stop-color="#C0D6FF" offset="0%"/><stop stop-color="#C5DBFF" offset="30%"/><stop stop-color="#D3E9FF" offset="65%"/><stop stop-color="#E9FFFF" offset="100%"/></linearGradient><linearGradient x1="78.6%" y1="2.6%" x2=".7%" y2="110.8%" id="linearGradient-39"><stop stop-color="#BCD5FF" offset="0%"/><stop stop-color="#A3BEFF" offset="15%"/><stop stop-color="#82A0FF" offset="39%"/><stop stop-color="#6A8AFF" offset="61%"/><stop stop-color="#5C7DFF" offset="82%"/><stop stop-color="#5778FF" offset="100%"/></linearGradient><linearGradient x1="92.8%" y1="54.6%" x2="-25.6%" y2="50.3%" id="linearGradient-40"><stop stop-color="#C0D6FF" offset="0%"/><stop stop-color="#C5DBFF" offset="30%"/><stop stop-color="#D3E9FF" offset="65%"/><stop stop-color="#E9FFFF" offset="100%"/></linearGradient></defs><g id="Page-1" fill="none" fill-rule="evenodd"><g id="06-财务管理" transform="translate(-303 -226)"><g id="Group-6" transform="translate(303 226)"><g id="Group-5" transform="translate(547 48)" font-family="PingFang-SC-Semibold, PingFang SC" font-weight="500"><text id="aithful" font-size="60" fill="#F2F2F2"><tspan x="108" y="164">aithful</tspan></text><text id="inancial" font-size="60" fill="#F2F2F2"><tspan x="108" y="111">inancial</tspan></text><text id="F" font-size="160" fill="#E1E1E1"><tspan x="0" y="170">F</tspan></text></g><g id="资源-3" fill-rule="nonzero"><path id="Rectangle-path" fill="#4553C7" transform="rotate(-60 148.5 197.5)" d="M148 131h1v133h-1z"/><path d="M106.4 379L60 352.3a4 4 0 0 1 0-7L435.5 129l.5 1L60.6 346.3a2.9 2.9 0 0 0 0 5l46.3 26.7-.5 1z" id="Shape" fill="#4553C7"/><path id="Shape" fill="#081175" opacity=".5" d="M228 216L76 301.4l68.4 37.6L295 254.5z"/><path d="M225.6 90.6H214l2.8-6.4L332 39V232.8c0 .4-.3.7-.7 1l-105 61a3 3 0 0 1-.7.2V90.6z" id="Shape" fill="#242993"/><path d="M157 63l67 38v194a5 5 0 0 1-2.2-.6L158 257.8c-.5-.2-.9-.7-1-1.3V63z" id="Shape" fill="url(#linearGradient-1)"/><path d="M228 42v251l-2.6 1.6c-.5.3-1.2.4-1.8.4-.7 0-.8-.5-1.3-.8l-.6-.3.6-29.7v-46.7L221 42h7z" id="Shape" fill="#3947BA"/><path d="M221 264.6V99l3 1.6V295h-.6c-.4 0-.8-.1-1.1-.3h-.1l-.5-.2-.7-.3v-29.6z" id="Shape" fill="#CAE7FF"/><path id="Shape" fill="#4553C7" opacity=".5" d="M327 49l-93 53.8V284l93-53.8z"/><path id="Shape" fill="#4553C7" opacity=".5" d="M333 204l-104-69.1V99.3L333 39z"/><path d="M225.7 100.6l105.6-61c1-.6 1-1.7-.3-2.3L267.5.6a4.6 4.6 0 0 0-4.2-.2l-105.6 61c-1 .6-1 1.7.3 2.4l63.5 36.6c1.3.7 2.8.8 4.2.2z" id="Shape" fill="#BCD5FF"/><path id="Shape" fill="url(#linearGradient-2)" d="M265.2 7l50.9 29.2 4.9-.9v3.8L225.4 94 177 61.2z"/><path id="Shape" fill="url(#linearGradient-3)" d="M169 59v3.8L224 95v-3.8z"/><path id="Shape" fill="url(#linearGradient-4)" d="M224.6 90L320 35 264.4 3 169 58z"/><path id="Shape" fill="#3F38FC" d="M284.5 32l1.5-.9-.1-.7-14-8.4-1.9 1 .4.6z"/><path id="Shape" fill="url(#linearGradient-5)" d="M271.4 22l-1.5 1-.9-.6 2.4-1.4 14.6 8.5-1 .5z"/><path id="Shape" fill="#3F38FC" d="M279.5 34l1.5-.9-.1-.7-14-8.4-1.9 1 .4.6z"/><path id="Shape" fill="url(#linearGradient-6)" d="M267.4 25l-1.5 1-.9-.6 2.4-1.4 14.6 8.5-1 .5z"/><path id="Shape" fill="#3F38FC" d="M275.5 37l1.5-.9-.1-.7-14-8.4-1.9 1 .4.6z"/><path id="Shape" fill="url(#linearGradient-7)" d="M262.4 28l-1.5 1-.9-.6 2.4-1.4 14.6 8.5-1 .5z"/><path id="Shape" fill="#3F38FC" d="M271.5 40l1.5-.9-.1-.7-14-8.4-1.9 1 .4.6z"/><path id="Shape" fill="url(#linearGradient-8)" d="M258.4 30l-1.5 1-.9-.6 2.4-1.4 14.6 8.5-1 .5z"/><path id="Shape" fill="#3F38FC" d="M256.5 47l1.5-.9-.1-.7-14-8.4-1.9 1 .4.6z"/><path id="Shape" fill="url(#linearGradient-9)" d="M244.4 38l-1.5 1-.9-.6 2.4-1.4 14.6 8.5-1 .5z"/><path id="Shape" fill="#3F38FC" d="M252.5 50l1.5-.9-.1-.7-14-8.4-1.9 1 .4.6z"/><path id="Shape" fill="url(#linearGradient-10)" d="M239.4 40l-1.5 1-.9-.6 2.4-1.4 14.6 8.5-1 .5z"/><path id="Shape" fill="#3F38FC" d="M247.5 52l1.5-.9-.1-.7-14-8.4-1.9 1 .4.6z"/><path id="Shape" fill="url(#linearGradient-11)" d="M235.4 43l-1.5 1-.9-.6 2.4-1.4 14.6 8.5-1 .5z"/><path id="Shape" fill="#3F38FC" d="M243.5 55l1.5-.9-.1-.7-14-8.4-1.9 1 .4.6z"/><path id="Shape" fill="url(#linearGradient-12)" d="M230.4 46l-1.5 1-.9-.6 2.4-1.4 14.6 8.5-1 .5z"/><path id="Shape" fill="#3F38FC" d="M230.5 63l1.5-.9-.1-.7-14-8.4-1.9 1 .4.6z"/><path id="Shape" fill="url(#linearGradient-13)" d="M217.4 53l-1.5 1-.9-.6 2.4-1.4 14.6 8.5-1 .5z"/><path id="Shape" fill="#3F38FC" d="M225.5 65l1.5-.9-.1-.7-14-8.4-1.9 1 .4.6z"/><path id="Shape" fill="url(#linearGradient-14)" d="M213.4 56l-1.5 1-.9-.6 2.4-1.4 14.6 8.5-1 .5z"/><path id="Shape" fill="#3F38FC" d="M220.5 69l1.5-.9-.1-.7-14-8.4-1.9 1 .4.6z"/><path id="Shape" fill="url(#linearGradient-15)" d="M207.4 58l-1.5 1-.9-.6 2.4-1.4 14.6 8.5-1 .5z"/><path id="Shape" fill="#3F38FC" d="M215.5 71l1.5-.9-.1-.7-14-8.4-1.9 1 .4.6z"/><path id="Shape" fill="url(#linearGradient-16)" d="M203.4 62l-1.5 1-.9-.6 2.4-1.4 14.6 8.5-1 .5z"/><path d="M211.2 218c-.3 0-.6 0-.9-.2l-43.4-25c-1.2-.7-1.9-2-1.9-3.3v-59.7c0-.7.3-1.2.9-1.6.5-.3 1.2-.3 1.8 0l43.4 25c1.2.7 1.9 2 1.9 3.3v59.8c0 .6-.3 1.2-.9 1.5l-.9.2zm-43.8-26l43.4 25a.8.8 0 0 0 1.2-.7v-59.8c0-1-.5-2-1.4-2.4l-43.4-25a.7.7 0 0 0-.7 0c-.3.2-.4.4-.4.7v59.7c0 1 .5 2 1.4 2.4z" id="Shape" fill="#4553C7" opacity=".5"/><path d="M231 103.2c0-1.2.7-2.3 1.7-3 .3-.2.7-.3 1.1 0l1.2.6h-.7v.4c0 1.2-.7 2.3-1.7 3l-.3.1.3.7-1.1-.7c-.4-.2-.5-.7-.5-1z" id="Shape" fill="url(#linearGradient-17)"/><path d="M233 104.6c0 1.2.9 1.8 2 1.1 1.2-.7 2-2 2-3.3 0-1.2-.9-1.8-2-1.1-1.2.7-2 2-2 3.3z" id="Shape" fill="url(#linearGradient-18)"/><path d="M233 104.2c0 .7.4 1 1 .6s1-1.2 1-2c0-.7-.4-1-1-.6s-1 1.2-1 2z" id="Shape" fill="#3F38FC"/><path d="M325 49.1c0-1.2.7-2.2 1.7-2.9.3-.2.8-.3 1.1 0l1.2.6h-.7v.4c0 1.2-.6 2.3-1.6 3l-.4.2.4.6-1.2-.7c-.4-.2-.6-.7-.5-1.2z" id="Shape" fill="url(#linearGradient-19)"/><path d="M326 50.6c0 1.2.9 1.8 2 1.1 1.2-.7 2-2 2-3.3 0-1.2-.9-1.8-2-1.1-1.2.7-2 2-2 3.3z" id="Shape" fill="url(#linearGradient-20)"/><path d="M327 50.2c0 .7.5 1 1 .6.6-.4 1-1.2 1-2 0-.7-.4-1-1-.6s-1 1.1-1 2z" id="Shape" fill="#3F38FC"/><path d="M231 284.2c0-1.2.7-2.3 1.7-3 .3-.2.7-.3 1.1 0l1.2.6c-.4-.2-.8-.1-1.2.2-1 .6-1.6 1.7-1.6 3 0 .3.1.7.4 1l-1.1-.7c-.4-.2-.5-.7-.5-1.1z" id="Shape" fill="url(#linearGradient-21)"/><path d="M233.5 285.9l.4-.3c.2.3.6.4 1 .1.7-.4 1.2-1.1 1.2-2 0-.5-.2-.7-.6-.8v-.5-.4h.9c.4.3.6.8.6 1.3 0 1.4-.8 2.7-2 3.4-.5.3-1.1.4-1.6.1l-.4-.7.5-.2z" id="Shape" fill="url(#linearGradient-22)"/><path d="M233 284.8c0-1.4.7-2.7 1.8-3.5a1 1 0 0 1 1.2-.2h-.8v1l-.4.1c-.6.5-1 1.2-1 2v.6a2.5 2.5 0 0 1-.7.4l.4.8c-.3-.3-.5-.7-.5-1.2z" id="Shape" fill="url(#linearGradient-23)"/><path d="M233 284.8c0-1.4.7-2.7 1.8-3.5a1 1 0 0 1 1.2-.2h-.8v1l-.4.1c-.6.5-1 1.2-1 2v.6a2.5 2.5 0 0 1-.7.4l.4.8c-.3-.3-.5-.7-.5-1.2z" id="Shape" fill="url(#linearGradient-24)"/><path d="M236 282.8c0 .8-.4 1.6-1 2-.5.3-.8.2-1 0 .7-.8 1.2-1.7 1.4-2.8.4 0 .6.3.6.8zM233.2 284a.6.6 0 0 1-.2-.4c0-.6.6-1.2 1.4-1.5l.6-.1c-.2.8-.9 1.5-1.8 2z" id="Shape" fill="#3F38FC"/><path d="M326.7 228.2c.3-.2.8-.3 1.1 0l1.2.6c-.4-.2-.8-.1-1.2.1-1 .7-1.5 1.8-1.6 3 0 .4.1.8.4 1.1l-1.1-.7c-.3-.2-.5-.7-.5-1 0-1.3.7-2.4 1.7-3z" id="Shape" fill="url(#linearGradient-25)"/><path d="M326.5 233l.4-.4c.2.3.6.4 1 .2.7-.5 1.2-1.2 1.2-2 0-.6-.2-.8-.6-.8v-.6-.4h.9c.4.3.6.8.6 1.3 0 1.4-.8 2.7-2 3.4-.5.3-1 .4-1.6.1l-.4-.7.5-.2z" id="Shape" fill="url(#linearGradient-26)"/><path d="M326 231.7c0-1.4.7-2.7 1.8-3.4.3-.3.8-.4 1.2-.2h-.8v1l-.4.1c-.6.5-1 1.2-1 2v.6l-.3.3-.4.1.4.8c-.3-.3-.5-.8-.5-1.3z" id="Shape" fill="url(#linearGradient-27)"/><path d="M326 231.7c0-1.4.7-2.7 1.8-3.4.3-.3.8-.4 1.2-.2h-.8v1l-.4.1c-.6.5-1 1.2-1 2v.6l-.3.3-.4.1.4.8c-.3-.3-.5-.8-.5-1.3z" id="Shape" fill="url(#linearGradient-28)"/><path d="M329 229.8c0 .8-.4 1.6-1 2-.5.3-.8.2-1-.1.7-.7 1.2-1.6 1.4-2.7.4 0 .6.3.6.8z" id="Shape" fill="#3F38FC"/><path d="M327.2 231a.6.6 0 0 1-.2-.4c0-.6.6-1.2 1.4-1.5l.6-.1c-.2.8-.9 1.5-1.8 2z" id="Shape" fill="#3F38FC"/><path id="Shape" fill="url(#linearGradient-29)" opacity=".8" d="M169.2 62l-7.2 4 55.8 32 7.2-4z"/><path d="M330 198l-6.7-4h-.3l-84.5 49.5c-.3.2-.5.6-.5 1v16.1l.1.4 6.8 4v-7.8l78-45.6c.3-.3.5-.6.5-1v-5.5l6.6-7.1z" id="Shape" fill="url(#linearGradient-30)"/><path d="M330.5 215.6l-85 49.3c-.3.2-.5 0-.5-.3v-16.2c0-.4.2-.7.5-1l85-49.3c.3-.2.5 0 .5.3v16.2c0 .4-.2.7-.5 1z" id="Shape" fill="url(#linearGradient-31)"/><path d="M319.7 212L253 251c2.1 1.9 4 3.8 5.8 6l67.2-38.6c-1.9-2.3-4-4.5-6.3-6.4z" id="Shape" fill="#242993" opacity=".6"/><path d="M327.6 211l-80.3 46c-.1 0-.3 0-.3-.3v-4c0-.3.1-.5.3-.7l80.4-46c.1 0 .3 0 .3.3v4c0 .3-.2.5-.4.7z" id="Shape" fill="#242993"/><path d="M327.7 206l-1.7 1v2.1c0 .3-.1.5-.3.7l-78.7 45v1.9c0 .3.2.4.3.3l80.4-46c.2-.2.3-.5.3-.7v-4c0-.2-.2-.4-.3-.3z" id="Shape" fill="#4553C7"/><path d="M416 310.3L365.4 281a48.5 48.5 0 0 1-24.2-39 44.2 44.2 0 0 0-19.2-32l-67 38.7c8 4.6 16.7 17.4 17.7 31a49 49 0 0 0 24 39.1L349 349l67-38.7z" id="Shape" fill="url(#linearGradient-32)"/><path d="M322.4 210L255 249l1.6 1 67.4-39-1.6-1z" id="Shape" fill="#4553C7" opacity=".8"/><g id="Group" opacity=".3" transform="translate(281 234)" fill="#4553C7"><path id="Shape" d="M13.3 21.6l-13 7.7-.2-1.6 13-7.6zM19.9 17.7l-4.6 2.7L15 19l4.7-2.7zM25 14.7l-3.2 1.9-.1-1.5 3-1.8zM7.7 28.5L.5 32.8l-.1-1.6L7.6 27zM18.3 22.2l-8.6 5.1-.2-1.5 8.7-5zM23.4 19.2l-3.1 1.9-.2-1.5 3.2-1.9zM28.2 16.4l-3 1.8-.2-1.5 3-1.8zM6 33.2L.7 36.3v-1.5l5.1-3.1zM9.7 31L8 32l-.2-1.5 1.8-1zM15 27.9l-3.3 1.9v-1.5l3.1-2zM20.1 28.5L1 39.9l-.1-1.6 19-11.4zM26.7 24.5l-4.6 2.8-.2-1.5 4.7-2.8zM6.5 40.3l-5.3 3.2V42l5.2-3.1zM18.7 33L8.5 39.1l-.1-1.5 10.1-6.1zM23.8 30l-3.1 1.8-.2-1.5 3.2-2zM12.3 40.6L1.5 47.1l-.1-1.5L12 39zM21.9 34.8l-7.6 4.6L14 38l7.7-4.6zM29 30.5l-5.1 3-.2-1.4 5.1-3.1zM5.4 48.6l-3.7 2.2v-1.6L5.2 47zM12.3 44.4l-4.8 3-.2-1.7 4.8-2.9zM22 38.5l-7.7 4.7-.1-1.6 7.6-4.6zM13.2 47.7L2 54.5 1.9 53 13 46zM25.5 40.1l-10.3 6.3v-1.6l10.2-6.2zM30.7 37l-3.2 1.9-.1-1.6 3.1-1.9zM35.6 34l-3.1 1.9-.2-1.6 3.1-1.9zM9 54l-6.8 4.2v-1.6l6.7-4.1zM39 6.5l8.4-5-.2-1.4-8.5 5zM41.1 8.7l6.7-4-.2-1.4-6.6 4zM43.4 11l4.9-3-.2-1.4-4.9 2.9zM41.6 15.6l7-4.2-.1-1.5-7 4.2zM44.2 17.6l5-2.9-.3-1.5-4.8 3zM43.3 21.8l6.3-3.7-.2-1.5-6.3 3.7zM46.6 23.5l3.4-2-.2-1.5-3.4 2zM43.8 29l6.6-4.1-.1-1.5-6.7 4zM44.6 32.2l6.3-3.9-.2-1.5-6.3 3.9zM14 51l-3 1.8v-1.6l2.8-1.7zM22.3 46L16 49.7l-.2-1.6 6.4-3.9z"/></g><path id="Shape" fill="#42FFFF" opacity=".5" d="M310 72l11-6.5V63l-11 6.5zM304 76l4-2.4V71l-4 2.4zM300 78l3-1.6V74l-3 1.6zM315 75l6-3.5V69l-6 3.5zM306 80l8-4.5V73l-8 4.5zM302 83l3-1.6V79l-3 1.6zM297 85l3-1.6V81l-3 1.6z"/><path id="Shape" fill="#42FFFF" d="M317 79l4-2.5V74l-4 2.6zM314 81l2-.8V78l-2 .8z"/><path id="Shape" fill="#42FFFF" opacity=".5" d="M309 84l3-1.6V80l-3 1.6zM305 92l16-9.5V80l-16 9.5zM299 96l4-2.4V91l-4 2.4zM317 91l4-2.5V86l-4 2.6zM307 96l9-4.7V89l-9 4.7zM302 99l3-1.6V95l-3 1.6zM312 99l9-5.4V91l-9 5.4z"/><path id="Shape" fill="#42FFFF" d="M304 105l7-3.6V99l-7 3.6z"/><path id="Shape" fill="#42FFFF" opacity=".5" d="M298 108l4-2.5V103l-4 2.5zM318 102l3-1.7V98l-3 1.7zM313 106l4-2.4V101l-4 2.4zM304 110l7-3.6V104l-7 3.6zM312 112l9-5.5V104l-9 5.5zM302 118l9-5.4V110l-9 5.4z"/><path id="Shape" fill="#42FFFF" d="M297 120l3-1.6V116l-3 1.6z"/><path id="Shape" fill="#42FFFF" opacity=".5" d="M293 123l3-1.6V119l-3 1.6zM316 115l6-3.4V109l-6 3.4z"/><path id="Shape" fill="#42FFFF" d="M292 82.5l-8 4.5v-2.5l8-4.5z"/><path id="Shape" fill="#42FFFF" opacity=".5" d="M290 89.5l-6 3.5v-2.5l6-3.5zM288 95.4l-4 2.6v-2.5l4-2.5zM290 101.4l-6 3.6v-2.4l6-3.6zM288 108.4l-4 2.6v-2.5l4-2.5zM290 112.6l-6 3.4v-2.6l6-3.4zM287 120.3l-3 1.7v-2.3l3-1.7zM290 124.5l-6 3.5v-2.5l6-3.5zM290 129.6l-6 3.4v-2.6l6-3.4zM312 118l2-1.4V114l-2 1.4zM305 122l5-3.3V116l-5 3.3zM266 97l11-6.5V88l-11 6.5zM260 101l4-2.4V96l-4 2.4z"/><path id="Shape" fill="#42FFFF" d="M255 104l3-1.6V100l-3 1.6z"/><path id="Shape" fill="#42FFFF" opacity=".5" d="M271 100l6-3.5V94l-6 3.5zM261 106l8-4.5V99l-8 4.5z"/><path id="Shape" fill="#42FFFF" d="M257 109l3-1.6V105l-3 1.6z"/><path id="Shape" fill="#42FFFF" opacity=".5" d="M253 111l3-1.6V107l-3 1.6zM272 106l4-2.6V101l-4 2.5zM269 107l2-.8V104l-2 .8zM265 110l3-1.6V106l-3 1.6zM260 118l16-9.5V106l-16 9.5zM255 122l4-2.4V117l-4 2.4zM272 117l4-2.6V112l-4 2.5zM262 122l9-4.7V115l-9 4.7zM258 125l3-1.6V121l-3 1.6z"/><path id="Shape" fill="#42FFFF" d="M268 125l9-5.4V117l-9 5.4z"/><path id="Shape" fill="#42FFFF" opacity=".5" d="M259 130l7-3.6V124l-7 3.6zM253 134l4-2.5V129l-4 2.5zM274 127l3-1.7V123l-3 1.7zM268 131l4-2.4V126l-4 2.4z"/><path id="Shape" fill="#42FFFF" d="M260 135l7-3.6V129l-7 3.6z"/><path id="Shape" fill="#42FFFF" opacity=".5" d="M267 137l9-5.5V129l-9 5.5zM257 143l9-5.4V135l-9 5.4zM252 146l3-1.6V142l-3 1.6zM247 149l3-1.6V145l-3 1.6zM271 140l6-3.4V134l-6 3.4z"/><path id="Shape" fill="#42FFFF" d="M247 108.5l-8 4.5v-2.5l8-4.5z"/><path id="Shape" fill="#42FFFF" opacity=".5" d="M245 115.5l-6 3.5v-2.5l6-3.5zM243 121.5l-4 2.5v-2.4l4-2.6zM245 126.4l-6 3.6v-2.4l6-3.6zM243 133.5l-4 2.5v-2.4l4-2.6zM245 139.6l-6 3.4v-2.6l6-3.4zM242 146.3l-3 1.7v-2.3l3-1.7zM245 150.5l-6 3.5v-2.5l6-3.5zM245 156.6l-6 3.4v-2.6l6-3.4z"/><path id="Shape" fill="#42FFFF" d="M267 144l2-1.4V140l-2 1.4z"/><path id="Shape" fill="#42FFFF" opacity=".5" d="M260 148l5-3.3V142l-5 3.3zM310 124l11-6.5V115l-11 6.5zM304 128l4-2.4V123l-4 2.4zM300 130l3-1.6V126l-3 1.6zM315 127l6-3.5V121l-6 3.5zM306 132l8-4.5V125l-8 4.5zM302 135l3-1.6V131l-3 1.6zM297 137l3-1.6V133l-3 1.6zM317 131l4-2.6V126l-4 2.5zM314 133l2-.8V130l-2 .8zM309 136l3-1.6V132l-3 1.6zM305 144l16-9.5V132l-16 9.5zM299 148l4-2.4V143l-4 2.4zM317 144l4-2.6V139l-4 2.5zM307 149l9-4.7V142l-9 4.7zM302 152l3-1.6V148l-3 1.6zM312 152l9-5.4V144l-9 5.4zM304 156l7-3.6V150l-7 3.6zM298 160l4-2.5V155l-4 2.6zM318 154l3-1.7V150l-3 1.7zM313 158l4-2.4V153l-4 2.4zM304 162l7-3.6V156l-7 3.6zM312 164l9-5.5V156l-9 5.5zM302 170l9-5.4V162l-9 5.4zM297 172l3-1.6V168l-3 1.6zM293 175l3-1.6V171l-3 1.6zM316 167l6-3.4V161l-6 3.4zM292 134.5l-8 4.5v-2.5l8-4.5zM290 141.5l-6 3.5v-2.5l6-3.5zM288 148.5l-4 2.5v-2.5l4-2.5zM290 153.4l-6 3.6v-2.4l6-3.6zM288 159.5l-4 2.5v-2.5l4-2.5zM290 164.6l-6 3.4v-2.6l6-3.4zM287 171.3l-3 1.7v-2.3l3-1.7zM290 175.5l-6 3.5v-2.5l6-3.5zM290 182.6l-6 3.4v-2.6l6-3.4zM312 169l2-1.4V165l-2 1.4zM305 174l5-3.3V168l-5 3.3zM300 194l9-5.4V186l-9 5.4zM294 197l4-2.3V192l-4 2.3zM266 150l11-6.5V141l-11 6.5zM260 154l4-2.4V149l-4 2.4zM255 156l3-1.6V152l-3 1.6zM271 153l6-3.5V147l-6 3.5zM261 158l8-4.5V151l-8 4.5zM257 161l3-1.6V157l-3 1.6zM253 163l3-1.6V159l-3 1.6zM272 157l4-2.5V152l-4 2.5zM269 159l2-.8V156l-2 .8zM265 162l3-1.6V158l-3 1.6zM260 170l16-9.5V158l-16 9.5zM255 174l4-2.4V169l-4 2.4zM272 169l4-2.5V164l-4 2.5zM262 174l9-4.7V167l-9 4.7zM258 177l3-1.6V173l-3 1.6zM268 177l9-5.4V169l-9 5.4zM259 183l7-3.6V177l-7 3.6zM253 186l4-2.6V181l-4 2.5zM274 180l3-1.7V176l-3 1.7zM268 184l4-2.4V179l-4 2.4zM260 188l7-3.6V182l-7 3.6zM267 190l9-5.5V182l-9 5.5zM257 196l9-5.4V188l-9 5.4zM252 198l3-1.6V194l-3 1.6zM247 201l3-1.6V197l-3 1.6zM271 193l6-3.4V187l-6 3.4zM247 160.5l-8 4.5v-2.5l8-4.5zM245 167.5l-6 3.5v-2.5l6-3.5zM243 173.5l-4 2.5v-2.5l4-2.5zM245 179.4l-6 3.6v-2.4l6-3.6zM243 185.5l-4 2.5v-2.5l4-2.5zM245 190.6l-6 3.4v-2.6l6-3.4zM242 198.3l-3 1.7v-2.3l3-1.7zM245 202.5l-6 3.5v-2.5l6-3.5zM245 207.6l-6 3.4v-2.6l6-3.4zM267 196l2-1.4V192l-2 1.4zM260 200l5-3.3V194l-5 3.3zM256 219l9-5.4V211l-9 5.4zM249 224l4-2.3V219l-4 2.3z"/><path d="M363.9 304.5c1.2 3.6-7 10-18.2 14.1-11.3 4.1-21.3 4.6-22.6 1-1.2-3.7 7-10 18.2-14.2 11.3-4 21.4-4.6 22.6-.9z" id="Shape" fill="#081175" opacity=".5"/><path id="Shape" fill="#DD821F" d="M337 291l.1-3.8.6-2.2.3 1.8z"/><path d="M373.9 291l.1-3-3 2.6 2.9.4z" id="Shape" fill="#FFD85A"/><path d="M355.6 303c-10.5-.3-18.8-5.6-18.6-14.8.2-9.2 9-16.4 19.4-16.2 10.5.2 18.8 8 18.6 17.1-.2 9.2-9 14.1-19.4 13.9z" id="Shape" fill="#FFD85A"/><ellipse id="Oval" fill="#FFD85A" transform="rotate(-88.6 355.5 292)" cx="355.5" cy="292" rx="16.5" ry="19"/><path d="M342.7 280a15.9 15.9 0 0 0-5.7 11.7c-.2 9.3 8.1 17 18.6 17.3 4.8.2 9.6-1.4 13.4-4.5L342.7 280z" id="Shape" fill="#DD821F"/><path d="M354.6 308c-10-.2-17.8-7.6-17.6-16.4.2-8.9 8.4-15.8 18.4-15.6 10 .2 17.8 7.6 17.6 16.4-.2 8.9-8.4 15.8-18.4 15.6z" id="Shape" fill="#F9BF30"/><ellipse id="Oval" fill="#F2B42A" transform="rotate(-88.6 355 291.5)" cx="355" cy="291.5" rx="13" ry="14.5"/><path d="M370 291.6v-.9c-.7 6.6-7 11.7-14.8 11.6-7.6-.2-13.8-5.6-14.1-12.3l-.1.9c-.2 7 6.2 12.9 14.2 13.1 8 .2 14.6-5.4 14.8-12.4z" id="Shape" fill="#FFD85A"/><path d="M358 292.7l-2.9-2.7-12.1 2.8a12 12 0 0 0 6.8 7.2l8.2-7.3zM353 300.9a13.5 13.5 0 0 0 10-2.7l-4.6-4.2-5.4 6.9zM351 287.3l-5.2-5.3c-1.8 1.7-3.4 3.5-3.8 6l9-.7z" id="Shape" fill="#FFD85A"/><path d="M355.1 280.5c8 .2 14.3 5.8 14.1 12.6 0 1.3-.3 2.7-.8 3.9 1-1.6 1.5-3.5 1.6-5.4.2-6.8-6.2-12.4-14.1-12.6-6.4-.1-11.9 3.2-13.9 8 2.8-4.2 7.8-6.8 13.1-6.5zM337 287.6c0 1.1 0 2.3.2 3.4l1.2-5.1 1.4-3.1 1.1-1 2-1.4.1-4.4c-3.6 2.7-5.8 7-6 11.6zM373 286.8v-.6l.3-.2c.1 0 .2 0 .2.2v.6l-.3.2-.2-.2zM371 283.7v-1.5l.1-.1.2-.1h.2s.2.1.2.3l-.1 1.5-.2.2h-.2-.1l-.1-.3zM369 280.7v-1.4l.2-.2.1-.1h.3c.1 0 .2.1.2.3v1.4c0 .2-.1.3-.3.3h-.4l-.1-.3zM366 278.6v-2.2c0-.2.2-.4.3-.4h.3l.2.1v2.5c0 .2-.2.4-.3.4h-.3l-.1-.1-.1-.3zM363 276.7v-2.4c.1-.2.2-.3.4-.3h.2l.2.3v2.4c0 .2-.2.3-.3.3h-.3l-.2-.3zM358 275.6v-2.3l.2-.2.2-.1h.2l.2.3v2.4c0 .2-.2.3-.3.3h-.2l-.2-.1-.1-.3zM355 274.7v-2.4c0-.2.2-.3.3-.3h.3l.2.3v2.4l-.1.2-.2.1h-.3l-.1-.1-.1-.2zM351 275.6v-2.3c0-.1.2-.3.4-.3h.2l.2.4v2.3l-.3.3h-.2l-.2-.1-.1-.3zM348 275.6v-2.3l.2-.2.1-.1h.3l.2.1V275.7l-.3.3h-.3l-.1-.1-.1-.3zM345 277.7l.1-2.4v-.2l.3-.1h.2l.2.1v2.6c0 .2-.2.3-.3.3h-.2c-.2 0-.3-.2-.3-.3z" id="Shape" fill="#DD821F"/><path d="M305.9 342.5c1.2 3.6-7 10-18.2 14.1-11.3 4.1-21.4 4.6-22.6 1-1.2-3.7 7-10 18.2-14.2 11.3-4.1 21.4-4.6 22.6-1z" id="Shape" fill="#081175" opacity=".5"/><path id="Shape" fill="#DD821F" d="M277 329l.1-3.8.6-2.2.3 1.8z"/><path d="M314.9 329l.1-3-3 2.6 2.9.4z" id="Shape" fill="#FFD85A"/><path d="M296.6 340c-10.5-.3-18.8-5.6-18.6-14.8.2-9.2 9-16.4 19.4-16.2 10.5.2 18.8 8 18.6 17.1-.2 9.2-9 14.1-19.4 13.9z" id="Shape" fill="#FFD85A"/><ellipse id="Oval" fill="#FFD85A" transform="rotate(-88.6 296.5 330)" cx="296.5" cy="330" rx="16.5" ry="19"/><path d="M282.7 317a15.9 15.9 0 0 0-5.7 11.7c-.2 9.3 8.1 17 18.6 17.3 4.8.2 9.6-1.4 13.4-4.5L282.7 317z" id="Shape" fill="#DD821F"/><ellipse id="Oval" fill="#F9BF30" transform="rotate(-88.6 296 330)" cx="296" cy="330" rx="16" ry="18"/><ellipse id="Oval" fill="#F2B42A" transform="rotate(-88.6 296 329.5)" cx="296" cy="329.5" rx="13" ry="14.5"/><path d="M311 329.6v-.9c-.7 6.6-7 11.7-14.8 11.6-7.6-.2-13.8-5.6-14.1-12.3l-.1.9c-.2 7 6.2 12.9 14.2 13.1 8 .2 14.6-5.4 14.8-12.4z" id="Shape" fill="#FFD85A"/><path d="M298 330.7l-2.9-2.7-12.1 2.8a12 12 0 0 0 6.8 7.2l8.2-7.3zM295 338.9a13.5 13.5 0 0 0 10-2.7l-4.6-4.2-5.4 6.9zM292 325.3l-5.2-5.3c-1.8 1.7-3.4 3.5-3.8 6l9-.7z" id="Shape" fill="#FFD85A"/><path d="M296.1 318.4c8 .2 14.4 5.8 14.1 12.7 0 1.3-.3 2.7-.8 3.9a11 11 0 0 0 1.6-5.4c.2-6.8-6.2-12.4-14.1-12.6-6.4-.1-11.9 3.2-13.9 8 2.8-4.3 7.8-6.8 13.1-6.6zM278 325.6c0 1.1 0 2.3.2 3.4l1.3-5.1 1.3-3.1 1.1-1 2-1.4.1-4.4c-3.6 2.7-5.8 7-6 11.6zM314 324.8v-.6l.3-.2c.1 0 .2 0 .2.2v.6l-.1.1-.1.1h-.1-.2v-.2zM312 320.7v-1.5l.3-.2h.2s.2.1.2.3l-.1 1.5-.2.2h-.2-.1l-.1-.3zM310 317.7v-1.4l.2-.2.1-.1h.3c.1 0 .2.1.2.3v1.4c0 .2-.2.3-.3.3h-.3-.1l-.1-.3zM307 315.6v-2.2c0-.2.2-.4.3-.4h.3l.2.1v2.5c0 .2-.2.4-.3.4h-.3l-.1-.1-.1-.3zM303 314.7v-2.4c.1-.2.2-.3.4-.3h.2l.2.3-.1 2.4c0 .2-.1.3-.3.3h-.2l-.2-.3zM300 313.6v-2.3c.1-.2.2-.3.4-.3h.2l.2.3v2.4c0 .2-.2.3-.3.3h-.3l-.1-.1-.1-.3zM297 312.7v-2.4c0-.2.2-.3.3-.3h.3l.2.3v2.4l-.1.2-.2.1h-.3l-.1-.1-.1-.2zM293 312.6v-2.3c0-.2.2-.3.3-.3h.3l.2.4v2.3l-.3.3h-.2l-.2-.1-.1-.3zM290 313.6v-2.3l.3-.3h.3l.2.1V313.7l-.3.3h-.3l-.2-.4zM285 315.7v-2.4l.2-.2.1-.1h.3l.2.1v2.6c0 .2-.2.3-.3.3h-.3l-.2-.3z" id="Shape" fill="#DD821F"/><path d="M413.6 171.6L363.7 143c-1-.6-1-1.7.3-2.3l27.2-15.7 53.8 30.7-27.1 15.7c-1.3.7-2.9.8-4.3.2z" id="Shape" fill="#081175" opacity=".5"/><path d="M496 125v-10h-16.3l-36-20.7a4 4 0 0 0-3.6.2l-36 20.6H388v10c0 .4.3.7.6.8l51.8 29.8a4 4 0 0 0 3.4-.2l51.3-29.4c.5-.2.8-.6.9-1.1z" id="Shape" fill="url(#linearGradient-33)"/><path d="M440.4 145.7l-51.8-29.8c-.9-.5-.8-1.4.2-2l51.3-29.4a4 4 0 0 1 3.5-.2l51.8 29.8c.9.5.8 1.4-.2 2l-51.3 29.4c-1.1.6-2.4.7-3.5.2z" id="Shape" fill="url(#linearGradient-34)"/><path d="M440.4 145.7l-51.8-29.8c-.9-.5-.8-1.4.2-2l51.3-29.4a4 4 0 0 1 3.5-.2l51.8 29.8c.9.5.8 1.4-.2 2l-51.3 29.4c-1.1.6-2.4.7-3.5.2z" id="Shape" fill="url(#linearGradient-34)"/><path d="M440.6 142.7l-46-26.4c-.9-.4-.8-1.2.2-1.8l45.6-26c.9-.6 2-.6 3-.2l46 26.4c.9.4.8 1.2-.2 1.7l-45.6 26.2c-.9.5-2 .5-3 0z" id="Shape" fill="#242993"/><path d="M440.2 139.7l-41.7-24c-.7-.4-.6-1.1.2-1.5L440 90.4c.9-.5 1.9-.5 2.8-.1l41.7 24c.7.3.6 1.1-.2 1.5L443 139.6c-.9.5-1.9.5-2.8.1z" id="Shape" fill="#4553C7"/><path id="Shape" fill="#42FFFF" d="M440.5 114l-4.5-2.6 2.5-1.4 4.5 2.6zM450 113.4l-4.5 2.6-2.5-1.4 4.5-2.6zM439 114.5l-2.5 1.5-2.5-1.5 2.5-1.5zM450 119.5l-2.6 1.5-7.4-4.5 2.6-1.5z"/><path d="M496 101.6l-22 .1-30.4-17.4a4 4 0 0 0-3.5.2L409.4 102l-21.4.1v13c0 .3.3.5.6.7l51.8 29.8c1 .5 2.4.4 3.4-.2l51.3-29.5c.4-.2.7-.5.8-.9l.1-13.5z" id="Shape" fill="#42FFFF" opacity=".4"/><path d="M496 103V93h-16.3l-36-20.7a4 4 0 0 0-3.6.2l-36 20.6H388v10c0 .3.3.7.6.8l51.8 29.8c1 .5 2.4.4 3.4-.2l51.3-29.4c.5-.2.8-.6.9-1.1z" id="Shape" fill="url(#linearGradient-35)"/><path d="M440.4 124.7l-51.8-29.8c-.9-.5-.8-1.4.2-2l51.3-29.4c1.1-.6 2.4-.7 3.5-.2l51.8 29.8c.9.5.8 1.4-.2 2l-51.3 29.4c-1.1.6-2.4.7-3.5.2z" id="Shape" fill="url(#linearGradient-36)"/><path d="M440.6 120.7l-46-26.4c-.9-.4-.8-1.2.2-1.7l45.6-26.2c.9-.5 2-.5 3-.1l46 26.4c.9.4.8 1.2-.2 1.7l-45.6 26.2c-.9.5-2 .5-3 .1z" id="Shape" fill="#242993"/><path d="M440.2 117.7l-41.7-24c-.7-.4-.6-1.1.2-1.6L440 68.4c.9-.5 1.9-.5 2.8-.1l41.7 24c.7.4.6 1.1-.2 1.6L443 117.6c-.9.5-1.9.5-2.8.1z" id="Shape" fill="#4553C7"/><path id="Shape" fill="#42FFFF" d="M440.5 91l-4.5-2.6 2.5-1.4 4.5 2.6zM450 90.4l-4.5 2.6-2.5-1.4 4.5-2.6zM439 91.5l-2.5 1.5-2.5-1.5 2.5-1.5zM450 97.5l-2.6 1.5-7.4-4.5 2.6-1.5z"/><path d="M86 426.6l-50.3-28.7c-1-.7-1-1.7.3-2.5l14.8-8.4 54.2 31-14.8 8.4c-1.3.7-2.8.8-4.2.2z" id="Shape" fill="#081175" opacity=".5"/><path d="M156 387v-10h-16.1L104 356.4a3.8 3.8 0 0 0-3.5.2L65 377H49v10c0 .3.2.7.6.8l51.3 29.8c1.1.5 2.4.4 3.5-.2l50.8-29.4c.4-.2.7-.6.8-1z" id="Shape" fill="url(#linearGradient-37)"/><path d="M101.4 407.7l-51.8-29.8c-.9-.5-.8-1.4.2-2l51.3-29.4c1.1-.6 2.4-.7 3.5-.2l51.8 29.8c.9.5.8 1.4-.3 2l-51.3 29.4c-1 .6-2.3.7-3.4.2z" id="Shape" fill="url(#linearGradient-38)"/><path d="M100.6 404.7l-46-26.4c-.9-.4-.8-1.2.2-1.7l45.6-26.2c.9-.5 2-.5 3-.1l46 26.4c.9.4.8 1.2-.1 1.8l-45.6 26c-1 .6-2.1.6-3.1.2z" id="Shape" fill="#242993"/><path d="M101.2 401.7l-41.7-24c-.7-.4-.6-1.1.2-1.6l41.3-23.7c.9-.5 1.9-.5 2.8-.1l41.7 24c.7.4.6 1-.2 1.6L104 401.6c-.9.5-1.9.5-2.8.1z" id="Shape" fill="#4553C7"/><path id="Shape" fill="#42FFFF" d="M101.5 376l-4.5-2.6 2.5-1.4 4.5 2.6zM110 375.4l-4.5 2.6-2.5-1.4 4.5-2.6zM101 376.5l-2.5 1.5-2.5-1.5 2.5-1.5zM110 381.5l-2.6 1.5-7.4-4.5 2.6-1.5z"/><path d="M51 192.6L.7 163.8c-1-.6-1-1.7.3-2.3l14.8-8.5L70 184l-14.7 8.4c-1.4.7-3 .8-4.3.2z" id="Shape" fill="#081175" opacity=".5"/><path d="M122 153v-10h-16.3l-36.1-20.7a3.9 3.9 0 0 0-3.5.2l-36 20.6H14v10c0 .3.3.7.6.8l51.8 29.8c1.1.5 2.4.4 3.5-.2l51.3-29.4c.4-.2.7-.6.8-1.1z" id="Shape" fill="url(#linearGradient-39)"/><path d="M66.4 173.7l-51.8-29.8c-.9-.5-.8-1.4.2-2l51.3-29.4c1.1-.6 2.4-.7 3.5-.2l51.8 29.8c.9.5.8 1.4-.3 2l-51.3 29.4c-1 .6-2.3.7-3.4.2z" id="Shape" fill="url(#linearGradient-40)"/><path d="M67.6 170.7l-46-26.4c-.9-.4-.8-1.2.2-1.7l45.6-26.2c1-.5 2-.5 3-.1l46 26.4c.9.4.8 1.2-.2 1.7l-45.6 26.2c-1 .5-2 .5-3 .1z" id="Shape" fill="#242993"/><path d="M66.2 167.7l-41.7-24c-.7-.4-.6-1.1.2-1.6L66 118.4c.9-.5 1.9-.5 2.8-.1l41.7 24c.7.4.6 1.1-.2 1.6L69 167.6c-.9.5-1.9.5-2.8.1z" id="Shape" fill="#4553C7"/><path id="Shape" fill="#42FFFF" d="M66.5 142l-4.5-2.6 2.5-1.4 4.5 2.6zM76 141.4l-4.5 2.6-2.5-1.4 4.5-2.6zM66 142.5l-2.5 1.5-2.5-1.5 2.5-1.5zM75 148.5l-2.6 1.5-7.4-4.5 2.6-1.5z"/></g><text id="精准如实的财务公式计算-不遗漏任何一条数" font-family="PingFang-SC-Medium, PingFang SC" font-size="20" font-weight="400" fill="#454545"><tspan x="558" y="262">精准如实的财务公式计算 不遗漏任何一条数据</tspan> <tspan x="558" y="302">并能大大提升您的财务核算能力</tspan></text></g></g></g></svg>