<?xml version="1.0" encoding="UTF-8"?><svg width="974" height="289" xmlns="http://www.w3.org/2000/svg"><!--Generator: Sketch 50.2 (55047) - http://www.bohemiancoding.com/sketch--><defs><linearGradient x1="33.6%" y1="11.2%" x2="66.8%" y2="89.8%" id="linearGradient-1"><stop stop-color="#D99658" offset="0%"/><stop stop-color="#BA8757" offset="99%"/></linearGradient><linearGradient x1="34.9%" y1="27.3%" x2="54.4%" y2="81.1%" id="linearGradient-2"><stop stop-color="#F0D9C7" offset="0%"/><stop stop-color="#EBDACC" offset="99%"/></linearGradient><linearGradient x1="48.7%" y1="31.7%" x2="76.1%" y2="96.7%" id="linearGradient-3"><stop stop-color="#FFC28C" offset="0%"/><stop stop-color="#BA8757" offset="99%"/></linearGradient><linearGradient x1="47%" y1="18.8%" x2="77.1%" y2="77%" id="linearGradient-4"><stop stop-color="#FFC28C" offset="0%"/><stop stop-color="#BA8757" offset="99%"/></linearGradient><linearGradient x1="42.1%" y1="18.1%" x2="69.1%" y2="70.7%" id="linearGradient-5"><stop stop-color="#FFC28C" offset="0%"/><stop stop-color="#BA8757" offset="99%"/></linearGradient><linearGradient x1="-.1%" y1="50%" x2="99.9%" y2="50%" id="linearGradient-6"><stop stop-color="#FFD441" offset="0%"/><stop stop-color="#FF8229" offset="100%"/></linearGradient><linearGradient x1="0%" y1="49.7%" y2="49.7%" id="linearGradient-7"><stop stop-color="#FFD441" offset="0%"/><stop stop-color="#FF8229" offset="100%"/></linearGradient><linearGradient x1=".4%" y1="50%" x2="100.4%" y2="50%" id="linearGradient-8"><stop stop-color="#FFD441" offset="0%"/><stop stop-color="#FF8229" offset="100%"/></linearGradient><linearGradient x1="0%" y1="49.7%" y2="49.7%" id="linearGradient-9"><stop stop-color="#FFD441" offset="0%"/><stop stop-color="#FF8229" offset="100%"/></linearGradient><linearGradient x1="0%" y1="50%" y2="50%" id="linearGradient-10"><stop stop-color="#FFD441" offset="0%"/><stop stop-color="#FF8229" offset="100%"/></linearGradient><linearGradient x1="0%" y1="50.1%" y2="50.1%" id="linearGradient-11"><stop stop-color="#FFD441" offset="0%"/><stop stop-color="#FF8229" offset="100%"/></linearGradient></defs><g id="Page-1" fill="none" fill-rule="evenodd"><g id="06-订单合同" transform="translate(-303 -313)"><g id="Group-6" transform="translate(303 274)"><g id="Group-5" transform="translate(547)" font-family="PingFang-SC-Semibold, PingFang SC" font-weight="500"><text id="bservation" font-size="60" fill="#F2F2F2"><tspan x="133" y="164">bservation</tspan></text><text id="rder" font-size="60" fill="#F2F2F2"><tspan x="133" y="111">rder</tspan></text><text id="O" font-size="160" fill="#E1E1E1"><tspan x="0" y="170">O</tspan></text></g><text id="为您时刻观察着-订单的生产进度与品质情况" font-family="PingFang-SC-Medium, PingFang SC" font-size="20" font-weight="400" fill="#454545"><tspan x="558" y="214">为您时刻观察着 订单的生产进度与品质情况</tspan> <tspan x="558" y="254">确保服务好每一位重要的客户！</tspan></text><g id="资源-4" transform="translate(0 39)" fill-rule="nonzero"><path id="Shape" fill="#F0AD71" d="M0 124.2v7.3L272.5 289v-7.4L0 124.2"/><path id="Shape" fill="#9C7049" d="M461.4 171.7v7.4L272.5 288.9v-7.4l189-109.8"/><path id="Shape" fill="#C48D5C" d="M189 14.4L0 124.2l272.5 157.3 189-109.8z"/><path id="Shape" fill="#E6E8F2" d="M271.3 244.2L22.2 100.4v25.8L271.3 270v-25.8"/><path id="Shape" fill="#CED2E3" d="M271.3 244.2V270l172.8-100.3v-25.8z"/><path id="Shape" fill="#FFF" d="M194.9 0L22.2 100.4l249.1 143.8L444.1 144z"/><path id="Shape" fill="#D8DEED" d="M268.4 52.5L125 135.8l3.1 1.8 143.4-83.3zM203.3 141.4l75-43.6-3.2-1.8-75 43.6zM286.2 62.8L142.8 146l3.2 1.8 143.4-83.3zM295.1 68l-143.4 83.3 3.2 1.8 143.4-83.3zM320 82.2l-143.5 83.4 3.2 1.8L323 84zM328.8 87.4l-143.3 83.3 3.1 1.8L332 89.2zM337.8 92.5L194.4 176l3.1 1.8L341 94.4zM346.7 97.7L203.3 181l3.1 1.8 143.4-83.3zM355.6 102.9l-143.4 83.3 3.2 1.8 143.4-83.3zM364.5 108l-143.3 83.3 3.1 1.9 143.4-83.4zM277.3 57.6L133.9 141l3.2 1.8 143.3-83.4zM259.4 47.3l-143.3 83.4 3.1 1.8 143.4-83.3zM250.5 42.2l-143.4 83.3 3.2 1.8L253.7 44zM134 101.3l74.9-43.5-3.2-1.8-75 43.5zM195.6 26.3l-116 67.4 8 4.7 116-67.4z"/><path d="M409.4 136.3l-.4-.2-.4-.3c-1.6.2-3.2 0-4.6-.8-1.3-.8-1.8-1.8-1.5-2.6l-.8-.5-.8-.5c-1.6.2-3.2 0-4.5-.8-1.3-.8-1.9-1.8-1.5-2.7l-.8-.4-.8-.5c-1.6.2-3.2 0-4.6-.8-1.3-.8-1.8-1.8-1.5-2.7l-.8-.4-.8-.5c-1.6.2-3.2-.1-4.6-.8-1.3-.8-1.8-1.8-1.5-2.7l-.4-.2-.4-.3-4.2-2.4-4.3 2.4-.3.2-.4.3c.3.9-.2 1.9-1.4 2.6-1.4.7-3 1-4.5.8l-.8.4-.7.5c.3.8-.1 1.8-1.4 2.6-1.4.7-3 1-4.5.8l-.7.4-.8.5c.4.8-.1 1.8-1.4 2.5-1.3.8-2.9 1-4.4.9l-.8.4-.8.4c.4.9 0 1.9-1.3 2.6-1.4.7-3 1-4.5.8l-.8.5-.7.4c.3.9-.1 1.9-1.4 2.6-1.4.7-3 1-4.5.8l-.7.5-.8.4c.4.9-.1 1.8-1.4 2.6-1.3.7-2.9 1-4.4.8l-.5.3-.3.1-4.2 2.5 4.3 2.5.3.2.4.2c1.6-.2 3.2.1 4.6.9 1.3.8 1.8 1.8 1.5 2.6l.8.5.8.5c1.5-.2 3.1 0 4.5.8 1.3.8 1.8 1.8 1.5 2.6l.8.5.8.5c1.6-.2 3.2 0 4.5.8 1.4.8 1.9 1.8 1.6 2.7l.8.4.8.5c1.5-.2 3.1 0 4.5.8 1.3.8 1.8 1.8 1.5 2.7l.4.2.4.2 4.3 2.5 4.2-2.5.3-.1.5-.3c-.3-.9.1-1.9 1.4-2.6 1.3-.7 3-1 4.4-.8l.8-.4.8-.5c-.4-.8.1-1.8 1.3-2.6 1.4-.7 3-1 4.5-.8l.8-.4.7-.5c-.3-.8.2-1.8 1.4-2.6 1.4-.7 3-1 4.5-.8l.7-.4.8-.4c-.3-1 .1-1.9 1.4-2.6 1.4-.8 3-1 4.4-.8l.8-.5.8-.4c-.4-.9.1-1.9 1.4-2.6 1.3-.7 2.9-1 4.4-.8l.8-.5.7-.4c-.3-.9.2-1.9 1.4-2.6 1.4-.7 3-1 4.5-.8l.4-.3.3-.2 4.3-2.4-4.3-2.5z" id="Shape" fill="#DED4BC"/><path id="Shape" fill="#FFF7E6" d="M374.5 121.3l-43.9 25.5 30.3 17.4 43.8-25.5z"/><path d="M349.7 174.3a4.1 4.1 0 0 1-3.5 3.1c-2.2.2-4.4-1-5.9-1.8l-.6-.3c-4.2-2.4-8-5.6-10.9-9.5-3.2-4.2-4.9-9.3-1-13.5 1.8-2 4.2-3.4 6.8-4 2.7-.6 5.5-.4 8.1.4 1.5.5 3 1.1 4.4 2l.7.4a6 6 0 0 1 4 .2l.5.4.4.7c1.8-.5 3.7-.7 5.7-.6.3.2-.6 1-.7 1a49.5 49.5 0 0 0-4.8 3.8l.3.9-.2.3c1.6-1 3.3-1.8 5-2.6 2.6-1.1 5.2-2.4 7.7-3.8l5.2-3.4c1.2-.8 2.5-1.4 4-1.7.3.1-.4 1.2-1 1.3-2 .2-3.6 1.5-4.8 2.3l-4.2 2.8c-5 2.8-11 5-15.6 8-.2.3-.4.3-.5.2v-.3c.6-1.3 1.5-2.4 2.5-3.4a8 8 0 0 0-.9-1.5 12.1 12.1 0 0 1-2.7 1.1c-.2.2-.4.3-.5.2l-2.1.5c.5.9 1.1 1.6 2 2.2.3.1-.2.8-.7 1l.8 1.4c1 1.9 1.6 4 2.1 6 4.3-3.3 8.6-6.5 13.2-9.5 3.3-2.2 6.6-4.3 10-6.3 1.3-1 2.6-1.8 4-2.7a6.6 6.6 0 0 1 3-1c.3 0 0 .5-.4.5-1.8.2-3 1.3-4 2l-4 2.6c-3.3 2-6.6 4-9.7 6.2l-12 8.7c.5 2 1 4 .3 5.8zm-2.5 1.9c1.4-.2 1.3-1.4 1.4-2 0-1.6-.1-3-.5-4.5a185.5 185.5 0 0 1-4.5 3c-.1 0-.1-.2 0-.4l4.4-3.2-.3-1a20 20 0 0 0-2.7-6.4l-.3.2a6 6 0 0 1 1 3.6c-.2.9-1.4 3.2-3.8 2.6l-1.7-.7c-1.4-.9-2.5-2-3.5-3.4s-2.4-3-1.6-4.5a5.1 5.1 0 0 1 3.2-2.5 1 1 0 0 1-.1-.6c.2-1.8 2.8-2.7 5.4-2.7a5 5 0 0 1 1.8-1.8l.3-.2c-.7-.5-1.5-.8-2.3-1.2-4.2-1.7-10-2.2-13.4.6-7.9 6.3.4 15.5 7.7 20.8a36.8 36.8 0 0 0 6.4 3.7c1 .4 2 .6 3.1.5zm-4.4-16.9c-.2 0-.3-.2-.5-.3l-.4-.2c-1.2-.6-4.7-1.5-5.4 0-.9 1.6 1.1 3.8 2.5 5.2.8.9 1.6 1.6 2.6 2.3l.4.2c.8.4 2.2.8 2.3-.1 0-2-1.1-4.1-2.6-5.9-.2-.3.7-1 1.1-1.2zm13.6-6.3c-1.3 0-2.6 0-3.8.4l-.8 1.3.8 1.3 3.8-3zm-9.8-.7c-.8 0-1.5.6-1.8 1.3v.3c.8 0 1.7.3 2.5.8l.8.6 1-1c-.7-.7-1.6-1.4-2.5-2zm-3.5 4.4v-1.6H340.3c-.8.3-1 1-.4 1.3h.1c1 .4 2 .5 3.1.4zm1.6-.1l1.7-.4-.3-.2c-.5-.3-1-.5-1.6-.6l.2 1.2zm7 1.8l-.1-.5-1 1.4 1.2-.8zm-1.5-6h-.7c.5.3.9.6 1.2 1l.6-.3c0-.2-.2-.3-.4-.4l-.7-.3zm-.2 2.8l-.3-.4-.8.8h.2l1-.4zm1.4-1.3h-.2l.1.1v-.1zm-7.9 4v-.1z" id="Shape" fill="#394169"/><path d="M337.8 159.5a24 24 0 0 0-21.8 0c-6 3.5-6 9.1.1 12.6a24 24 0 0 0 21.8 0c6-3.5 6-9.1-.1-12.6zm-2.2 11.3a19 19 0 0 1-17.2 0c-4.8-2.8-4.8-7.2 0-10a19 19 0 0 1 17.1 0c4.8 2.7 4.8 7.2.1 10zm9.9-15.8a41 41 0 0 0-37.2 0c-10.2 6-10.1 15.6.1 21.5 10.3 6 27 6 37.2 0 10.2-6 10.1-15.5-.1-21.5zm-3.7 19.3a32.6 32.6 0 0 1-29.6 0c-8.2-4.7-8.2-12.3 0-17a32.5 32.5 0 0 1 29.5 0c8.2 4.6 8.2 12.3.1 17z" id="Shape" fill="#FF8CBE" style="mix-blend-mode:multiply"/><path d="M461.8 10.7c-10.6-5.9-19.1-.7-19 11.6.1 4 1 7.9 2.3 11.5l1.4 3.7c-.7-1.8-1-3.8-1.1-5.7-.1-6.2 4.1-8.8 9.4-5.8a21 21 0 0 1 9.8 16.5c0 6.1-4.2 8.7-9.5 5.8-1.8-1-3.4-2.4-4.7-4l2.6 3c2.6 3.2 5.7 5.9 9.3 8 10.6 5.9 19.1.7 19-11.6-.2-12.3-9-27-19.5-33z" id="Shape" fill="url(#linearGradient-1)"/><path d="M461.8 11.5a42.2 42.2 0 0 1 19.4 32.9v-.7c-.1-12.3-8.8-27-19.4-33-10.6-6-19.1-.7-19 11.6v.1c.2-11.8 8.5-16.7 19-10.9z" id="Shape" fill="#FFDDBF"/><path d="M461.4 32.6c2 3 3 6.4 3.2 9.9 0 6.1-4.2 8.7-9.5 5.8-1.8-1-3.4-2.4-4.7-4l2.6 3c2.6 3.2 5.7 5.9 9.3 8 5.8 3.2 11 3 14.5.3l-15.4-23z" id="Shape" fill="url(#linearGradient-2)" style="mix-blend-mode:multiply"/><path d="M464.6 43.2V43c-.2 5.8-4.3 8.2-9.5 5.4-1.8-1-3.4-2.4-4.7-4l2.6 3 .6.7 1.5 1c5.3 3 9.5.4 9.5-5.8z" id="Shape" fill="#C2A58E" style="mix-blend-mode:multiply"/><path d="M472.8 4.3c-5.2-2.9-10-3.1-13.4-1.1l-4.3 2.5-1.2.7-5 2.9-.5.3c3.4-2 8.1-1.8 13.3 1.1a42.2 42.2 0 0 1 19.5 33c0 6.3-2 10.7-5.6 12.8l11-6.5c3.5-2 5.7-6.4 5.6-12.7a42 42 0 0 0-19.4-33z" id="Shape" fill="url(#linearGradient-3)"/><path d="M454.8 26a7.5 7.5 0 0 0-5.6-1L420 33.1c2.4-.6 5.5-.2 8.7 1.7A33 33 0 0 1 444 60.6c0 4-1 7-3 8.8l21.7-21.3c1.3-1.5 2-3.6 1.8-5.6a21 21 0 0 0-9.7-16.5z" id="Shape" fill="url(#linearGradient-4)"/><path d="M422.8 32.9l26.4-7.4c2-.5 4 0 5.6 1 5.3 2.9 9.6 10.2 9.8 16.3v-.4c-.1-6.1-4.5-13.5-9.8-16.4a7.5 7.5 0 0 0-5.6-1L420 33c1-.2 1.9-.3 2.8-.2z" id="Shape" fill="#FFDDBF"/><path d="M410.6 20c-20.4-11.4-36.7-1.5-36.4 22.1.3 23.6 17 51.9 37.4 63.2 20.3 11.4 36.6 1.4 36.3-22.1a81 81 0 0 0-37.3-63.3z" id="Shape" fill="#BF844E"/><path d="M427.9 105.5a29 29 0 0 1-13.7-4A76 76 0 0 1 379 42c-.1-8 1.9-14.4 5.7-18.2 2.7-2.7 6.4-4.2 10.2-4a29 29 0 0 1 13.7 4 76.1 76.1 0 0 1 35 59.4c.2 8-1.8 14.5-5.6 18.3a13.9 13.9 0 0 1-10.3 4z" id="Shape" fill="#ABAEBD"/><path d="M426 107a29 29 0 0 1-13.7-4.2 76 76 0 0 1-35-59.4c-.2-8 1.8-14.4 5.6-18.3 2.7-2.7 6.4-4.2 10.3-4a29 29 0 0 1 13.7 4 76.1 76.1 0 0 1 35 59.5c.2 8-1.9 14.4-5.6 18.2A13.9 13.9 0 0 1 426 107z" id="Shape" fill="#D4D8EB"/><path d="M426 99.7c-2.9 0-6.5-1.2-10.2-3.3a69.1 69.1 0 0 1-31.3-53c0-6 1.2-10.8 3.6-13.2 1.3-1.3 3.2-2 5-1.9 3 0 6.5 1.2 10.3 3.2a69.1 69.1 0 0 1 31.3 53.2c0 5.9-1.3 10.6-3.6 13a6.5 6.5 0 0 1-5.1 2zm-32.8-68c-1-.2-2 .2-2.7.9-1.7 1.7-2.7 5.8-2.7 10.6a65.3 65.3 0 0 0 29.6 50.3 19 19 0 0 0 8.6 2.8c1 .1 2-.2 2.7-1 1.7-1.6 2.7-5.7 2.7-10.6a65.4 65.4 0 0 0-29.7-50.2 19.3 19.3 0 0 0-8.6-2.8z" id="Shape" fill="#AB386A"/><path d="M418 83.2c-2 0-4-.7-5.7-1.7a36.7 36.7 0 0 1-16.6-28.2c0-3.3.7-6 2.1-7.3.9-.9 2-1.3 3.2-1.3 2 .1 4 .7 5.7 1.8 8.9 5 16.5 17.8 16.6 28.2 0 3.2-.7 6-2.1 7.3-.8.9-2 1.3-3.2 1.2zm-17-35.1c-.6 0-.7.1-.8.2-.6.6-1.2 2.4-1.2 5 .1 9.2 7 20.8 15 25.3 1.2.7 2.5 1.2 4 1.3.5 0 .7-.1.8-.2.6-.6 1.1-2.4 1.1-5A33 33 0 0 0 405 49.4a9.2 9.2 0 0 0-4-1.3z" id="Shape" fill="#AB386A"/><path d="M420 14.4c-10-5.5-19-6-25.6-2.2l-9.4 5.5c6.5-3.8 15.6-3.3 25.6 2.2a80.9 80.9 0 0 1 37.3 63.3c.2 12-4 20.4-10.7 24.3l1.4-.8 8-4.7c6.8-3.9 10.9-12.3 10.8-24.3A81 81 0 0 0 420 14.4z" id="Shape" fill="url(#linearGradient-5)"/><path d="M40.8 180.9l-1.3-.8-.9-.5-2.5-1.4-1.7-1c-1.7-1.2-3.5-2.1-5.4-2.9-1.2-.4-2.4-.7-3.6-.8a6 6 0 0 0-3.5.7c-.7.5-1.2 1.3-1.1 2.2v.3c.2 1.5.8 3 1.9 4 1.3 1.5 2.9 2.8 4.7 3.7l8.5 5a2.5 2.5 0 0 1-1-2.3 7.6 7.6 0 0 1 3.6-6c.7-.5 1.6-.6 2.4-.2z" id="Shape" fill="url(#linearGradient-6)"/><path d="M182.4 267.6c-1.2-1.5-2-2.3-4-4.3a213.3 213.3 0 0 0-33.1-24.5l-6.5-3.7-9.6-5.6-12-7-13.5-7.9-14-8.1-13.7-8-12.5-7.3-10.4-6-11-6.4a3.6 3.6 0 0 0-3.6.3c-3 2-5 5.3-5.3 8.9-.1 1.3.5 2.6 1.5 3.4l47.7 27.7 27.4 16 6.3 3.6 5.7 3.4 5.2 3 10.9 6.3c2.9 1.6 6.6 3.7 12.4 6.5 5.8 2.8 11.3 5 13.2 5.8a82.4 82.4 0 0 0 20.8 6.2l-1.9-2.3z" id="Shape" fill="#6B5344"/><path d="M184.3 270c-.6-.9-1.2-1.7-1.9-2.4-1.2-1.5-2-2.3-4-4.3a142.3 142.3 0 0 0-14.4-12l-.8.4c-3 2-5 5.3-5.3 8.9l.1.9 5.5 2.3a82.4 82.4 0 0 0 20.8 6.1z" id="Shape" fill="#E6E8F2"/><path d="M175 267.9c3 1 6.1 1.6 9.3 2l-1.9-2.4-4-4.2-.6-.6a12.3 12.3 0 0 0-2.8 5.2z" id="Shape" fill="#394169"/><path d="M123.3 226l-1.8-1-1.3.6A13.2 13.2 0 0 0 114 236c0 .6 0 1.2.2 1.7l1.8 1 .2.2c-.8-.8-1.1-1.9-1-3 .2-3.7 2.2-7.2 5.4-9.2.8-.5 1.7-.7 2.6-.6z" id="Shape" fill="url(#linearGradient-7)"/><path d="M110 233c.2-3.9 2.3-7.3 5.5-9.4.7-.5 1.7-.7 2.6-.6l-1-.5-.8-.5c-.5.1-1 .3-1.4.6a13.2 13.2 0 0 0-6.1 10.3c0 .6 0 1.2.2 1.7l.8.5 1.1.7c-.7-.8-1-1.9-.9-2.9z" id="Shape" fill="url(#linearGradient-8)"/><path d="M52.1 184.7a26 26 0 0 0-1.8-1c-.4.1-.9.3-1.3.6a13.2 13.2 0 0 0-6.1 10.3c0 .6 0 1.2.2 1.8l1.8 1 .2.1c-.8-.8-1.1-1.8-1-2.9a12 12 0 0 1 5.4-9.3 4 4 0 0 1 2.6-.6z" id="Shape" fill="url(#linearGradient-9)"/><path d="M38.9 191.5a12 12 0 0 1 5.4-9.2c.8-.5 1.7-.7 2.6-.6l-.9-.6-.9-.5-1.4.6a13.2 13.2 0 0 0-6 10.3l.1 1.8.9.5 1 .6c-.6-.8-1-1.8-.8-2.9z" id="Shape" fill="url(#linearGradient-10)"/><path d="M80.3 210.3l-1.3-1.2c-.6-.6-1.4-1.4-2.8-2.5a63.8 63.8 0 0 0-7-4.9l-2-1-2.9-1.8-3.5-2-4-2.4-4.3-2.4-4-2.4-3.8-2.2-3.1-1.8-3.3-2a1 1 0 0 0-1 .2c-1 .5-1.6 1.5-1.7 2.6 0 .4.2.8.5 1l14.3 8.3 8.2 4.8 1.9 1 1.7 1 1.5 1 3.3 1.9a79.7 79.7 0 0 0 7.7 3.7c2 .9 4 1.5 6.2 1.9l-.6-.8z" id="Shape" fill="#DBC2B1" style="mix-blend-mode:multiply"/><path d="M79.8 208.7l-1.3-1.2c-.5-.5-1.4-1.4-2.9-2.5a62.4 62.4 0 0 0-7-4.9l-2-1.1-2.8-1.7-3.6-2-4-2.4-4.2-2.5-4.1-2.3-3.8-2.2L41 184l-3.3-2a1 1 0 0 0-1 .2c-1 .5-1.6 1.5-1.7 2.6 0 .4.2.8.5 1l14.3 8.3L58 199l1.9 1 1.7 1 1.5 1 3.3 1.9a58.3 58.3 0 0 0 14 5.5l-.6-.7z" id="Shape" fill="url(#linearGradient-11)"/></g></g></g></g></svg>