<?xml version="1.0" encoding="UTF-8"?><svg width="1036" height="498" xmlns="http://www.w3.org/2000/svg" xmlns:xlink="http://www.w3.org/1999/xlink"><!--Generator: Sketch 50.2 (55047) - http://www.bohemiancoding.com/sketch--><defs><filter x="-5.3%" y="-9.2%" width="110.7%" height="118.4%" filterUnits="objectBoundingBox" id="filter-1"><feGaussianBlur stdDeviation="9.4" in="SourceGraphic"/></filter><path id="path-2" d="M.2 0h47.4v35.1H.2z"/></defs><g id="Page-1" fill="none" fill-rule="evenodd"><g id="06-基础信息" transform="translate(-245 -174)"><g id="Group-6" transform="translate(245 174)"><g id="Group-5" transform="translate(605 100)" font-family="PingFang-SC-Semibold, PingFang SC" font-weight="500"><text id="eforehand" font-size="60" fill="#F2F2F2"><tspan x="123" y="164">eforehand</tspan></text><text id="asis" font-size="60" fill="#F2F2F2"><tspan x="123" y="111">asis</tspan></text><text id="B" font-size="160" fill="#E1E1E1"><tspan x="0" y="170">B</tspan></text></g><text id="把客户需求和企业内部制造以及供应商资源整" font-family="PingFang-SC-Medium, PingFang SC" font-size="20" font-weight="400" fill="#454545"><tspan x="616" y="314">把客户需求和企业内部制造以及供应商资源整合</tspan> <tspan x="616" y="354">形成企业一个完整的供应链</tspan></text><g id="Group"><path id="Fill-1" filter="url(#filter-1)" d="M30.1 355l281.3 163 247.2-143.4-281.2-163z"/><path id="Fill-1" fill="#F6D9B7" d="M0 328l281.3 162.9 247.2-143.4-281.3-163z"/><path id="Fill-2" fill="#E2BCA5" d="M281.3 490.3v7.8l247.2-142.8v-7.7z"/><path id="Fill-3" fill="#CCA092" d="M0 335.6l281.3 162.5v-7.8L0 327.9z"/><path id="Fill-4" fill="#CCA092" d="M344 310l123.6 71-45 25.7-123.4-71z"/><path id="Fill-5" fill="#CCA092" d="M399.5 281.3L523 352.4 478.3 378l-123.6-71z"/><g id="Group-595" transform="translate(32.2)"><path d="M232.1 5.2v180.5c0 2.8-5 5-11 5s-11-2.2-11-5V5.2h22z" id="Fill-6" fill="#E0E4E4"/><path d="M210 5.2c0 2.8 5 5 11.1 5 6 0 11-2.2 11-5s-5-5-11-5-11 2.2-11 5" id="Fill-8" fill="#FCFDFF"/><path d="M213 5.2c0 1.7 3.6 3.1 8.1 3.1s8.1-1.4 8.1-3c0-1.8-3.6-3.2-8.1-3.2S213 3.5 213 5.2" id="Fill-10" fill="#808184"/><path d="M221.1 85c-5.2 0-9.5-1.5-11-3.7V29.1c0 2.8 5 5 11 5s11-2.2 11-5v52.2c-1.4 2.2-5.8 3.8-11 3.8" id="Fill-12" fill="#587ABB"/><path d="M195.6 26.3V207c0 2.8-5 5-11 5-6.1 0-11-2.2-11-5V26.3h22z" id="Fill-14" fill="#E0E4E4"/><path d="M173.5 26.3c0 2.8 5 5 11 5 6.1 0 11-2.2 11-5s-4.9-5-11-5c-6 0-11 2.2-11 5" id="Fill-16" fill="#FCFDFF"/><path d="M176.4 26.3c0 1.8 3.7 3.2 8.1 3.2 4.5 0 8.2-1.4 8.2-3.2 0-1.7-3.7-3-8.2-3-4.4 0-8 1.3-8 3" id="Fill-18" fill="#808184"/><path d="M184.5 106.2c-5.1 0-9.5-1.6-11-3.7V50.3c0 2.7 5 5 11 5 6.1 0 11-2.3 11-5v52.2c-1.4 2.1-5.8 3.7-11 3.7" id="Fill-20" fill="#587ABB"/><path d="M159 47.5V228c0 2.8-5 5-11 5s-11-2.2-11-5V47.5h22z" id="Fill-22" fill="#E0E4E4"/><path d="M137 47.5c0 2.8 5 5 11 5s11-2.2 11-5-5-5-11-5-11 2.2-11 5" id="Fill-24" fill="#FCFDFF"/><path d="M139.9 47.5c0 1.7 3.6 3 8 3 4.6 0 8.2-1.3 8.2-3 0-1.8-3.6-3.1-8.1-3.1s-8.1 1.3-8.1 3" id="Fill-26" fill="#808184"/><path d="M148 127.3c-5.2 0-9.6-1.6-11-3.7V71.4c0 2.8 5 5 11 5s11-2.2 11-5v52.2c-1.5 2.1-5.8 3.7-11 3.7" id="Fill-28" fill="#587ABB"/><path id="Fill-30" fill="#D3D3D3" d="M196.3 309.7l-130-75.9v68.7l130 75.5z"/><path id="Fill-32" fill="#938B99" d="M242.4 131.1L66.3 233.8l130 76 176.4-103z"/><path id="Fill-34" fill="#E0E4E4" d="M372.7 206.9L196.3 309.7V378l176.4-102.5z"/><path id="Fill-36" fill="#D3D3D3" d="M145.8 252.8l-79.5-46.3v28.1l79.5 46z"/><path id="Fill-38" fill="#FCFDFF" d="M169.2 146.7l-103 59.8 79.6 46.3 103.2-60z"/><path id="Fill-40" fill="#E0E4E4" d="M249 192.9l-103.2 60v27.8L249 221z"/><path id="Fill-42" fill="#D3D3D3" d="M145.8 223.7l-79.5-46.4V192l79.5 46z"/><path id="Fill-44" fill="#FCFDFF" d="M169.1 117.5L66.2 177.3l79.6 46.4 103.1-60z"/><path id="Fill-46" fill="#E0E4E4" d="M249 163.7l-103.2 60V238l103.1-59.7z"/><path id="Fill-48" fill="#536276" d="M145.8 238L72 195.5v10.8l73.7 42.7z"/><path id="Fill-50" fill="#5E6D7D" d="M241.3 182.8l-95.5 55.3v10.8l95.5-55.5z"/><path id="Fill-52" fill="#FCFDFF" d="M167.8 120.7L77 173.4l70.2 41 91-53z"/><path id="Fill-54" fill="#E2E4E5" d="M77 173.4l-10.8 4 79.6 46.3 1.4-9.3z"/><path id="Fill-56" fill="#D3D3D3" d="M147.2 214.4l-1.4 9.3 103.1-60-10.7-2.2z"/><path id="Fill-58" fill="#E2E4E5" d="M238.2 161.5l10.7 2.2-79.8-46.2-1.3 3.2z"/><path id="Fill-60" fill="#D3D3D3" d="M66.2 177.3l10.8-3.9 90.8-52.7 1.3-3.2z"/><path id="Fill-62" fill="#F1F1F2" d="M321.3 301.4l40.8-23.8 3.5 2-44.3 25.8z"/><path id="Fill-64" fill="#6D7374" d="M362.1 277.6v-35.4l-40.8 23.5v35.7z"/><path id="Fill-66" fill="#D3D3D3" d="M365.6 240.2v39.5l-3.5-2v-35.5z"/><path id="Fill-68" fill="#F1F1F2" d="M266.9 333l40.8-23.8 3.6 2-44.4 25.8z"/><path id="Fill-70" fill="#9B7371" d="M307.7 309.2v-35.4L267 297.3V333z"/><path id="Fill-72" fill="#D3D3D3" d="M311.3 271.8v39.4l-3.6-2v-35.4z"/><path id="Fill-74" fill="#807689" d="M93.9 325.3V351l20-11.6v-25.6z"/><path id="Fill-76" fill="#776179" d="M93.9 325.3V351l-61.3-35.4V290z"/><path id="Fill-78" fill="#C5DAE6" d="M87.5 326.7v8l-19-11v-8z"/><path id="Fill-80" fill="#C5DAE6" d="M87.5 338v5.4l-13-7.5v-5.5z"/><path id="Fill-82" fill="#938B99" d="M113.9 313.8l-20 11.5L32.6 290l20-11.5z"/><path id="Fill-84" fill="#807689" d="M61.5 344.2v25.6l20-11.6v-25.6z"/><path id="Fill-86" fill="#776179" d="M61.5 344.2v25.6L.2 334.5v-25.7z"/><path id="Fill-88" fill="#C5DAE6" d="M55.1 345.5v8l-19-11v-8z"/><path id="Fill-90" fill="#C5DAE6" d="M55.1 356.8v5.5l-13-7.6v-5.4z"/><path id="Fill-92" fill="#938B99" d="M81.5 332.6l-20 11.6L.2 308.8l20-11.5z"/><path id="Fill-94" fill="#5E6D7D" d="M92.8 276.6v-9.8l-15-8.7v9.8z"/><path id="Fill-96" fill="#E0E4E4" d="M77.8 258l1.9 1.2v7.6l-2 1z"/><path id="Fill-98" fill="#FCFDFF" d="M79.7 266.8l13.1 7.6v2.2l-15-8.7z"/><path id="Fill-100" fill="#5E6D7D" d="M115.4 289.8v-9.9l-15-8.7v9.8z"/><path id="Fill-102" fill="#E0E4E4" d="M100.4 271.2l1.9 1.1v7.7l-2 1z"/><path id="Fill-104" fill="#FCFDFF" d="M102.3 280l13 7.5v2.3l-15-8.8z"/><path id="Fill-106" fill="#5E6D7D" d="M138 303v-10l-15-8.6v9.8z"/><path id="Fill-108" fill="#E0E4E4" d="M123 284.4l1.9 1v7.7l-2 1z"/><path id="Fill-110" fill="#FCFDFF" d="M124.9 293.1l13 7.6v2.2l-15-8.7z"/><path id="Fill-112" fill="#5E6D7D" d="M160.6 316v-9.8l-15-8.7v9.8z"/><path id="Fill-114" fill="#E0E4E4" d="M145.5 297.5l2 1.1v7.7l-2 1z"/><path id="Fill-116" fill="#FCFDFF" d="M147.4 306.3l13.2 7.5v2.3l-15-8.8z"/><path id="Fill-118" fill="#5E6D7D" d="M183.2 329.2v-9.8l-15-8.7v9.8z"/><path id="Fill-120" fill="#E0E4E4" d="M168.1 310.7l2 1v7.7l-2 1.1z"/><path id="Fill-122" fill="#FCFDFF" d="M170 319.4l13.2 7.6v2.2l-15-8.7z"/><path id="Fill-124" fill="#404041" d="M289 401l23.7-13.9-53.8-31.2-23.6 13.9z"/><path id="Fill-126" fill="#250920" d="M274.5 384l-34.6-19.7 1.9-1.5 32.7 19.5z"/><path id="Fill-128" fill="#250920" d="M238.9 365.8l3.3-2.1-3.3-2z"/><path d="M248.2 376.6l.2-.1.1-.2.1-.1.1-.2a2.6 2.6 0 0 0 .3-.4v-.1-.2l.1-.1v-.1a6.8 6.8 0 0 0 .1-.4v-.1a2.2 2.2 0 0 0 .1-.3v-.2-.1a6 6 0 0 0 0-.5v-.1-.2-.3a2.5 2.5 0 0 0 0-.3 5.5 5.5 0 0 0-.1-.4v-.2l-.1-.3a5.5 5.5 0 0 0-.1-.3l-.1-.3-.1-.3-.1-.3a6 6 0 0 0-.1-.3l-.2-.3-.1-.3-.1-.1v-.1l-.3-.4v-.1l-.1-.2-.1-.1-.1-.2-.4-.4a10.7 10.7 0 0 0-.3-.5 11.7 11.7 0 0 0-.4-.5h-.1l-.2-.2-.2-.2v-.1a4.8 4.8 0 0 0-.5-.4h-.1l-.1-.2a4.3 4.3 0 0 0-.5-.3 7.6 7.6 0 0 0-.4-.2h-.1a4.4 4.4 0 0 0-.7-.4h-.4l-.2-.1h-.1-.1-.1-.1a2.2 2.2 0 0 0-.3 0H241.7a3.5 3.5 0 0 0-.5.3l4.5-2.7h.2v-.1a3 3 0 0 1 2.2 0c.7.2 1.3.6 1.9 1l.1.2c2.1 1.6 3.6 4.3 3.8 7 0 .9 0 2-.6 2.7v.2h-.1l-.1.1-.2.2v.1h-.1l-.1.1-.2.1-4.6 2.7a2 2 0 0 0 .3-.2" id="Fill-130" fill="#40363B"/><path d="M244.6 365.5c2.6 1.5 4.7 5.2 4.7 8.2 0 3-2.1 4.3-4.8 2.8a10.5 10.5 0 0 1-4.7-8.3c0-3 2.1-4.2 4.8-2.7" id="Fill-132" fill="#4E444A"/><path d="M244.4 367.6a7 7 0 0 1 3.1 5.4c0 2-1.4 2.8-3.1 1.8a6.9 6.9 0 0 1-3.1-5.7c.1-1.8 1.5-2.4 3.1-1.5" id="Fill-134" fill="#BBBDBF"/><path d="M244.4 368.6a5 5 0 0 1 2.3 4c0 1.4-1 2-2.3 1.2a5 5 0 0 1-2.3-4.1c.1-1.3 1.1-1.8 2.3-1.1" id="Fill-136" fill="#929497"/><path d="M242.1 369.7c.1-1.1.8-1.6 1.7-1.4-.7 0-1.2.5-1.3 1.4v.3a5 5 0 0 0 2.3 3.9l.6.2c-.3 0-.7 0-1-.3a5 5 0 0 1-2.3-4.1" id="Fill-138" fill="#D0D2D3"/><path d="M243.5 371.5h-.1c-.1 0-.1.2 0 .4l.1.2h.2c.1 0 .1-.3 0-.4 0-.1 0-.2-.2-.2" id="Fill-140" fill="#3A3D3F"/><path d="M244.5 370.5c-.3-.1-.5 0-.5.4 0 .3.2.8.5 1 .4.2.6 0 .6-.4 0-.3-.2-.8-.6-1" id="Fill-142" fill="#3A3D3F"/><path d="M244.5 372.5c-.1 0-.2 0-.2.2l.2.4c.2.1.3 0 .3-.1 0-.2-.1-.4-.3-.5" id="Fill-144" fill="#3A3D3F"/><path d="M245.5 372.6h-.1c-.1 0-.1.3 0 .4l.1.2h.2c.1 0 .1-.2 0-.4l-.2-.2" id="Fill-146" fill="#3A3D3F"/><path d="M243.6 369.2h-.2c-.1 0-.1.2 0 .4l.1.2h.2c.1 0 .1-.2 0-.4l-.1-.2" id="Fill-148" fill="#3A3D3F"/><path d="M244.5 369.9c.2 0 .3 0 .3-.2l-.3-.4-.2.1.2.5" id="Fill-150" fill="#3A3D3F"/><path d="M245.5 371h.2v-.5l-.2-.2h-.1c-.1 0-.1.3 0 .4l.1.2" id="Fill-152" fill="#3A3D3F"/><path d="M243.4 370.5l-.3-.4-.2.1c0 .2 0 .4.2.5.2 0 .3 0 .3-.2" id="Fill-154" fill="#3A3D3F"/><path d="M246 371.7c-.2 0-.3 0-.3.2l.3.4c.1.1.2 0 .2-.1l-.2-.5" id="Fill-156" fill="#3A3D3F"/><path id="Fill-158" fill="#3C3E4A" d="M276.8 380.9l17.3-9.8-40.2-23.3-17.3 9.8z"/><path d="M274.2 381a.3.3 0 0 0-.1 0v-.1h-.1-.2-.1-.2a.4.4 0 0 0-.1 0h-.1l-.1.1a.7.7 0 0 0-.1 0l-.1.1-9.4-5.4v-.1h.2v-.1h.4l.1-.1h.5v.1l9.5 5.5" id="Fill-160" fill="#959595"/><path id="Fill-162" fill="#A4A7A9" d="M273 381.1l-9.4-5.4-1.2.6 9.4 5.5z"/><path d="M260.6 379.5v-.1-.1-.1-.1-.1-.1-.1-.1h.1v-.1-.1-.1h.1v-.1-.2h.1a.6.6 0 0 1 0-.1v-.1h.1v-.1l.1-.1v-.1h.1v-.1l.1-.1v-.1h.1v-.1a.3.3 0 0 0 .1 0v-.1l.1-.1v-.1h.1v-.1h.1v-.1h.2v-.1h.1v-.1h.1v-.1h.2l9.4 5.4h-.1v.1h-.1-.1v.1h-.1v.1h-.1v.1h-.1v.1h-.1v.1l-.1.1h-.1v.1l-.1.1v.1l-.1.1-.1.1v.1l-.1.1v.1a.7.7 0 0 1-.1 0v.2h-.1v.2l-.1.1v.2h-.1v.4a1.7 1.7 0 0 0-.1.2V385.6a2.6 2.6 0 0 1 0 .1l.1.1v.1l.1.1v.1h.1v.1h.2l-9.4-5.4h-.1v-.1h-.1v-.1h-.1v-.1-.1h-.1v-.1-.1-.1h-.1v-.1-.1-.1-.1-.1" id="Fill-164" fill="#D0D2D3"/><path d="M271.8 381.8c-1 .6-1.8 2-1.8 3.2 0 1.2.8 1.6 1.8 1l1.2-.6c1-.6 1.8-2 1.8-3.2 0-1.2-.8-1.7-1.8-1l-1.2.6z" id="Fill-166" fill="#929292"/><path id="Fill-168" fill="#32343F" d="M236.6 364.5v-7l40.2 23.4v6.9l-2.3-1.4v-4.1l-35.6-20.6v4.1z"/><path id="Fill-170" fill="#FCFDFF" d="M294.5 348.9l-18.7 10.8-39.7-23 18.6-10.8z"/><path id="Fill-172" fill="#D3D3D3" d="M275.8 359.7v20.8l18.7-10.9V349z"/><path id="Fill-174" fill="#E0E4E4" d="M236 336.7l39.8 23v20.8l-39.7-23z"/><path d="M286.6 398.7a2.5 2.5 0 0 0 .3-.3v-.1h.1l.1-.2a2.2 2.2 0 0 0 .2-.4l.1-.1v-.2l.1-.1v-.1-.1-.2h.1V396.5v-.2-.2-.1a5.1 5.1 0 0 0 0-.5v-.1-.2-.3a7.7 7.7 0 0 0 0-.6l-.1-.3v-.2l-.1-.2v-.1-.1l-.2-.3a7.6 7.6 0 0 0-.2-.6v-.2l-.1-.1-.1-.3-.2-.2v-.2l-.1-.1-.2-.4v-.1l-.2-.2v-.1l-.2-.1v-.1a10 10 0 0 0-.7-.9l-.2-.3-.2-.2a3.7 3.7 0 0 0-.2-.2l-.2-.2h-.1l-.1-.2h-.1a11.7 11.7 0 0 0-.4-.4l-.2-.1a13.5 13.5 0 0 1-.3-.2l-.3-.2-.2-.1-.2-.1a6.3 6.3 0 0 0-.5-.2 3 3 0 0 0-.4-.2h-.1a2.8 2.8 0 0 0-.2 0h-.7a2.9 2.9 0 0 0-.3 0h-.2l-.2.1h-.1l-.3.2 3.6-2 .1-.2h.1a3 3 0 0 1 2.1 0c.7.2 1.4.6 2 1v.2c2.1 1.7 3.6 4.3 3.8 7 0 .9 0 2-.5 2.7l-.1.2-.2.1-.1.2-.1.1-.2.1-.2.1-3.5 2.1h.1v-.1h.2" id="Fill-176" fill="#40363B"/><path d="M283 387.6c2.6 1.5 4.7 5.2 4.7 8.2 0 3-2.2 4.3-4.8 2.8a10.5 10.5 0 0 1-4.8-8.3c0-3 2.2-4.2 4.8-2.7" id="Fill-178" fill="#4E444A"/><path d="M282.8 389.7a7 7 0 0 1 3 5.4c0 2-1.3 2.8-3 1.8a6.9 6.9 0 0 1-3.2-5.7c.2-1.8 1.5-2.4 3.2-1.5" id="Fill-180" fill="#BBBDBF"/><path d="M282.8 390.7a5 5 0 0 1 2.2 4c0 1.4-1 2-2.2 1.2a5 5 0 0 1-2.3-4.1c.1-1.3 1-1.8 2.3-1" id="Fill-182" fill="#929497"/><path d="M280.5 391.8c0-1 .8-1.6 1.7-1.3-.7 0-1.2.4-1.3 1.3v.3a5 5 0 0 0 2.3 3.9l.5.2c-.3 0-.6 0-1-.3a5 5 0 0 1-2.2-4.1" id="Fill-184" fill="#D0D2D3"/><path d="M282 393.6h-.3v.4l.2.2h.2v-.4l-.2-.2" id="Fill-186" fill="#3A3D3F"/><path d="M283 392.7c-.4-.2-.7 0-.7.3 0 .4.3.8.6 1 .3.2.6 0 .6-.3 0-.4-.3-.9-.6-1" id="Fill-188" fill="#3A3D3F"/><path d="M282.9 394.6c-.1 0-.3 0-.3.2s.2.4.3.4c.1.1.3 0 .3-.1 0-.2-.2-.4-.3-.5" id="Fill-190" fill="#3A3D3F"/><path d="M283.9 394.7h-.2v.4l.2.2h.2v-.4l-.2-.2" id="Fill-192" fill="#3A3D3F"/><path d="M282 391.3h-.3v.4l.2.2h.2v-.4l-.2-.2" id="Fill-194" fill="#3A3D3F"/><path d="M283 392l.2-.1c0-.2-.1-.4-.3-.5-.1 0-.2 0-.2.2 0 .1 0 .3.2.4" id="Fill-196" fill="#3A3D3F"/><path d="M284 393c.2 0 .2-.2 0-.3v-.2h-.3v.4l.2.1" id="Fill-198" fill="#3A3D3F"/><path d="M281.8 392.7c0-.2-.2-.4-.3-.5-.1 0-.3 0-.3.2l.3.4.3-.1" id="Fill-200" fill="#3A3D3F"/><path d="M284.3 393.8c-.1 0-.2 0-.2.2s0 .3.2.4c.2.1.3 0 .3-.1 0-.2-.1-.4-.3-.5" id="Fill-202" fill="#3A3D3F"/><path id="Fill-204" fill="#526AA7" d="M290.8 395.9L308 386v-10.5l-17.3 9.8z"/><path id="Fill-206" fill="#70565D" d="M290.8 385.4l17.4-9.8-2.4-10.2-17.3 9.8z"/><path id="Fill-208" fill="#587ABB" d="M288.5 375.2l17.3-9.8-11.6-6.7-17.4 9.8z"/><path d="M289.2 375.6l16.1-9.1 2 8.8-16 9-2-8.7zm-.7-.4l2.3 10.2 17.4-9.8-2.4-10.2-17.3 9.8z" id="Fill-210" fill="#587ABB"/><path id="Fill-212" fill="#4F565B" d="M305 379.3v6.7l-11.1 6.5v-6.7z"/><path id="Fill-214" fill="#D0D2D3" d="M291.6 394v2.3l17.3-9.9v-2.3z"/><path id="Fill-216" fill="#BBBDBF" d="M291.6 394v2.3l-.8-.4v-2.4z"/><path id="Fill-218" fill="#E6E7E8" d="M308.9 384l-17.3 10-.8-.5 17.2-9.9z"/><path id="Fill-220" fill="#F1F1F2" d="M290.8 391.1l2.8-1.6v1.7l-2.8 1.6z"/><path id="Fill-222" fill="#F1F1F2" d="M305.4 382.7l2.8-1.6v1.7l-2.8 1.5z"/><path d="M276.8 368.5l11.7 6.7 2.3 10.2v10.5l-2.5-1.5c-.6-3-2.7-6-5.2-7.5-2.4-1.4-4.5-.7-5.2 1.5l-1.1-.6v-19.3z" id="Fill-224" fill="#496198"/><path d="M281.4 372s-.2 0-.2.2v6l.2.4 7.7 4.5c.2 0 .3 0 .2-.3L288 376c0-.2-.1-.3-.2-.3l-6.4-3.7z" id="Fill-226" fill="#70565D"/><path id="Fill-228" fill="#F6921E" d="M292 394.6v1l2.2-1.1v-1.1z"/><path id="Fill-230" fill="#F6921E" d="M306.4 386.3v1.1l2.1-1.2v-1z"/><path id="Fill-232" fill="#BBBDBF" d="M252.3 369.5v3.9l7.3 4.1v-3.8z"/><path id="Fill-234" fill="#96999B" d="M259.6 377.5l1.4-.7v-2.3l-1.4-.8z"/><path id="Fill-236" fill="#FFF" d="M289.2 375.6l18.2-.3-2-8.8z"/><path id="Fill-238" fill="#587ABB" d="M254.7 363.8l-2-1.2V349l2 1.2z"/><path id="Fill-240" fill="#587ABB" d="M245.6 356.3l2.5 1.4v-11.3l2 1.2V361.2l-2-1.2-4.5-2.6V343.8l2 1.2z"/><path id="Fill-242" fill="#587ABB" d="M241.1 342.4v13.5l-2-1.1v-13.6z"/><path id="Fill-244" fill="#404041" d="M254.9 422l23.6-14-53.8-31.3-23.6 14z"/><path id="Fill-246" fill="#250920" d="M240.2 404.9l-34.5-19.7 1.9-1.5 32.6 19.5z"/><path id="Fill-248" fill="#250920" d="M204.6 386.7l3.4-2.1-3.4-2z"/><path d="M214 397.5a2.7 2.7 0 0 0 .1-.1l.2-.2v-.1h.1l.1-.2a2.7 2.7 0 0 0 .3-.6l.1-.2v-.1-.2a5.2 5.2 0 0 0 .2-.8v-.1a5.5 5.5 0 0 0 0-.5v-.1a7.3 7.3 0 0 0-.3-1.7v-.3a9.5 9.5 0 0 0-.4-.9v-.3h-.1l-.1-.3-.2-.3v-.1l-.1-.2-.2-.3v-.1l-.2-.2v-.1a16 16 0 0 0-.5-.6 20.4 20.4 0 0 0-.4-.5l-.2-.3-.2-.2-.2-.2v-.1l-.2-.1-.1-.1-.1-.1-.1-.1-.1-.1h-.1l-.2-.2a9.6 9.6 0 0 0-.5-.4 7.6 7.6 0 0 0-.7-.4 6.1 6.1 0 0 0-.5-.2 4.4 4.4 0 0 0-.4 0l-.1-.1h-.1-.1a1.8 1.8 0 0 0-.3 0 2.7 2.7 0 0 0-.3 0H207.4a4 4 0 0 0-.3.1l-.3.1 4.6-2.6h.2v-.1a3 3 0 0 1 2.2 0c.6.2 1.3.6 1.9 1l.1.1c2 1.7 3.5 4.4 3.7 7a4.6 4.6 0 0 1-.5 2.8l-.1.2-.1.1-.2.2-.1.1-.2.1-.1.1-4.6 2.7.1-.1.2-.1" id="Fill-250" fill="#40363B"/><path d="M210.3 386.4c2.7 1.5 4.8 5.2 4.8 8.2 0 3-2.2 4.3-4.8 2.7a10.5 10.5 0 0 1-4.8-8.2c0-3 2.2-4.2 4.8-2.7" id="Fill-252" fill="#4E444A"/><path d="M210.2 388.5a7 7 0 0 1 3 5.4c0 2-1.3 2.8-3 1.8a6.9 6.9 0 0 1-3.1-5.7c.1-1.8 1.4-2.4 3-1.5" id="Fill-254" fill="#BBBDBF"/><path d="M210.2 389.5a5 5 0 0 1 2.2 4c0 1.4-1 2-2.2 1.2a5 5 0 0 1-2.3-4.2c.1-1.2 1-1.7 2.3-1" id="Fill-256" fill="#929497"/><path d="M207.9 390.5c0-1 .8-1.5 1.7-1.3-.7 0-1.2.5-1.3 1.4v.2a5 5 0 0 0 2.3 4l.5.2c-.3 0-.6 0-1-.3a5 5 0 0 1-2.2-4.2" id="Fill-258" fill="#D0D2D3"/><path d="M209.3 392.4h-.2v.4l.2.2h.2v-.4l-.2-.2" id="Fill-260" fill="#3A3D3F"/><path d="M210.3 391.4c-.3-.2-.6 0-.6.4 0 .3.3.8.6 1 .3.2.6 0 .6-.4 0-.3-.3-.8-.6-1" id="Fill-262" fill="#3A3D3F"/><path d="M210.3 393.4c-.1 0-.2 0-.2.2 0 .1 0 .3.2.4l.3-.1c0-.2-.2-.4-.3-.5" id="Fill-264" fill="#3A3D3F"/><path d="M211.3 393.5h-.2v.4l.2.2h.2v-.4l-.2-.2" id="Fill-266" fill="#3A3D3F"/><path d="M209.3 390h-.2v.5l.2.2h.2c.1 0 .1-.3 0-.4l-.2-.2" id="Fill-268" fill="#3A3D3F"/><path d="M210.3 390.8c.2 0 .3 0 .3-.2l-.3-.4c-.1-.1-.2 0-.2.1 0 .2 0 .4.2.5" id="Fill-270" fill="#3A3D3F"/><path d="M211.3 391.8h.2v-.4l-.2-.2h-.2v.4l.2.2" id="Fill-272" fill="#3A3D3F"/><path d="M209.2 391.4l-.3-.4-.3.1c0 .2.2.4.3.5.1 0 .3 0 .3-.2" id="Fill-274" fill="#3A3D3F"/><path d="M211.7 392.6c-.1 0-.2 0-.2.2 0 .1 0 .3.2.4l.3-.1c0-.2-.1-.4-.3-.5" id="Fill-276" fill="#3A3D3F"/><path id="Fill-278" fill="#3C3E4A" d="M242.6 401.7l17.2-9.7-40.1-23.3-17.3 9.8z"/><path d="M240 401.8H239.6 239.3h-.1-.1-.1a1 1 0 0 0-.2.1h-.1v.1l-9.5-5.5H229.7v-.1H230v-.1h.2a1 1 0 0 1 .2 0H230.7v.1l9.5 5.5h-.1" id="Fill-280" fill="#959595"/><path id="Fill-282" fill="#A4A7A9" d="M238.7 402l-9.4-5.5-1.1.7 9.4 5.5z"/><path d="M226.3 400.4v-.1-.1-.1-.1-.1l.1-.1v-.1-.1-.1l.1-.1v-.1-.1h.1v-.2h.1v-.1-.1h.1v-.2h.1v-.1l.1-.1v-.1l.1-.1a1.7 1.7 0 0 1 .1-.1v-.1h.1v-.1h.1v-.1h.1v-.1h.1v-.1h.1v-.1h.1l.1-.1h.1v-.1a.7.7 0 0 1 .1 0v-.1l9.5 5.5h-.1-.1v.1h-.1v.1h-.1v.1h-.1v.1h-.1v.1h-.1v.1h-.1l-.1.1v.1h-.1a1.5 1.5 0 0 0 0 .1l-.1.1v.1h-.1v.1a.4.4 0 0 0-.1.1v.1h-.1v.2h-.1v.2l-.1.1a1 1 0 0 1 0 .2l-.1.1V405.3h-.1v.1a1.7 1.7 0 0 0 0 .2V406.7h.1v.2h.1v.1h.1v.1h.1l-9.3-5.4h-.1v-.1h-.1v-.1h-.1v-.1l-.1-.1v-.1l-.1-.1v-.1-.1-.1-.1-.1-.1" id="Fill-284" fill="#D0D2D3"/><path d="M237.6 402.7c-1 .6-1.9 2-1.9 3.2 0 1.2.9 1.6 1.9 1l1.1-.6c1-.6 1.9-2 1.9-3.2 0-1.2-.8-1.7-1.9-1l-1.1.6z" id="Fill-286" fill="#929292"/><path id="Fill-288" fill="#32343F" d="M202.4 385.4v-7l40.2 23.3v7l-2.4-1.4v-4.1l-35.6-20.6v4.1z"/><path id="Fill-290" fill="#FCFDFF" d="M260.3 369.8l-18.7 10.8-39.7-23 18.6-10.8z"/><path id="Fill-292" fill="#D3D3D3" d="M241.6 380.6v20.8l18.7-10.9v-20.7z"/><path id="Fill-294" fill="#E0E4E4" d="M201.9 357.6l39.7 23v20.8l-39.7-23z"/><path d="M252.4 419.6l.1-.1.1-.2.2-.1v-.2a3.6 3.6 0 0 0 .3-.4v-.1l.1-.2a3.6 3.6 0 0 0 .2-1v-.2-.1a6 6 0 0 0 0-1v-.2-.2a10.6 10.6 0 0 0-.2-.9v-.2l-.1-.1-.1-.3-.1-.3a12.1 12.1 0 0 0-.2-.5v-.1l-.2-.3-.1-.3v-.1l-.1-.1-.3-.4v-.1l-.1-.2-.1-.1-.1-.1v-.1l-.3-.4a14 14 0 0 0-.6-.8l-.2-.2h-.1l-.1-.2a5 5 0 0 0-.2-.2h-.1l-.2-.2-.2-.2a6.4 6.4 0 0 0-.2-.2h-.1l-.1-.2h-.1l-.3-.2a6.3 6.3 0 0 0-.6-.3h-.1a5.1 5.1 0 0 0-.4-.2h-.1a4.1 4.1 0 0 0-.4-.2h-.4-.1-.1a3.4 3.4 0 0 0-.3 0h-.2-.2-.2a2 2 0 0 0-.3.1l-.2.2 3.5-2.1h.2v-.1a3 3 0 0 1 2.2 0c.7.2 1.3.6 1.9 1l.1.1c2.1 1.7 3.6 4.4 3.8 7 0 1 0 2-.6 2.8a3.2 3.2 0 0 1-.2.3l-.2.2v.1h-.1l-.1.1-.2.1-3.5 2.1a2 2 0 0 0 .3-.2" id="Fill-296" fill="#40363B"/><path d="M248.7 408.5c2.6 1.5 4.8 5.2 4.8 8.2 0 3-2.2 4.3-4.8 2.8a10.5 10.5 0 0 1-4.8-8.3c0-3 2.2-4.2 4.8-2.7" id="Fill-298" fill="#4E444A"/><path d="M248.5 410.6a7 7 0 0 1 3.2 5.4c0 2-1.5 2.8-3.2 1.8a6.9 6.9 0 0 1-3-5.7c0-1.8 1.4-2.4 3-1.5" id="Fill-300" fill="#BBBDBF"/><path d="M248.5 411.6a5 5 0 0 1 2.3 4c0 1.4-1 2-2.3 1.2a5 5 0 0 1-2.2-4.1c0-1.3 1-1.8 2.2-1.1" id="Fill-302" fill="#929497"/><path d="M246.3 412.7c0-1 .7-1.6 1.6-1.3-.7 0-1.2.4-1.2 1.3v.3a5 5 0 0 0 2.2 3.9l.6.2c-.3 0-.6 0-1-.3a5 5 0 0 1-2.2-4.1" id="Fill-304" fill="#D0D2D3"/><path d="M247.7 414.5h-.2c-.1 0-.1.2 0 .4l.2.2h.2v-.4l-.2-.2" id="Fill-306" fill="#3A3D3F"/><path d="M248.7 413.5c-.3-.1-.6 0-.6.4 0 .3.3.8.6 1 .3.2.6 0 .6-.3 0-.4-.3-.9-.6-1" id="Fill-308" fill="#3A3D3F"/><path d="M248.7 415.5c-.2 0-.3 0-.3.2l.3.4c.1.1.2 0 .2-.1 0-.2 0-.4-.2-.5" id="Fill-310" fill="#3A3D3F"/><path d="M249.7 415.6h-.2c-.1 0-.1.3 0 .4l.2.2h.1c.1 0 .1-.2 0-.4l-.1-.2" id="Fill-312" fill="#3A3D3F"/><path d="M247.7 412.2h-.2c-.1 0-.1.2 0 .4l.2.2h.2v-.4l-.2-.2" id="Fill-314" fill="#3A3D3F"/><path d="M248.7 412.9c.1 0 .2 0 .2-.2 0-.1 0-.3-.2-.4l-.3.1c0 .2.1.4.3.5" id="Fill-316" fill="#3A3D3F"/><path d="M249.7 414h.2v-.5l-.2-.1h-.2v.3l.2.2" id="Fill-318" fill="#3A3D3F"/><path d="M247.5 413.5c0-.1 0-.3-.2-.4-.2 0-.3 0-.3.2l.3.4c.1 0 .2 0 .2-.2" id="Fill-320" fill="#3A3D3F"/><path d="M250 414.7s-.2 0-.2.2l.3.4c.1.1.2 0 .2-.1 0-.2 0-.4-.2-.5" id="Fill-322" fill="#3A3D3F"/><path id="Fill-324" fill="#526AA7" d="M256.6 416.8l17.3-9.8v-10.5l-17.3 9.8z"/><path id="Fill-326" fill="#70565D" d="M256.6 406.3l17.3-9.8-2.3-10.2-17.4 9.8z"/><path id="Fill-328" fill="#587ABB" d="M254.2 396.1l17.4-9.8-11.7-6.7-17.3 9.8z"/><path d="M255 396.5l16.1-9.1 2 8.7-16 9.1-2-8.7zm-.8-.4l2.4 10.2 17.3-9.8-2.3-10.2-17.4 9.8z" id="Fill-330" fill="#587ABB"/><path id="Fill-332" fill="#4F565B" d="M270.8 400.2v6.7l-11.2 6.5v-6.7z"/><path id="Fill-334" fill="#D0D2D3" d="M257.4 414.9v2.3l17.2-9.9V405z"/><path id="Fill-336" fill="#BBBDBF" d="M257.4 414.9v2.3l-.8-.4v-2.4z"/><path id="Fill-338" fill="#E6E7E8" d="M274.6 405l-17.2 9.9-.8-.5 17.2-10z"/><path id="Fill-340" fill="#F1F1F2" d="M256.6 412l2.8-1.6v1.7l-2.8 1.5z"/><path id="Fill-342" fill="#F1F1F2" d="M271.2 403.6l2.7-1.6v1.7l-2.7 1.5z"/><path d="M242.6 389.4l11.6 6.7 2.4 10.2v10.5l-2.5-1.5c-.7-3-2.7-6-5.2-7.5-2.5-1.4-4.6-.7-5.2 1.5l-1.1-.6v-19.3z" id="Fill-344" fill="#496198"/><path d="M247.2 393c-.1-.2-.2-.1-.2 0v6.1c0 .2 0 .3.2.4l7.7 4.4c.2.1.3 0 .2-.2l-1.4-6.8c0-.2 0-.3-.2-.3l-6.3-3.7z" id="Fill-346" fill="#70565D"/><path id="Fill-348" fill="#F6921E" d="M257.8 415.5v1l2.1-1.2v-1z"/><path id="Fill-350" fill="#F6921E" d="M272.2 407.2v1.1l2.1-1.2v-1z"/><path id="Fill-352" fill="#BBBDBF" d="M218 390.4v3.9l7.4 4.1v-3.8z"/><path id="Fill-354" fill="#96999B" d="M225.4 398.4l1.4-.7v-2.3l-1.4-.8z"/><path id="Fill-356" fill="#FFF" d="M255 396.5l18.1-.4-2-8.7z"/><path id="Fill-358" fill="#587ABB" d="M220.4 384.7l-2-1.2v-13.6l2 1.2z"/><path id="Fill-360" fill="#587ABB" d="M211.4 377.1l2.5 1.5v-11.3l2 1.2V382l-2-1.1-4.5-2.6V364.7l2 1.2z"/><path id="Fill-362" fill="#587ABB" d="M206.9 363.3v13.5l-2-1.1V362z"/><path id="Fill-364" fill="#807689" d="M328.6 201.6l20.5-12v3.5l-20.5 12z"/><path id="Fill-366" fill="#D3D3D3" d="M221.4 139.7l107.3 62v3.3l-107.3-61.7z"/><path id="Fill-368" fill="#938B99" d="M242 127.8l-20.5 12 107.2 61.8 20.4-12z"/><path id="Fill-370" fill="#776179" d="M221.5 139.8v3.5L328.6 205v-3.4z"/><path id="Fill-372" fill="#CCA092" d="M448.6 319.2L201.3 462l47.4 27.4L496 346.6z"/><g id="Group-376" transform="translate(201.1 462)"><mask id="mask-3" fill="#fff"><use xlink:href="#path-2"/></mask><path id="Fill-374" fill="#C28D85" mask="url(#mask-3)" d="M.2 0l47.4 27.4V35L.2 7.8z"/></g><path id="Fill-377" fill="#807689" d="M168.4 368.6v25.6l20-11.5v-25.6z"/><path id="Fill-379" fill="#776179" d="M168.4 368.6v25.6L107 359v-25.6z"/><path id="Fill-381" fill="#C5DAE6" d="M162 370v8l-19-11v-8z"/><path id="Fill-383" fill="#C5DAE6" d="M162 381.2v5.5l-13-7.5v-5.5z"/><path id="Fill-385" fill="#938B99" d="M188.4 357l-20 11.6-61.3-35.3 20-11.6z"/><path id="Fill-387" fill="#807689" d="M136 387.4v25.7l20-11.6V376z"/><path id="Fill-389" fill="#776179" d="M136 387.4v25.7l-61.2-35.4v-25.6z"/><path id="Fill-391" fill="#C5DAE6" d="M129.7 388.8v8l-19.1-11v-8z"/><path id="Fill-393" fill="#C5DAE6" d="M129.7 400v5.5l-13-7.5v-5.5z"/><path id="Fill-395" fill="#938B99" d="M156 375.9l-20 11.5-61.2-35.3 20-11.5z"/><path id="Fill-397" fill="#404041" d="M386.9 333.4l23.3-13.8-55.5-32.1-23.3 13.7z"/><path id="Fill-399" fill="#250920" d="M335.2 295l8.4 1.2-4-5.6-5 1.1z"/><path d="M344.2 304.8a2 2 0 0 0 .4-.4v-.1a3 3 0 0 0 .4-.6 2 2 0 0 0 0-.3 2.5 2.5 0 0 0 .1-.2v-.1-.1a10.1 10.1 0 0 0 .1-.7 5.3 5.3 0 0 0 0-.5v-.1-.2-.1-.2-.3-.3l-.1-.1a9.8 9.8 0 0 0-.1-.5v-.2l-.1-.1-.1-.3-.1-.3-.1-.2v-.1a11 11 0 0 0-.3-.6v-.2l-.2-.2v-.1l-.2-.4h-.1l-.1-.2v-.2l-.2-.1a11 11 0 0 0-.7-1 9.5 9.5 0 0 0-.4-.4v-.1a6.5 6.5 0 0 0-.5-.4l-.1-.1-.1-.1a10.2 10.2 0 0 0-.4-.3 5.6 5.6 0 0 0-.5-.4 6.2 6.2 0 0 0-.4-.2h-.1l-.2-.1a6.6 6.6 0 0 0-.5-.3h-.2a2.6 2.6 0 0 0-.5-.1h-.1-.1-.1-.1-.2-.2-.2-.2-.1l-.1.1h-.1l-.2.2 4.5-2.7h.2a3 3 0 0 1 2.1 0c.7.1 1.4.5 2 1 2 1.7 3.5 4.4 3.7 7 0 .9 0 2-.5 2.7l-.1.2-.1.1-.2.2a3 3 0 0 1-.2.2l-.2.1-4.5 2.6h.1v-.1h.2" id="Fill-401" fill="#40363B"/><path d="M340.6 293.9c2.6 1.5 4.7 5.1 4.7 8.1s-2.2 4.2-4.8 2.7a10.3 10.3 0 0 1-4.7-8.1c0-3 2.2-4.2 4.8-2.7" id="Fill-403" fill="#4E444A"/><path d="M340.4 296a6.8 6.8 0 0 1 3 5.3c0 2-1.3 2.7-3 1.8a6.8 6.8 0 0 1-3-5.7c0-1.7 1.4-2.3 3-1.4" id="Fill-405" fill="#BBBDBF"/><path d="M340.4 297a5 5 0 0 1 2.2 3.8c0 1.4-1 2-2.2 1.3a5 5 0 0 1-2.2-4.1c0-1.3 1-1.7 2.2-1" id="Fill-407" fill="#929497"/><path d="M338.2 298c0-1 .7-1.5 1.6-1.3-.7 0-1.2.5-1.2 1.3v.3a5 5 0 0 0 2.2 3.9l.6.2a2 2 0 0 1-1-.3 5 5 0 0 1-2.2-4.1" id="Fill-409" fill="#D0D2D3"/><path d="M339.6 299.8h-.2c-.1 0-.1.2 0 .4l.2.2h.1c.1 0 .1-.3 0-.4l-.1-.2" id="Fill-411" fill="#3A3D3F"/><path d="M340.5 298.9c-.3-.2-.5 0-.5.3 0 .4.2.8.5 1 .4.2.6 0 .6-.3 0-.4-.2-.9-.6-1" id="Fill-413" fill="#3A3D3F"/><path d="M340.5 300.8c-.1 0-.2 0-.2.2 0 .1 0 .3.2.4l.3-.1c0-.2-.1-.4-.3-.5" id="Fill-415" fill="#3A3D3F"/><path d="M341.5 301c0-.1-.1-.1-.2 0v.3l.2.2h.2s.1-.2 0-.4l-.2-.2" id="Fill-417" fill="#3A3D3F"/><path d="M339.6 297.5h-.2c-.1 0-.1.3 0 .4 0 .1 0 .2.2.2h.1c.1 0 .1-.2 0-.4l-.1-.2" id="Fill-419" fill="#3A3D3F"/><path d="M340.5 298.2l.3-.1c0-.2-.1-.4-.3-.5-.1 0-.2 0-.2.2l.2.4" id="Fill-421" fill="#3A3D3F"/><path d="M341.5 299.2h.2v-.3l-.2-.2h-.2v.4l.2.1" id="Fill-423" fill="#3A3D3F"/><path d="M339.4 298.9c0-.2-.1-.4-.3-.5 0 0-.2 0-.2.2l.2.4.3-.1" id="Fill-425" fill="#3A3D3F"/><path d="M342 300c-.2 0-.3 0-.3.2 0 .1 0 .3.2.4l.3-.1c0-.2-.1-.4-.3-.5" id="Fill-427" fill="#3A3D3F"/><path id="Fill-429" fill="#32343F" d="M345.3 296.2l1.7 6.6 2.4 1.4v-5.6z"/><path id="Fill-431" fill="#250920" d="M349.4 304.2l4.3-3-4.3-2.6z"/><path d="M373.3 321.7a1.6 1.6 0 0 0 .2-.1l.1-.2.1-.1.1-.2a2.8 2.8 0 0 0 .2-.3 2.6 2.6 0 0 0 .1-.3 2.8 2.8 0 0 0 .2-.6 3.5 3.5 0 0 0 0-.3v-.1a2.6 2.6 0 0 0 .1-.3 5 5 0 0 0 0-.6v-.3-.2-.1-.3a5.8 5.8 0 0 0-.2-.6v-.2-.1l-.1-.2a12 12 0 0 0-.3-.9 14.6 14.6 0 0 0-.3-.6 7.7 7.7 0 0 0-.5-.9v-.1l-.1-.2-.1-.1a13.2 13.2 0 0 0-.4-.6 16.4 16.4 0 0 0-.4-.5 9.5 9.5 0 0 0-.3-.3l-.1-.2h-.1l-.1-.2h-.1l-.1-.2h-.1l-.2-.2a4 4 0 0 0-.4-.3v-.1l-.2-.1h-.1l-.2-.2a7.1 7.1 0 0 0-.5-.3h-.2v-.1a4.5 4.5 0 0 0-.5-.2 5.8 5.8 0 0 0-.9-.2h-1v.1h-.2v.1h-.2l-.1.1 4.5-2.6h.1l.1-.1a3 3 0 0 1 2.1 0c.7.2 1.3.6 1.9 1l.1.1c2 1.7 3.5 4.3 3.7 7 0 .9 0 1.9-.6 2.7v.1h-.1v.2h-.1l-.1.1a2.4 2.4 0 0 1-.5.4l-4.5 2.6.2-.1.1-.1" id="Fill-433" fill="#40363B"/><path d="M369.7 310.7c2.6 1.5 4.7 5.2 4.7 8.2 0 3-2.1 4.2-4.7 2.7a10.3 10.3 0 0 1-4.7-8.2c0-3 2.1-4.2 4.7-2.7" id="Fill-435" fill="#4E444A"/><path d="M369.6 312.8a6.8 6.8 0 0 1 3 5.4c0 2-1.4 2.7-3 1.7a6.8 6.8 0 0 1-3.1-5.6c.1-1.7 1.5-2.4 3-1.5" id="Fill-437" fill="#BBBDBF"/><path d="M369.6 313.8a5 5 0 0 1 2.2 3.9c0 1.4-1 2-2.3 1.3a5 5 0 0 1-2.2-4.1c.1-1.3 1-1.8 2.3-1" id="Fill-439" fill="#929497"/><path d="M367.3 314.8c.1-1 .8-1.5 1.7-1.2-.7 0-1.2.4-1.3 1.3v.2a5 5 0 0 0 2.2 4l.6.2a2 2 0 0 1-1-.3 5 5 0 0 1-2.2-4.2" id="Fill-441" fill="#D0D2D3"/><path d="M368.7 316.7h-.2v.3l.2.2h.2v-.4l-.2-.1" id="Fill-443" fill="#3A3D3F"/><path d="M369.7 315.7c-.3-.2-.6 0-.6.4 0 .3.3.8.6 1 .3.1.6 0 .6-.4s-.3-.8-.6-1" id="Fill-445" fill="#3A3D3F"/><path d="M369.7 317.7l-.3.1c0 .2.1.4.3.5.1 0 .2 0 .2-.2 0-.1 0-.3-.2-.4" id="Fill-447" fill="#3A3D3F"/><path d="M370.7 317.8h-.2c-.1 0-.1.2 0 .4l.2.2h.2v-.4l-.2-.2" id="Fill-449" fill="#3A3D3F"/><path d="M368.7 314.4h-.2v.4l.2.2h.2v-.4l-.2-.2" id="Fill-451" fill="#3A3D3F"/><path d="M369.7 315c.1.2.3 0 .3 0 0-.2-.2-.4-.3-.5l-.3.1c0 .2.2.4.3.5" id="Fill-453" fill="#3A3D3F"/><path d="M370.7 316.1h.2v-.4l-.2-.2h-.2c-.1 0-.1.3 0 .4l.2.2" id="Fill-455" fill="#3A3D3F"/><path d="M368.6 315.7l-.3-.4-.2.1c0 .2 0 .4.2.5.1 0 .3 0 .3-.2" id="Fill-457" fill="#3A3D3F"/><path d="M371 316.9l-.2.1c0 .2.1.4.3.5.1 0 .2 0 .2-.2 0-.1 0-.3-.2-.4" id="Fill-459" fill="#3A3D3F"/><path d="M383.5 327.5a2 2 0 0 0 .3-.3 2.4 2.4 0 0 0 .2-.3 3.4 3.4 0 0 0 .2-.3 3 3 0 0 0 .1-.3l.1-.2a3.3 3.3 0 0 0 .1-.7v-.1-.1-.2a6.5 6.5 0 0 0 0-.6v-.2-.1-.2-.4-.2-.1l-.1-.2v-.1a8.5 8.5 0 0 0-.1-.3v-.2l-.2-.3v-.3l-.2-.3a76 76 0 0 0-.3-.6v-.2l-.1-.2a5.8 5.8 0 0 0-.3-.5v-.1l-.2-.2-.1-.2-.1-.1a12 12 0 0 0-.5-.7l-.1-.2-.2-.2h-.1a14 14 0 0 0-.3-.4l-.1-.1a9 9 0 0 0-.4-.3v-.1l-.2-.1v-.1a8.4 8.4 0 0 0-.3-.2h-.2v-.1l-.3-.2a6.2 6.2 0 0 0-.4-.2l-.2-.2h-.1a6.6 6.6 0 0 0-.4-.2h-.1a3 3 0 0 0-.6-.1h-.2a2.2 2.2 0 0 0-.3 0 3.5 3.5 0 0 0-.3 0h-.2a2.1 2.1 0 0 0-.3 0l-.2.1-.2.1 4.4-2.6h.2a3 3 0 0 1 2.2 0c.7.1 1.3.5 1.9 1h.1c2 1.7 3.5 4.4 3.7 7 0 .9 0 2-.6 2.7a2.3 2.3 0 0 1-.2.3 2.3 2.3 0 0 1-.3.3h-.1v.1h-.2l-4.5 2.7a2.3 2.3 0 0 0 .3-.2" id="Fill-461" fill="#40363B"/><path d="M379.9 316.6c2.6 1.5 4.7 5.1 4.7 8 0 3-2.1 4.3-4.7 2.8a10.3 10.3 0 0 1-4.7-8.1c0-3 2.1-4.2 4.7-2.7" id="Fill-463" fill="#4E444A"/><path d="M379.7 318.7a6.8 6.8 0 0 1 3.1 5.3c0 2-1.4 2.7-3 1.7a6.8 6.8 0 0 1-3.1-5.6c.1-1.7 1.4-2.4 3-1.4" id="Fill-465" fill="#BBBDBF"/><path d="M379.7 319.6a5 5 0 0 1 2.3 3.9c0 1.4-1 2-2.3 1.3a5 5 0 0 1-2.2-4.1c.1-1.3 1-1.7 2.2-1" id="Fill-467" fill="#929497"/><path d="M377.5 320.7c0-1 .8-1.6 1.7-1.3-.7 0-1.2.5-1.3 1.3v.3a5 5 0 0 0 2.2 3.8l.6.3a2 2 0 0 1-1-.3 5 5 0 0 1-2.2-4.1" id="Fill-469" fill="#D0D2D3"/><path d="M378.9 322.5h-.2v.4l.2.2h.2v-.4l-.2-.2" id="Fill-471" fill="#3A3D3F"/><path d="M379.9 321.5c-.3-.1-.6 0-.6.4 0 .3.3.8.6 1 .3.1.5 0 .5-.4 0-.3-.2-.8-.5-1" id="Fill-473" fill="#3A3D3F"/><path d="M379.9 323.5c-.2 0-.3 0-.3.2l.3.4c.1 0 .2 0 .2-.2 0-.1 0-.3-.2-.4" id="Fill-475" fill="#3A3D3F"/><path d="M380.9 323.6h-.2c-.1 0-.1.2 0 .4l.2.2h.1c.1 0 .1-.2 0-.4l-.1-.2" id="Fill-477" fill="#3A3D3F"/><path d="M378.9 320.2h-.2v.4l.2.2h.2v-.4l-.2-.2" id="Fill-479" fill="#3A3D3F"/><path d="M379.9 320.9c.1 0 .2 0 .2-.2 0-.1 0-.3-.2-.4-.2 0-.3 0-.3.2l.3.4" id="Fill-481" fill="#3A3D3F"/><path d="M380.9 322h.1v-.5l-.1-.2h-.2c-.1 0-.1.3 0 .4l.2.2" id="Fill-483" fill="#3A3D3F"/><path d="M378.7 321.5c0-.1 0-.3-.2-.4-.2 0-.3 0-.3.2l.3.4c.1 0 .2 0 .2-.2" id="Fill-485" fill="#3A3D3F"/><path d="M381.3 322.7c-.2 0-.3 0-.3.2l.3.4c.1 0 .2 0 .2-.2 0-.1 0-.3-.2-.4" id="Fill-487" fill="#3A3D3F"/><path id="Fill-489" fill="#250920" d="M394.1 322v3.6l12.6-7.3v-3.7z"/><path id="Fill-491" fill="#BBBCBC" d="M347.6 283.2l17-9.6v12.1l-17 9.7z"/><path id="Fill-493" fill="#E0E4E4" d="M336.1 276.6l17-9.6 11.5 6.6-17 9.6z"/><path id="Fill-495" fill="#383A45" d="M405.1 316.5l-8.7 5v4.2l-4.2 2.3v-6.8l17-9.6v6.8l-4.1 2.3z"/><path id="Fill-497" fill="#3C3E4A" d="M347.6 295.4l17-9.7 44.7 25.9-17 9.6z"/><path id="Fill-499" fill="#404041" d="M348.5 294.8l15.8-8.9 43.5 25.3L392 320z"/><path d="M408.3 295.4c-1.6-.7-3.5-.3-5 .5a8.3 8.3 0 0 0-.4.2l-40.6-23.5.2-.1a7.1 7.1 0 0 1 .2-.1c1.5-.8 3.3-1.2 4.8-.6h.2l.1.1a2.1 2.1 0 0 1 .2.1 2525358.8 2525358.8 0 0 0 40.3 23.4" id="Fill-501" fill="#FCFDFF"/><path id="Fill-503" fill="#FCFDFF" d="M402.9 296.1l-40.6-23.5-4.9 2.8L398 299z"/><path d="M349.4 289a13.2 13.2 0 0 1 .5-3.1v-.1a37.4 37.4 0 0 1 0-.2l.1-.2a1.8 1.8 0 0 0 0-.3h.1v-.2a18 18 0 0 1 6.4-9H356.8l.2-.2a11.3 11.3 0 0 1 .2-.2h.2L398 299a8.2 8.2 0 0 0-.4.2l-.2.2h-.1l-.1.1-.1.1h-.1l-.1.2h-.1a13.3 13.3 0 0 0-.2.2h-.1v.1l-.3.2-.1.1h-.1l-.1.2h-.1l-.1.2a4.9 4.9 0 0 0-.2.1v.1l-.2.1-.2.2-.1.2h-.1l-.1.2-.2.2-.2.2-.2.2a31.7 31.7 0 0 0-.6.8l-.3.4a16.8 16.8 0 0 0-.3.4v.2a8.8 8.8 0 0 0-.2.2v.1l-.2.1v.2h-.1v.2l-.2.3-.2.3a5.7 5.7 0 0 1-.2.4l-.1.2a5.1 5.1 0 0 0-.2.2v.1l-.2.4-.1.4-.1.2-.1.2v.3h-.1v.2a5.1 5.1 0 0 1-.2.2V308.6l-.1.3-.1.2V309.5l-.1.2-.1.3V310.2l-.1.2v.2a9.4 9.4 0 0 0-.1.3v.5l-.1.2v.2a9.2 9.2 0 0 0 0 .6v.2a3.6 3.6 0 0 1 0 .2v.7a6 6 0 0 0 1.6 4l.1.1.2.1a2.2 2.2 0 0 0 .2.2h.2l-40.5-23.5h-.2v-.1h-.1l-.1-.1a5.5 5.5 0 0 1-2-3.9v-1.2" id="Fill-505" fill="#FCFDFF"/><path d="M398 299c-4.5 2.5-8 8.8-8 13.8 0 5.1 3.6 7.2 8 4.6l5-2.8c4.3-2.6 8-8.8 8-13.9 0-5-3.7-7.1-8.1-4.6l-5 2.9z" id="Fill-507" fill="#E0E4E4"/><path d="M364.4 305.7h-.1-.2-.1-.1-.1-.2-.1-.1v.1h-.2l-9.3-5.3h.1v-.1H354.4v-.1h.5a.2.2 0 0 1 .1 0h.2l9.4 5.5h-.1" id="Fill-509" fill="#959595"/><path id="Fill-511" fill="#A4A7A9" d="M363.2 305.9l-9.3-5.4-1.1.7 9.2 5.3z"/><path d="M351 304.3v-.1-.1-.1-.1-.1-.1-.1-.1-.1h.1v-.1-.1-.1h.1v-.1-.1h.1v-.1-.1h.1v-.1-.1h.1v-.1l.1-.1v-.1h.1v-.1l.1-.1.1-.1.1-.1v-.1h.1v-.1h.1a.5.5 0 0 1 .1-.1l.1-.1h.1v-.1h.1l.1-.1 9.3 5.3v.1h-.1l-.1.1h-.1v.1h-.1v.1h-.1a1.5 1.5 0 0 0 0 .1.8.8 0 0 1-.1 0v.1h-.1v.1h-.1v.1h-.1v.1a9.1 9.1 0 0 0-.2.3l-.1.1v.1l-.1.1v.1a1.1 1.1 0 0 1-.1 0v.2l-.1.1v.1l-.1.1V309h-.1v.5l-.1.1V310.4a.3.3 0 0 0 .1 0v.2h.1v.1h.1v.1h.1a.4.4 0 0 0 0 .1h.1l-9.2-5.3h-.1v-.1h-.1v-.1h-.1v-.1l-.1-.1v-.1-.1h-.1v-.1-.1-.1-.1-.2z" id="Fill-513" fill="#D0D2D3"/><path d="M362 306.5a4 4 0 0 0-1.8 3.2c0 1.2.8 1.6 1.8 1l1.2-.6a4 4 0 0 0 1.8-3.2c0-1.1-.8-1.6-1.8-1l-1.2.6z" id="Fill-515" fill="#929292"/><path d="M393.4 325a1.6 1.6 0 0 0-.7 1.2c0 .5.3.7.7.5a1.6 1.6 0 0 0 .7-1.4c0-.4-.3-.6-.7-.3" id="Fill-517" fill="#A01623"/><path d="M395.2 324a1.6 1.6 0 0 0-.7 1.2c0 .5.3.7.7.4a1.6 1.6 0 0 0 .8-1.3c0-.4-.4-.6-.8-.4" id="Fill-519" fill="#A01623"/><path d="M406.4 317.8a1.6 1.6 0 0 0-.8 1.2c0 .5.4.7.8.5a1.6 1.6 0 0 0 .7-1.4c0-.4-.4-.6-.7-.3" id="Fill-521" fill="#A01623"/><path d="M408.2 316.7a1.6 1.6 0 0 0-.8 1.3c0 .5.4.7.8.4a1.6 1.6 0 0 0 .7-1.3c0-.4-.3-.6-.7-.4" id="Fill-523" fill="#A01623"/><path d="M333.8 284l2.3-7.4 11.5 6.6V297.6l-4.9-2.8a9.5 9.5 0 0 0-2.1-1.8c-2.7-1.5-5-.6-5.4 2l-1.5-.8V284z" id="Fill-525" fill="#D3D3D3"/><path id="Fill-527" fill="#32343F" d="M392.2 321.2v6.8l-2.6-1.5v-4.7l-42-24.2v-2.2z"/><path d="M351.6 294.4v-.1h-.1l-.1-.1-.2-.1v-.1h-.1v-.1h-.1l-.1-.2h-.1v-.1h-.1v-.1l-.1-.1-.1-.2h-.1v-.1-.1h-.1v-.2h-.1v-.2h-.1v-.1l-.1-.2a5 5 0 0 1-.1-.2l-.1-.2v-.2a22.6 22.6 0 0 0-.1-.2v-.3l-.1-.1v-.2l-.1-.3v-.1-.1-.2-.1a2.3 2.3 0 0 1 0-.3v-.1a3.9 3.9 0 0 1-.1-.4 20.7 20.7 0 0 1 0-.3v-.1-.1-.2a8.2 8.2 0 0 1 0-.3v-.1-.2-.1l.1-.1v-.2-.2-.1l.1-.2v-.1-.1-.2l.1-.1v-.2l.1-.3a17.1 17.1 0 0 1 .1-.3v-.2l.1-.2v-.1-.2h.1v-.2l40.6 23.4v.1a28.3 28.3 0 0 0-.1.5l-.1.2V309.5l-.1.2-.1.3V310.2l-.1.2v.2l-.1.2V311.1a6.1 6.1 0 0 0 0 .3l-.1.2v1a8.3 8.3 0 0 0 0 .5v1.3l.1.2v.4h.1v.2l.1.2v.2h.1a5.1 5.1 0 0 0 .2.4v.2a7 7 0 0 0 .2.3l.1.1v.2h.1v.1h.1v.1h.1v.2h.2v.1a8.9 8.9 0 0 0 .2.2l.1.1.2.1a2.2 2.2 0 0 0 .2.2h.2l-40.5-23.5h-.2" id="Fill-529" fill="#587ABB"/><path d="M336.5 278.4h-.2l-1.2 4.6c0 .1 0 .3.2.4l6.7 3.9.2-.1v-5.3c0-.1 0-.3-.2-.3l-5.5-3.2z" id="Fill-531" fill="#70565D"/><path d="M340 275.1c.5 0 1 .3 1 .5v1.5c0 .2-.5.4-1 .4-.6 0-1-.2-1-.4v-1.5c0-.2.4-.5 1-.5" id="Fill-533" fill="#FAAF40"/><path d="M340 277c.5 0 1 0 1-.3v.4c0 .2-.5.4-1 .4-.6 0-1-.2-1-.4v-.4c0 .2.4.4 1 .4" id="Fill-535" fill="#404041"/><path d="M341 275.6c0 .1-.5.3-1 .3-.6 0-1-.2-1-.3 0-.2.4-.5 1-.5.5 0 1 .3 1 .5" id="Fill-537" fill="#FFC940"/><path d="M353.6 267c.6 0 1 .3 1 .5v1.6c0 .2-.4.3-1 .3-.5 0-1-.1-1-.3v-1.6c0-.2.5-.5 1-.5" id="Fill-539" fill="#FAAF40"/><path d="M353.6 269c.6 0 1-.1 1-.3v.4c0 .2-.4.3-1 .3-.5 0-1-.1-1-.3v-.4c0 .2.5.3 1 .3" id="Fill-541" fill="#404041"/><path d="M354.6 267.5c0 .2-.4.3-1 .3-.5 0-1-.1-1-.3 0-.2.5-.5 1-.5.6 0 1 .3 1 .5" id="Fill-543" fill="#FFC940"/><path id="Fill-545" fill="#807689" d="M189.3 264.9l32.4 18.8-25 3.1-32.5-18.9z"/><path id="Fill-547" fill="#D3D3D3" d="M164.2 268v11.4l32.4 19v-11.6z"/><path id="Fill-549" fill="#E2E4E5" d="M196.6 286.8v11.5l25.1-14.6z"/><path id="Fill-551" fill="#807689" d="M234.4 238.6l32.4 18.8-25 3.1-32.5-18.9z"/><path id="Fill-553" fill="#D3D3D3" d="M209.3 241.6v11.5l32.5 18.9v-11.5z"/><path id="Fill-555" fill="#E2E4E5" d="M241.8 260.5V272l25-14.6z"/><path id="Fill-557" fill="#807689" d="M279.6 212.3L312 231l-25.1 3-32.5-18.8z"/><path id="Fill-559" fill="#D3D3D3" d="M254.4 215.3v11.5l32.5 18.9v-11.5z"/><path id="Fill-561" fill="#E2E4E5" d="M286.9 234.2v11.5l25-14.6z"/><path id="Fill-563" fill="#9B7371" d="M362.1 253.5v-11.3l-40.8 23.5v11.5z"/><path id="Fill-565" fill="#5D525B" d="M341.6 188l-3.3-2-15.5 9 3.4 2z"/><path id="Fill-567" fill="#5D525B" d="M335 184.1l-3.4-2-15.5 9 3.4 2z"/><path id="Fill-569" fill="#5D525B" d="M328.2 180.2l-3.3-1.9-15.5 9 3.4 2z"/><path id="Fill-571" fill="#5D525B" d="M321.5 176.4l-3.3-2-15.5 9 3.4 2z"/><path id="Fill-573" fill="#5D525B" d="M314.8 172.5l-3.3-2-15.5 9 3.4 2z"/><path id="Fill-575" fill="#5D525B" d="M308.1 168.7l-3.3-2-15.5 9 3.4 2z"/><path id="Fill-577" fill="#5D525B" d="M301.4 164.8l-3.3-2-15.5 9 3.4 2z"/><path id="Fill-579" fill="#5D525B" d="M294.7 161l-3.3-2-15.5 9 3.4 2z"/><path id="Fill-581" fill="#5D525B" d="M288 157l-3.3-1.9-15.5 9 3.4 2z"/><path id="Fill-583" fill="#5D525B" d="M281.3 153.2l-3.3-2-15.5 9 3.4 2z"/><path id="Fill-585" fill="#5D525B" d="M274.6 149.4l-3.3-2-15.5 9 3.4 2z"/><path id="Fill-587" fill="#5D525B" d="M268 145.5l-3.4-2-15.5 9 3.4 2z"/><path id="Fill-589" fill="#5D525B" d="M261.2 141.6l-3.3-2-15.5 9 3.4 2z"/><path id="Fill-591" fill="#5D525B" d="M254.5 137.8l-3.3-2-15.5 9 3.4 2z"/><path id="Fill-593" fill="#5D525B" d="M247.8 133.9l-3.3-2-15.5 9 3.4 2z"/></g><g id="Group-4987" transform="rotate(-4 3510.3 -4163.8)" fill="#587ABB"><path d="M5.5 37.8c2.2-1 3.6-.5 4.3 1.5l-1.6 1.2c-.4-1.4-1.3-1.7-2.7-1.1-2 1.1-3.1 3.2-3.3 6.1.1 2.9 1.1 4 3.1 3.1 1.7-.8 2.7-2.3 3-4.4l1.6-.3a8 8 0 0 1-4.6 6.2c-3 1.3-4.7 0-4.8-3.7.2-4 1.9-6.8 5-8.6" id="Fill-4971"/><path d="M66 19c2.2-1.1 3.4-3.2 3.5-6.2 0-2.9-1.2-3.9-3.3-3-2.1 1.2-3.3 3.3-3.4 6.3 0 2.8 1.1 3.8 3.3 3m.2-11c3.1-1.2 4.8 0 5 3.8-.2 4-2 6.8-5.2 8.6-3.2 1.4-5 .2-5-3.6.2-4 2-7 5.2-8.7" id="Fill-4973"/><path d="M55.4 13.5c2.3-1.1 3.7-.7 4 1.3L58 15.9c-.3-1.3-1-1.6-2.5-1-1.3.8-2 1.7-2.2 2.8 0 1 .7 1.2 2.5.7l1.5-.2c1.7-.3 2.5.4 2.5 2-.1 2.2-1.4 4-4 5.4h-.3c-2.4 1.3-3.9.7-4.3-1.6l1.6-1.2c.3 1.8 1.2 2.3 3 1.4 1.4-.7 2.2-1.8 2.3-3.1 0-1-.6-1.3-2.1-1a3.3 3.3 0 0 0-1.2.2c-2.2.5-3.3 0-3.1-1.8.1-2 1.4-3.7 3.7-5h.1" id="Fill-4975"/><path id="Fill-4977" d="M50.2 16.2v1.5l-3.6 1.7v10.4l-1.7.8.1-10.4-3.6 1.8v-1.5z"/><path d="M34 31.3l3.9-1.9a253.2 253.2 0 0 0-1.8-4.8l-.4 1.3-1.6 5.4zm3-8.7l4 10-1.7.7-1-2.6-4.6 2.2-1.1 3.7-1.8.9 4.3-14 1.9-.9z" id="Fill-4979"/><path id="Fill-4981" d="M30 26v1.6l-6.2 3V34l5.7-2.8v1.5l-5.8 2.8v4l6.4-3.2V38l-8 3.9v-12z"/><path d="M13.3 39.7l2.8-1.4c1.7-.8 2.5-1.9 2.4-3.2 0-1.4-.7-1.7-2.3-.9l-3 1.4v4.1m4.1-.7l3.5 3.4-2 1-3.2-3.4-2.4 1.1v5l-1.6.8.1-12 4.8-2.3c2.4-1 3.6-.5 3.7 1.6 0 2-1 3.6-2.9 4.8" id="Fill-4983"/><path id="Fill-4985" d="M82 .7l-.2 12-1.8.8-5.3-7.2v9.8L73 17l.1-12 1.9-.8 5.2 7.2.1-9.8z"/></g></g></g></g></g></svg>