<?xml version="1.0" encoding="UTF-8"?><svg width="973" height="410" xmlns="http://www.w3.org/2000/svg" xmlns:xlink="http://www.w3.org/1999/xlink"><!--Generator: Sketch 50.2 (55047) - http://www.bohemiancoding.com/sketch--><defs><path d="M4.3 16.6L4 75.8a73.4 73.4 0 0 1-3.2-16L1.1.6c.4 5.4 1.5 10.8 3.2 16" id="path-1"/></defs><g id="Page-1" fill="none" fill-rule="evenodd"><g id="06-价格设置" transform="translate(-281 -248)"><g id="Group-6" transform="translate(281 248)"><g id="Group-5" transform="translate(569 26)" font-family="PingFang-SC-Semibold, PingFang SC" font-weight="500"><text id="rovisions" font-size="60" fill="#F2F2F2"><tspan x="118" y="164">rovisions</tspan></text><text id="rice" font-size="60" fill="#F2F2F2"><tspan x="118" y="111">rice</tspan></text><text id="P" font-size="160" fill="#E1E1E1"><tspan x="0" y="170">P</tspan></text></g><g id="Group"><path id="Fill-4" fill="#A4AFB4" d="M248.2 79.4l-.1 58.6-.1-16.4.1-58.6.1 16.4"/><path d="M427.6 104l-8.2-4.6-3-1.4-5.6-2.9-3.6-1.6-5.3-2.4-4-1.7-5.2-2.1-.1-.1-8.3-3.1-2.5-.9-6.4-2.2-2.8-.9-7.4-2.2-1.6-.5-.4-.1-1.8-.5-9.5-2.5-4-1a362 362 0 0 0-8-1.8l-2.2-.5-2.3-.4-6.5-1.3-4.8-.8-6.9-1c-1-.3-2.2-.5-3.3-.6l-1.4-.2-6.2-.8-5-.6-6.5-.6-4.1-.4h-1l-6.1-.5c-1.8-.1-3.5-.3-5.3-.3-2-.2-4.2-.2-6.3-.3l-4.6-.2h-1.2l-.2 59 5.7.3 6.5.2 5.2.4c2 0 4.1.2 6.2.4l5 .4 6.5.7 5 .6 6.3.8 4.7.7 6.8 1 4.8 1a387.3 387.3 0 0 1 19.1 4 350.2 350.2 0 0 1 13.4 3.5c.7 0 1.5.3 2.2.5l1.7.4 7.4 2.3 2.7.9 6.5 2.2 2.4.8 8.5 3.2 5.2 2.2 4 1.6 5.4 2.5 3.4 1.6 5.8 2.9 2.8 1.4 8.2 4.5c14.3 8.3 27 17.7 37.4 28l.2-59a185.6 185.6 0 0 0-37.4-28" id="Fill-5" fill="#94B4CD"/><path d="M325.8 122.1c-.7-1-2.5-1.2-4-1l-4.4 1c-1.8 9.4 3.5 19 2.2 28.5l.1.7c.2.3.5.4.9.4 1.4.3 2.8.4 4.3.3a298 298 0 0 0 .9-29.9" id="Fill-6" fill="#D24B6E"/><path d="M333.8 122.1c-.7-1-2.5-1.2-4-1l-4.4 1c-1.8 9.4 3.5 19 2.2 28.5l.1.7c.2.3.5.4.9.4 1.4.3 2.8.4 4.3.3a298 298 0 0 0 .9-29.9" id="Fill-7" fill="#D24B6E"/><path d="M313 121.6v-.6l-.4-.5-2.4-.5c-.5.2-.8.7-1 1.2-.1.2-.2.5 0 .6l.3.2v.2c0 .4-.3.7-.4 1-.1.4-.2.7 0 1l.2.4c.5.4 1.3.5 2 .3.6-.3 1-.8 1.3-1.4.3-.6.4-1.3.4-2" id="Fill-8" fill="#F2BDB6"/><path id="Fill-9" fill="#DFE7EB" d="M312.5 122l-3.5-1.3.5-1.7 3.5 1.3-.5 1.7"/><path d="M317.9 108.6l.5-3.2c.5-2.6 4-12.3-1-12.4-1 0-2 .6-2.5 1.5-.5.8-.8 1.8-1 2.7-2 8.2-1.8 13.8-4.8 21.7 0 .1-.1.3 0 .4 0 .2.2.3.3.4 1.2.6 2.5 1 3.8 1.3.3 0 2-3.5 2.2-3.9.7-1.3-.2.2.4-1.2.9-2.4 1.5-4.8 2-7.3" id="Fill-10" fill="#D24B6E"/><path d="M333.7 95.8c-.7-1.7-2.5-2.8-4.3-3.2l-2.6-.3c-2.2-.3-4.4-.4-6.7-.3-1.7.1-3.7.4-4.6 2-.5.8-.5 1.8-.5 2.7 0 1.5 0 3 .4 4.5l1 2.6c.4 1.3.4 2.6.4 4v14.4c0 .4.5.7.9.9a27 27 0 0 0 14.4 2.8c.2 0 .5 0 .7-.2.2-.2.2-.4.3-.7.2-1.7.3-3.5.3-5.3l.6-21c0-1 0-2-.3-3" id="Fill-11" fill="#E05A78"/><path d="M322.2 92l-1.2 1s0 2 .2 2l4-.9s1-2 .8-2h-3.8" id="Fill-12" fill="#8EB0CA"/><path d="M327.7 88.3c.3-.6.8-1 1.1-1.7.3-.6.3-1.5-.4-1.7l-.5-.1c-1.1-.1-2-1-2.1-2.2l-.9-1.2c-1.7-.5-3.7-.7-4.9.5-1.2 1.3-.8 3.3-.8 5 0 1-.3 1.9-.2 2.8.1.9.6 1.9 1.4 2.2l1.6.2c1.1.7-.2 2.4-.4 3-.1.4-.2.7 0 1 .2.3.5.5.9.6 1.2.4 2.7.4 4 0 1.3-.5 2.5-1.8 2.3-3.4-.2-1.6-1.8-3.3-1-5" id="Fill-13" fill="#F2BDB6"/><path d="M329.5 81.1c-.4-1-1.6-1.2-1.6-1.2l-.5-.9a3 3 0 0 0-1-.6c-.9-.4-1.9-.5-2.8-.3-2.5.3-5.6 3-4.3 5.8 0 0 .4-1.6 3.3-1 1.6.4 3.3 2.6 3.3 2.7 0 .4.4 1.5.8 1.4.4-.8.5-1.8 1.3-1.8s1.4 1 1 1.6a6 6 0 0 0 .5-5.7" id="Fill-14" fill="#3D395C"/><path d="M335.8 124.9l-.2-.6a.7.7 0 0 0-.5-.3l-2.4.1c-.5.4-.6 1-.7 1.5 0 .2 0 .5.2.6l.4.1v1.2c0 .4 0 .8.2 1 .1.2.2.3.4.3.6.3 1.3.2 1.9-.2.5-.4.8-1 .9-1.7 0-.7 0-1.4-.2-2" id="Fill-15" fill="#F2BDB6"/><path id="Fill-16" fill="#DFE7EB" d="M336 124l-4-.1V122l4 .1v1.9"/><path d="M336.8 109.8l-.3-3.2c-.3-2.6.3-12.8-4.4-11.5-1 .3-1.6 1.2-1.9 2.1-.3 1-.2 2-.2 3 .4 8.3 2.2 13.6 1.4 22v.4l.6.2c1.3.2 2.6.2 3.9.2.3 0 .5-2 .6-2.2.3-1.4.4-3 .4-4.4l.1-2.4c0-1.4 0-2.8-.2-4.2" id="Fill-17" fill="#D24B6E"/><path id="Fill-18" fill="#8EB0CA" d="M328 97.4l-5.3-1.4-1.7 1.4 1.1 15.6 1.8-1.1 1.9-9.6 2.2-5"/><path d="M323.6 96l-1.6 1.2v.2l.3.7c0 .3-.5 15 0 14.9 2.7-.7 1.6-12 1.8-14.3l.7-.7.2-.2c-.4-.7-.8-1.3-1.4-1.8" id="Fill-19" fill="#3D395C"/><path d="M328 92.3c0 .3 1 .5 1 .9v.6c-.1.5-.8 1.2-1.1 1.6l-2.3 2.6c-.4.3-.9 1-1.4 1 0-.1-.7-2-1.2-2.6-.3 0-.6.3-1 .6l-.5.7-.1.2-.4-2.3c0-1 0-2 .3-3 .2-.6.7-.6.8-.6-.6 1.2-.2 1.8 0 2l.2.7.7 1.3 3.5-1.4c1-.8 1.7-1.4 1.4-2.3" id="Fill-20" fill="#C8DDEA"/><path d="M325.5 110.6l.5-1.5-1-3.6 1.7-2c.5-.6 2-1.8 2-1.8s1.3-6.1 1.3-7.5c0-.1-.2-1.8-1.6-2.2.3 2.5-2.3 4.4-3.3 7-1 2.7-1.7 5.7-2.2 8.6a47.7 47.7 0 0 0-.8 8.4s2.7-3.5 3.4-5.4" id="Fill-21" fill="#E36983"/><path d="M319.8 110.1l-.1-1.4 1.3-3-.8-2.3-1.1-2.3s-.2-5.7 0-7c.3-1.9 2.7-2.4 2.9-2 0 0-.8.5-.8 1.5 0 3.5 1.1 20.1.6 22.3v.1s-1.7-4-2-5.9" id="Fill-22" fill="#E36983"/><path id="Fill-23" fill="#698B9E" d="M294 81l-.2 58.7L291 150l.2-58.7L294 81"/><path d="M60 181.9l1.3-1.1c2-1.7 4.2-3.4 6.4-5l1.1-.8c2-1.5 4.1-3 6.3-4.4l1-.7a210 210 0 0 1 12.9-8l2.1-1.2 4.4-2.3 1.8-1 6.3-3.1 1-.5 5.5-2.6 2.2-1a271.7 271.7 0 0 1 11.5-4.7l2.5-1 5-1.8 2-.7a307 307 0 0 1 7.2-2.4l.6-.2 9.4-2.9 1.8-.5 9.7-2.6 2-.5 10.2-2.3.3-.1 10.3-2 2.3-.5 4-.6 3.4-.6 4.1-.6 3.4-.5 4.2-.6c1.1 0 2.2-.2 3.3-.4l4.4-.4 3.1-.4 11.5-1h2.1a410.8 410.8 0 0 1 17.2-.8L248 63l-5 .1h-.8l-11.4.7-2.1.1-11.5 1h-.4l-2.7.3-4.4.5-3.3.4-4.2.5-3.4.5-4.1.6-3.4.6-4 .7-1.1.2-1.2.2-10.3 2-.3.1c-3.5.7-6.9 1.5-10.3 2.4l-2 .5c-3.2.8-6.5 1.6-9.7 2.6l-1.7.5-9.4 2.8-.5.2h-.2l-7.1 2.4-2 .7-5 1.9-2.6 1a281.1 281.1 0 0 0-11.4 4.7l-2.3 1-5.4 2.5-1 .5c-2.2 1-4.3 2-6.4 3.2l-1.7.9-4.4 2.4-2.2 1.2a225 225 0 0 0-3.8 2.2l-1.2.7-.7.5a209 209 0 0 0-7.2 4.5l-1 .7A192 192 0 0 0 69 116l-1.2.9a176 176 0 0 0-6.3 5l-1.3 1c-3.5 3-6.9 6-10 9.1L50 191a147.6 147.6 0 0 1 10-9.1" id="Fill-24" fill="#94B4CD"/><path id="Fill-25" fill="#698B9E" d="M192 95.9l-.2 59.1-5.8-9.9.2-59.1 5.8 9.9"/><path d="M274.9 149l3 .1a343.5 343.5 0 0 1 13 1l.1-58.4-5.8-.6H284l-6-.5-3-.1-8.7-.4h-.3a337.7 337.7 0 0 0-18.7 0H246l-2 .2-6.8.3-3 .2-8.3.7h-1.2l-.2.1a320.7 320.7 0 0 0-24.1 3.3h-.3v.1l-8 1.5-.2 58.5 8-1.5h.3a313.2 313.2 0 0 1 24.1-3.4l1.4-.1 8.3-.7 3-.2c2.3-.1 4.6-.3 7-.3l3-.2a342.7 342.7 0 0 1 18.7 0h.3c3 0 5.9.2 8.8.3" id="Fill-26" fill="#A9C4DC"/><path d="M166.2 127.1c.7-1 2.5-1.2 4-1l4.4 1c1.8 9.4-3.5 19-2.2 28.5l-.1.7c-.2.3-.5.4-.9.4-1.4.3-2.8.4-4.3.3a298 298 0 0 1-.9-29.9" id="Fill-27" fill="#333155"/><path d="M158.2 127.1c.7-1 2.5-1.2 4-1l4.4 1c1.8 9.4-3.5 19-2.2 28.5l-.1.7c-.2.3-.5.4-.9.4-1.4.3-2.8.4-4.3.3a298 298 0 0 1-.9-29.9" id="Fill-28" fill="#333155"/><path d="M196.8 105.6c-.2 0-.4-.1-.5-.3a.7.7 0 0 1-.3-.5l.4-2.3c.4-.4 1-.5 1.5-.5.2 0 .5 0 .6.2v.4l.2.1h1c.4 0 .8.2 1 .4l.2.4c.2.6 0 1.3-.5 1.8-.4.5-1 .7-1.7.7a5 5 0 0 1-2-.4" id="Fill-29" fill="#F2BDB6"/><path id="Fill-30" fill="#DFE7EB" d="M196.7 105l.3-3.9-1.7-.1-.3 3.9 1.7.1"/><path d="M182.4 105.8a83 83 0 0 1-3.2-.7c-2.5-.6-12.8-1.3-11-6.2.4-1 1.4-1.6 2.3-1.8 1-.2 2 0 3 .1 8.4 1.5 13.4 4 21.9 4.3h.4c.2.2.2.4.2.6 0 1.5 0 2.9-.3 4.3 0 .3-4 .5-4.5.6-1.5 0 .2-.2-1.3-.2-2.5 0-5-.4-7.5-1" id="Fill-31" fill="#333155"/><path d="M158.3 100.8c.7-1.7 2.5-2.8 4.3-3.2l2.6-.3c2.2-.3 4.4-.4 6.7-.3 1.7.1 3.7.4 4.6 2 .5.8.5 1.8.5 2.7 0 1.5 0 3-.4 4.5l-1 2.6c-.4 1.3-.4 2.6-.4 4v14.4c0 .4-.5.7-.9.9a27 27 0 0 1-14.4 2.8c-.2 0-.5 0-.7-.2-.2-.2-.2-.4-.3-.7-.2-1.7-.3-3.5-.3-5.3l-.6-21c0-1 0-2 .3-3" id="Fill-32" fill="#3D395C"/><path d="M168.8 96l1.2 1s0 2-.2 2l-4-.9s-1-2-.8-2h3.8" id="Fill-33" fill="#8EB0CA"/><path d="M164.3 93.3c-.3-.6-.8-1-1.1-1.7-.3-.6-.3-1.5.4-1.7l.5-.1c1.1-.1 2-1 2.1-2.2l.9-1.2c1.7-.5 3.7-.7 4.9.5 1.2 1.3.8 3.3.8 5 0 1 .3 1.9.2 2.8-.1.9-.6 1.9-1.4 2.2l-1.6.2c-1.1.7.2 2.4.4 3 .1.4.2.7 0 1-.2.3-.5.5-.9.6-1.2.4-2.7.4-4 0-1.3-.5-2.5-1.8-2.3-3.4.2-1.6 1.8-3.3 1-5" id="Fill-34" fill="#F2BDB6"/><path d="M162.5 85.6c.3-.8 1.4-1 1.4-1 .7-2.5 7.3-2 8.7 1.3.6 1.3.6 1.3-.7 2.3 0 0-6 1.2-6 1.6 0 .3-.5 1.3-.8 1.2-.4-.7-.5-1.6-1.2-1.6s-1.4.9-1 1.5a5.4 5.4 0 0 1-.4-5.3" id="Fill-35" fill="#3D395C"/><path id="Fill-36" fill="#8EB0CA" d="M164 101.4l5.3-1.4 1.7 1.4-1.1 15.6-1.8-1.1-1.9-9.6-2.2-5"/><path d="M167 101.8l.2.2.7.7c.2 2.3-.9 13.6 1.8 14.3.5.1 0-14.6 0-14.9l.3-.7v-.2a8 8 0 0 0-1.6-1.2c-.6.5-1 1-1.4 1.8" id="Fill-37" fill="#D24B6E"/><path d="M163 96.3c0 .3-1 .5-1 .9v.6c.1.5.8 1.2 1.1 1.6l2.3 2.6c.4.3.9 1 1.4 1 0-.1.7-2 1.2-2.6.3 0 .6.3 1 .6l.5.7.1.2.4-2.3c0-1 0-2-.3-3-.2-.6-.7-.6-.8-.6.6 1.2.2 1.8 0 2l-.2.7-.7 1.3-3.5-1.4c-1-.8-1.7-1.4-1.4-2.3" id="Fill-38" fill="#C8DDEA"/><path d="M165.5 115.6l-.5-1.5 1-3.6-1.7-2c-.5-.6-2-1.8-2-1.8s-1.3-6.1-1.3-7.5c0-.1.2-1.8 1.6-2.2-.3 2.5 2.3 4.4 3.3 7 1 2.7 1.7 5.7 2.2 8.6a47.7 47.7 0 0 1 .8 8.4s-2.7-3.5-3.4-5.4" id="Fill-39" fill="#4F4C76"/><path d="M171.2 114.1l.1-1.4-1.3-3 .8-2.3 1.1-2.3s.2-5.7 0-7c-.3-1.9-2.7-2.4-2.9-2 0 0 .8.5.8 1.5 0 3.5-1.1 20.1-.6 22.3v.1s1.7-4 2-5.9" id="Fill-40" fill="#4F4C76"/><path d="M156.2 128.9l.2-.6c.1-.1.3-.3.5-.3l2.4.1c.5.4.6 1 .7 1.5 0 .2 0 .5-.2.6l-.4.1v1.2c0 .4 0 .8-.2 1-.1.2-.2.3-.4.3-.6.3-1.3.2-1.9-.2-.5-.4-.8-1-.9-1.7 0-.7 0-1.4.2-2" id="Fill-41" fill="#F2BDB6"/><path id="Fill-42" fill="#DFE7EB" d="M156 129l4-.1V127l-4 .1v1.9"/><path d="M155.2 114.8l.3-3.2c.3-2.6-.3-12.8 4.4-11.5 1 .3 1.6 1.2 1.9 2 .3 1 .2 2 .2 3-.4 8.4-2.2 13.7-1.4 22v.5l-.6.2c-1.3.2-2.6.2-3.9.2-.3 0-.5-2-.6-2.2-.3-1.4-.4-3-.4-4.4l-.1-2.4c0-1.4 0-2.8.2-4.2" id="Fill-43" fill="#333155"/><path d="M368 169.1l1.5.7c2.8 1.1 5.4 2.3 8 3.6l1.4.6 8 4 .1-59.2-8-4-1.3-.7-8-3.5-1.6-.7-2.5-1-4.2-1.6-2.9-1.1a250 250 0 0 0-9.3-3.2l-.2 59.2 9.4 3.2 2.8 1.1 6.7 2.6" id="Fill-44" fill="#A9C4DC"/><path d="M127.2 119l-.2 59a224 224 0 0 1 19.8-9l.2-59a224 224 0 0 0-19.8 9" id="Fill-45" fill="#A9C4DC"/><path id="Fill-46" fill="#A9C4DC" d="M481 126l-.2 58.7L465 190l.2-58.7L481 126"/><path d="M439.9 95.8c15.3 8.9 28.9 18.9 40.1 30l-15.5 5.2a185 185 0 0 0-37.3-27.8C384.6 78.7 327 64 266.2 62.5V79c9.3.2 18.5.8 27.5 1.7l-3 10.3a335.5 335.5 0 0 0-98.7 4.9L186 86c20-4.2 41-6.6 62.3-7V62.4C166.7 64.3 91.6 90.2 50.5 131L35 125.7C80.9 80.3 166 52 257 52 326.2 52 392 68.2 440 95.8" id="Fill-47" fill="#F7FAFB"/><path id="Fill-48" fill="#A9C4DC" d="M51 131.3l-.2 58.7-15.8-5.3.2-58.7 15.8 5.3"/><path id="Fill-49" fill="#A4AFB4" d="M248.2 133.4l-.1 58.6-.1-16.4.1-58.6.1 16.4"/><path id="Fill-50" fill="#698B9E" d="M400 126l-.2 58.4L380 196l.2-58.4L400 126"/><path id="Fill-51" fill="#698B9E" d="M135 137.5l-.2 58.5-19.8-11.5.2-58.5 19.8 11.5"/><path d="M361.5 141.8a146 146 0 0 0-5-2.7l-1.7-.9-3.5-1.7-2.1-1-3.2-1.4-2.4-1-3.1-1.3-.5-.2-.8-.3-7-2.5-1.6-.6c-2.6-.8-5.2-1.7-8-2.4l-.5-.2-1.5-.4a214.1 214.1 0 0 0-12.7-3.1l-1.4-.3-.5-.1-5.9-1.1-1-.2c-2.2-.4-4.5-.8-6.9-1l-.3-.1-2.1-.3-4.4-.6-2.8-.2-4-.4-1-.1h-1c-3.4-.4-7-.6-10.4-.7l-.2 58.7 10.5.6 1.9.1 4 .4 2.9.3 4.3.6 2.5.3 6.9 1 1 .3 5.8 1 2 .5a225 225 0 0 1 12.6 3l2 .7c2.8.7 5.5 1.5 8 2.4l1.7.6 7 2.5 1.2.5 3.2 1.3 2.3 1 3.2 1.4 2.2 1 3.4 1.7 1.7.9a143.8 143.8 0 0 1 20.5 13.2l.2-58.7c-4.7-3.8-10-7.3-15.5-10.5" id="Fill-52" fill="#94B4CD"/><path id="Fill-53" fill="#698B9E" d="M286 135l-.1 58.8L282 204l.1-58.8L286 135"/><path d="M240.5 117.4l-2.4.2-5 .4h-1l-1.4.2-6.7.9-2 .2-8 1.3h-.6l-1.9.5-4.2.8-2.7.6A208.6 208.6 0 0 0 188 127l-1.7.5-.6.2-8.1 2.8-1.6.6a172 172 0 0 0-8 3.3l-.2.2a157 157 0 0 0-7.4 3.5l-1.3.7-6.8 3.8-.6.4-1 .6a131 131 0 0 0-7.7 5.2l-1.7 1.2-3 2.4-1.2 1a99.5 99.5 0 0 0-3.9 3.4l-.3.3a89.8 89.8 0 0 0-9 9.6v.1a72 72 0 0 0-2.8 3.9l-.8 1.3-1.8 2.8c0 .2-.2.4-.4.6l-.4 1a62 62 0 0 0-3 6.3l-.4 1-.3.7-.7 2.2-.5 1.8-.6 2.3-.3 1.3v.4c-.3 1.5-.6 3-.7 4.6l-.2 59 .7-4.5c0-.6.2-1.2.4-1.8l.5-2.2.6-1.9.7-2.1.6-1.8a58 58 0 0 1 5.6-10.7l.8-1.3 2.8-3.8.1-.1a80.4 80.4 0 0 1 8.9-9.7l.3-.3 4-3.5 1.2-1 3-2.3 1.6-1.2a117.4 117.4 0 0 1 16.2-10l1.2-.6c2.4-1.3 4.9-2.5 7.4-3.6l.3-.1c2.6-1.2 5.3-2.3 8-3.3l1.5-.6 8.1-2.9 2.3-.7a197.1 197.1 0 0 1 16.7-4.5l2.6-.6 4.2-.8 2.5-.5 8-1.3 2-.2 6.7-.8 2.4-.3 5-.4 2.4-.2 7.5-.4.2-59c-2.5 0-5 .2-7.5.4" id="Fill-54" fill="#94B4CD"/><path d="M272.8 203c2.8.2 5.7.5 8.4 1h.6l.2-59.3H281.4l-8.4-1-1-.1h-.8c-2.8-.3-5.7-.4-8.6-.5h-.6a177 177 0 0 0-10.4 0h-1.1l-4.9.3-2 .2-3.2.2-.5.1-6.7.8-.2 59.3a163.2 163.2 0 0 1 10.3-1.1l2.1-.2 4.8-.3h1.1a176.8 176.8 0 0 1 19.8.4l1.7.2" id="Fill-55" fill="#A9C4DC"/><path id="Fill-56" fill="#698B9E" d="M234 145.1l-.2 58.9-4.8-10.1.2-58.9 4.8 10.1"/><path id="Fill-57" fill="#A9C4DC" d="M392 146l-.2 58.9L377 211l.2-58.9L392 146"/><path d="M389.8 193.1c-.7-1-2.5-1.2-4-1l-4.4 1c-1.8 9.4 3.5 19 2.2 28.5l.1.7c.2.3.5.4.9.4 1.4.3 2.8.4 4.3.3a298 298 0 0 0 .9-29.9" id="Fill-58" fill="#333155"/><path d="M397.8 193.1c-.7-1-2.5-1.2-4-1l-4.4 1c-1.8 9.4 3.5 19 2.2 28.5l.1.7c.2.3.5.4.9.4 1.4.3 2.8.4 4.3.3a298 298 0 0 0 .9-29.9" id="Fill-59" fill="#333155"/><path d="M358.2 171.6c.2 0 .4-.1.5-.3.2 0 .3-.3.3-.5l-.4-2.3c-.4-.4-1-.5-1.5-.5-.2 0-.5 0-.6.2v.4l-.2.1h-1c-.4 0-.8.2-1 .4l-.2.4c-.2.6 0 1.3.5 1.8.4.5 1 .7 1.7.7a5 5 0 0 0 2-.4" id="Fill-60" fill="#F2BDB6"/><path id="Fill-61" fill="#DFE7EB" d="M358.3 172l-.3-3.9 1.7-.1.3 3.9-1.7.1"/><path d="M372.6 171.8l3.2-.7c2.5-.6 12.8-1.3 11-6.2-.4-1-1.4-1.6-2.3-1.8-1-.2-2 0-3 .1-8.4 1.5-13.4 4-21.9 4.3h-.4c-.2.2-.2.4-.2.6 0 1.5 0 2.9.3 4.3 0 .3 4 .5 4.5.6 1.5 0-.2-.2 1.3-.2 2.5 0 5-.4 7.5-1" id="Fill-62" fill="#1A9B78"/><path d="M397.7 166.8c-.7-1.7-2.5-2.8-4.3-3.2l-2.6-.3c-2.2-.3-4.4-.4-6.7-.3-1.7.1-3.7.4-4.6 2-.5.8-.5 1.8-.5 2.7 0 1.5 0 3 .4 4.5l1 2.6c.4 1.3.4 2.6.4 4v14.4c0 .4.5.7.9.9a27 27 0 0 0 14.4 2.8c.2 0 .5 0 .7-.2.2-.2.2-.4.3-.7.2-1.7.3-3.5.3-5.3l.6-21c0-1 0-2-.3-3" id="Fill-63" fill="#3EB394"/><path d="M386.2 163l-1.2 1s0 2 .2 2l4-.9s1-2 .8-2h-3.8" id="Fill-64" fill="#8EB0CA"/><path d="M391.7 159.3c.3-.6.8-1 1.1-1.7.3-.6.3-1.5-.4-1.7l-.5-.1c-1.1-.1-2-1-2.1-2.2l-.9-1.2c-1.7-.5-3.7-.7-4.9.5-1.2 1.3-.8 3.3-.8 5 0 1-.3 1.9-.2 2.8.1.9.6 1.9 1.4 2.2l1.6.2c1.1.7-.2 2.4-.4 3-.1.4-.2.7 0 1 .2.3.5.5.9.6 1.2.4 2.7.4 4 0 1.3-.5 2.5-1.8 2.3-3.4-.2-1.6-1.8-3.3-1-5" id="Fill-65" fill="#F2BDB6"/><path d="M392.5 151.6c-.3-.8-1.4-1-1.4-1-.7-2.5-7.3-2-8.7 1.3-.6 1.3-.6 1.3.7 2.3 0 0 6 1.2 6 1.6 0 .3.5 1.3.8 1.2.4-.7.5-1.7 1.2-1.6.7 0 1.4.9 1 1.5 1-1.4 1.2-3.6.4-5.3" id="Fill-66" fill="#3D395C"/><path id="Fill-67" fill="#8EB0CA" d="M391 168.4l-5.3-1.4-1.7 1.4 1.1 15.6 1.8-1.1 1.9-9.6 2.2-5"/><path d="M387.6 167l-1.6 1.2v.2l.3.7c0 .3-.5 15 0 14.9 2.7-.7 1.6-12 1.8-14.3l.7-.7.2-.2c-.4-.7-.8-1.3-1.4-1.8" id="Fill-68" fill="#F7C53B"/><path d="M392 163.3c0 .3 1 .5 1 .9v.6c-.1.5-.8 1.2-1.1 1.6l-2.3 2.6c-.4.3-.9 1-1.4 1 0-.1-.7-2-1.2-2.6-.3 0-.6.3-1 .6l-.5.7-.1.2-.4-2.3c0-1 0-2 .3-3 .2-.6.7-.6.8-.6-.6 1.2-.2 1.8 0 2l.2.7.7 1.3 3.5-1.4c1-.8 1.7-1.4 1.5-2.3" id="Fill-69" fill="#C8DDEA"/><path d="M389.5 181.6l.5-1.5-1-3.6 1.7-2c.5-.6 2-1.8 2-1.8s1.3-6.1 1.3-7.5c0-.1-.2-1.8-1.6-2.2.3 2.5-2.3 4.4-3.3 7-1 2.7-1.7 5.7-2.2 8.6a47.6 47.6 0 0 0-.8 8.4s2.7-3.5 3.4-5.4" id="Fill-70" fill="#76C2AC"/><path d="M383.8 181.1l-.1-1.4 1.3-3-.8-2.3-1.1-2.4s-.2-5.6 0-6.9c.3-1.9 2.7-2.4 2.9-2 0 0-.8.5-.8 1.5 0 3.5 1.1 20.1.6 22.3v.1s-1.7-4-2-5.9" id="Fill-71" fill="#76C2AC"/><path d="M398.8 195.9l-.2-.6a.7.7 0 0 0-.5-.3l-2.4.1c-.5.4-.6 1-.7 1.5 0 .2 0 .5.2.6l.4.1v1.2c0 .4 0 .8.2 1 .1.2.2.3.4.3.6.3 1.3.2 1.9-.2.5-.4.8-1 .9-1.7 0-.7 0-1.4-.2-2" id="Fill-72" fill="#F2BDB6"/><path id="Fill-73" fill="#DFE7EB" d="M399 196l-4-.1V194l4 .1v1.9"/><path d="M400.8 180.8l-.3-3.2c-.3-2.6.3-12.8-4.4-11.5-1 .3-1.6 1.2-1.9 2-.2 1-.2 2-.2 3 .4 8.4 2.2 13.7 1.4 22v.5l.6.2c1.3.2 2.6.2 3.9.2.3 0 .5-2 .6-2.2.3-1.4.4-3 .4-4.4l.1-2.4c0-1.4 0-2.8-.2-4.2" id="Fill-74" fill="#1A9B78"/><path d="M321.8 216l.2-59.1-4.2-2-1.4-.6-2.7-1-.5-.3-.2 59.1 3.2 1.4 1.5.6 4.1 1.9" id="Fill-75" fill="#698B9E"/><path d="M193.2 157.3L193 216c4-2 8.3-3.8 12.8-5.3l.2-58.7c-4.5 1.6-8.8 3.4-12.8 5.3" id="Fill-76" fill="#A9C4DC"/><path d="M176.2 225.3l3.6-2.8.2-58.5-3.7 2.8-.8.7-3.3 3a58 58 0 0 0-2 2L170 231a60.8 60.8 0 0 1 6.2-5.7" id="Fill-77" fill="#A9C4DC"/><path id="Fill-78" fill="#698B9E" d="M171 173.2l-.2 58.8-15.8-5.2.2-58.8 15.8 5.2"/><path id="Fill-79" fill="#A9C4DC" d="M335 164l-.2 59.2L315 235l.2-59.2L335 164"/><path id="Fill-80" fill="#698B9E" d="M201 175.5l-.2 58.5-19.8-11.5.2-58.5 19.8 11.5"/><path d="M489.2 166l-.2 58.5c4.5 10 7.1 20.2 7.8 30.5l.2-58.5a87.6 87.6 0 0 0-7.8-30.5" id="Fill-81" fill="#698B9E"/><path d="M400.2 126l-.2 58.7c32 20.3 50.7 47 50.8 75.3l.2-58.7c-.2-28.3-18.8-55-50.8-75.3" id="Fill-82" fill="#94B4CD"/><path d="M399.2 177l-.2 58.8a55 55 0 0 1 5.8 19.2l.2-58.8a55 55 0 0 0-5.8-19.2" id="Fill-83" fill="#698B9E"/><path d="M19.7 242.9l1-3.9.8-2.6 1.4-4.2 1-2.5.1-58.7-.2.4-.7 2-1.5 4.3-.7 2.6-1 3.9-.1.5c-.3 1.2-.5 2.3-.6 3.5l-.4 2-.6 6L18 255l.6-6 .4-2 .7-4.1" id="Fill-84" fill="#698B9E"/><path id="Fill-85" fill="#A9C4DC" d="M204 198l-.2 59-17.8-1 .2-59 17.8 1"/><path d="M335.2 164l-.2 58.8c15.1 10.3 23.8 23.4 23.8 37.2l.2-58.8c0-13.8-8.7-26.9-23.8-37.2" id="Fill-86" fill="#698B9E"/><path d="M296 179.2l-3.8-2-1.4-.6-2.7-1.2-.4-.1a70 70 0 0 0-4.8-1.7l-1.3-.4-1.2-.3a78 78 0 0 0-3.3-.8l-1.2-.3c-.3 0-.7 0-1-.2l-2.8-.4-1.5-.3-1-.1-2.5-.3-1.7-.2h-1l-2.6-.2H260a94.3 94.3 0 0 0-5.6 0h-.8a92 92 0 0 0-3.9.3h-1.3l-.4.1-6 .9h-.5l-1.4.3-3 .7-2 .5-2.8.8-1 .2-1.3.5-1.3.5-2.7 1-1 .5-3.5 1.6-.5.3-2.3 1.3-.3.2-2.3 1.6-1 .7-3 2.4-2.2 2.2-.5.7-.7.8-1 1.2-.1.2a25 25 0 0 0-1.1 1.8l-.2.4-.8 1.8-.4.9-.1.3-.5 1.7-.3 1-.1.6-.2 58.8c0-.6.3-1.2.4-1.7l.5-1.7.5-1.2a22 22 0 0 1 2.1-4l.2-.2 1.6-2 .5-.7a32 32 0 0 1 5.2-4.6l1-.7a45.1 45.1 0 0 1 5-3l.4-.4a58 58 0 0 1 3.5-1.6l1-.5 2.7-1 1.4-.5a75.5 75.5 0 0 1 5-1.5l2-.5 3-.7 1.9-.3 6-.9 1.8-.1a93.8 93.8 0 0 1 8-.4l4 .1a93.7 93.7 0 0 1 18.6 2.8l2.4.7 1.2.4 3.7 1.3h.3l2.8 1.3 1.3.6a56 56 0 0 1 3.9 2c9.8 5.7 15.9 13.5 16 22.1l.1-58.7c0-8.6-6.2-16.5-16-22.1" id="Fill-87" fill="#94B4CD"/><path d="M157.7 254.2l.2-.8.6-2.4.4-1 1-2.8.1-59.2-.6 1.5-.4 1.2c0 .4-.2.7-.3 1a36 36 0 0 0-.6 2.5l-.2.8v.2c-.3 1-.4 2-.5 3v.7l-.2 2v.9L157 261c0-1 0-2 .2-2.9v-.7l.5-3.2" id="Fill-88" fill="#94B4CD"/><path d="M171.2 225.1c.7-1 2.5-1.2 4-1l4.4 1c1.8 9.4-3.5 19-2.2 28.5l-.1.7c-.2.3-.5.4-.9.4-1.4.3-2.8.4-4.3.3a298 298 0 0 1-.9-29.9" id="Fill-89" fill="#333155"/><path d="M163.2 225.1c.7-1 2.5-1.2 4-1l4.4 1c1.8 9.4-3.5 19-2.2 28.5l-.1.7c-.2.3-.5.4-.9.4-1.4.3-2.8.4-4.3.3a298 298 0 0 1-.9-29.9" id="Fill-90" fill="#333155"/><path d="M184 224.6v-.6l.4-.5 2.4-.5c.5.2.8.7 1 1.2.1.2.2.5 0 .6l-.3.2v.2c0 .4.3.7.4 1 .1.4.2.7 0 1l-.2.4c-.5.4-1.3.5-2 .3-.6-.3-1-.8-1.3-1.4a5 5 0 0 1-.4-2" id="Fill-91" fill="#F2BDB6"/><path id="Fill-92" fill="#DFE7EB" d="M183.5 225l3.5-1.3-.5-1.7-3.5 1.3.5 1.7"/><path d="M178.1 211.6l-.5-3.2c-.5-2.6-4-12.3 1-12.4 1 0 2 .6 2.5 1.5.5.8.8 1.8 1 2.7 2 8.2 1.8 13.8 4.8 21.7 0 .1.1.3 0 .4 0 .2-.2.3-.3.4-1.2.6-2.5 1-3.8 1.3-.3 0-2-3.5-2.2-3.9-.7-1.3.2.2-.4-1.2-.9-2.4-1.5-4.8-2-7.3" id="Fill-93" fill="#8EB0CA"/><path d="M163.3 198.8c.7-1.7 2.5-2.8 4.3-3.2l2.6-.3c2.2-.3 4.4-.4 6.7-.3 1.7.1 3.7.4 4.6 2 .5.8.5 1.8.5 2.7 0 1.5 0 3-.4 4.5l-1 2.6c-.4 1.3-.4 2.6-.4 4v14.4c0 .4-.5.7-.9.9a27 27 0 0 1-14.4 2.8c-.2 0-.5 0-.7-.2-.2-.2-.2-.4-.3-.7-.2-1.7-.3-3.5-.3-5.3l-.6-21c0-1 0-2 .3-3" id="Fill-94" fill="#ADC8DF"/><path d="M174.8 195l1.2 1s0 2-.2 2l-4-.9s-1-2-.8-2h3.8" id="Fill-95" fill="#8EB0CA"/><path d="M169.3 191.3c-.3-.6-.8-1-1.1-1.7-.3-.6-.3-1.5.4-1.7l.5-.1c1.1-.1 2-1 2.1-2.2l.9-1.2c1.7-.5 3.7-.7 4.9.5 1.2 1.3.8 3.3.8 5 0 1 .3 1.9.2 2.8-.1.9-.6 1.9-1.4 2.2l-1.6.2c-1.1.7.2 2.4.4 3 .1.4.2.7 0 1-.2.3-.5.5-.9.6-1.2.4-2.7.4-4 0-1.3-.5-2.5-1.8-2.3-3.4.2-1.6 1.8-3.3 1-5" id="Fill-96" fill="#F2BDB6"/><path d="M167.5 184.1c.4-1 1.6-1.2 1.6-1.2l.5-.9a3 3 0 0 1 1-.6c.9-.4 1.9-.5 2.8-.3 2.5.3 5.6 3 4.3 5.8 0 0-.4-1.6-3.3-1-1.6.4-3.3 2.6-3.3 2.7 0 .4-.4 1.5-.8 1.4-.4-.8-.5-1.8-1.3-1.8s-1.4 1-1 1.6a6 6 0 0 1-.5-5.7" id="Fill-97" fill="#3D395C"/><path d="M161.2 227.9l.2-.6c.1-.1.3-.3.5-.3l2.4.1c.5.4.6 1 .7 1.5 0 .2 0 .5-.2.6l-.4.1v1.2c0 .4 0 .8-.2 1-.1.2-.2.3-.4.3-.6.3-1.3.2-1.9-.2-.5-.4-.8-1-.9-1.7 0-.7 0-1.4.2-2" id="Fill-98" fill="#F2BDB6"/><path id="Fill-99" fill="#DFE7EB" d="M161 227l4-.1V225l-4 .1v1.9"/><path d="M160.2 212.8l.3-3.2c.3-2.6-.3-12.8 4.4-11.5 1 .3 1.6 1.1 1.9 2.1.3 1 .2 2 .2 3-.4 8.3-2.2 13.6-1.4 22v.4l-.6.2c-1.3.2-2.6.2-3.9.2-.3 0-.5-2-.6-2.2-.3-1.4-.4-3-.4-4.4l-.1-2.4c0-1.4 0-2.8.2-4.2" id="Fill-100" fill="#8EB0CA"/><path id="Fill-101" fill="#333155" d="M169 200.4l5.3-1.4 1.7 1.4-1.1 15.6-1.8-1.1-1.9-9.6-2.2-5"/><path d="M172 200.8l.2.2.7.7c.2 2.3-.9 13.6 1.8 14.3.5.1 0-14.6 0-14.9l.3-.7v-.2c-.1-.2-1.3-1-1.6-1.2-.6.5-1 1-1.4 1.8" id="Fill-102" fill="#D24B6E"/><path d="M168 195.3c0 .3-1 .5-1 .9v.6c.1.5.8 1.2 1.1 1.6l2.3 2.6c.4.3.9 1 1.4 1 0-.1.7-2 1.2-2.6.3 0 .6.3 1 .6l.5.7.1.2.4-2.3c0-1 0-2-.3-3-.2-.6-.7-.6-.8-.6.6 1.2.2 1.8 0 2l-.2.7-.7 1.3-3.5-1.4c-1-.8-1.7-1.4-1.4-2.3" id="Fill-103" fill="#4F4C76"/><path d="M171.5 213.6l-.5-1.5 1-3.6-1.7-2c-.5-.6-2-1.8-2-1.8s-1.3-6.1-1.3-7.5c0-.1.2-1.8 1.6-2.2-.3 2.5 2.3 4.4 3.3 7 1 2.7 1.7 5.7 2.2 8.6a47.7 47.7 0 0 1 .8 8.4s-2.7-3.5-3.4-5.4" id="Fill-104" fill="#C8DDEA"/><path d="M177.2 213.1l.1-1.4-1.3-3 .8-2.3 1.1-2.3s.2-5.7 0-7c-.3-1.9-2.7-2.4-2.9-2 0 0 .8.5.8 1.5 0 3.5-1.1 20.1-.6 22.3v.1s1.7-4 2-5.9" id="Fill-105" fill="#C8DDEA"/><path d="M64.6 251a66.4 66.4 0 0 1 5.4-19l1-2c.5-1.1 1-2.2 1.7-3.3l1-2 3.3-5.3.6-.8a95.6 95.6 0 0 1 6.4-8.4l.2-.3 3.5-3.8 1-1.1 3.2-3.2 1-.9 2.8-2.5 2-1.7 3-2.5 2-1.6 3.6-2.7 1.8-1.3 5.7-3.8.2-58.8-5.7 3.8c-.6.5-1.2 1-1.8 1.3l-3.6 2.7-2 1.6-3 2.5-2 1.8-2.5 2.1-.4.4-.9.9a118.8 118.8 0 0 0-7.7 8.1l-.2.2-2.8 3.4-.4.5-3.2 4.5-.6.8a87.9 87.9 0 0 0-3.3 5.4l-.3.4-.8 1.5-1.6 3.3-1 2.1c-.5 1-1 2.1-1.3 3.2l-.4.8-.5 1.5a70 70 0 0 0-2.3 8.1l-.3 1.2c0 .4 0 .9-.2 1.3a68.4 68.4 0 0 0-.9 8.1l-.1 1.5v2.2L64 260l.1-3.7a66.4 66.4 0 0 1 .5-5.3" id="Fill-106" fill="#94B4CD"/><path id="Fill-107" fill="#698B9E" d="M498 207l-.2 59H469l.2-59H498"/><path id="Fill-108" fill="#698B9E" d="M405 207l-.2 59H376l.2-59H405"/><path id="Fill-109" fill="#94B4CD" d="M140 207l-.2 59H111l.2-59H140"/><path id="Fill-110" fill="#94B4CD" d="M47 207l-.2 59H18l.2-59H47"/><path d="M423 204l-.4 4v.3l-.8 4.3-.6 2.3-.2 59.1.5-1.9v-.4l.9-4.2v-.4c.2-1.3.3-2.6.3-4v-.5l.1-1.5.2-59.1v2" id="Fill-111" fill="#A4AFB4"/><path id="Fill-112" fill="#A9C4DC" d="M422 214.4l-.2 58.6-17.8-1.4.2-58.6 17.8 1.4"/><path id="Fill-113" fill="#A9C4DC" d="M68 221l-.2 59.2L50 282l.2-59.2L68 221"/><path d="M79.8 258.1c-.7-1-2.5-1.2-4-1l-4.4 1c-1.8 9.4 3.5 19 2.2 28.5l.1.7c.2.3.5.4.9.4 1.4.3 2.8.4 4.3.3a298 298 0 0 0 .9-29.9" id="Fill-114" fill="#1A9B78"/><path d="M87.8 258.1c-.7-1-2.5-1.2-4-1l-4.4 1c-1.8 9.4 3.5 19 2.2 28.5l.1.7c.2.3.5.4.9.4 1.4.3 2.8.4 4.3.3a298 298 0 0 0 .9-29.9" id="Fill-115" fill="#1A9B78"/><path d="M67 257.6v-.6l-.4-.5-2.4-.5c-.5.2-.8.7-1 1.2-.1.2-.2.5 0 .6l.3.2v.2c0 .4-.3.7-.4 1-.1.4-.2.7 0 1l.2.4c.5.4 1.3.5 2 .3.6-.3 1-.8 1.3-1.4.3-.6.4-1.3.4-2" id="Fill-116" fill="#F2BDB6"/><path id="Fill-117" fill="#DFE7EB" d="M66.5 258l-3.5-1.3.5-1.7 3.5 1.3-.5 1.7"/><path d="M72.9 243.6l.5-3.2c.5-2.6 4-12.3-1-12.4-1 0-2 .6-2.5 1.5-.5.8-.8 1.8-1 2.7-2 8.2-1.8 13.8-4.8 21.7 0 .1-.1.3 0 .4 0 .2.2.3.3.4 1.2.6 2.5 1 3.8 1.3.3 0 2-3.5 2.2-3.9.7-1.3-.2.2.4-1.2.9-2.4 1.5-4.8 2-7.3" id="Fill-118" fill="#1A9B78"/><path d="M87.7 231.8c-.7-1.7-2.5-2.8-4.3-3.2l-2.6-.3c-2.2-.3-4.4-.4-6.7-.3-1.7.1-3.7.4-4.6 2-.5.8-.5 1.8-.5 2.7 0 1.5 0 3 .4 4.5l1 2.6c.4 1.3.4 2.6.4 4v14.4c0 .4.5.7.9.9a27 27 0 0 0 14.4 2.8c.2 0 .5 0 .7-.2.2-.2.2-.4.3-.7.2-1.7.3-3.5.3-5.3l.6-21c0-1 0-2-.3-3" id="Fill-119" fill="#3EB394"/><path d="M76.2 228l-1.2 1s0 2 .2 2l4-.9s1-2 .8-2h-3.8" id="Fill-120" fill="#E4A945"/><path d="M81.7 224.3c.3-.6.8-1 1.1-1.7.3-.6.3-1.5-.4-1.7l-.5-.1c-1.1-.1-2-1-2.1-2.2l-.9-1.2c-1.7-.5-3.7-.7-4.9.5-1.2 1.3-.8 3.3-.8 5 0 1-.3 1.9-.2 2.8.1.9.6 1.9 1.4 2.2l1.6.2c1.1.7-.2 2.4-.4 3-.1.4-.2.7 0 1 .2.3.5.5.9.6 1.2.4 2.7.4 4 0 1.3-.5 2.5-1.8 2.3-3.4-.2-1.6-1.8-3.3-1-5" id="Fill-121" fill="#F2BDB6"/><path d="M82.6 216.4c-.3-.9-.9-1.6-1.6-2.1-2.5-1.7-7.2-2.1-8.6 1.3-.6 1.5-.6 3.4.7 4.4 0 0 3.2.2 5.2-1 .3-.3.7.4.9.7v1c0 .3.4 1.4.7 1.3.5-.8.5-1.7 1.3-1.7.7 0 1.3 1 1 1.5 1-1.4 1-3.6.4-5.4" id="Fill-122" fill="#3D395C"/><path d="M89.8 259.9l-.2-.6a.7.7 0 0 0-.5-.3l-2.4.1c-.5.4-.6 1-.7 1.5 0 .2 0 .5.2.6l.4.1v1.2c0 .4 0 .8.2 1 .1.2.2.3.4.3.6.3 1.3.2 1.9-.2.5-.4.8-1 .9-1.7 0-.7 0-1.4-.2-2" id="Fill-123" fill="#F2BDB6"/><path id="Fill-124" fill="#DFE7EB" d="M90 260l-4-.1V258l4 .1v1.9"/><path d="M90.8 245.8l-.3-3.2c-.3-2.6.3-12.8-4.4-11.5-1 .3-1.6 1.2-1.9 2.1-.3 1-.2 2-.2 3 .4 8.3 2.2 13.6 1.4 22v.4l.6.2c1.3.2 2.6.2 3.9.2.3 0 .5-2 .6-2.2.3-1.4.4-3 .4-4.4l.1-2.4c0-1.4 0-2.8-.2-4.2" id="Fill-125" fill="#1A9B78"/><path id="Fill-126" fill="#E4A945" d="M82 232.4l-5.3-1.4-1.7 1.4 1.1 15.6 1.8-1.1 1.9-9.6 2.2-5"/><path d="M77.6 231a8 8 0 0 0-1.6 1.2v.2l.3.7c0 .3-.5 15 0 14.9 2.7-.7 1.6-12 1.8-14.3l.7-.7.2-.2c-.4-.7-.8-1.3-1.4-1.8" id="Fill-127" fill="#1A9B78"/><path d="M82 228.3c0 .3 1 .5 1 .9v.6c-.1.5-.8 1.2-1.1 1.6l-2.3 2.6c-.4.3-.9 1-1.4 1 0-.1-.7-2-1.2-2.6-.3 0-.6.3-1 .6l-.5.7-.1.2-.4-2.3c0-1 0-2 .3-3 .2-.6.7-.6.8-.6-.6 1.2-.2 1.8 0 2l.2.7.7 1.3 3.5-1.4c1-.8 1.7-1.4 1.4-2.3" id="Fill-128" fill="#F9D367"/><path d="M79.5 246.6l.5-1.5-1-3.6 1.7-2c.5-.6 2-1.8 2-1.8s1.3-6.1 1.3-7.5c0-.1-.2-1.8-1.6-2.2.3 2.5-2.3 4.4-3.3 7-1 2.7-1.7 5.7-2.2 8.6a47.7 47.7 0 0 0-.8 8.4s2.7-3.5 3.4-5.4" id="Fill-129" fill="#76C2AC"/><path d="M73.8 245.1l-.1-1.4 1.3-3-.8-2.3L73 236s-.2-5.6 0-6.9c.3-1.9 2.7-2.4 2.9-2 0 0-.8.5-.8 1.5 0 3.5 1.1 20.1.6 22.3v.1s-1.7-4-2-5.9" id="Fill-130" fill="#76C2AC"/><g id="Group-133" transform="translate(46 206)"><mask id="mask-2" fill="#fff"><use xlink:href="#path-1"/></mask><path d="M4.3 16.6L4 75.8a73.4 73.4 0 0 1-3.2-16L1.1.6c.4 5.4 1.5 10.8 3.2 16" id="Fill-131" fill="#698B9E" mask="url(#mask-2)"/></g><path d="M329.8 205.3l-.1.5-.6 3v.1l-1.1 3-.3.6c-.4 1-.8 1.9-1.4 2.8l-.3.6-1.6 2.4-.5.6a39 39 0 0 1-2.3 2.8l-.2.2-2.6 2.6-.6.5-3 2.5-.2 58.5 3-2.5.6-.5.5-.4 2.1-2.2s.2 0 .2-.2l2.1-2.4.3-.4.4-.6 1.6-2.4.4-.6.1-.3c.5-.8 1-1.6 1.3-2.5l.2-.6.4-1 .7-2 .5-2 .1-1 .1-.6a24.3 24.3 0 0 0 .2-3.3l.2-58.5c0 1.1 0 2.2-.2 3.3" id="Fill-134" fill="#698B9E"/><path d="M195.2 222l-.2 58.6c1.7 2 3.7 3.7 5.8 5.4l.2-58.6a46.2 46.2 0 0 1-5.8-5.4" id="Fill-135" fill="#698B9E"/><path d="M302.8 294.2l.2-59.2-4.8 2-1.6.6-3.3 1.1-6 1.7-1.7.4a109 109 0 0 1-8 1.6l-1.5.2a118 118 0 0 1-17.5 1.2h-4.4l-4.1-.3c-.8 0-1.7 0-2.5-.2a120 120 0 0 1-4.6-.5l-1.9-.2a114 114 0 0 1-6.5-1.2l-1.2-.2a106.9 106.9 0 0 1-13.2-3.8l-1.7-.6a86 86 0 0 1-4.3-1.8l-.2 59.2 3.7 1.5.6.2 1.8.7a97 97 0 0 0 5 1.6l1.4.5 1 .2 5.8 1.4.9.3h.2l6.6 1.1.3.1 1.5.2 4.7.5h.8l1.6.2 4.2.2h1.3a121.4 121.4 0 0 0 7.4 0h.7l7.2-.5 5.2-.6 1.5-.3 2.6-.4.8-.2 4.7-1 1.6-.3 6-1.7h.2l3.1-1.2 1.7-.6c1.6-.6 3.2-1.2 4.7-2" id="Fill-136" fill="#A9C4DC"/><path id="Fill-137" fill="#698B9E" d="M322 246.8l-.2 59.2-19.8-11.8.2-59.2 19.8 11.8"/><path id="Fill-138" fill="#698B9E" d="M214 235l-.2 59.2L194 306l.2-59.2L214 235"/><path d="M395.7 254l-1.6 1.5-2.4 2-1.7 1.3-3.3 2.4-1 .8-4.5 3.1-.2 58.9 4.6-3.1 1.3-1 3-2.2 1.7-1.5 2.4-1.9 1.6-1.4 2.2-2 .2-58.9-2.3 2" id="Fill-139" fill="#94B4CD"/><path d="M410.8 232.2l2.3-.2c1.3 0 2.6.6 3.4 1.6.8.9 1.2 2.1 1.3 3.3.2 2-.5 4 .2 6-1.7.2-4.2.6-5.8 1.1.3-1 .6-2 .1-3 0-.1-.2-.5-.5-.5-.7-.1-1.1-.8-1.4-1.4-.3-.8-.5-1.7-.4-2.5.2-1.5 1-3 .8-4.4" id="Fill-140" fill="#F2BDB6"/><path d="M410.4 229.9c.9-1.4 2.5-2 4.1-1.9.8.2 1.6.5 2.3.9.4.3.8.5 1.1 1 .5.7.5 1.1.5 1.1 1.7.1 2.6 1.9 2.6 3.4 0 1-.5 2.1-1 3l-1.1 1.7-1 1.4c-.9.6-2.4.6-3.3.3-.8-.3-1.5-.9-1.7-1.7v-.5l.4-.4c.4-.4.6-.9.7-1.3v-.6c-.2-.2-.4-.4-.6-.3-.3 0-.4.4-.4.7 0 .2 0 .4-.2.5-.2 0-.4-.2-.4-.4 0-.6.1-1.2-.1-1.7 0-.2-.2-.3-.3-.4-1-1.4-2.8-3-1.6-4.8" id="Fill-141" fill="#3D395C"/><path d="M421 273.2c0-.2 0-.4-.2-.6 0-.2-.2-.3-.4-.4l-2.5-.2c-.5.3-.7.9-.9 1.4l.1.6.4.1v.3l-.2 1v1l.4.3a2 2 0 0 0 2 0c.5-.3 1-.9 1.1-1.5.2-.7.2-1.3.2-2" id="Fill-142" fill="#F2BDB6"/><path id="Fill-143" fill="#DFE7EB" d="M421.7 274l-3.7-.9.3-2.1 3.7.9-.3 2.1"/><path d="M425.4 259.2l.1-3.2c0-2.6 2.2-12.5-2.8-12-1 .1-1.8.9-2.2 1.8-.5.9-.6 1.9-.7 2.9-.8 8.3.2 13.7-1.8 21.8v.5l.5.3c1.3.3 2.6.6 4 .7.3 0 .8-1.8.9-2 .5-1.4.8-2.8 1-4.3l.5-2.4.5-4.1" id="Fill-144" fill="#8EB0CA"/><path d="M414.2 273.1c.7-1 2.5-1.2 4-1l4.4 1c1.8 9.4-3.5 19-2.2 28.5l-.1.7c-.2.3-.5.4-.9.4-1.4.3-2.8.4-4.3.3a298 298 0 0 1-.9-29.9" id="Fill-145" fill="#8EB0CA"/><path d="M407.2 273.1c.7-1 2.5-1.2 4-1l4.4 1c1.8 9.4-3.5 19-2.2 28.5l-.1.7c-.2.3-.5.4-.9.4-1.4.3-2.8.4-4.3.3a298 298 0 0 1-.9-29.9" id="Fill-146" fill="#8EB0CA"/><path d="M406.3 246.6c.7-1.7 2.5-2.8 4.3-3.1h.3v-.4c.2-.4.5-.7 1-.8l1.2-.1 2.9-.1 1.4-.1.4.1.2.4.1.3h1.8c1.7.1 3.7.5 4.6 2 .5.8.5 1.8.5 2.8 0 1.5 0 3-.4 4.5l-1 2.6c-.4 1.3-.4 2.6-.4 4v14.5c0 .4-.5.7-.9.8a26.9 26.9 0 0 1-14.4 3c-.2-.1-.5-.1-.7-.3-.2-.2-.2-.4-.3-.7-.2-1.8-.3-3.5-.3-5.3l-.6-21c0-1 0-2.1.3-3" id="Fill-147" fill="#ADC8DF"/><path d="M400 274v-.7c0-.2-.1-.3-.3-.4l-2-.9c-.6.1-1 .6-1.2 1-.1.3-.2.5 0 .7 0 0 .2 0 .2.2v.2l-.5 1c-.2.3-.3.6-.2 1l.2.3c.4.5 1.1.7 1.7.5.6-.1 1.1-.6 1.4-1.1.4-.6.5-1.2.7-1.9" id="Fill-148" fill="#F2BDB6"/><path id="Fill-149" fill="#C8DDEA" d="M401 273l-4-1.6 1-1.4 4 1.6-1 1.4"/><path d="M407.2 260.4l1-3c.8-2.5 5.5-11.6.6-12.4-1-.1-2 .4-2.6 1.1-.7.8-1 1.7-1.4 2.6-3 7.8-3.6 13.4-7.7 20.7l-.1.4c0 .2.2.3.4.4 1 .7 2.3 1.3 3.5 1.8.4.1 1.3-1.5 1.5-1.7.9-1.2 1.6-2.5 2.2-3.8.3-.8.8-1.5 1-2.2.7-1.3 1.2-2.6 1.6-3.9" id="Fill-150" fill="#8EB0CA"/><path d="M93.2 202l-.2 59c.1 24.6 16.3 47 42.8 64l.2-59c-26.5-17-42.7-39.5-42.8-64" id="Fill-151" fill="#94B4CD"/><path d="M375.5 210l-.8 3.2-.3 1a45 45 0 0 1-.7 2.1l-.4 1.2a46.8 46.8 0 0 1-4.6 8.7l-.6.9-2.3 3.1c0 .2-.2.3-.3.4l-2.8 3.2-.7 1a72 72 0 0 1-3.5 3.3l-.7.7-2.4 2-1.2 1a86 86 0 0 1-9.7 6.9l-2 1.2-7.2 3.9-2.3 1.1a132.6 132.6 0 0 1-13.9 5.7l-2.7 1-7.8 2.3-1.5.4-8.6 2-1 .2-7.7 1.4-2.5.4-9.3 1.1-.7.1c-3.4.3-6.7.6-10.1.7L267 329c3.4-.1 6.8-.4 10.1-.7h.7l.4-.1 9-1.1 2.4-.4 3.7-.6 4-.8 1-.2 8.7-2 1.4-.4a162 162 0 0 0 6.7-2l1.2-.4 2.7-1a145.4 145.4 0 0 0 13.8-5.6l2.4-1.1a119.8 119.8 0 0 0 8.1-4.5l1-.6 2.5-1.6 1.5-1a97.2 97.2 0 0 0 5.8-4.3l1.2-1a77 77 0 0 0 2.3-2l.7-.6a72 72 0 0 0 3.5-3.5l.8-.9c1-1 1.9-2 2.7-3.2l.3-.3 2.4-3.2.5-.9 1.5-2.4.3-.5.4-.7a49.6 49.6 0 0 0 2.4-5.1l.3-.9.1-.3.7-2.1.4-1 .7-3.2.5-3 .2-58.8-.5 3" id="Fill-152" fill="#94B4CD"/><path d="M240.2 269.5a173.6 173.6 0 0 1-10.5-1.2l-1.4-.2-8.9-1.6h-.3a174.3 174.3 0 0 1-17.4-4.6l-1.9-.6-8.2-3-1-.4c-2.5-1-5.1-2.2-7.6-3.4l-.6-.2a123 123 0 0 1-7.5-4c-20.4-11.7-32.5-27-34.7-43.3l-.2 58.8c2.2 16.3 14.3 31.6 34.7 43.3l7.6 4 .5.2c2.5 1.2 5 2.4 7.7 3.4l1 .4.6.3 7.5 2.7 2 .6 4.8 1.5 2 .5a173 173 0 0 0 10.4 2.5h.1l.4.1 8.8 1.6 1.4.2 1 .1 8 1 1.6.1 1.8.2 8 .5.1-58.8c-3.3-.1-6.5-.4-9.8-.7" id="Fill-153" fill="#A9C4DC"/><path d="M345.2 283.3L345 342c8.4-3 16.4-6.4 23.8-10.3l.2-58.7c-7.4 3.8-15.4 7.3-23.8 10.3" id="Fill-154" fill="#A9C4DC"/><path id="Fill-155" fill="#698B9E" d="M345 283l-.2 59-9.8-9 .2-59 9.8 9"/><path id="Fill-156" fill="#698B9E" d="M388 284.5l-.2 58.5-19.8-11.5.2-58.5 19.8 11.5"/><path id="Fill-157" fill="#698B9E" d="M148 273l-.2 58.4L128 343l.2-58.4L148 273"/><path id="Fill-158" fill="#A4AFB4" d="M249.2 286.4l-.1 58.6-.1-16.4.1-58.6.1 16.4"/><path d="M.2 201.7v-.7L0 259.8v.7C.2 294 19.1 325.6 54.8 352l.2-58.8C19.3 266.8.4 235.2.2 201.7" id="Fill-159" fill="#94B4CD"/><path id="Fill-160" fill="#698B9E" d="M69 287l-.2 58.6L55 352l.2-58.6L69 287"/><path d="M298 294.6c-3.5.5-7 1-10.6 1.3l-6 .5-3.3.3-7.8.4h-1.8a287.8 287.8 0 0 1-17.4.2c-1.8 0-3.5-.2-5.3-.3H243a285 285 0 0 1-15.7-1.3l-2.5-.4-5.1-.6-2.6-.4-5.3-.8-3-.6-4.6-.8-2.8-.6a242 242 0 0 1-5.6-1.3l-2.7-.6-5.9-1.6-1.9-.5-9-2.8-2-.6-8.5-3.1-.2-.1a194.4 194.4 0 0 1-17.5-7.9l-.2 58.6a179.4 179.4 0 0 0 17.5 8h.2l8.6 3.1 2 .7 9 2.8h.3l1.5.5 6 1.5 2.7.7 5.5 1.2 1.7.4 1.1.2 4.7.9 3 .5 5.3.9c.7 0 1.4.2 2 .3h.5l5.1.7c.9 0 1.7.2 2.6.3l7.8.7h.2c2.5.3 5 .4 7.7.6h2.7c1.7.2 3.5.3 5.2.3h.4a289.6 289.6 0 0 0 17 0l1.9-.2c2.5 0 5.1-.2 7.7-.4l3.4-.2 5.2-.5h.8l10.5-1.3.2-58.7" id="Fill-161" fill="#A9C4DC"/><path d="M199.2 305.2l-2.3-.2c-1.3 0-2.6.6-3.4 1.6-.8.9-1.2 2.1-1.3 3.3-.2 2 .5 4-.2 6 1.7.2 4.2.6 5.8 1.1-.3-1-.6-2-.1-3 0-.1.2-.5.5-.5.7-.1 1.1-.8 1.4-1.4.3-.8.5-1.7.4-2.5-.2-1.5-1-3-.8-4.4" id="Fill-162" fill="#F2BDB6"/><path d="M198.7 302.8c-1-1.7-3.7-2.1-5.5-1.6a7.5 7.5 0 0 0-5.1 5.2c-.2 1 0 2 .3 2.8a18 18 0 0 0 2.7 4.3c.9.6 2 .6 3 .3a3 3 0 0 0 1.4-.7c.4-.3.6-.9.5-1.4-.1-.4-.4-.7-.7-1.1-.2-.4-.5-.8-.3-1.2.2-.4.9-.5 1-.1.1.3 0 .7.2.8.4.1.4-.4.4-.7-.2-1 .4-1.8 1-2.6.7-.9 1.5-1.8 1.4-3 0-.4-.2-.7-.3-1" id="Fill-163" fill="#3D395C"/><path d="M187 346.2c0-.2 0-.4.2-.6 0-.2.2-.3.4-.4l2.5-.2c.5.3.7.9.9 1.4l-.1.6-.4.1v.3l.2 1v1l-.4.3a2 2 0 0 1-2 0c-.5-.3-1-.9-1.1-1.5-.2-.7-.2-1.3-.2-2" id="Fill-164" fill="#F2BDB6"/><path id="Fill-165" fill="#DFE7EB" d="M187.3 346l3.7-.9-.3-2.1-3.7.9.3 2.1"/><path d="M183.6 331.2l-.1-3.2c0-2.6-2.2-12.5 2.8-12 1 .1 1.8.9 2.2 1.8.5.9.6 1.9.7 2.9.8 8.3-.2 13.7 1.8 21.8v.5l-.5.3c-1.3.3-2.6.6-4 .7-.3 0-.8-1.8-.9-2-.5-1.4-.8-2.8-1-4.3l-.5-2.4-.5-4.1" id="Fill-166" fill="#E4A945"/><path d="M194.8 345.1c-.7-1-2.5-1.2-4-1l-4.4 1c-1.8 9.4 3.5 19 2.2 28.5l.1.7c.2.3.5.4.9.4 1.4.3 2.8.4 4.3.3a298 298 0 0 0 .9-29.9" id="Fill-167" fill="#E4A945"/><path d="M202.8 345.1c-.7-1-2.5-1.2-4-1l-4.4 1c-1.8 9.4 3.5 19 2.2 28.5l.1.7c.2.3.5.4.9.4 1.4.3 2.8.4 4.3.3a297.5 297.5 0 0 0 .9-29.9" id="Fill-168" fill="#E4A945"/><path d="M202.7 319.6c-.7-1.7-2.5-2.8-4.3-3.1h-.3v-.4c-.2-.4-.5-.7-1-.8l-1.2-.1-2.9-.1-1.4-.1-.4.1-.2.4-.1.3H189c-1.7.1-3.7.5-4.6 2-.5.8-.5 1.8-.5 2.8 0 1.5 0 3 .4 4.5l1 2.6c.4 1.3.4 2.6.4 4v14.5c0 .4.5.7.9.8 4.4 2.3 9.5 3.3 14.4 3 .2-.1.5-.1.7-.3.2-.2.2-.4.3-.7.2-1.8.3-3.5.3-5.3l.6-21c0-1 0-2.1-.3-3" id="Fill-169" fill="#F7C53B"/><path d="M208 346v-.7c0-.2.1-.3.3-.4l2-.9c.6.1 1 .6 1.2 1 .1.3.2.5 0 .7 0 0-.2 0-.2.2v.2l.5 1c.2.3.3.6.2 1l-.2.3c-.4.5-1.1.7-1.7.5-.6-.1-1.1-.6-1.4-1.1-.4-.6-.5-1.2-.7-1.9" id="Fill-170" fill="#F2BDB6"/><path id="Fill-171" fill="#C8DDEA" d="M208 346l4-1.6-1-1.4-4 1.6 1 1.4"/><path d="M200.8 333.4l-1-3c-.8-2.5-5.5-11.6-.6-12.4 1-.1 2 .4 2.6 1.1.7.8 1 1.7 1.4 2.6 3 7.8 3.6 13.4 7.7 20.7l.1.4c0 .2-.2.3-.4.4-1 .7-2.3 1.3-3.5 1.8-.4.1-1.3-1.5-1.5-1.7-.9-1.2-1.6-2.5-2.2-3.8-.3-.8-.8-1.5-1-2.2-.7-1.3-1.2-2.6-1.6-3.9" id="Fill-172" fill="#E4A945"/><path d="M469.8 265.9l.2-58.9c-.1 1.8-.3 3.5-.6 5.3l-.2 1.7a74.2 74.2 0 0 1-1.5 6.6l-.7 2.6-1 3.2-1 2.5-1.5 3.7-.9 2a89 89 0 0 1-2.2 4.4l-.7 1.4-.2.3a95 95 0 0 1-2.8 4.6l-.5.7-3.2 4.5-.7 1c-1 1.4-2.2 2.8-3.4 4.2l-.4.5-4 4.4-1.1 1.2-3.5 3.4-1 1-2.3 2-3.6 3.2-2.4 2a157.1 157.1 0 0 1-17.3 12l-4.7 3-6.5 3.6-2 1-5 2.5-2 1-6.6 3-.4.2-7.2 3-2.1.8-5.5 2-2.3 1-6.8 2.2-.8.3-1.9.6a285 285 0 0 1-7.2 2.2l-3.3.9-6 1.5-3.8 1-5.7 1.3-4 .8-5.7 1.1-3.6.6-9.7 1.6-2.4.3-12 1.5-3.5.3a353.5 353.5 0 0 1-18.4 1.2l-6 .2-.2 58.9 3.6-.1 2.5-.1a371.4 371.4 0 0 0 18.3-1.2l2.6-.3h1l12-1.5 2.3-.3 9.8-1.6 1.8-.3 1.8-.3 5.6-1.1 4-.9 5.7-1.3 3.9-.9 5.9-1.6 3.4-.9 7.1-2.2 1.8-.5h.2l.7-.3 6.9-2.3 2.3-.8 5.4-2.1 2.1-.8 7.2-3 .4-.2 6.6-3 2-1a223 223 0 0 0 5-2.5l2-1a208.4 208.4 0 0 0 9.5-5.4l1.7-1.1A181.2 181.2 0 0 0 424 337l2.7-2 3.7-2.9 2.4-2c1.3-1 2.5-2 3.6-3.1l1.7-1.5.5-.5 1-1c1.3-1.1 2.5-2.3 3.6-3.5l1.1-1.1 4-4.5.4-.5 2.5-3 1-1.2a93.7 93.7 0 0 0 3.8-5.4l.5-.8c1-1.5 2-3 2.8-4.5l.2-.4v-.1l.7-1.2 2.3-4.4.9-2 1.5-3.7.3-.6.6-2 1-3.1.8-2.6.7-3.2.3-1 .4-2.5.3-1.6.5-5.3" id="Fill-173" fill="#94B4CD"/><path d="M515.8 208.7v.1a88 88 0 0 1-.7 6.2l-.1.6-1.1 6-.2.9a93.2 93.2 0 0 1-3.9 12.4l-.3.9c-.8 2-1.6 4-2.6 5.9l-3 5.8-.4.8c-1 1.9-2.1 3.7-3.3 5.5l-.7 1.2a124.6 124.6 0 0 1-13 16.7l-1 1c-1.5 1.8-3.2 3.5-5 5.3l-1.3 1.2a166.7 166.7 0 0 1-10.2 9l-2.3 2-4.5 3.4-2.1 1.6c-2.3 1.6-4.6 3.3-7 4.8l-.1 59 7-4.8 2-1.7c1.6-1 3-2.2 4.5-3.3l2.4-2a182.6 182.6 0 0 0 6.1-5.3l1.5-1.3 2.6-2.4 1.3-1.3 5-5.2 1-1a143.4 143.4 0 0 0 5-6l1.2-1.4 3-3.8 3.7-5.5.8-1.2 3-5 .2-.5.5-.8 3-5.8 2.5-6 .4-.8.2-.7a96.6 96.6 0 0 0 3.6-11.8l.2-.9.4-1.8.7-4 .1-.7.7-6.2v-.1a86.2 86.2 0 0 0 .2-6.7l.2-59c0 2.2 0 4.5-.2 6.7" id="Fill-174" fill="#94B4CD"/><path id="Fill-175" fill="#698B9E" d="M454 299.9l-.2 59.1-13.8-6.9.2-59.1 13.8 6.9"/><path id="Fill-176" fill="#698B9E" d="M162 299l-.2 59-8.8 9 .2-59 8.8-9"/><path d="M146.4 364.8l6.4 2.2.2-59-6.4-2.3-2-.7-4.3-1.6-1.8-.8c-2-.7-4-1.6-5.9-2.4l-1.8-.8-6.9-3.1-1.1-.6a227.4 227.4 0 0 1-14-7.3c-14-8.1-26-17.3-35.6-27.4l-.2 59a161.5 161.5 0 0 0 43.9 31.9l5.7 2.9 1.1.5 7 3.2 1.8.7 5.8 2.5 1.2.4.7.3 4.2 1.6 2 .8" id="Fill-177" fill="#94B4CD"/><path d="M249.5 324a371.8 371.8 0 0 1-19.3-1l-2-.2-8-.8-.2 59 8 .8h.6l1.5.2 7.6.5 2.6.1 9 .4h.5l.2-59h-.5" id="Fill-178" fill="#698B9E"/><path id="Fill-179" fill="#A4AFB4" d="M250.2 340.4l-.1 58.6-.1-16.4.1-58.6.1 16.4"/><path d="M330.2 201.7c0 9.3-5.2 18.3-15 25.6l20.2 11.6c15-10.4 23.3-23.5 23.2-37.2 0-13.9-8.6-27-23.6-37.3L314.9 176c9.5 7.1 15.3 16 15.3 25.7m-116.3 33l-20 11.7a150.3 150.3 0 0 0 64.4 13.5 149 149 0 0 0 64.4-13.5l-20.3-11.7c-12.5 5.7-28 8.8-44.2 8.8-16.3 0-31.8-3.2-44.3-8.8m-74.2-27.8h-28.4c2.4 21.4 18.4 40.7 43.1 55 24.7 14.2 58 23.4 95 24.7v-16.5a166.4 166.4 0 0 1-75-19.9c-20.4-11.7-32.5-27-34.7-43.3m128 133.5c41.7-.9 82-8 117.3-20.6l9.5 8.8A405.4 405.4 0 0 1 258.8 351c-53.4 0-104.7-9.4-148.3-27l10.3-8.6c38.2 15.4 82.5 24 129 25l-.1-16.4c-10-.3-20.1-.9-30-2l3.3-10.2c11.7 1.2 23.7 1.9 35.6 1.9 48.6 0 94.4-10.4 130-29.3l-20-11.6c-7.4 3.8-15.3 7.3-23.7 10.3l-9.6-9c10-3.5 19.3-7.8 27.6-12.7 7.6-4.4 14.4-9.4 20-14.7l15.4 5.6c-5 4.6-10.7 9-17 13.1l20.1 11.6c32.5-20.7 50.2-47.2 50-75.3 0-28.4-18.7-55.1-50.8-75.4l-20 11.6c4 2.6 7.7 5.3 11.3 8.1l-14.7 6.1c-4.7-3.8-9.9-7.3-15.5-10.5a209.5 209.5 0 0 0-95.2-24.9l.1 16.5c6.7.3 13.2.9 19.7 1.8l-4.4 10.1a171.8 171.8 0 0 0-48.5 0L229 135c6.4-1 13-1.5 19.6-1.8l-.1-16.5c-74 2.6-133 37-137.3 79.7h28.5c.5-3.8 1.4-7.6 3-11.3l17.6 2.5a35 35 0 0 0-3 14c.2 13.8 8.5 26.9 23.7 37.4l20.1-11.7a48.3 48.3 0 0 1-6.2-5.5l15.7-5c2.5 2.6 5.7 5 9.2 7 10 5.8 23.8 9.2 38.4 9.2 14.7 0 28.5-3.4 38.8-9.5 9.8-6 15.2-13.7 15.2-21.8 0-8.7-6.2-16.5-16-22.2a78.2 78.2 0 0 0-38.4-9.2c-28 0-51 12.1-53.7 28.2l-18-1a34.8 34.8 0 0 1 14.6-21.5l-20-11.6a72.1 72.1 0 0 0-10.4 8.5l-15.7-5.2c10.1-10.3 24.8-19 42.3-25l9.3 9c-4.5 1.5-8.8 3.3-12.9 5.3l20.2 11.6c12.2-5.5 27.6-8.8 44.3-8.8 16.6 0 32 3.3 44.3 8.8l20-11.6c-2.8-1.4-5.7-2.7-8.8-3.9l10-8.7c6.7 2.6 12.8 5.5 18.3 8.7 20 11.6 32.4 26.9 34.6 43.3h28.5a54 54 0 0 0-6-19.2l17.3-3a59.5 59.5 0 0 1 5.6 40.7l-17.9-1.4c.5-2.2.9-4.4 1-6.6h-28.4c-2 16.1-13.6 31.2-33.4 42.9a164.2 164.2 0 0 1-75.5 20.3l.1 16.5c8.8-.3 17.4-1 25.9-2.2l4.4 10.1c-12.8 1.8-26 2.7-39.3 2.7-42.2 0-81-9.2-110.2-24.4l-20 11.6a228.2 228.2 0 0 0 33.8 14.3l-9 9c-16.2-5.3-31-12-44.2-19.5-14-8-26-17.2-35.6-27.3l15.7-5c7.4 7.6 16.3 14.7 26.4 21.1l20-11.6c-26.3-17-42.4-39.3-42.5-63.7-.2-24.5 15.7-46.9 41.8-63.8l-20.1-11.6c-32 20.4-50.3 47.3-50.1 75.4 0 6.4 1 13 3 19.3l-17.8 1.8a75.2 75.2 0 0 1-3-16H18.3c2 29.3 19.4 56.8 50.6 80l-14.3 6.4C19.1 266.8.2 235.2 0 201.7c0-11.1 2-22.2 6-32.9l17.7 2.3c-3.2 8.3-5 16.8-5.5 25.3h28.4c2.6-37.9 35.7-73.1 89.7-95l10.4 8.5c-6.8 2.7-13.3 5.8-19.4 9l20.2 11.6a241.7 241.7 0 0 1 110-24.4c40.8 0 80.1 8.9 110.2 24.4l20-11.6c-11.4-6-24.2-11.3-38.1-15.7l8.6-9.2a245 245 0 0 1 48.9 21.1c37.1 21.5 59.8 50.4 62.2 81.3h28.4a86.4 86.4 0 0 0-8-30.6L507 163a92.3 92.3 0 0 1 8.9 38.6c.2 36-22 70.7-62.6 97.8l-13.6-6.8c35.7-24 56-54.2 58-85.8h-28.4c-2 30.7-23.7 59.4-61.4 81.3-37.7 22-87.3 34.5-140.3 35.8v16.4" id="Fill-180" fill="#F7FAFB"/><path d="M394 328.7a332.6 332.6 0 0 1-21.8 7l-1.2.4-10.5 2.8-2.7.6c-3 .8-6 1.5-9.1 2.1l-2 .5a398.2 398.2 0 0 1-15 2.8l-3.8.7-4.6.7-3.8.5-4.8.7-3.6.5-5.1.5-3.5.4-1.5.1-11.6 1-2.4.2-12.5.6h-2.4a446.2 446.2 0 0 1-24.4.2l-2.6-.1a445.5 445.5 0 0 1-21.1-1.1l-3.5-.3c-7.6-.7-15.1-1.5-22.6-2.5l-3.2-.5-8.6-1.4-3.4-.5-10.7-2-.6-.2a385.2 385.2 0 0 1-26-6.4l-1-.2-2.2-.7-6.2-1.9-3-1c-1.8-.5-3.5-1-5.3-1.7l-3.3-1.1-4.8-1.7c-1.1-.5-2.3-1-3.4-1.3l-6-2.4-.2 58.9 3.2 1.3 2.8 1 3.5 1.4 4.7 1.7 3.4 1.1 5.1 1.7 3.1 1 6.2 1.9 2.3.7h.2l.7.2a368 368 0 0 0 26 6.4h.2l.5.1 10.6 2 3.4.6 8.6 1.4 2.1.3 1.2.2a423.7 423.7 0 0 0 22.5 2.5l1.2.1a439.6 439.6 0 0 0 10.5.7l3.8.2 9 .4h2.7a457.7 457.7 0 0 0 24.5 0h1.4l1-.1 12.4-.6 2.5-.2 11.5-1h1l.6-.1 3.4-.4 5.1-.5 3.7-.5 4.8-.7 3.7-.5 4.7-.7 3.8-.7 3.2-.5 1-.2 10.8-2.1 2-.5 9-2 2.7-.7 10.5-2.8 1.3-.4 9.1-2.7 1.5-.5 1.2-.4c3.3-1 6.7-2.2 10-3.4l.1-58.9" id="Fill-181" fill="#A9C4DC"/><path id="Fill-182" fill="#D38A30" d="M269 232l-31-17.5V204l31 17.5V232"/><path d="M277.9 195.6v-.2l.1-2.3a47 47 0 0 0-1.1-12.6 5 5 0 0 0-2.4-2.6L244.1 160a5 5 0 0 1 2.3 2.6 47 47 0 0 1 .9 15.7l-.1.5-.3 1.3a11 11 0 0 1-1.2 2.6l-.8 1-.8.8-.3.2a9 9 0 0 1-1.9 1.2l-.7.2a2 2 0 0 1-.7 0c-.2 0-.3 0-.5-.2l30.5 18a1.3 1.3 0 0 0 .5 0l.1.1a1.7 1.7 0 0 0 .5 0h.1l.2-.1.5-.1a7 7 0 0 0 2-1.2l.2-.3.4-.4.3-.2.1-.1v-.1a7.6 7.6 0 0 0 .6-.7l.2-.2v-.1a6.7 6.7 0 0 0 .6-1v-.2a13 13 0 0 0 .5-1v-.3l.2-.4.1-.8v-.2l.2-.4v-.6" id="Fill-183" fill="#D38A30"/><path id="Fill-184" fill="#F9D367" d="M245 196l-31-18 24-14 31 18-24 14"/><path d="M244.5 201v-5.3L214 178v5.3c0 11.5 2.2 18.5 6.5 21L251 222c-4.3-2.5-6.5-9.5-6.5-21" id="Fill-185" fill="#F7C53B"/><path d="M288.6 145.6l.5.1c.6 0 1.1.2 1.6.3h.3l1.2.2.5.1a47 47 0 0 1 2.2.6h.4l1 .3a14 14 0 0 1 1.7.8l-30.8-17.6h-.1l-.7-.4h-.1l-.8-.3-1-.3-.4-.1a29.7 29.7 0 0 0-4-.9h-.2l-1.6-.3h-.5l-1.4-.2-.5-.1a139.3 139.3 0 0 0-4.3-.5l-.6-.1a141.2 141.2 0 0 1-3.6-.6h-.3a66.3 66.3 0 0 1-3-.6h-.3l-1-.3h-.2l-.8-.3-.1-.1-.7-.3 30.8 17.6.6.3h.2l.8.3h.2c.3.2.6.2 1 .3l.3.1 1 .2.4.1 1.5.3h.4a101.5 101.5 0 0 0 3.6.6h.6a199.8 199.8 0 0 0 4.3.6h.5l1.4.2" id="Fill-186" fill="#F7C53B"/><path d="M277 133.5c0-4.9-.3-7.9-.9-9-.1-.4-.3-.6-.6-.8L245 106c.3.2.5.4.6.7.6 1.2.9 4.2.9 9v4.6L277 138v-4.5" id="Fill-187" fill="#D38A30"/><path d="M284 102.5c.4 0 .7-.2 1-.3a27.4 27.4 0 0 1 2.3-.5l1.2-.2H291.3l1.5.1h.3l1.2.4h.4l1.3.7-30.8-17.4h-.1l-1-.5-.3-.1-.3-.1-.4-.2-.8-.2h-.3l-1.4-.2H259h-.3l-1 .1-.7.1-.5.1h-.4l-1.8.5h-.2l-.9.3-1.4.4-1 .4-1.2.4-.6.3 30.8 17.4 1.8-.7 1-.4 1.5-.4" id="Fill-188" fill="#F7C53B"/><path id="Fill-189" fill="#F9D367" d="M269 102l-31-17.7 11-6.3 31 17.7-11 6.3"/><path id="Fill-190" fill="#D38A30" d="M269 111l-31-18.1V84l31 18.1v8.9"/><path d="M247.7 166.2c-2-3.4-3-7.9-3-13.5 0-1 0-2 .2-3.1v-1l.2-2 .1-.6a44.6 44.6 0 0 1 .9-4.3l.2-1.1.8-2.5v-.3l1-2.2.1-.6 1.1-2.3.2-.4a45.8 45.8 0 0 1 2.7-4.7l.4-.6 1.2-1.7.6-.8 1-1.3 1-1.1.7-.8 2.2-2.4 1-1a74.6 74.6 0 0 1 2.5-2.2l.9-.8 1.7-1.4.9-.7a82 82 0 0 1 2.7-2L238.2 93a82 82 0 0 0-2.7 2l-.8.7-1.8 1.4-1 .8a67 67 0 0 0-2.3 2.2l-.6.5-.4.5-2.3 2.4-.4.5-.2.3-1 1c-.3.4-.5.8-.8 1l-.3.4-.5.8-.7.9-.5.8-.4.6-.3.4-1 1.7-.2.2-.7 1.4-.6 1c0 .1 0 .3-.2.4v.2l-.8 1.7-.2.4-.2.6-.3.7-.6 1.5v.3h-.1l-.7 2.2v.3l-.3 1-.3 1.3v.3l-.5 2.8-.1.5-.2 2-.1 1-.1 3.2c0 5.6 1 10.1 3 13.5.7 1.4 1.5 2.5 2.4 3.5a12 12 0 0 0 2.8 2.3L253 172a15 15 0 0 1-5.3-5.8" id="Fill-191" fill="#F7C53B"/><path d="M279.1 96v8.8c7.4-3.2 13-3.5 16.7-1 3.6 2.4 5.5 7.7 5.5 15.9 0 1.1 0 2.9-.2 5.3l-23.9 13.8v-4.5c0-5-.3-8-.9-9.1-.5-1.2-1.7-1.2-3.5-.2a7.8 7.8 0 0 0-3.3 3.9c-.7 1.7-1 3.8-1 6.4 0 4.3.7 6.9 2.2 7.8a45 45 0 0 0 13 2.6c6 .7 10.1 1.5 12.4 2.5 2.2 1 4 3 5.6 6.3a34 34 0 0 1 2.3 14 57.1 57.1 0 0 1-24.5 47.8v10.3l-11 6.4v-10.7c-6.4 3-12 3.4-16.8 1.2-4.8-2.2-7.2-9.4-7.2-21.7v-5.3l23.9-13.9v6.8c0 7.4.3 11.8.8 13.4.5 1.5 1.7 1.7 3.6.6 1.6-1 2.8-2.3 3.6-4 .7-1.7 1.1-3.8 1.1-6.2 0-6.2-.4-10.4-1.1-12.6-.8-2.3-3.4-3.7-7.7-4.3-7.4-1-12.3-2-15-3-2.6-1-4.9-3.1-6.8-6.5-2-3.4-2.9-8-2.9-13.6 0-8.2 2-15.8 6-22.9 4-7 10.1-13.4 18.2-19.2v-8.7l11-6.4" id="Fill-192" fill="#EEA62D"/><path d="M162.6 73.6c0 .2.2.3.4.4l-7.5-4.3-.4-.4L152 64l7.5 4.3 3 5.3" id="Fill-193" fill="#1A9B78"/><path d="M138 34.9v-.3-.2a9.7 9.7 0 0 1 .1-.6 9.5 9.5 0 0 1 .2-1l.1-.3a24.7 24.7 0 0 1 .2-.6l.1-.3a7.9 7.9 0 0 1 .2-.4V31a12.3 12.3 0 0 1 .6-1.2l.1-.1a12.8 12.8 0 0 1 1.2-1.7l.2-.3.2-.2.2-.2a13.2 13.2 0 0 1 .9-.8 5 5 0 0 1 .6-.4 12.5 12.5 0 0 1 .4-.3l26.4-15.2h.2l.2-.2a6 6 0 0 1 .6-.2h.1l.2-.1a4.2 4.2 0 0 1 .8-.2 3.7 3.7 0 0 1 1 0 2.6 2.6 0 0 1 .7.4l7.5 4.3c-.2-.2-.5-.3-.8-.3h-1c-.2 0-.6 0-1 .2-.3 0-.7.2-1 .5l-26.4 15-1 .8a10.2 10.2 0 0 0-2 2l-.8 1.3a13.2 13.2 0 0 0-1.4 4l-.1 1.2v30.2a6 6 0 0 0 .5 2.1c0 .2.2.4.4.6l.1.2.6.5-7.4-4.3c-.3-.1-.5-.3-.6-.5l-.2-.2-.2-.2-.2-.4a4.4 4.4 0 0 1-.3-1v-.1a7.2 7.2 0 0 1-.1-1L138 35V35" id="Fill-194" fill="#1A9B78"/><path d="M151.3 30c-3 1.7-5.3 5.9-5.3 9.3v30.3c.1 3.5 2.5 4.8 5.5 3.1l8-4.6 3 5.3c.5.7 1.3.8 2 .3a5 5 0 0 0 2.1-2.7l3-8.9 8-4.6c3-1.7 5.4-6 5.4-9.3V17.8c-.1-3.4-2.5-4.8-5.5-3L151.3 30" id="Fill-195" fill="#76C2AC"/><path id="Fill-196" fill="#FFFFFE" d="M174 29l-5.3 3 1.8 1-7 12-4.2-2.3L151 57l1.6.9 6.7-11.7 4.3 2.4L172 34l1.9 1.1V29"/><path d="M329.4 63.6c0 .2-.2.3-.4.4l7.5-4.3a1.2 1.2 0 0 0 .4-.4L340 54l-7.5 4.3-3 5.3" id="Fill-197" fill="#8EB0CA"/><path d="M354 24.9a9.4 9.4 0 0 0 0-.8l-.1-.3v-.2a11.5 11.5 0 0 0-.2-.9l-.1-.2-.1-.3-.1-.3-.1-.3-.1-.2-.1-.2V21l-.1-.3a10.3 10.3 0 0 0-.4-.6l-.1-.3-.1-.1a13.4 13.4 0 0 0-1.6-2.2l-.2-.2a8 8 0 0 0-.7-.7h-.2v-.2a11 11 0 0 0-1-.6L322.2.7h-.2a6.4 6.4 0 0 0-.8-.4h-.1a4.8 4.8 0 0 0-1-.3 3.6 3.6 0 0 0-1 0 2.9 2.9 0 0 0-.7.4L311 4.7c.2-.2.5-.3.8-.3h1c.2 0 .6 0 1 .2.3 0 .7.2 1 .5l26.4 15a8.3 8.3 0 0 1 2 1.8 12 12 0 0 1 1.8 2.3 12.6 12.6 0 0 1 1.1 2.6l.3 1.3.1 1.3v30.2l-.2 1.1a4.3 4.3 0 0 1-.3 1 3 3 0 0 1-.4.6l-.1.2-.6.5 7.4-4.3c.3-.1.5-.3.6-.5l.2-.2.2-.2.2-.4a3.7 3.7 0 0 0 .3-.9v-.1-.1a4.2 4.2 0 0 0 .1-.8v-.2L354 25V25" id="Fill-198" fill="#8EB0CA"/><path d="M340.7 21c3 1.7 5.3 5.9 5.3 9.3v30.3c0 3.5-2.5 4.8-5.5 3.1l-8-4.6-3 5.3c-.5.7-1.3.8-2 .3a5 5 0 0 1-2.1-2.7l-3-8.9-8-4.6c-3-1.7-5.4-6-5.4-9.3V8.8c.1-3.4 2.5-4.8 5.5-3L340.7 21" id="Fill-199" fill="#C8DDEA"/><path id="Fill-200" fill="#1A9B78" d="M320 28.4V40l-4-2.4V26l4 2.4"/><path id="Fill-201" fill="#E4A945" d="M326 27.5V45l-4-2.5V25l4 2.5"/><path id="Fill-202" fill="#4F4C76" d="M333 34.6V49l-4-2.6V32l4 2.6"/><path id="Fill-203" fill="#D24B6E" d="M340 28.5V52l-4-2.5V26l4 2.5"/><path d="M76.4 206.6c0 .2-.2.3-.4.4l7.5-4.3a1.2 1.2 0 0 0 .4-.4L87 197l-7.5 4.3-3 5.3" id="Fill-204" fill="#E4A945"/><path d="M101 167.9v-.3a6.3 6.3 0 0 0 0-.5l-.1-.3a6.7 6.7 0 0 0-.2-1l-.1-.3-.1-.3-.1-.3a11.6 11.6 0 0 0-.2-.5l-.1-.2v-.1l-.1-.3a30.6 30.6 0 0 0-.4-.6l-.1-.3-.1-.1a12 12 0 0 0-1.4-2l-.2-.2a10.9 10.9 0 0 0-1-.9l-.2-.2a11.1 11.1 0 0 0-1-.6l-26.3-15.2h-.2a9.8 9.8 0 0 0-.8-.4h-.1a4 4 0 0 0-.8-.3h-.2a3.6 3.6 0 0 0-1 0 2.7 2.7 0 0 0-.7.4l-7.5 4.3c.2-.2.5-.3.8-.3a3.2 3.2 0 0 1 1 0c.3 0 .6 0 1 .2.3 0 .7.2 1 .5l26.4 15a8.3 8.3 0 0 1 2 1.8 12 12 0 0 1 2.4 3.6l.5 1.3.3 1.3.1 1.3v30.2a6 6 0 0 1-.2 1.2 4.3 4.3 0 0 1-.3 1l-.4.5-.1.2-.6.5 7.4-4.3c.3-.1.5-.3.6-.5l.2-.2.2-.2.2-.4a3.5 3.5 0 0 0 .3-.9v-.1-.1a5.4 5.4 0 0 0 .1-.8v-.2l.1-30.2v-.2" id="Fill-205" fill="#E4A945"/><path d="M87.7 163c3 1.7 5.3 5.9 5.3 9.3v30.3c0 3.5-2.5 4.8-5.5 3.1l-8-4.6-3 5.3c-.5.7-1.3.8-2 .3a5 5 0 0 1-2.1-2.7l-3-8.9-8-4.6c-3-1.7-5.4-6-5.4-9.3v-30.4c0-3.4 2.5-4.8 5.5-3L87.7 163" id="Fill-206" fill="#F9D367"/><path d="M76 187.6c5.4 3 9.8.6 9.8-5.5s-4.4-13.6-9.8-16.7c-5.4-3-9.8-.6-9.8 5.5s4.4 13.6 9.8 16.7m0-25.8c7.2 4 13 14 13 22.1 0 8.1-5.9 11.4-13 7.3-7.2-4-13-14-13-22.1 0-8.1 5.9-11.4 13-7.3" id="Fill-207" fill="#E4A945"/><path d="M76.3 168v1.2c1.1.8 2 1.7 2.5 2.7a6.5 6.5 0 0 1 .8 4l-3.6-2v-.7l-.1-1.5a1 1 0 0 0-.6-.6c-.2-.1-.3-.2-.4 0-.2.1-.2.4-.2.7 0 .7.1 1.2.3 1.6l2 2.5 1.8 2.5c.4.5.6 1.1.9 1.8.2.8.3 1.6.3 2.5 0 1.4-.3 2.4-1 2.8-.6.5-1.5.5-2.7 0v1.5l-1.7-1v-1.5c-1-.6-1.8-1.5-2.5-2.6a8 8 0 0 1-1-4.4v-.8l3.5 2v1l.1 2c.1.4.3.6.6.8h.5c.1-.1.2-.3.2-.7a9 9 0 0 0-.2-2c0-.5-.5-1.1-1.1-2-1.1-1.3-1.9-2.3-2.2-2.9-.4-.6-.8-1.3-1-2.1-.4-.8-.5-1.7-.5-2.5 0-1.2.3-2 1-2.3.5-.3 1.5-.2 2.7.3V167l1.6 1" id="Fill-208" fill="#E4A945"/><path d="M418.6 223.6c0 .2.2.3.4.4l-7.5-4.3-.4-.4-3.1-5.3 7.5 4.3 3 5.3" id="Fill-209" fill="#D24B6E"/><path d="M394 184.9v-.3a10 10 0 0 1 .1-.8 23 23 0 0 1 .3-1.3 12.4 12.4 0 0 1 .2-.6l.1-.3a11.7 11.7 0 0 1 .2-.4v-.1l.1-.3a12.3 12.3 0 0 1 .4-.6l.1-.3.1-.1a12.8 12.8 0 0 1 2.5-3l.2-.2a6.4 6.4 0 0 1 .8-.6l.2-.1 26.4-15.2h.2a4.8 4.8 0 0 1 .8-.4h.1l.2-.1a5.6 5.6 0 0 1 .6-.2h.2a3 3 0 0 1 1 0 2.7 2.7 0 0 1 .7.4l7.5 4.3c-.2-.2-.5-.3-.8-.3h-1a4.3 4.3 0 0 0-1 .2c-.3 0-.7.2-1 .5l-26.4 15-1 .8-1 1-1 1-.8 1.3a12.8 12.8 0 0 0-1.1 2.6c-.2.4-.3.9-.3 1.3l-.1 1.3v30.2l.2 1.1c0 .4.1.7.3 1l.4.6.1.2.6.5-7.4-4.3c-.3-.1-.5-.3-.6-.5l-.2-.2-.2-.2-.2-.4a3.7 3.7 0 0 1-.3-.9v-.1-.1a4.4 4.4 0 0 1-.1-.8v-.2L394 185v-.2" id="Fill-210" fill="#D24B6E"/><path d="M406.3 180c-3 1.7-5.3 5.9-5.3 9.3v30.3c0 3.5 2.5 4.8 5.5 3.1l8-4.6 3 5.3c.5.7 1.3.8 2 .3a5 5 0 0 0 2.1-2.7l3-8.9 8-4.6c3-1.7 5.4-6 5.4-9.3v-30.4c-.1-3.4-2.5-4.8-5.5-3L406.3 180" id="Fill-211" fill="#E36983"/><path d="M426.5 193.3c1.8-1 3.3-3.6 3.3-5.7 0-2-1.5-3-3.3-1.9a7.2 7.2 0 0 0-3.3 5.7c0 2 1.5 3 3.3 1.9m-6.5-1.6l1.6-1 .5-1.5-1.2-.6 2-3.4 1.1.6c.4-.4.7-.8 1.1-1v-2l2.8-1.6v2c.4-.2.7-.2 1-.2l1.2-2 2 1.1-1.2 2 .5 1 1.6-1v3.2l-1.6 1-.5 1.5 1.2.6-2 3.4-1.1-.6c-.4.4-.7.8-1.1 1v2l-2.8 1.6v-2c-.3.2-.7.2-1 .2l-1.2 2-2-1.1 1.2-2-.5-1-1.6 1v-3.2" id="Fill-212" fill="#F9D367"/><path d="M416 207.8c1.1-.7 2-2.2 2-3.4 0-1.3-1-1.8-2-1.2-1.1.7-2 2.2-2 3.4 0 1.3 1 1.8 2 1.2m-5-.6l1.4-.9.3-1-1-.5 1.5-2.6 1 .6.7-.8v-1.6l2.1-1.2v1.6c.3 0 .5-.1.8 0l1-1.8 1.5.9-1 1.7.3.6 1.4-.8v2.5l-1.4.8-.3 1 1 .5-1.5 2.6-1-.6a8 8 0 0 1-.7.8v1.6l-2.2 1.2v-1.6l-.7.1-1 1.7-1.5-.9 1-1.7-.3-.6-1.4.8v-2.4" id="Fill-213" fill="#4F4C76"/><path d="M414 196.4c.9-.5 1.6-1.8 1.6-2.9 0-1-.7-1.4-1.6-1-.9.6-1.6 1.9-1.6 3 0 1 .7 1.4 1.6 1m-4-.6l1.1-.7c0-.3.2-.5.3-.8l-.8-.5 1.2-2.2.8.5.5-.7v-1.3l1.7-1v1.3h.6l.8-1.5 1.2.7-.8 1.5.3.5 1-.7.1 2.1-1.1.7c0 .3-.2.5-.3.8l.8.5-1.2 2.2-.8-.5-.5.7v1.3l-1.7 1v-1.3h-.6l-.8 1.5-1.2-.7.8-1.5-.3-.5-1 .7-.1-2.1" id="Fill-214" fill="#1A9B78"/><path d="M391.4 135.6c0 .2-.2.3-.4.4l7.5-4.3.4-.4 3.1-5.3-7.5 4.3-3 5.3" id="Fill-215" fill="#333155"/><path d="M416 96.9a6.3 6.3 0 0 0-.1-1 6 6 0 0 0-.2-1v-.2l-.1-.2a7.4 7.4 0 0 0-.5-1.3V93a12.4 12.4 0 0 0-.5-.9l-.1-.3-.1-.1a13.7 13.7 0 0 0-1.6-2.2l-.2-.2a10 10 0 0 0-.7-.7h-.2a6 6 0 0 0-1-.8l-26.4-15.2h-.2a7.8 7.8 0 0 0-.6-.4h-.2-.1l-.2-.1a4.1 4.1 0 0 0-.6-.2h-.2a3.6 3.6 0 0 0-1 0 2.7 2.7 0 0 0-.7.4l-7.5 4.3c.2-.2.5-.3.8-.3h1a4.4 4.4 0 0 1 1 .2c.3 0 .7.2 1 .5l26.4 15a8.1 8.1 0 0 1 2 1.8l1 1 .8 1.3.6 1.3.5 1.3a10.1 10.1 0 0 1 .4 2.6v30.2a6 6 0 0 1-.2 1.2l-.3.9c0 .2-.2.4-.4.6l-.1.2-.6.5 7.4-4.3c.3-.1.5-.3.6-.5l.2-.2.2-.2.2-.4a3.5 3.5 0 0 0 .3-.9v-.1-.1a5.4 5.4 0 0 0 .1-1L416 97V97" id="Fill-216" fill="#333155"/><path d="M402.7 92c3 1.7 5.3 5.9 5.3 9.3v30.3c-.1 3.5-2.5 4.8-5.5 3.1l-8-4.6-3 5.3c-.5.7-1.3.8-2 .3a5 5 0 0 1-2.1-2.7l-3-8.9-8-4.6c-3-1.7-5.4-6-5.4-9.3V79.8c0-3.4 2.5-4.8 5.5-3L402.7 92" id="Fill-217" fill="#4F4C76"/><path d="M391 123.3c0 .7-.5.9-1 .5-.5-.3-1-1-1-1.8.3.4.6.7 1 .9.4.2.7.4 1 .4" id="Fill-218" fill="#333155"/><path d="M387 117a9.8 9.8 0 0 0 3 3c1 .7 2.2.9 3 .5-.3 1.5-1.5 2-3 1a7 7 0 0 1-3-4.5" id="Fill-219" fill="#C8DDEA"/><path d="M390 96c3.9 2.3 7 7.8 7 12.4 0 2-.7 3.6-1.8 4.4-.9.7-1.2 2-1.1 3.8v.4c0 2.7-1.9 3.8-4.1 2.4-.2 0-.4-.2-.5-.3a9.7 9.7 0 0 1-3.6-6.2v-1.3c.2-1.5-.3-3.3-1.2-5a14.3 14.3 0 0 1-1.7-6.8c.2-4.2 3.1-6 6.7-4l.3.2" id="Fill-220" fill="#F9D367"/><path d="M198.4 293.6c0 .2-.2.3-.4.4l7.5-4.3.4-.4 3.1-5.3-7.5 4.3-3 5.3" id="Fill-221" fill="#333155"/><path d="M222 254.9v-.3a18.8 18.8 0 0 0-.1-.8v-.2a11.5 11.5 0 0 0-.2-.9l-.1-.2-.1-.3-.1-.3-.1-.3a9.8 9.8 0 0 0-.2-.4v-.1a10.1 10.1 0 0 0-.5-.9l-.1-.3-.1-.1a12.8 12.8 0 0 0-1.6-2.2l-.2-.2a13.2 13.2 0 0 0-.7-.7h-.2v-.2a11 11 0 0 0-1-.6l-26.4-15.2a6.2 6.2 0 0 0-1-.4h-.1l-.2-.1a10.6 10.6 0 0 0-.6-.2h-.2a3.6 3.6 0 0 0-1 0 2.7 2.7 0 0 0-.7.4l-7.5 4.3c.2-.2.5-.3.8-.3h1c.2 0 .6 0 1 .2.3 0 .7.2 1 .5l26.4 15 1 .8a10.2 10.2 0 0 1 2 2l.8 1.3.6 1.3.5 1.3c.2.4.3.9.3 1.3l.1 1.3v30.2a6 6 0 0 1-.5 2.1l-.4.6-.1.2-.6.5 7.4-4.3c.3-.1.5-.3.6-.5l.2-.2.2-.2.2-.4a4 4 0 0 0 .3-.9v-.1-.1a7.7 7.7 0 0 0 .1-1l.1-30.2v-.2" id="Fill-222" fill="#333155"/><path d="M208.7 250c3 1.7 5.3 5.9 5.3 9.3v30.3c-.1 3.5-2.5 4.8-5.5 3.1l-8-4.6-3 5.3c-.5.7-1.3.8-2 .3a5 5 0 0 1-2.1-2.7l-3-8.9-8-4.6c-3-1.7-5.4-6-5.4-9.3v-30.4c.1-3.4 2.5-4.8 5.5-3l26.2 15.2" id="Fill-223" fill="#4F4C76"/><path d="M202 260.7c0-3.3-2.2-7.3-5-9-2.7-1.6-5-.3-5 3 0 2.3 1.1 5 2.7 7l-2.6 10.5 9.7 5.8-2.6-13.6c1.7 0 2.8-1.4 2.8-3.7" id="Fill-224" fill="#333155"/><path d="M168.6 178.6c0 .2.2.3.4.4l-7.5-4.3a1.2 1.2 0 0 1-.4-.4L158 169l7.5 4.3 3 5.3" id="Fill-225" fill="#D24B6E"/><path d="M145 139.9v-.3-.2a6.8 6.8 0 0 1 .1-.6v-.2l.1-.3a11.9 11.9 0 0 1 .1-.6l.1-.2.1-.3.1-.3a9.9 9.9 0 0 1 .2-.5l.1-.2v-.1a12.4 12.4 0 0 1 .5-.9l.1-.3.1-.1a13.4 13.4 0 0 1 1.6-2.2l.2-.2a19.7 19.7 0 0 1 .9-.8 11.1 11.1 0 0 1 1-.7l26.4-15.2h.2a7.8 7.8 0 0 1 .8-.4h.1l.2-.1a4.2 4.2 0 0 1 .8-.2 3.7 3.7 0 0 1 1 0 2.8 2.8 0 0 1 .7.4l7.5 4.3a2.7 2.7 0 0 0-.8-.3h-1c-.2 0-.6 0-1 .2a6 6 0 0 0-1 .5l-26.4 15-1 .8-1 1-1 1-.8 1.3-.6 1.3-.5 1.3-.3 1.3-.1 1.3v30.2a6 6 0 0 0 .2 1.2l.3.9c0 .2.2.4.4.6l.1.2.6.5-7.4-4.3c-.3-.1-.5-.3-.6-.5l-.2-.2-.2-.2-.2-.4a4.4 4.4 0 0 1-.3-1v-.1a5.4 5.4 0 0 1-.1-1L145 140v-.2" id="Fill-226" fill="#D24B6E"/><path d="M157.3 135c-3 1.7-5.3 5.9-5.3 9.3v30.3c.1 3.5 2.5 4.8 5.5 3.1l8-4.6 3 5.3c.5.7 1.3.8 2 .3a5 5 0 0 0 2.1-2.7l3-8.9 8-4.6c3-1.7 5.4-6 5.4-9.3v-30.4c-.1-3.4-2.5-4.8-5.5-3L157.3 135" id="Fill-227" fill="#E36983"/><path d="M171.8 151l.2 5.3-1.1.7v-2.8l-.1-.8h-.2l-.5.2-.1-.6c.5-.4 1-1 1.2-1.6l.6-.4" id="Fill-228" fill="#FFFFFE"/><path d="M172.7 157.1l-.2-5.7-.7.5a5 5 0 0 1-1.3 1.7v.7l.2-.1.5-.3.1.2.1.7v3l1.3-.7m-5.7-9.7l8.6-5.4.4 14.6-8.6 5.4-.4-14.6" id="Fill-229" fill="#76C2AC"/><path d="M161.4 157.3c.5-.3.9-.4 1.1-.2.3 0 .5.4.5.8 0 .3 0 .7-.2 1.2l-1.3 3 1.5-.7v1l-2.9 1.6v-.8a89.4 89.4 0 0 0 1.6-4.7v-.3h-.3l-.2.2v1.1l-1.2.7v-.2-.8a2.5 2.5 0 0 1 .7-1.3l.7-.6" id="Fill-230" fill="#FFFFFE"/><path d="M162.9 161.3l-1.4.8a39 39 0 0 0 1.4-4c0-.5-.2-.8-.4-.9-.3-.1-.6 0-1.1.2a2.7 2.7 0 0 0-1 1.2c-.2.2-.2.4-.2.6v1l1-.7v-.5-.5l.3-.2c0-.1.1-.1.2 0v.2l-.2 1a86 86 0 0 1-1.3 3.5v.8l2.7-1.6v-1m-5.9-5l8.7-5.2.3 10.8-8.7 5.2-.3-10.8" id="Fill-231" fill="#F9D367"/><path d="M180.3 145.4c.6-.4 1-.5 1.2-.3.2 0 .4.4.4.8l-.1.7-.4.6h.4l.2 1-.1 1c0 .4-.2.6-.5.8-.2.3-.4.5-.8.7l-1 .3-.4-.3-.1-1v-.4l1.2-.6V149.9h.3l.1-.2v-1-.4s-.1-.1-.2 0l-.5.1v-.7l.5-.4.2-.2v-.7-.3h-.3l-.1.2v.8l-1.3.7v-.4c0-.5 0-1 .3-1.2a3 3 0 0 1 1-.8" id="Fill-232" fill="#FFFFFE"/><path d="M181.9 150.2V149l-.1-1c-.1-.2-.2-.2-.4-.2l.3-.6.1-.7c0-.5 0-.8-.3-1-.2-.1-.6 0-1.2.4-.5.2-.8.6-1 .9-.2.3-.3.7-.3 1.3v.5l1.2-.8v-.4-.5l.2-.2h.2v1.1l-.1.3-.5.3v.9l.5-.3.2.1v1.5c0 .1 0 .2-.2.3h-.1v-.5l-.1-.9-1.2.8v.4l.1 1c.1.3.3.4.5.4s.5-.1.9-.4l.8-.7.5-.8m-5.9-2.8l8.7-5.4.3 8.6-8.7 5.4-.3-8.6" id="Fill-233" fill="#4F4C76"/></g><text id="通过简单的价格设置-可预警、决策未来风险" font-family="PingFang-SC-Medium, PingFang SC" font-size="20" font-weight="400" fill="#454545"><tspan x="580" y="240">通过简单的价格设置 可预警、决策未来风险</tspan> <tspan x="580" y="280">提前布局企业未来方向</tspan></text></g></g></g></svg>