<?xml version="1.0" encoding="UTF-8"?><svg width="936" height="454" xmlns="http://www.w3.org/2000/svg"><!--Generator: Sketch 50.2 (55047) - http://www.bohemiancoding.com/sketch--><g id="Page-1" fill="none" fill-rule="evenodd"><g id="06-生产管理" transform="translate(-300 -213)"><g id="Group-6" transform="translate(300 213)"><g id="Group-5" transform="translate(550 61)" font-family="PingFang-SC-Semibold, PingFang SC" font-weight="500"><text id="rocessing" font-size="60" fill="#F2F2F2"><tspan x="113" y="164">rocessing</tspan></text><text id="roduction" font-size="60" fill="#F2F2F2"><tspan x="113" y="111">roduction</tspan></text><text id="P" font-size="160" fill="#E1E1E1"><tspan x="0" y="170">P</tspan></text></g><text id="订单、生产、加工管理完美结合在一起-全方" font-family="PingFang-SC-Medium, PingFang SC" font-size="20" font-weight="400" fill="#454545"><tspan x="561" y="275">订单、生产、加工管理完美结合在一起</tspan> <tspan x="561" y="315">全方位打通有色金属生产流程的每个环节！</tspan></text><g id="资源-5" fill-rule="nonzero"><g id="Group" opacity=".3" style="mix-blend-mode:multiply" transform="translate(256 241)" fill="#403C3D"><path id="Shape" d="M.4 17.7l44.7 25.8 43.7-26-57-17z"/></g><g id="Group" transform="translate(260 149)"><path id="Shape" fill="#ACADAF" d="M.4 109.5l41.8-24.7.3-61.7L.7 36.3z"/><path id="Shape" fill="#D5D7D9" d="M.7.4l-.3 109 40.4 23.4.3-113.6z"/><path id="Shape" fill="#ABAAAA" d="M26.1 48v42.5l10.3 6 .1-42.4z"/><path id="Shape" fill="#626262" d="M36.5 97l-10.8-6.3V47.9l.8.4v42l10 5.8z"/></g><path id="Shape" fill="#D9D9D9" d="M301.7 172.1L342 184l-41.7-15.4L260 150z"/><path id="Shape" fill="#ABAAAA" d="M301 282l41.7-24.7.3-73.4-41.7-15.9z"/><g id="Group" opacity=".2" style="mix-blend-mode:multiply" transform="translate(0 176)" fill="#403C3D"><path d="M472.6 212.3c7.7 4.5 7.7 11.6.1 16l-79.3 46.2c-7.6 4.4-20 4.4-27.6 0L5.8 66.2c-7.7-4.4-7.7-11.5-.1-16L85 4.1c7.6-4.4 20-4.4 27.6 0l360 208.2z" id="Shape"/></g><g id="Group" transform="translate(8 147)"><path d="M6.3 65.6v28c-3.9-2.2-5.8-5.1-5.8-8V57.4c0 2.9 2 5.8 5.8 8z" id="Shape" fill="#C2C7CE"/><path d="M463.7 222.3l-79.3 46v28.1l79.2-46c3.8-2.3 5.7-5.1 5.7-8v-28c0 2.8-1.8 5.7-5.6 8z" id="Shape" fill="#919599"/><path id="Shape" fill="#C2C7CE" d="M356.8 268.4l-.1 28L6.3 93.6v-28z"/><path d="M384.4 268.4v28c-7.7 4.4-20 4.4-27.7 0v-28c7.7 4.3 20 4.3 27.7 0z" id="Shape" fill="#C2C7CE"/><path d="M463.6 206.3c7.7 4.4 7.7 11.6.1 16l-79.3 46c-7.6 4.5-20 4.5-27.6 0L6.3 65.7c-7.6-4.5-7.7-11.6 0-16L85.6 3.4c7.6-4.4 20-4.4 27.6 0l350.4 202.8z" id="Shape" fill="#D5DBE2"/></g><g id="Group" transform="translate(34 145)"><path id="Shape" fill="#8196A3" d="M175.7 64l-.1 22.4-62.9 36.5.2-22.4z"/><path id="Shape" fill="#64737B" d="M112.9 100.5l-.2 22.4L.7 58 .6 35.6z"/><path id="Shape" fill="#8BA4B2" d="M175.7 64l-62.8 36.5L.6 35.5l64-35z"/></g><g id="Group" transform="translate(44 146)"><path d="M14 32L61.4 3C57 .3 53.2-.2 51 1L3.7 30.3c2.1-1.2 6-.6 10.3 1.9z" id="Shape" fill="#396272"/><path id="Shape" fill="#2E444C" d="M125.6 107.2L172.9 78l1.3-9.7-47.4 29.1z"/><path id="Shape" fill="#396272" d="M126.8 97.4l47.4-29.1L61.4 2.9 14 32.1z"/><path d="M14 32C7.4 28.4 3 28.5.7 35l124.9 72.2 1.2-9.8L14 32.1z" id="Shape" fill="#243C42"/></g><path id="Shape" fill="#497988" d="M142.8 227l46.2-26.5-8-4.5-46 26.5zM126.8 217l46.2-26.5-8-4.5-46 26.5zM109.7 208l45.3-26.5-8-4.5-45 26.5zM93.8 198l46.2-26.5-8-4.5-46 26.5zM60 179l45-26.4-8-4.6-46 27.2c1 .1 1.9.3 2.8.6 2.1 1 4.2 2 6.2 3.2zM76.8 188l46.2-26.5-8-4.5-46 26.5z"/><g id="Group" transform="translate(92 129)"><path id="Shape" fill="#DEAF5E" d="M38.2 42l35.2-20.2v42.4L38 84.5z"/><path d="M50.7 63.2c2-1.1 3.6-.2 3.6 2l-3.3 2v4.6c0 .9-.5 1.6-1.2 2.1-.7.4-1.2 0-1.2-.7v-.1c0-.3.1-.4.3-.6.2 0 .3 0 .3.2v.1c0 .4.3.6.6.4.4-.2.6-.6.6-1v-4.7l-3.3 2a8 8 0 0 1 3.6-6.3zM61 57.3v3c0 1.6-.9 3.2-2.2 4.2v3.6l1.4-.8c.2-.1.3 0 .3.1 0 .3-.1.5-.3.6l-3.5 2c-.1 0-.3 0-.3-.2s.2-.4.3-.5l1.5-.9V65c-1.3.5-2.3-.2-2.3-1.7v-3l5.1-2.9zM69.5 52.5l1.7.7-.9.5v7.8l.6-.3c.2 0 .3 0 .3.2s-.1.4-.3.5L63.7 66c-.1.1-.3 0-.3-.2s.1-.4.3-.5l.6-.3v-7.8l-.9.5 1.7-2.7 1.7.7-.9.5V64l2.7-1.5v-7.8l-.9.5 1.8-2.7z" id="Shape" fill="#294D5F"/><path id="Shape" fill="#F1C77D" d="M.3 20.4L35.6.1l37.8 21.7L38.2 42z"/><path id="Shape" fill="#EABB5E" d="M38.2 42L38 84.6.2 62.8l.1-42.4z"/><path id="Shape" fill="#415569" d="M32.7 67.6v8l-1-.5v-8zM29.3 65.6v8l-.4-.1v-8zM28.2 65v8l-.6-.3v-8zM26.5 64v8l-.9-.4v-8zM24 62.6v8l-.6-.3v-8zM22.7 61.9v8l-.3-.2v-8zM21.9 61.4v8l-.7-.3v-8zM33.5 68v8l-.4-.1v-8zM34.4 68.5v8l-.5-.2v-8z"/><g id="Shape"><path fill="#415569" d="M2 2.1l-.1 8h-.2V2z" transform="translate(18 58.2)"/><path d="M.6.5l16.8 9.6v10.5L.6 11V.5zm12.2 16V8.3l-1.1-.7v8l1.1.7zm1.8 1v-8l-1-.6v8l1 .6zm-6.2-3.6v-8l-1-.5v8l1 .5zm-4.6-2.6V3.2l-.6-.4v8l.6.4zm2.1 1.2v-8L5.3 4v8l.6.4zm4.2 2.4v-8l-.6-.4v8l.6.4zm6.2 3.5v-8l-.4-.3v8l.4.3zm-.9-.5v-8l-.4-.3v8l.4.3zM4.6 11.7v-8l-.3-.2v8l.3.2zm6.6 3.8v-8l-.4-.3v8.1l.4.2zM1.8 10v-8l-.2-.2v8l.2.2zm.8.5v-8l-.2-.2v8l.2.2z" fill="#E7EBED" transform="translate(18 58.2)"/><path fill="#415569" d="M2.7 2.6v8l-.2-.1v-8zM12.9 8.4v8l-1.2-.6v-8z" transform="translate(18 58.2)"/></g></g><path id="Shape" fill="#8196A3" d="M313 195l-.1 93.6L247 327l.1-93.6z"/><path id="Shape" fill="#243C42" d="M310 247l-.1 38.5L252 319l.1-38.5z"/><path id="Shape" fill="#64737B" d="M248 233.2l-.1 93.8L141 264.8l.1-93.8z"/><path id="Shape" fill="#AABFC9" d="M314 195.4L247.8 234 141 171.6l66.2-38.6z"/><path id="Shape" fill="#8196A3" d="M308 123l-.2 69-15-9-65 39.7-1.9 91.4L209 324l.2-142.4z"/><path id="Shape" fill="#64737B" d="M210 181.5l-.2 143.5L50 229.7 50.2 87z"/><path id="Shape" fill="#AABFC9" d="M308 123.5L209.3 182 50 87.5 148.7 29z"/><g id="Group" transform="translate(251 265)"><path id="Shape" fill="#8196A3" d="M175.7 65.3v22.4l-62.9 36.5.1-22.3z"/><path id="Shape" fill="#64737B" d="M113 101.9l-.2 22.3L.8 59.3V37z"/><path id="Shape" fill="#8BA4B2" d="M175.7 65.3L113 102 1 36.9.8 26.3 63.7.4z"/></g><g id="Group" transform="translate(262 256)"><path d="M99.4 102l46.1-26.7a25 25 0 0 0-10.4-19L88.9 82.9a24.8 24.8 0 0 1 10.5 19z" id="Shape" fill="#295A6D"/><path d="M1.6 32.7v13L99.4 102c0-6.5-4.7-15.7-10.5-19L1.6 32.7z" id="Shape" fill="#1B383F"/><path id="Shape" fill="#295A6D" d="M89 82.9L135 56.3 35.8 0 .6 32.3z"/></g><g id="Group" transform="translate(244 225)"><path id="Shape" fill="#396272" d="M106.6 114.1l46-26.8L1.4 1 .7 53zM117.6 134l46-26.8c0-6.6-4.7-15.8-10.4-19.2l-46 26.8a25 25 0 0 1 10.4 19.1z"/><path d="M.8 53v13l116.8 68a25 25 0 0 0-10.4-19.2L.8 52.9z" id="Shape" fill="#243C42"/></g><path d="M361.4 358l45.6-26.4a20.7 20.7 0 0 0-2.4-9.6L359 348.6c.8 1.4 1.3 3 1.7 4.6.4 1.5.6 3.2.7 4.8zM349.8 338l46.2-26.5-8-4.5-46 26.5zM332.8 329l46.2-26.5-8-4.5-46 26.5zM315.7 319l45.3-26.4-8-4.6-45 26.5zM299.8 309l46.2-26.5-8-4.5-46 26.6zM266.7 291l45.3-26.4-8-4.6-45 26.5zM249.6 281l45.4-26.4-8-4.6-43 25.2v2.7zM244 264l40-23.4-8-4.6-31.9 18.9zM282.8 300l46.2-26.5-8-4.5-46 26.5z" id="Shape" fill="#377081"/><g id="Group" opacity=".3" style="mix-blend-mode:multiply" transform="translate(111 335)" fill="#403C3D"><path id="Shape" d="M.3 17.2L45 42.9l43.3-25.7-4.1-2.3L31.7 0z"/></g><g id="Group" transform="translate(114 218)"><path id="Shape" fill="#ABAAAA" d="M41 157.4l42-24.6.4-109.1-42.1 53.5z"/><path id="Shape" fill="#ACADAF" d="M.2 134l42.1-24.6.4-109L.6 53.9z"/><path id="Shape" fill="#D5D7D9" d="M.5 53.9L.2 134 41 157.4l.3-80.2z"/><path id="Shape" fill="#ABAAAA" d="M4 61.6L3.8 104l10.4 6 .1-42.4z"/><path id="Shape" fill="#626262" d="M14.4 110.4l-11-6.2.1-.2V61.4l.8.4v42l10 5.8z"/></g><path id="Shape" fill="#D9D9D9" d="M156.7 219l40.3 23.4-41.7 53.6-40.3-23.4z"/><path id="Shape" fill="#393939" d="M155.8 227l32.2 18.2-22.8 28.8-32.2-18.2z"/><path d="M140.4 270c.7-1 2-1.3 3-.7L158 278a1.8 1.8 0 0 1 .5 2.6l-5 6.6c-.7 1-2 1.2-3 .6L136 279a1.8 1.8 0 0 1-.5-2.6l5-6.6z" id="Shape" fill="#ABAAAA"/><path id="Shape" fill="#9D9C9C" d="M133.7 257l-.7-.3 22.8-29.7 32.2 18.8-.5.5L156 228z"/><path d="M123 271c0-1.1 1.3-2 3-2s3 .9 3 2-1.3 2-3 2-3-.9-3-2z" id="Shape" fill="#08CB67"/><path d="M127 265c0-1.1 1.3-2 3-2s3 .9 3 2-1.3 2-3 2-3-.9-3-2z" id="Shape" fill="#FF2A32"/><path d="M129 273c0-1.1 1.3-2 3-2s3 .9 3 2-1.3 2-3 2-3-.9-3-2zM133 268c0-1.1 1.3-2 3-2s3 .9 3 2-1.3 2-3 2-3-.9-3-2z" id="Shape" fill="#ABAAAA"/><path id="Shape" fill="#404852" d="M237.1 96L209 111.2l28.8 16.8 28.2-16.3z"/><g id="Group" transform="translate(206 93)"><path id="Shape" fill="#43535B" d="M31.6 2.3v2.3l27 15.7V18zM4.8 18.1v2.3L31.6 4.6V2.3z"/><path id="Shape" fill="#B28C2D" d="M31.9 36v2.4l30.7-18.1V18z"/><path id="Shape" fill="#43535B" d="M.8 18.2v2.2l31 18V36z"/><path d="M31.5 0l31 18L32 36l-31-18L31.4.1zm27.1 18l-27-15.7L4.8 18.1l27 15.7L58.6 18z" id="Shape" fill="#5A686F"/></g><g id="Group" transform="translate(213 97)"><path id="Shape" fill="#43535B" d="M4.3 18.5l1.9 1.2L30.7 4.9V2.6z"/><path id="Shape" fill="#5A686F" d="M30.7 2.6L4.3 18.5H.5L30.7.3z"/></g><g id="Group" transform="translate(220 102)"><path id="Shape" fill="#B28C2D" d="M4.2 18.2L6 19.4 30.5 4.6V2.3z"/><path id="Shape" fill="#FFD03A" d="M30.5 2.3L4.2 18.2h-4L30.6 0z"/></g><g id="Group" transform="translate(227 105)"><path id="Shape" fill="#B28C2D" d="M4.2 18.6l1.9 1.2L30.6 5.1V2.8z"/><path id="Shape" fill="#FFD03A" d="M30.6 2.8L4.2 18.6H.4L30.6.4z"/></g><g id="Group" transform="translate(42 134)"><path id="Shape" fill="#4F5B62" d="M42.4 29.4l.4 76.3 9.7-5.7-.4-76.2z"/><path id="Shape" fill="#5A686F" d="M.9 5.7L1.3 82l41.5 23.7-.4-76.3z"/><path id="Shape" fill="#738691" d="M42.4 29.4l9.7-5.6L10.6 0 .9 5.7z"/></g><path id="Shape" fill="#FFCD40" d="M183 88l-42.9-25-5.1 3 42.9 25z"/><path id="Shape" fill="#F0C654" d="M181 86.7L140 63l-4 2.3L177 89z"/><path id="Shape" fill="#EAB339" d="M140 63v5l-4-2.5z"/><path id="Shape" fill="#FFCD40" d="M197 79l-42.9-25-5.1 3 42.9 25z"/><path id="Shape" fill="#F0C654" d="M195 78.7L154 55l-4 2.3L191 81z"/><path id="Shape" fill="#EAB339" d="M154 55v5l-4-2.5z"/><g id="Group" transform="translate(164 63)"><path id="Shape" fill="#404852" d="M30.4 38.6L.3 21.6V34l30.2 17.1z"/><path id="Shape" fill="#525F6B" d="M66.8 17.6L36.6.6.3 21.6l30.1 17z"/><path id="Shape" fill="#617380" d="M30.4 38.6v12.6l36.4-21V17.7z"/></g><g id="Group" transform="translate(102 26)"><path id="Shape" fill="#404852" d="M49.2 51.8L.3 23.5v13.7l49 28.3z"/><path id="Shape" fill="#525F6B" d="M88.1 29L39.2.7.3 23.5l48.9 28.3z"/><path id="Shape" fill="#617380" d="M49.2 51.8v13.7l39-22.8L88 29z"/></g><g id="Group" transform="translate(140 34)"><path id="Shape" fill="#404852" d="M49.2 45.1L.5 17.1.6 32l14.6 8.4.2 13.7 9.4 5.4v-8.3l5.7-3.3 18.8 10.8z"/><path id="Shape" fill="#5A6974" d="M76.5 28.8L27.8.8.5 17.1l48.7 28z"/><path id="Shape" fill="#617380" d="M49.2 45.1v13.6l27.4-16.3V28.8z"/></g><path d="M186.4 89c.3 0 .5-.2.5-.4v-9.2c0-.2-.2-.4-.5-.4-.2 0-.4.2-.4.4v9.2l.1.3.3.1zM149.4 68l.3-.1.2-.3v-9.2c0-.2-.2-.4-.5-.4-.2 0-.4.2-.4.4v9.2c0 .2.2.4.4.4zM155.4 71c.3 0 .5-.2.5-.4v-9.2c0-.2-.2-.4-.5-.4-.2 0-.4.2-.4.4v9.2c0 .2.2.4.4.4zM161.4 75c.3 0 .5-.2.5-.4v-9.2c0-.2-.2-.4-.5-.4-.2 0-.4.2-.4.4v9.2c0 .2.2.4.4.4zM168.4 78c.3 0 .5-.2.5-.4v-9.2c0-.2-.2-.4-.5-.4-.2 0-.4.2-.4.4v9.2c0 .2.2.4.4.4zM174.4 82c.3 0 .5-.2.5-.4v-9.2c0-.2-.2-.4-.5-.4-.2 0-.4.2-.4.4v9.2c0 .2.2.4.4.4zM180.4 85l.3-.1.2-.3v-9.2c0-.2-.2-.4-.5-.4-.2 0-.4.2-.4.4v9.2l.1.3.3.1zM143.4 64l.3-.1.2-.3v-9.2c0-.2-.2-.4-.5-.4-.2 0-.4.2-.4.4v9.2l.1.3.3.1zM148 78.7L138 73v9.3l10 5.7zM137 71.7L127 66v9.3l10 5.7zM125 65.7L115 60v9.3l10 5.7zM114 58.7L104 53v9.3l10 5.7z" id="Shape" fill="#525F6B"/><g id="Group" transform="translate(184 64)"><path d="M6.2 22.2l36.6-21c-1.6-.9-3.1-1-4.2-.4l-36.5 21c1-.6 2.5-.5 4.1.4zM10.4 36l36.5-21c1-.6 1.7-1.9 1.7-3.7-.2-4.1-2.4-7.8-5.8-10l-36.6 21c3.5 2.1 5.6 5.9 5.9 10 0 1.8-.7 3-1.7 3.7z" id="Shape" fill="#79838B"/><path d="M6.2 22.2C3 20.4.4 21.8.4 25.5c.2 4.1 2.3 7.9 5.8 10 3.2 1.9 5.9.5 5.9-3.2-.3-4.1-2.4-7.9-5.9-10z" id="Shape" fill="#617380"/></g><path id="Shape" fill="#D7AA2F" d="M63 134v3.6l10 5.4v-3.6z"/><path id="Shape" fill="#A15446" d="M82 145v3.6l10 5.4v-3.6zM101 155v3.6l10 5.4v-3.6zM119 166v3.6l10 5.4v-3.6zM138 177v3.6l10 5.4v-3.6zM156 187v3.6l10 5.4v-3.6zM152 158l16 9.2V178l-16-9.3z"/><path id="Shape" fill="#B96054" d="M152.7 158.4v10l15.3 8.8v.8l-16-9.3V158z"/><path d="M154.5 168c.2 0 .4-.2.4-.4v-7.2c0-.2-.2-.4-.4-.4-.3 0-.5.2-.5.4v7.2c0 .2.2.4.5.4zM156.5 169l.3-.1.1-.3v-7.2l-.1-.3-.3-.1c-.3 0-.5.2-.5.4v7.2l.1.3.4.1zM159.5 171l.3-.1.1-.3v-7.2l-.1-.3-.3-.1c-.3 0-.5.2-.5.4v7.2l.1.3.4.1zM161.5 172c.2 0 .4-.2.4-.4v-7.2c0-.2-.2-.4-.4-.4-.3 0-.5.2-.5.4v7.2l.1.3.4.1zM164.5 174c.2 0 .4-.2.4-.4v-7.2c0-.2-.2-.4-.4-.4-.3 0-.5.2-.5.4v7.2c0 .2.2.4.5.4zM166.5 175c.2 0 .4-.2.4-.4v-7.1c0-.2 0-.3-.2-.4h-.5l-.2.4v7l.1.4.4.1z" id="Shape" fill="#C85C4E"/><path id="Shape" fill="#A15446" d="M170 168l16 9.2V188l-16-9.3z"/><path id="Shape" fill="#B96054" d="M170.7 168.4v10l15.3 8.8v.8l-16-9.3V168z"/><path d="M171.5 178c.2 0 .4-.2.4-.4v-7.1c0-.2 0-.3-.2-.4h-.5l-.2.4v7l.1.4.4.1zM174.5 180c.2 0 .4-.2.4-.4v-7.2c0-.2-.2-.4-.4-.4-.3 0-.5.2-.5.4v7.2c0 .2.2.4.5.4zM176.5 181c.2 0 .4-.2.4-.4v-7.1c0-.2 0-.3-.2-.4h-.5l-.2.4v7.1c0 .2.2.4.5.4zM179.5 183l.3-.1.1-.3v-7.1c0-.2 0-.3-.2-.4h-.5l-.2.4v7c0 .3.2.5.5.5zM181.5 184c.2 0 .4-.2.4-.4v-7.2c0-.2-.2-.4-.4-.4-.3 0-.5.2-.5.4v7.2c0 .2.2.4.5.4zM184.5 186c.2 0 .4-.2.4-.4v-7.2c0-.2-.2-.4-.4-.4-.3 0-.5.2-.5.4v7.2c0 .2.2.4.5.4z" id="Shape" fill="#C85C4E"/><path id="Shape" fill="#A15446" d="M115 137l16 9.3V157l-16-9.3z"/><path id="Shape" fill="#B96054" d="M115.7 137.4v10l15.3 8.8v.8l-16-9.3V137z"/><path d="M116.5 147c.2 0 .4-.2.4-.4v-7.1c0-.2 0-.3-.2-.4h-.5l-.2.4v7c0 .3.2.5.5.5zM118.5 148c.2 0 .4-.2.4-.4v-7.1c0-.2 0-.3-.2-.4h-.5l-.2.4v7l.1.4.4.1zM121.5 150c.2 0 .4-.2.4-.4v-7.2c0-.2-.2-.4-.4-.4-.3 0-.5.2-.5.4v7.2c0 .2.2.4.5.4zM123.5 151c.2 0 .4-.2.4-.4v-7.1c0-.2 0-.3-.2-.4h-.5l-.2.4v7l.1.4.4.1zM126.5 153l.3-.1.1-.3v-7.2c0-.2-.2-.4-.4-.4l-.4.1-.1.3v7.2l.1.3.4.1zM129.5 154c.2 0 .4-.2.4-.4v-7.2c0-.2-.2-.4-.4-.4l-.4.1-.1.3v7.2l.1.3.4.1z" id="Shape" fill="#C85C4E"/><path id="Shape" fill="#A15446" d="M132 147l16 9.3V167l-16-9.3z"/><path id="Shape" fill="#B96054" d="M132.7 147.4v10l15.3 8.8v.8l-16-9.3V147z"/><path d="M133.5 157l.3-.1.1-.3v-7.2c0-.1 0-.3-.2-.3h-.5l-.2.3v7.2l.1.3.4.1zM136.5 158c.2 0 .4-.2.4-.4v-7.2l-.1-.3-.3-.1c-.3 0-.5.2-.5.4v7.2c0 .2.2.4.5.4zM138.5 160l.3-.1.1-.3v-7.2c0-.2-.2-.4-.4-.4-.3 0-.5.2-.5.4v7.2l.1.3.4.1zM141.5 161l.3-.1.1-.3v-7.2c0-.2-.2-.4-.4-.4-.3 0-.5.2-.5.4v7.2c0 .2.2.4.5.4zM144.5 163c.2 0 .4-.2.4-.4v-7.2l-.1-.3-.3-.1c-.3 0-.5.2-.5.4v7.2c0 .2.2.4.5.4zM146.5 164c.2 0 .4-.2.4-.4v-7.1c0-.2 0-.3-.2-.4h-.5l-.2.4v7l.1.4.4.1z" id="Shape" fill="#C85C4E"/><path id="Shape" fill="#FFCD40" d="M147 122.6L112.2 102l-4.2 2.4 34.8 20.6z"/><path id="Shape" fill="#F0C654" d="M146 123l-33.7-20-3.3 2 33.7 20z"/><path id="Shape" fill="#EAB339" d="M112 103v4l-3-2z"/><path id="Shape" fill="#FFCD40" d="M159 116.6L124.2 96l-4.2 2.4 34.8 20.6z"/><path id="Shape" fill="#F0C654" d="M158 116l-33.7-20-3.3 2 33.7 20z"/><path id="Shape" fill="#EAB339" d="M124 96v4l-3-2z"/><g id="Group" transform="translate(95 76)"><path id="Shape" fill="#4F5B62" d="M67.4 63.1L.8 25.2 1 36.5l66.5 37.9z"/><path id="Shape" fill="#5A686F" d="M108.7 38.7L42.2.8.8 25.2l66.6 37.9z"/><path id="Shape" fill="#617380" d="M67.4 63.1v11.3L108.8 50V38.7z"/></g><path id="Shape" fill="#738A91" d="M162 106.5l11-6.5v1.5l-11 6.5z"/><path id="Shape" fill="#D3E1EA" d="M143 95.4l11.3-6.4L173 99.6l-11.3 6.4z"/><path id="Shape" fill="#9BB2BE" d="M162 106.5v1.5l-19-10.5V96z"/><path id="Shape" fill="#C3D6E1" d="M166.5 102l3.5-2-16-9v4z"/><path id="Shape" fill="#828A8E" d="M155 91l-9 5 3.7 2 5.3-3z"/><path id="Shape" fill="#9BB2BE" d="M154.2 95l-5.2 3 5.2 2.8 7.7 4.2 5.1-2.9z"/><path id="Shape" fill="#738A91" d="M149 113.5l11-6.5v1.5l-11 6.5z"/><path id="Shape" fill="#D3E1EA" d="M131 102.4l11.3-6.4 18.7 10.6-11.3 6.4z"/><path id="Shape" fill="#9BB2BE" d="M150 113.5v1.5l-19-10.5V103z"/><path id="Shape" fill="#C3D6E1" d="M154.4 109l3.6-2-16-9v4z"/><path id="Shape" fill="#828A8E" d="M142 98l-9 5 3.7 2 5.3-3z"/><path id="Shape" fill="#9BB2BE" d="M142.2 102l-5.2 3 5.2 2.8 7.7 4.2 5.1-2.9z"/><g id="Group" transform="translate(155 101)"><path id="Shape" fill="#8B959D" d="M15.8 16l-9-5.2-6 15 9 5.2z"/><path id="Shape" fill="#8B959D" d="M33 5.8L24 .5 6.7 10.8l9 5.2z"/><path id="Shape" fill="#79838B" d="M15.8 16l-6 15 31.9-19L33 5.9z"/></g><path d="M173.7 114c.1 0 .3-.1.3-.3 0-.1 0-.3-.2-.4l-7.3-4.3c-.2 0-.4 0-.5.2 0 .2 0 .4.2.5l7.3 4.3h.2zM163.7 128a.3.3 0 0 0 .3-.4l-.2-.2-6.3-3.4a.3.3 0 0 0-.5.2.3.3 0 0 0 .2.4l6.3 3.4h.2zM164.7 126c.1 0 .2 0 .3-.2a.3.3 0 0 0-.2-.4l-6.4-3.4a.3.3 0 0 0-.4.2c0 .1 0 .3.2.4l6.3 3.4h.2zM165.7 124l.3-.2c0-.2 0-.3-.2-.4l-6.3-3.4a.3.3 0 0 0-.5.2.3.3 0 0 0 .2.4l6.4 3.4h.1zM166.7 122l.3-.2c0-.2 0-.3-.2-.4l-6.4-3.4a.3.3 0 0 0-.4.2c0 .1 0 .3.2.4l6.4 3.4h.1zM167.7 119c.1 0 .2 0 .3-.2 0-.1 0-.3-.2-.4l-6.4-3.4c-.1 0-.3 0-.4.2l.1.4 6.4 3.4h.2zM168.7 117l.3-.2c0-.2 0-.3-.2-.4l-6.4-3.4c-.1 0-.3 0-.4.2l.1.4 6.5 3.4h.1zM170.7 116s.2 0 .3-.2c0-.2 0-.4-.2-.5l-7.3-4.3h-.3l-.2.2c0 .2 0 .4.2.5l7.3 4.3h.2zM175.7 113s.2 0 .3-.2c0-.2 0-.4-.2-.5l-7.3-4.3a.3.3 0 0 0-.5.2c0 .2 0 .4.2.5l7.3 4.3h.2zM178.7 111s.2 0 .3-.2v-.3l-.2-.2-7.3-4.3c-.2 0-.4 0-.5.2l.1.5 7.4 4.3h.2zM181.7 110s.2 0 .3-.2c0-.2 0-.4-.2-.5l-7.3-4.3a.3.3 0 0 0-.5.2c0 .2 0 .4.2.5l7.3 4.3h.2zM183.7 109c.1 0 .3-.1.3-.3 0-.1 0-.3-.2-.4l-7.3-4.3c-.2 0-.4 0-.5.2v.2c0 .1 0 .2.2.3l7.3 4.3h.2zM185.7 107c.1 0 .3-.1.3-.3 0-.1 0-.3-.2-.4l-7.3-4.3c-.2 0-.4 0-.5.2v.2l.2.3 7.3 4.3h.2z" id="Shape" fill="#C1CFD8"/><path d="M145.7 89c.1 0 .2 0 .3-.2 0-.1 0-.3-.2-.4L135.4 82c-.1 0-.3 0-.4.2l.1.4 10.4 6.4h.2zM142.7 91c.1 0 .2 0 .3-.2v-.2s0-.2-.2-.2L132.5 84h-.3l-.2.2c0 .2 0 .3.2.3l10.3 6.4h.2zM138.7 93c.1 0 .2 0 .3-.2 0-.1 0-.3-.2-.4L128.5 86c-.2 0-.4 0-.5.2v.2c0 .1 0 .2.2.2l10.3 6.4h.2zM134.7 96c.1 0 .2 0 .3-.2 0-.1 0-.3-.2-.4L124.5 89c-.2 0-.4 0-.5.2v.2c0 .1 0 .2.2.2l10.3 6.4h.2zM129.7 99l.3-.2c0-.2 0-.3-.2-.4L119.5 92h-.3l-.2.2c0 .2 0 .3.2.3l10.3 6.4h.2zM124.7 101c.1 0 .2 0 .3-.2v-.2c0-.1 0-.2-.2-.2L114.5 94h-.3l-.2.2v.2c0 .1 0 .2.2.2l10.3 6.4h.2zM120.7 104l.3-.2c0-.2 0-.3-.2-.4L110.5 97h-.3l-.2.2v.2c0 .1 0 .2.2.2l10.3 6.4h.2zM115.7 107c.1 0 .2 0 .3-.2v-.2c0-.1 0-.2-.2-.2l-10.3-6.4h-.3l-.2.3c0 .1 0 .2.2.3l10.3 6.4h.2z" id="Shape" fill="#404852"/><path d="M232.5 178.9c1.8-1 3.4-1.1 4.6-.5l1.9 1c-1.2-.6-2.8-.5-4.6.5-3.6 2-6.6 7.1-6.5 11 0 2 .7 3.4 1.9 4.1l-1.9-1c-1.2-.7-1.9-2.1-1.9-4.1 0-4.1 3-9 6.5-11z" id="Shape" fill="#516B80"/><path d="M234.5 179.9a14.6 14.6 0 0 0-6.5 11.4c0 4.2 3 5.9 6.5 3.8 3.9-2.5 6.3-6.8 6.5-11.4 0-4.2-3-5.9-6.5-3.8z" id="Shape" fill="#36404B"/><path d="M237.1 182.3l6.9 4.1c-3.9-2.3-9.7 8.3-5.9 10.6l-6.9-4.2a3 3 0 0 1-1.2-2.7c0-5.1 5-9.2 7.1-7.8z" id="Shape" fill="#475B6F"/><path d="M241.5 186.6a9.3 9.3 0 0 0-4.5 7.4c0 2.7 2 3.8 4.5 2.4a9.3 9.3 0 0 0 4.5-7.4c0-2.7-2-3.8-4.5-2.4z" id="Shape" fill="#4C83AB"/><path id="Shape" fill="#FFCD40" d="M238 143.6l34.8-20.6 4.2 2.5-34.8 20.5z"/><path id="Shape" fill="#F0C654" d="M239 143l33.7-20 3.3 2-33.7 20z"/><path id="Shape" fill="#EAB339" d="M273 123v4l3-2z"/><path id="Shape" fill="#FFCD40" d="M226 136.6l34.8-20.6 4.2 2.4-34.8 20.6z"/><path id="Shape" fill="#F0C654" d="M227 137l33.7-20 3.3 2-33.7 20z"/><path id="Shape" fill="#EAB339" d="M261 117v4l3-2z"/><path id="Shape" fill="#A15446" d="M306 133l-20 11.5V157l20-11.6z"/><path id="Shape" fill="#B96054" d="M305.3 133.4V145L286 156.2v.8l20-11.6V133z"/><path d="M300.5 147c-.3 0-.5-.2-.5-.5v-8c0-.1 0-.3.2-.4h.6l.2.4v8c0 .3-.2.5-.5.5zM296.5 148c-.3 0-.5-.2-.5-.5v-8c0-.1 0-.3.2-.4h.6l.2.4v8l-.1.4-.4.1zM293.5 150c-.3 0-.5-.2-.5-.5v-8c0-.3.2-.5.5-.5s.5.2.5.4v8.1l-.1.4-.4.1zM290.5 152c-.3 0-.5-.2-.5-.5v-8c0-.1 0-.3.2-.4h.6l.2.4v8l-.1.4-.4.1zM287.5 154l-.4-.1-.1-.4v-8c0-.3.2-.5.5-.5s.5.2.5.5v8c0 .3-.2.5-.5.5zM303.5 145c-.3 0-.5-.2-.5-.5v-8c0-.1 0-.3.2-.4h.6l.2.4v8c0 .3-.2.5-.5.5z" id="Shape" fill="#C85C4E"/><g id="Group" transform="translate(178 122)"><path id="Shape" fill="#525F6B" d="M.3 9.5l10.3-6 31.8 18.7-10.3 6z"/><path id="Shape" fill="#6F828C" d="M32 28.2v8.6L.2 18V9.5z"/><path id="Shape" fill="#404852" d="M34.3 42.6l40-23.2-.1 11.2-40 23.2z"/><path id="Shape" fill="#525F6B" d="M2.6 23.9L42.4.7l31.8 18.7-39.9 23.2z"/><path id="Shape" fill="#617380" d="M34.3 42.6v11.2L2.5 35V24z"/></g><path id="Shape" fill="#525F6B" d="M214 165.6l8-4.6v7.4l-8 4.6zM224 159.6l8-4.6v7.4l-8 4.6zM233 154.6l8-4.6v7.4l-8 4.6zM243 149.6l8-4.6v7.4l-8 4.6z"/><g id="Group" transform="translate(232 93)"><path id="Shape" fill="#404852" d="M32.6 42.6l40.2-23.1v11.2L32.5 53.9z"/><path id="Shape" fill="#525F6B" d="M.5 24L40.7.8l32.1 18.7-40.2 23.1z"/><path id="Shape" fill="#617380" d="M32.6 42.6L32.5 54 .5 35.2V24z"/></g><g id="Group" transform="translate(209 100)"><path id="Shape" fill="#404852" d="M23 36.6l40.3-23v12.2l-12.1 7-.2 11.1-7.7 4.5v-6.8l-4.8-2.7L23 47.7z"/><path id="Shape" fill="#525F6B" d="M.5 23.3L40.7.3l22.6 13.3-40.2 23z"/><path id="Shape" fill="#617380" d="M23 36.6v11L.4 34.5V23.3z"/></g><path d="M235.4 145c-.2 0-.4-.1-.4-.3v-8.4c0-.1.2-.3.4-.3s.3.2.3.3v8.4c0 .2-.1.3-.3.3zM265.4 128c-.2 0-.4-.2-.4-.3v-8.3c0-.1 0-.3.2-.3 0-.1.2-.1.4 0l.1.3v8.3c0 .1-.1.3-.3.3zM260.4 131c-.2 0-.4-.1-.4-.3v-8.3c0-.1 0-.3.2-.3 0-.1.2-.1.4 0l.1.3v8.3c0 .2-.1.3-.3.3zM255.4 134c-.2 0-.4-.2-.4-.3v-8.3c0-.1 0-.3.2-.3 0-.1.2-.1.4 0l.1.3v8.3c0 .1-.1.3-.3.3zM250.4 137h-.3V128h.5l.1.3v8.5l-.3.1zM245.4 140a.4.4 0 0 1-.4-.3v-8.4c0-.2.2-.3.4-.3.1 0 .3.1.3.3v8.4c0 .1-.1.3-.3.3zM240.4 142l-.3-.1-.1-.2v-8.4l.1-.2.3-.1.2.1.1.2v8.4l-.3.3zM270.4 125l-.3-.1-.1-.2v-8.4c0-.2.2-.3.4-.3s.3.1.3.3v8.6l-.3.1zM266 135.6l8-4.6v7.4l-8 4.6zM276 130.6l8-4.6v7.4l-8 4.6zM285 125.6l8-4.6v7.4l-8 4.6zM295 119.6l8-4.6v7.4l-8 4.6z" id="Shape" fill="#525F6B"/><path id="Shape" fill="#738A91" d="M257 118.5l11-6.5v1.5l-11 6.5z"/><path id="Shape" fill="#D3E1EA" d="M238 107.4l11.3-6.4 18.7 10.6-11.3 6.4z"/><path id="Shape" fill="#9BB2BE" d="M257 118.5v1.5l-19-10.5V108z"/><path id="Shape" fill="#C3D6E1" d="M262.5 114l3.5-2-16-9v4z"/><path id="Shape" fill="#828A8E" d="M250 103l-9 5 3.7 2 5.3-3z"/><path id="Shape" fill="#9BB2BE" d="M250.2 107l-5.2 3 5.2 2.8 7.7 4.2 5.1-2.9z"/><path id="Shape" fill="#738A91" d="M245 125.5l11-6.5v1.5l-11 6.5z"/><path id="Shape" fill="#D3E1EA" d="M226 114.4l11.3-6.4 18.7 10.6-11.3 6.4z"/><path id="Shape" fill="#9BB2BE" d="M245 125.5v1.5l-19-10.5V115z"/><path id="Shape" fill="#C3D6E1" d="M249.5 121l3.5-2-16-9v4z"/><path id="Shape" fill="#828A8E" d="M238 110l-9 5 3.7 2 5.3-3z"/><path id="Shape" fill="#9BB2BE" d="M237.2 114l-5.2 3 5.2 2.8 7.7 4.2 5.1-2.9z"/><path id="Shape" fill="#738A91" d="M232 132.5l11-6.5v1.5l-11 6.5z"/><path id="Shape" fill="#D3E1EA" d="M214 121.4l11.3-6.4 18.7 10.6-11.3 6.4z"/><path id="Shape" fill="#9BB2BE" d="M233 132.5v1.5l-19-10.5V122z"/><path id="Shape" fill="#C3D6E1" d="M237.4 128l3.6-2-16-9v4z"/><path id="Shape" fill="#828A8E" d="M225 117l-9 5 3.7 2 5.3-3z"/><path id="Shape" fill="#9BB2BE" d="M225.2 121l-5.2 3 5.2 2.8 7.7 4.2 5.1-2.8z"/><g id="Group" transform="translate(283 102)"><path d="M7 .5C6 0 5 .2 4.4.7A7.9 7.9 0 0 0 .8 7c-.1 1 .3 1.8 1 2.3l10.7 6.1a2.5 2.5 0 0 1-1-2.3A7.9 7.9 0 0 1 15 6.8c.8-.5 1.8-.6 2.6-.2L7 .5z" id="Shape" fill="#737373"/><path d="M15 6.8c2-1.1 3.7-.2 3.7 2a7.9 7.9 0 0 1-3.6 6.3c-2 1.1-3.6.2-3.6-2A7.9 7.9 0 0 1 15 6.7z" id="Shape" fill="#676463"/></g><g id="Group" transform="translate(276 105)"><path d="M7 .6C6.2.2 5.2.3 4.4 1A7.9 7.9 0 0 0 .8 7c0 .9.3 1.8 1 2.3l10.7 6a2.5 2.5 0 0 1-1-2.2A7.8 7.8 0 0 1 15 7c.8-.6 1.7-.7 2.6-.3L7 .7z" id="Shape" fill="#7E7D7D"/><path d="M15.1 7c2-1.2 3.6-.3 3.7 2a7.9 7.9 0 0 1-3.7 6.2c-2 1.2-3.6.3-3.6-2A7.8 7.8 0 0 1 15 7z" id="Shape" fill="#676463"/></g><g id="Group" transform="translate(291 99)"><path d="M.6 2v6.4c0 .5.3 1 .7 1.1 1.2.6 2.5.6 3.6 0 .4-.2.7-.6.7-1V2c0 .4-.3.9-.7 1-1.1.7-2.4.7-3.6 0-.4-.1-.7-.6-.7-1z" id="Shape" fill="#66707A"/><path d="M1.3 1C1 1 .6 1.4.6 2s.3 1 .7 1.1c1.2.6 2.5.6 3.6 0 .5-.2.8-.6.8-1.1 0-.5-.3-1-.8-1a3.8 3.8 0 0 0-3.6 0z" id="Shape" fill="#3D5993"/></g><g id="Group" transform="translate(290 98)"><path d="M.7 2v1c0 .6.5 1.1 1 1.3 1.5.8 3.3.8 4.8 0 .6-.2 1-.7 1-1.3V2c0 .5-.4 1-1 1.3-1.5.7-3.3.7-4.8 0-.5-.3-1-.8-1-1.3z" id="Shape" fill="#79838B"/><path d="M1.8.7c-1.3.7-1.4 1.9 0 2.6 1.5.7 3.3.7 4.8 0 1.3-.8 1.3-2 0-2.6a5.7 5.7 0 0 0-4.8 0z" id="Shape" fill="#8B959D"/></g><g id="Group" transform="translate(197 124)"><path d="M34.5 18.2L5.1.8C6 .1 7.3 0 8.4.5L38 17.9c-1.1-.6-2.4-.4-3.4.3z" id="Shape" fill="#79838B"/><path d="M31.2 29.6L1.8 12.2c-1-.7-1.5-1.9-1.4-3 .2-3.4 2-6.5 4.7-8.4l29.4 17.4c-2.8 1.8-4.5 5-4.7 8.3-.1 1.2.4 2.4 1.4 3v.1z" id="Shape" fill="#79838B"/><path d="M34.5 18.2c2.6-1.6 4.7-.3 4.7 2.7-.1 3.4-1.9 6.5-4.7 8.3-2.6 1.6-4.7.3-4.7-2.7.2-3.4 2-6.5 4.7-8.3z" id="Shape" fill="#617380"/></g><path id="Shape" fill="#FFCD40" d="M78.2 184l-.2 40.6 3.9 2.4.1-40.6z"/><path id="Shape" fill="#F0C654" d="M79.2 185l-.2 39 3.8 2 .2-39z"/><path id="Shape" fill="#EAB339" d="M79 224l3-2v4z"/><path id="Shape" fill="#FFCD40" d="M67.2 177l-.2 40.6 3.8 2.4.2-40.6z"/><path id="Shape" fill="#F0C654" d="M67.2 178l-.2 39 3.8 2 .2-39z"/><path id="Shape" fill="#EAB339" d="M67 218l3-2v4z"/><path id="Shape" fill="#738A91" d="M185.6 198l-11.6-6.3 1.4-.7 11.6 6.3z"/><path id="Shape" fill="#D3E1EA" d="M185 220l-11-6.5V192l11 6.5z"/><path d="M185 197.8l1-.8v21.2l-1 .8v-21.2z" id="Shape" fill="#9BB2BE"/><path id="Shape" fill="#C3D6E1" d="M179 196.1l-4-2.1v19l4-2.1z"/><path id="Shape" fill="#828A8E" d="M175 213l9 5v-4.1l-5.3-2.9z"/><path id="Shape" fill="#9BB2BE" d="M179 210.2l5 2.8v-14.2l-5-2.8z"/><path id="Shape" fill="#738A91" d="M198.6 205l-11.6-6.3 1.4-.7 11.6 6.3z"/><path id="Shape" fill="#D3E1EA" d="M198 227l-11-6.5V199l11 6.5z"/><path d="M198 205.8l1-.8v21.2l-1 .8v-21.2z" id="Shape" fill="#9BB2BE"/><path id="Shape" fill="#C3D6E1" d="M192 203.1l-4-2.1v19l4-2.1z"/><path id="Shape" fill="#828A8E" d="M188 220l9 5v-4.1l-5.3-2.9z"/><path id="Shape" fill="#9BB2BE" d="M191 217.2l5 2.8v-14.2l-5-2.8z"/><path d="M97.7 180.2l-.4-.2c-.1 0-.3.1-.3.3v12.4c0 .2.2.3.4.3.1 0 .3-.1.3-.3v-12.4-.1zM101.7 182.2l-.4-.2c-.1 0-.3.1-.3.3v12.4c0 .2.2.3.4.3s.3-.1.3-.3v-12.4-.1zM105.7 185.2l-.3-.2c-.2 0-.4.1-.4.3v12.3c0 .2 0 .3.2.3 0 .1.2.1.4 0l.1-.3v-12.3-.1zM109.7 187.2l-.3-.2c-.2 0-.4.1-.4.3v12.4c0 .2.2.3.4.3.1 0 .3-.1.3-.3v-12.4-.1zM114.7 190.2l-.3-.2c-.2 0-.4.1-.4.3v12.4c0 .2.2.3.3.3h.3l.1-.3v-12.4-.1zM118.7 193.2c-.1-.2-.3-.2-.4-.2-.2 0-.3.2-.3.3v12.4c0 .2.2.3.4.3s.3-.1.3-.3v-12.4-.1zM123.7 195.2l-.3-.2c-.2 0-.4.1-.4.3v12.4c0 .2.2.3.4.3s.3-.1.3-.3v-12.4-.1zM128.7 198.2l-.3-.2h-.3l-.1.3v12.4c0 .2.2.3.4.3s.3-.1.3-.3v-12.4-.1z" id="Shape" fill="#404852"/><g id="Group" transform="translate(45 201)"><path id="Shape" fill="#8B959D" d="M9.8 11.3v5.6l8.6-1.2v-5.6zM.3 5.9v5.6L9.8 17v-5.6z"/><path d="M9.8 11.3l8.5-1.2s-5.5-2.6-10-5.2A67 67 0 0 1 .8.2L.3 5.9l9.5 5.4z" id="Shape" fill="#79838B"/></g><path d="M52.4 212h-.2-.1l-.1.2v4.6l.3.2c.1 0 .2 0 .2-.2l-.1-4.7zM62.4 213h-.2-.2v.2l.2 3.6c0 .1 0 .2.2.2 0 0 .2 0 .2-.2l-.2-3.7zM60.4 213h-.2-.2v.2l.2 3.6c0 .1 0 .2.2.2 0 0 .2 0 .2-.2l-.2-3.7zM59.4 213h-.2c-.1 0-.2 0-.2.2l.2 3.6c0 .1 0 .2.2.2h.1v-.2l-.1-3.7zM58.4 213h-.2-.2v.2l.2 3.6v.2h.2s.2 0 .2-.2l-.2-3.7zM56.3 213h-.1-.2v.2l.2 3.6v.2H56.5v-.2l-.1-3.7zM55.4 213h-.2-.2v.2l.2 3.6v.2H55.5v-.2l-.1-3.7zM54.4 213h-.2c-.1 0-.2 0-.2.2v4.6l.3.2c.1 0 .2 0 .2-.2l-.1-4.6v-.1zM51.4 211h-.2c-.1 0-.2 0-.2.2l.1 4.6c0 .1 0 .2.2.2h.1v-4.8-.1zM50.4 211.1l-.2-.1H50v4.8l.3.2h.1v-4.8-.1zM48.4 210h-.2c-.1 0-.2 0-.2.2v4.6l.2.2h.2s.1-.2 0-.2v-4.6-.1zM47.4 209h-.2-.2v4.8l.2.2c.2 0 .3 0 .3-.2l-.1-4.6v-.1zM46.4 208.1H46l-.1.1v4.6l.3.2h.1v-4.8-.1z" id="Shape" fill="#C1CFD8"/><g id="Group" transform="translate(45 191)"><path id="Shape" fill="#8B959D" d="M9.8 11.8v5.7l8.6-1.2v-5.7zM.3 6.4V12l9.5 5.5v-5.7z"/><path d="M9.8 11.8l8.5-1.2S12.8 8 8.3 5.4A67 67 0 0 1 .8.6L.3 6.4l9.5 5.4z" id="Shape" fill="#79838B"/></g><path d="M52.4 203h-.2c-.1 0-.2 0-.2.2v4.6l.3.2s.2 0 .2-.2l-.1-4.6v-.1zM62.4 203h-.2-.2v.2l.2 3.6c0 .1 0 .2.2.2 0 0 .2 0 .2-.2l-.2-3.7zM60.4 203h-.2-.2v.2l.2 3.6c0 .1 0 .2.2.2 0 0 .2 0 .2-.2l-.2-3.7zM59.4 203H59l-.1.2.2 3.6c0 .1 0 .2.2.2 0 0 .2 0 .1-.2l-.1-3.7zM58.4 204H58l-.1.2.2 3.6v.2h.2s.2 0 .1-.2l-.1-3.7zM56.4 204h-.2-.2v.2l.2 3.6v.2h.2c.1 0 .2 0 .2-.2l-.2-3.7zM55.4 204h-.2-.2v.2l.2 3.6v.2h.2s.2 0 .2-.2l-.2-3.7zM54.4 203h-.2c-.1 0-.2 0-.2.2l.1 4.6v.1l.2.1s.2 0 .2-.2l-.1-4.6v-.1zM51.4 202.1H51l-.1.1.1 4.6c0 .1 0 .2.2.2h.1v-4.8-.1zM50.4 201.1l-.2-.1H50l-.1.2v4.6l.3.2h.1v-4.8-.1zM48.4 200h-.2c-.1 0-.2 0-.2.2v4.7l.3.1.2-.1-.1-4.7v-.1zM47.4 199h-.2-.1l-.1.2v4.6l.1.2h.2c.1 0 .2 0 .2-.2l-.1-4.6v-.1zM46.4 199.1H46l-.1.1v4.6l.3.2h.1v-4.8-.1z" id="Shape" fill="#C1CFD8"/><g id="Group" transform="translate(44 147)"><path id="Shape" fill="#8B959D" d="M17.7 20.5v10.3l15.7-2.2V18.3zM.4 10.6v10.3l17.3 9.9V20.5z"/><path d="M17.7 20.5l15.7-2.2S23.3 13.5 15 8.8C10.3 6.2 5.7 3.3 1.4 0l-1 10.5 17.3 9.9z" id="Shape" fill="#79838B"/></g><path d="M58.7 166.2c-.1-.2-.3-.2-.4-.2-.2 0-.3.2-.3.3l.2 8.3.1.3c.2.1.3.1.4 0 .2 0 .2-.2.2-.3l-.2-8.3v-.1zM75.6 167.2c0-.1-.1-.2-.3-.2l-.2.1-.1.2.3 7.4.1.2.3.1c.2 0 .3-.2.3-.3l-.3-7.4v-.1zM72.6 167.2c0-.2-.2-.2-.4-.2l-.2.3.3 7.4c0 .2.2.3.4.3.1 0 .3-.1.3-.3l-.3-7.4v-.1zM70.7 167.2l-.4-.2c-.2 0-.3.2-.3.3l.3 7.4.1.2.3.1c.2 0 .3-.2.3-.3l-.3-7.4v-.1zM68.6 168.2c0-.2-.1-.2-.3-.2l-.2.1-.1.2.3 7.4c0 .2.2.3.4.3s.3-.2.3-.3l-.3-7.4v-.1zM65.6 168.2c0-.2-.1-.2-.3-.2l-.2.1-.1.2.3 7.4.1.2.3.1.2-.1.1-.2-.3-7.4v-.1zM63.6 168.2c0-.2-.1-.2-.3-.2l-.2.1-.1.2.3 7.4c0 .2.2.3.4.3l.2-.1.1-.2-.3-7.4v-.1zM60.7 168.2l-.3-.2-.3.1-.1.2.2 8.4v.2l.3.1.3-.1v-8.6l-.1-.1zM55.7 165.2l-.3-.2c-.2 0-.4.2-.4.3l.2 8.4v.2l.3.1.3-.1s.1-.1 0-.2v-8.4l-.1-.1zM52.7 163.2l-.3-.2-.3.1-.1.2.2 8.4c0 .2.1.3.3.3l.3-.1v-8.6l-.1-.1zM50.7 162.2l-.4-.2-.3.3.2 8.4c0 .2.1.3.3.3.2 0 .4-.2.4-.3l-.2-8.4v-.1zM47.7 160.2l-.3-.2-.3.1-.1.2.2 8.4c0 .2.1.3.3.3l.3-.1v-8.6l-.1-.1zM45.7 159.2l-.3-.2c-.2 0-.4.2-.4.3l.2 8.4c0 .2.1.3.3.3l.3-.1v-8.6l-.1-.1z" id="Shape" fill="#C1CFD8"/><path d="M76.5 146c-3.1 0-6.2-.8-8.9-2.3a23 23 0 0 1-11.6-20v-15a8.8 8.8 0 0 1 13-7.5 8.6 8.6 0 0 1 4.5 7.5v15c0 2 1 4 2.8 5 0 0 1.4.2 5.1-1.8l4.7-2.7a8.8 8.8 0 0 1 11.8 3.4c2.3 4.2.9 9.4-3.2 11.8L90 142a28 28 0 0 1-13.5 4z" id="Shape" fill="#555F66"/><path d="M123.7 42c-1 0-1.7-.8-1.7-1.7 0-4.5-.3-9-1-13.3-1.1-10.9-2.3-21.1 2.3-25.2 1.9-1.7 4.4-2.2 7.5-1.5 9.5 2.2 10.8 22.8 10 34.6 0 .5-.2 1-.5 1.2-.4.3-.8.4-1.2.4-.5 0-.9-.2-1.2-.6-.3-.3-.4-.7-.4-1.2.9-14-1.4-29.8-7.4-31.2-2-.5-3.5-.2-4.6.7-3.3 3-2.2 13.3-1.2 22.4.6 4.5 1 9.1 1 13.7 0 1-.7 1.7-1.6 1.7z" id="Shape" fill="#A6C1CE"/><path d="M117.7 46a1.6 1.6 0 0 1-1.7-1.7c0-4.5-.3-9-1-13.3-1.1-10.9-2.3-21 2.3-25.3 1.9-1.6 4.4-2 7.5-1.4 9.5 2.2 10.8 22.8 10 34.7 0 .4-.2.8-.5 1.1-.4.3-.8.4-1.2.4-.5 0-.9-.2-1.2-.6-.3-.3-.4-.7-.4-1.2.9-14-1.4-29.8-7.4-31.2-2-.4-3.5-.2-4.6.7-3.3 3-2.2 13.3-1.2 22.4.6 4.5 1 9.1 1 13.7 0 1-.7 1.7-1.6 1.7z" id="Shape" fill="#C3D6E1"/><g id="Group" transform="translate(105 37)"><path d="M14 .4a3 3 0 0 1 3 .4 9.9 9.9 0 0 1 4.4 7.7c.1 1-.4 2.2-1.3 2.8L7.5 19c.9-.6 1.4-1.7 1.3-2.9-.2-3-1.8-6-4.3-7.7a3 3 0 0 0-3-.3L14 .4z" id="Shape" fill="#737373"/><path d="M4.5 8.3C2 7 0 8.1 0 11c.2 3.1 1.8 6 4.3 7.7 2.4 1.4 4.3.3 4.3-2.6-.1-3-1.7-6-4.2-7.7z" id="Shape" fill="#676463"/></g><g id="Group" transform="translate(113 41)"><path d="M14.7.5a3 3 0 0 1 3 .3 9.8 9.8 0 0 1 4.4 7.7c.1 1.2-.4 2.3-1.2 3-4.3 2.4-8.5 5-12.7 7.5.8-.7 1.3-1.8 1.2-2.9-.1-3.1-1.7-6-4.3-7.7A3 3 0 0 0 2 8.1L14.7.5z" id="Shape" fill="#7E7D7D"/><path d="M5 8.4C2.8 7 .8 8.1.8 11 1 14 2.5 17 5 18.7 7.4 20 9.4 19 9.4 16c-.2-3.1-1.8-6-4.3-7.7z" id="Shape" fill="#676463"/></g><g id="Group" transform="translate(111 33)"><path d="M6.6 2.7v8c0 .6-.4 1-1 1.3-1.3.8-3 .8-4.4 0-.5-.2-.8-.7-.8-1.3v-8c0 .6.3 1.1.8 1.4 1.4.7 3 .7 4.5 0 .5-.3.8-.8.9-1.4z" id="Shape" fill="#66707A"/><path d="M5.6 1.3c1.3.8 1.3 2 0 2.8-1.4.7-3 .7-4.4 0C0 3.3 0 2 1.2 1.3c1.4-.7 3-.7 4.4 0z" id="Shape" fill="#3D5993"/></g><g id="Group" transform="translate(110 32)"><path d="M8.6 2.5V4a2 2 0 0 1-1.2 1.6c-1.9 1-4 1-6 0A2 2 0 0 1 .4 4V2.5a2 2 0 0 0 1.2 1.7c1.8.9 4 .9 5.9 0a2 2 0 0 0 1.2-1.7z" id="Shape" fill="#79838B"/><path d="M7.4.9c1.6.8 1.6 2.4 0 3.3-1.9 1-4 1-6 0-1.6-.9-1.6-2.4 0-3.3 2-1 4.1-1 6 0z" id="Shape" fill="#8B959D"/></g><g id="Group" transform="translate(45 182)"><path id="Shape" fill="#8B959D" d="M9.8 11.3v5.6l8.6-1.2v-5.6zM.3 5.9v5.6L9.8 17v-5.6z"/><path d="M9.8 11.3l8.5-1.2S12.8 7.4 8.3 5A67 67 0 0 1 .8.2L.3 5.9l9.5 5.4z" id="Shape" fill="#79838B"/></g><path d="M52.4 193.1H52l-.1.1v4.6l.3.2h.1v-4.8-.1zM62.4 194h-.2-.2v.2l.2 3.6c0 .1 0 .2.2.2 0 0 .2 0 .2-.2l-.2-3.6v-.1zM60.4 194h-.2-.2v.2l.2 3.7.2.1s.2 0 .2-.2l-.2-3.6v-.1zM59.4 194h-.2c-.1 0-.2 0-.2.2l.2 3.6c0 .1 0 .2.2.2h.1v-.2l-.1-3.6v-.1zM58.4 194h-.2c-.1 0-.2 0-.2.2l.2 3.7.2.1h.1v-.2l-.1-3.6v-.1zM56.3 194h-.1c-.1 0-.2 0-.2.2l.2 3.7.2.1h.1v-.2l-.1-3.6v-.1zM55.4 194h-.2c-.1 0-.2 0-.2.2l.2 3.7.2.1h.1v-.2l-.1-3.7zM54.4 194.1H54l-.1.1v4.6l.3.2c.1 0 .2 0 .2-.2l-.1-4.6v-.1zM51.4 192.1H51l-.1.1.1 4.6c0 .1 0 .2.2.2h.1v-4.8-.1zM50.4 192h-.2-.2v4.8l.1.2H50.4v-4.8-.1zM48.4 191.1H48l-.1.1v4.7l.3.1.2-.1-.1-4.7v-.1zM47.4 190H47l-.1.2v4.6l.3.2s.2 0 .2-.2l-.1-4.6v-.1zM46.4 189h-.2c-.1 0-.2 0-.2.2v4.6l.3.2c.1 0 .2 0 .2-.2l-.1-4.6v-.1z" id="Shape" fill="#C1CFD8"/><g id="Group" transform="translate(45 173)"><path id="Shape" fill="#8B959D" d="M9.8 11.8v5.7l8.6-1.2v-5.7zM.3 6.4V12l9.5 5.4v-5.7z"/><path d="M9.8 11.8l8.5-1.2S12.8 8 8.3 5.4A67 67 0 0 1 .8.6L.3 6.4l9.5 5.4z" id="Shape" fill="#79838B"/></g><path d="M52.4 184h-.2-.1l-.1.2v4.6l.3.2h.1v-4.8-.1zM62.4 184h-.2-.2v.2l.2 3.7.2.1h.1V184.2l-.1-.1zM60.4 184h-.2-.2v.2l.2 3.7.2.1.2-.1-.2-3.7v-.1zM59.4 185h-.2c-.1 0-.2 0-.2.2l.2 3.7.2.1h.1v-.2l-.1-3.6v-.1zM58.4 185h-.2c-.1 0-.2 0-.2.2l.2 3.7.2.1h.1v-.2l-.1-3.6v-.1zM56.4 185h-.2c-.1 0-.2 0-.2.2l.2 3.6c0 .1 0 .2.2.2 0 0 .2 0 .2-.2l-.2-3.6v-.1zM55.4 185h-.2c-.1 0-.2 0-.2.2l.2 3.7.2.1s.2 0 .2-.2l-.2-3.6v-.1zM54.4 185.1H54l-.1.1.1 4.6v.2H54.5v-4.8-.1zM51.4 183.1H51l-.1.1.1 4.6c0 .1 0 .2.2.2h.1v-4.8-.1zM50.4 182h-.2-.1l-.1.2v4.6l.1.2H50.4v-4.8-.1zM48.4 181h-.2-.1l-.1.2v4.6l.2.2h.2s.1-.2 0-.2v-4.6-.1zM47.4 180h-.2-.1l-.1.2v4.6l.1.2h.2s.2 0 .2-.2l-.1-4.6v-.1zM46.4 180h-.2c-.1 0-.2 0-.2.2v4.6l.2.2h.2s.1-.2 0-.2v-4.6-.1z" id="Shape" fill="#C1CFD8"/><path id="Shape" fill="#9FE243" d="M181 245.2L163.7 268l-3.7-1.9 17.5-23.1z"/><path id="Shape" fill="#FFE235" d="M148 249.3l-5.6 7.7-3.4-2.3 5.6-7.7z"/><path id="Shape" fill="#C47B1D" d="M158 245.2L147.4 260l-3.4-2.2 10.6-14.8z"/><path id="Shape" fill="#9FE243" d="M171 247.2L157.3 266l-3.3-2.2 13.7-18.8z"/><path id="Shape" fill="#2F7AAE" d="M161 251.2l-8.7 11.8-3.3-2.2 8.7-11.8z"/><path id="Shape" fill="#FFE235" d="M139 254.7l25.7 14.3.3-.7-25.5-14.3z"/><g id="Group" transform="translate(98 134)"><path d="M0 7.7L6 11l5.4-6.7c.2-.1.5-.2.8 0L6.2.9a1 1 0 0 0-.9.1L.1 7.7z" id="Shape" fill="#5A686F"/><path id="Shape" fill="#808C92" d="M12 21.6l-6-3.3L0 7.7 6 11z"/><path d="M6 11l5.4-6.7c.6-.3 1.2 0 1.2.8l-.7 16.5L6.1 11z" id="Shape" fill="#404852"/></g><path d="M102.2 143l-11-12.2c-.2-.4-.3-.9 0-1.3a4 4 0 0 1 2.6-2.4c.4-.2 1 0 1.3.2l10.9 12.3c-.3-.4-.8-.5-1.3-.3a4 4 0 0 0-2.7 2.4c-.1.4 0 1 .2 1.3z" id="Shape" fill="#55848E"/><path d="M103.4 142c-1 .2-1.6-.5-1.3-1.6.4-1.1 1.3-2 2.5-2.4 1-.2 1.6.5 1.3 1.6-.4 1.1-1.3 2-2.5 2.4z" id="Shape" fill="#55848E"/><path d="M80.4 120l17.2 19.5v-.1a2 2 0 0 0 2 .5c2-.5 3.5-2 4.2-3.9a2 2 0 0 0-.2-2l-17.2-19.5a2 2 0 0 0-2-.4c-2 .5-3.5 2-4.2 3.9a2 2 0 0 0 .2 2z" id="Shape" fill="#273D46"/><path d="M82.5 120c-1.9.3-3-.7-2.3-2.3.7-1.8 2.3-3.1 4.3-3.6 1.9-.4 3 .6 2.3 2.2-.7 1.8-2.3 3.1-4.3 3.6z" id="Shape" fill="#2D5563"/><path d="M67.3 103.6l13.7 15c.3.4.8.5 1.3.3a4 4 0 0 0 2.6-2.3c.2-.4.1-.9-.2-1.2l-13.7-15c-.3-.4-.8-.5-1.3-.3a3.9 3.9 0 0 0-2.6 2.3c-.2.4-.1.9.2 1.2z" id="Shape" fill="#55848E"/><g id="Group" transform="translate(16 31)"><path id="Shape" fill="#5F6D75" d="M74.3 72l51-29.4-28 30.1L63 92.5z"/><path id="Shape" fill="#738691" d="M.5 29.6L51.5.2l73.8 42.4-51 29.4z"/><path id="Shape" fill="#29343A" d="M7.6 29.6L52.5 3.7l66 38.9-44.9 25.9z"/><path id="Shape" fill="#808C92" d="M74.3 72L63 92.5 27.2 72 .4 29.6z"/></g><g id="Group" transform="translate(156 42)"><path d="M8.6 2.6v1.3a2 2 0 0 1-1.2 1.7c-1.8 1-4 1-5.9 0A2 2 0 0 1 .3 3.9V2.5a2 2 0 0 0 1.2 1.7c1.9 1 4 1 6 0a2 2 0 0 0 1.1-1.6z" id="Shape" fill="#79838B"/><path d="M7.4.9c1.6.8 1.7 2.4 0 3.3-1.8 1-4 1-5.9 0-1.6-.9-1.6-2.4 0-3.3 1.9-1 4-1 6 0z" id="Shape" fill="#8B959D"/></g><path d="M180.5 41.8V17.5c0-2.3-.3-6-2.5-6-4 0-11.1 7.1-11.1 14.2-.1 2.4-.6 4.8-1.4 7a19 19 0 0 0-1 5.3v5.2c0 1.7-1.4 2.8-3.2 2.8-1.8 0-3.3-1-3.3-2.8V38c0-2.4.5-4.8 1.3-7.1a19 19 0 0 0 1.1-5.2c0-10.6 10-20.7 17.6-20.7a8 8 0 0 1 6.8 3.6c1.4 2.1 2.2 5.1 2.2 9v28l-6.5-3.8z" id="Shape" fill="#4D6B7D"/><g id="Group" transform="translate(171 50)"><path d="M8.7 2.8v1.4a2 2 0 0 1-1.2 1.6c-1.9 1-4 1-6 0A2 2 0 0 1 .4 4.1V2.8a2 2 0 0 0 1.3 1.7c1.8.9 4 .9 5.9 0a2 2 0 0 0 1.2-1.7z" id="Shape" fill="#79838B"/><path d="M7.5 1.1c1.6 1 1.6 2.4 0 3.4-1.9.9-4 .9-6 0C0 3.5 0 2 1.6 1c2-.9 4.1-.9 6 0z" id="Shape" fill="#8B959D"/></g><path d="M194.6 49.8V25.5c0-2.3-.4-6-2.6-6-4 0-11.1 7.1-11.1 14.2-.1 2.4-.6 4.8-1.4 7-.6 1.7-1 3.5-1 5.3v5.1c0 1.8-1.4 2.9-3.2 2.9-1.8 0-3.3-1-3.3-2.9V46a25 25 0 0 1 1.3-7.1c.6-1.7 1-3.4 1-5.2 0-10.7 10-20.7 17.7-20.7a8 8 0 0 1 6.8 3.5c1.4 2.2 2.2 5.2 2.2 9v28l-6.4-3.7z" id="Shape" fill="#5E7989"/><g id="Group" transform="translate(185 58)"><path d="M8.7 3v1.4a2 2 0 0 1-1.2 1.7c-1.8.9-4 .9-5.9 0A2 2 0 0 1 .4 4.4V3a2 2 0 0 0 1.2 1.7c1.9.9 4 .9 6 0A2 2 0 0 0 8.6 3z" id="Shape" fill="#79838B"/><path d="M7.5 1.4c1.6.8 1.7 2.4 0 3.3-1.8.9-4 .9-5.9 0C0 3.8 0 2.3 1.6 1.4c1.9-1 4-1 6 0z" id="Shape" fill="#8B959D"/></g><path d="M208.5 57.8V33.5c0-2.2-.3-6-2.5-6-4 0-11.1 7.1-11.1 14.2a24 24 0 0 1-1.3 7c-.7 1.8-1 3.5-1.1 5.3v5.2c0 1.7-1.4 2.8-3.2 2.8-1.8 0-3.3-1-3.3-2.8V54c0-2.4.5-4.8 1.3-7.1a19 19 0 0 0 1.1-5.2c0-10.7 10-20.7 17.6-20.7a8 8 0 0 1 6.8 3.5c1.4 2.2 2.2 5.2 2.2 9v28l-6.5-3.7z" id="Shape" fill="#6B8493"/><path id="Shape" fill="#313A40" d="M63.6 250.7L59 252l44.1-58 4.9 1z"/><path d="M66.8 254.3a5 5 0 0 1 2.3-3.3l-6.6 3.8a5 5 0 0 0-2.3 3.4c-1.3 5.5 3.1 13.7 8.2 16.6 2.4 1.4 4.5 1.5 6 .6l6.6-3.8c-6 3.5-16-9-14.2-17.3z" id="Shape" fill="#989897"/><path id="Shape" fill="#A6A6A6" d="M65 258l5.7-3 6.8 9.5.5 5.9-5 2.6z"/><path d="M64.6 267.6c1 1.8 2.4 3.4 4.2 4.5h.2c3.3 2 5.9.5 6-3 0-2-.6-4-1.6-5.7-1-1.8-2.4-3.4-4.2-4.5H69c-3.2-2-5.9-.5-6 3 0 2 .6 4 1.6 5.8z" id="Shape" fill="#DBDBDB"/><path d="M64.5 248l-6.5 4c.3-.1.8.2 1 .5l1.5 1.5 6.5-4c-1-1-1.8-2.3-2.5-2zM77.3 279.6l-1.3-3 6.5-3.6 1.3 3c.3.6.2 1.1 0 1.3l-6.6 3.7c.3-.2.4-.7.1-1.4z" id="Shape" fill="#A6A6A6"/><path d="M67.4 248.8L61 253a5 5 0 0 1 4.6-.4l6.4-4.2a5 5 0 0 0-4.6.4z" id="Shape" fill="#B8B8B8"/><path d="M65.6 252.6l6.4-4.2a5 5 0 0 0-4.6.4L61 253c1.4-.8 3-1 4.6-.4zM76 277l6.9-3.9c1-.9 1.6-2 1.9-3.4l.2-1.7-6.9 3.9-.2 1.7c-.3 1.3-1 2.5-1.9 3.4z" id="Shape" fill="#B8B8B8"/><path d="M76 277l6.9-3.9c1-1 1.6-2 1.9-3.4l.2-1.7-6.9 3.9-.2 1.7c-.3 1.3-1 2.5-1.9 3.4zM76.6 264l6.4-3.8c-1-2.7-2.6-5.1-4.6-7.2l-6.4 3.8c2 2 3.5 4.5 4.6 7.2z" id="Shape" fill="#B8B8B8"/><g id="Group" transform="translate(72 253)" fill="#B8B8B8"><path d="M5.3 11.5l6.9-4-1-2-6.9 3.9 1 2.1z" id="Shape"/><path d="M4.3 9.4l6.8-4c-1-2-2.3-3.8-3.9-5.4L.4 4c1.5 1.6 2.9 3.4 4 5.4z" id="Shape"/></g><path d="M73.3 246c.3 0 .6 0 .8.2l3.9 2.7-6.3 4.1-4-2.7a.7.7 0 0 0-.7 0l6.3-4.2z" id="Shape" fill="#DBDBDB"/><path d="M78.2 249.1l-.2-.1-7 4h.2c1.2 1 .8 2.4.8 4l7-4c0-1.7.3-3-.8-3.9z" id="Shape" fill="#A6A6A6"/><path d="M81.2 271l-1.2-5.2 6.8-3.8 1.2 5.2c0 .4 0 .9-.3 1l-6.8 3.8c.2-.1.4-.5.3-1z" id="Shape" fill="#DBDBDB"/><path d="M57.4 252c.2-.3.6-.4 1-.2l.3.3 1.5 1.5c1.4-1.3 3.3-1.7 5.6-1v-2c0-.5.5-.8 1-.4l4.1 2.5c.6.4 1 1 1 1.8v2.2c2 2 3.5 4.6 4.6 7.3l2.1.5.3.1c.5.3.8.8 1 1.4l1 5.2c.2.7-.1 1.2-.6 1l-2.3-.5c0 .6-.1 1.1-.3 1.7a6.4 6.4 0 0 1-1.7 3.3l1.3 3.1c.3.8.2 1.4-.3 1.5l-3.3.7-.6-.1c-.4-.3-.7-.6-.8-1l-1.3-3-3-1.2a15.8 15.8 0 0 1-3-2.3l-1.2 1.2h-.9l-.6-.6-3.2-4.8c-.4-.7-.5-1.5-.1-1.8l1.1-1c-1.2-2.6-2-5.4-2-8.3l-1.5-1.6a2 2 0 0 1-.6-1.9l1.4-3.5zm8.8 21.6c.6.5 1.2 1 1.9 1.3 3.9 2.3 7.3 1.2 8.2-2.7.4-2.7 0-5.5-1-8a19.4 19.4 0 0 0-7.2-8.8c-4-2.3-7.3-1.1-8.2 2.8-1 4.6 1.8 11.5 6.2 15.3z" id="Shape" fill="#DBDBDB"/><path d="M80.4 266l6.6-3.9c-.4-1.7-1.7-1.7-3.4-2.1l-6.6 3.9c2 .5 2.2.4 2.8 1 .3.3.5.7.6 1.1z" id="Shape" fill="#A6A6A6"/><path id="Shape" fill="#313A40" d="M83.6 277.7L78 281l51.3-42 13.7-8z"/><path d="M118 238l12.7-7.5c.2 0 .3-.3.3-.5l-12.7 7.5c0 .2-.1.4-.3.5z" id="Shape" fill="#848484"/><path d="M111 197h.5l2.5 1-13 7-2.5-1H98l13-7z" id="Shape" fill="#A6A6A6"/><path d="M118.3 235.5v3c0 .2-.1.4-.3.5l12.7-7.5.2-.6.1-2.9-12.7 7.5z" id="Shape" fill="#848484"/><path d="M113.9 186c.7-.4 1.7 1.3 3.1 3.3l-12.8 7.7c-1.4-1.7-2.4-3.6-3.2-3.2l12.9-7.7zM106.8 199.5l12.6-7.5c-2.3 1.3-3.7 4.1-3.8 8.2-.4 13.7 14 29.4 22.4 24.4l-12.6 7.5c-8.2 4.9-22.8-10.7-22.4-24.5 0-4 1.5-6.8 3.8-8.1z" id="Shape" fill="#989897"/><path d="M129.5 237.6l-1.5-3.1 12.3-7.5 1.5 3.2c.3.6.3 1.1 0 1.3l-12.4 7.5c.3-.2.4-.8 0-1.4z" id="Shape" fill="#848484"/><path d="M109 195l13-7c-1.4 0-2.7.4-4 1l-13 7c1.2-.6 2.5-1 4-1z" id="Shape" fill="#A6A6A6"/><g id="Group" transform="translate(128 223)" fill="#929292"><path d="M.5 12l12.7-7.6c1.4-1 2.4-2.3 3-3.9L3.6 8.2c-.7 1.6-1.7 3-3 3.9z" id="Shape"/><path d="M.5 12l12.7-7.6c1.4-1 2.4-2.3 3-3.9L3.6 8.2c-.6 1.6-1.7 3-3 3.9z" id="Shape"/></g><path d="M121.1 184h.4l3.5.7-13.1 7.3-3.5-.7h-.4l13.1-7.2z" id="Shape" fill="#C5C5C5"/><path d="M126.3 185.3a2 2 0 0 0-1.2-1.3l-13.1 7.6c.6.2 1 .7 1.2 1.4l.7 3 13.1-7.6-.7-3z" id="Shape" fill="#848484"/><path d="M134.3 232.6l.7-3.5 13-7.1-.8 3.5c0 .2 0 .3-.2.4l-13 7.1.3-.4z" id="Shape" fill="#A6A6A6"/><path d="M132 225.4l12.9-7.4c2 1.7 2.9 2.1 3 3.1v.1c.1.1.1.3 0 .4l-12.8 7.4v-.4c-.2-1-1-1.5-3.1-3.2z" id="Shape" fill="#848484"/><path d="M126.4 189c2 .9 4 2 5.6 3.6l-12.4 7.4a21.4 21.4 0 0 0-5.6-3.5l12.4-7.5z" id="Shape" fill="#A6A6A6"/><path d="M145.2 211l-13.2 7.2a23.5 23.5 0 0 1 .8 6.8l13.2-7.2v-.2c0-2.2-.2-4.5-.8-6.6z" id="Shape" fill="#929292"/><path d="M141 201.8l-.3-.5c-.9-1.5-1.9-3-3-4.3l-12.7 7.3 3 4.3.2.5 1 1.9 12.8-7.3-1-1.9z" id="Shape" fill="#A6A6A6"/><path d="M133.7 190l.6.1 3.7 3.7-12.7 7.2c-2.8-2.9-3.7-4-4.3-3.7l12.7-7.2z" id="Shape" fill="#C5C5C5"/><path d="M125.9 203v-.3-.1-.3-.1l-.1-.4-.3-.4 13-7.4a1.9 1.9 0 0 1 .5.8v.8l-1 2-13 7.4.9-2z" id="Shape" fill="#7C7C7C"/><path d="M133.8 216.9l-1.8-4.6 13.1-7.3 1.8 4.6c.2.5.1 1-.2 1.1l-13.1 7.3c.3-.2.3-.6.2-1.1z" id="Shape" fill="#C5C5C5"/><path d="M132.1 211.7l.2.3 12.7-7-.2-.3c-.2-.3-.6-.7-1-.7h-2l-12.8 7c2 0 2.2-.2 2.7.2l.2.2.2.3z" id="Shape" fill="#848484"/><path id="Shape" fill="#A6A6A6" d="M110 203.5l8.8-4.5 10.5 14.3.7 8.7-7.7 4z"/><path d="M109.4 219.4c1.5 2.9 3.7 5.3 6.3 7.1l.3.2c4.9 3 8.8.7 9-5 0-3.2-.9-6.3-2.4-9.1a19 19 0 0 0-6.3-7.1l-.3-.2c-4.9-3-8.8-.7-9 5 0 3.2.9 6.3 2.4 9.1z" id="Shape" fill="#DBDBDB"/><path d="M100.2 205.9v-.2c0-2 .4-3.8 1.1-5.6l-2-2.6c-.4-.4-.5-1-.3-1.6l2-2.4c.1-.2.4-.2.7 0 .2 0 .3.2.5.4l2 2.5c1.3-1 2.8-1.4 4.4-1.5l-.7-3c-.1-.5.1-1 .6-.9l3.4.7.3.1c.4.3.7.7.8 1.2l.7 3c.9.3 1.7.7 2.4 1.1l.5.3c1 .7 2 1.3 2.9 2.1l.8-2c.2-.3.5-.4.9-.2l.3.3 3.3 3.5c.5.4.7 1 .5 1.6l-.9 2a38.4 38.4 0 0 1 4.3 6.9l2-.1.5.1c.3.2.6.6.8 1l1.6 4.6c.3.7.1 1.2-.3 1.2l-2.1.1a25.5 25.5 0 0 1 .7 7l2.4 1.9c.5.4.7 1 .7 1.6l-.7 3.6c-.1.4-.5.6-1 .3l-.1-.1-2.4-2a8.6 8.6 0 0 1-3 3.8l1.5 3.1c.3.6.3 1.3-.1 1.4l-2.9.9-.5-.1a2 2 0 0 1-.7-.8l-1.6-3.2c-1.8 0-3.6-.4-5.3-1.1v2.9c0 .5-.5.8-1 .5l-3.5-2.3a2 2 0 0 1-1-1.5l.2-3a32 32 0 0 1-5.2-5.3l-1.7 1.3c-.2.2-.5.1-.7 0a2 2 0 0 1-.6-.6l-2.7-4.3c-.3-.6-.4-1.3 0-1.5l1.7-1.2a35 35 0 0 1-2.7-7.2l-2.5-1-.1-.1a2 2 0 0 1-.9-1.4l-.5-4.4c0-.6.3-1 .8-.7l2.4.9zm6.3 14.4c2.1 4.1 5.3 7.6 9.1 10.1l.4.3c7.2 4.1 13 1 13.2-7.1 0-4.6-1.2-9-3.5-13a27.4 27.4 0 0 0-9.2-10l-.4-.3c-7.2-4.2-13-1-13.2 7 0 4.6 1.3 9 3.6 13z" id="Shape" fill="#DBDBDB"/><path d="M116 184.3l-12 7c4.7-2.7 10.6-.8 15.2 2.2 16.3 10.7 23.7 37.9 12.2 44.5l12-7c3.4-2 5.6-6.2 5.6-12.2 0-19.6-20.9-41.5-33-34.5z" id="Shape" fill="#313A40"/><g id="Group" transform="translate(111 210)"><path id="Shape" fill="#7B9BA7" d="M5.4 5l1.8-1v6.3l-1.8 1.1z"/><path id="Shape" fill="#85A9B7" d="M0 1.8l1.8-1L7.2 4 5.4 5z"/><path id="Shape" fill="#5F767E" d="M5.4 5v6.4L0 8.2V1.8z"/></g><g id="Group" opacity=".3" style="mix-blend-mode:multiply" transform="translate(66 35)" fill="#0B1114"><path id="Shape" d="M3 .2L.5 51.6l23.5 14 44.7-26.2z"/></g><g id="Group" transform="translate(231 167)"><path id="Shape" fill="#5A666F" d="M48 89.6L1 62l21-38.6 24.3 14z"/><path id="Shape" fill="#738591" d="M46.2 37.5L22 23.5 62.9.5l24.2 14z"/><path id="Shape" fill="#6B7C85" d="M87.1 14.5L112.7 53 48 89.6l-1.8-52.1z"/></g><path d="M275 275l.3-3.3h.8c2.6-4 9.7-6.3 17.8-5.5 8.1.8 14.6 4.5 16.4 9h.7l-.3 2.8v.4c-.9 5.5-8.6 9.4-18.3 8.5-9.6-1-17.5-6.5-17.3-12h-.1z" id="Shape" fill="#FFB522"/><ellipse id="Oval" fill="#FFD03B" transform="rotate(-84.3 293.5 274)" cx="293.5" cy="274" rx="10.5" ry="18"/><ellipse id="Oval" fill="#FFF66E" transform="rotate(-84.3 293.5 273.5)" cx="293.5" cy="273.5" rx="8.5" ry="14.5"/><path d="M329 309v-3.2h.7c2.1-4.3 9-7.6 17.1-7.8 8.2-.2 15.2 2.8 17.5 7h.7v3.3c-.2 5.6-7.5 10.5-17.2 10.7-9.8.2-18.3-4.3-18.7-10h-.1z" id="Shape" fill="#FFB522"/><ellipse id="Oval" fill="#FFD03B" transform="rotate(-1.2 347 305.5)" cx="347" cy="305.5" rx="18" ry="10.5"/><ellipse id="Oval" fill="#FFF66E" transform="rotate(-1.2 346.5 305.5)" cx="346.5" cy="305.5" rx="14.5" ry="8.5"/><path d="M284 197c-5 0-9-4-9-9v-1.7c0-5-4-9-9-9h-1c-5 0-9-4.1-9-9.2 0-5 4-9.1 9-9.1h1c15 0 27 12.2 27 27.3v1.6c0 5-4 9.1-9 9.1z" id="Shape" fill="#505C64"/><g id="Group" opacity=".3" style="mix-blend-mode:multiply" transform="translate(409 263)" fill="#231F20"><path d="M13.4 11.3C32 14.1 42.6 16 46.8 20.7c5 5.4 10.9 7.5 14.9 6.5 7.4-1.9 7.4-4.8 5.3-10.6C63.3 6.8 47.3 1.2 30 .8 8 .4 1.6 2.4.4 4.8c-2.3 4.6 9.4 6 13 6.5z" id="Shape"/></g><path d="M477 205s-.8 3.4-17.7 4c-8 .3-16.2-1.3-28-2.5-7.3-.8-.2 4.5-.2 4.5l-2.3-24.6 6.6-51.4 25.3 3.2L477 205z" id="Shape" fill="#282827"/><path d="M402.4 163.9c.3.8.3 1.7.2 2.6 0 0 1 1.6 2 1.5 6.1-.3 19.2.6 29.1-3 6-2.2 18-19.6 18-19.6s3-1.6-.3-8.1c-2.5-4.8-5.5-8.5-9.4-4.8-2.4 2.4-11.7 19.1-15 21-6.2 3.4-24 5-24 5s-1.8.3-.6 5.4z" id="Shape" fill="#141413"/><path d="M458.3 272a7 7 0 0 0 .3 5l1.6 1.4c1.4 1.3 5.7 8.4 9.6 8.6 4.2.2 4.5-3.2 4-5.4-.2-1-5.1-12.6-5.1-12.6l-10.4 3z" id="Shape" fill="#282827"/><path d="M428.4 257s-2 3.5-3.3 4.2c-2.8 1.2-11 3.7-11.8 4a2 2 0 0 0-1.3 1.7c0 .3 0 .6.3.9.8 1.2 2.5 1.6 4 2 4.2 1 16.5-1.7 16.9-2 0 0 1.2-.3 1.5.3v1.1l4.5-1.4c.4-1 .7-2.1.8-3.2l-.2-6-11.4-1.6z" id="Shape" fill="#231F20"/><path d="M412.3 266.5c1 1.2 2.6 2 4.2 2.2 5 1 17-1.9 17-1.9 1-.1 1.4.3 1.5.9v.8l-1.4-.9s-11.2 2.9-16.2 2.3c-1.6-.2-4.2-1.1-5.2-2.6-.2-.4-.3-.9-.1-1.3l.2.5z" id="Shape" fill="#282827"/><path d="M428 186l-1.5 71.7c0 2.4-1.6 3.1-1.5 3.4.7 4 13.8 5.2 15.1 2.2l4.9-77-17-.3z" id="Shape" fill="#141413"/><path d="M440 186l1.7 20.2 15.6 66c.2 1.4 1 1.8 2.2 2.2 7.2 1.7 10.1-.8 10.1-.8 1-.4 1.5-1.4 1.4-2.4l-10.4-83.5L440 186z" id="Shape" fill="#383736"/><path d="M466 135.2a42 42 0 0 0-15.2-5.1 82 82 0 0 0-11.5.5s-10.8 1.8-12.3 8.9c-.1.7-3.2 12.5 2.2 48.3.6 3.5 7.5 5 15.7 3.8 6.7-1 17-5 17-5s.6-.5 0-2.7a76.6 76.6 0 0 1-1.5-19.2c.5-8.3 5.6-29.5 5.6-29.5z" id="Shape" fill="#F4F4F4"/><path d="M450.2 113c-1.4.3-2.3 1.5-2.2 2.8l1.2 4.3c.2.5.8.9 1.4.9 1.4 0 1.7-1.3 2-2.6l.3-2.1c.3-1.6-.4-3.7-2.7-3.2z" id="Shape" fill="#FFE8D9"/><path d="M438.7 144.4c.2-.4.2-.9.1-1.3l-.2-1.7 2.4-3.4 1 .3.5 4-1.2 1.4c-.3.3-.3 1.7-.3 2.2 0 0-.4 24 2 33.8.1.6-3 9.3-3 9.3s-4.8-6.3-4.9-8.3c-.9-17 3.6-36.3 3.6-36.3z" id="Shape" fill="#A52619"/><path d="M442 139.6c4.5 4.5 7-3 10-6.4l-1.2-14.2-11.8 3.5.6 7.3 2.3 9.8z" id="Shape" fill="#DDBCA6"/><path d="M441.9 138c.2.6.1 1.2-.3 1.7l-2.5 3c-.8.9-1.1-.2-1.1-1.2l.4-7c.6-4.2 1.5-3.4 1.5-3.4l.3.9c.2 1.5 1.4 5 1.7 6z" id="Shape" fill="#F4F4F4"/><path d="M441.2 107l8.8 1-1.5 16.4a6.5 6.5 0 0 1-1.6 3.6c-.8.7-1.8 1.3-2.8 1.8 0 0-6 2.2-9 .7-1.4-.7-1.7-2.4-2-3.5-.4-1.9-.6-3.8-.7-5.8l-.4-8 .2-6.2h9z" id="Shape" fill="#E8C5AC"/><path d="M433.2 104.1c-1.6 2-1.2 4-1 7 0 1.2.3 2.1.3 2.2l.1-2.8c.1-3.2 2-2.7 3.3-2.5l5.7 1.4s-.7-2.2-.3-2c1.3.7 2.3 1.9 2.9 3.3.8 2.3 1 4.8.9 7.2l-.2 1.5c0 .7-.2 1.3 0 1.3.8-.1 1.5-.7 1.8-1.4.6-1.1 1.8-1.7 3-1.4 1.6.4 0 4.4-.2 4.6v1.2c0 .8.8 3 1.3 2l3.1-6.2c6-10.9-1.6-22.3-13.5-18.9-2.5.9-5 2-7.2 3.5z" id="Shape" fill="#332107"/><path d="M450.6 117.1c-1.2-.4-2.5.3-3 1.4l-1.6 3.3s0 1.4.7 1.8c1.1.6 1.3.5 2.5-.1.7-.5 1.4-1 2-1.7 1-1.4 1.4-4.1-.6-4.7z" id="Shape" fill="#E8C5AC"/><path d="M451 129c0 .8-.2 1.6-.5 2.4-2.1 3.9-8.2 6.3-8.2 6.3-.4 0-.8.3-1 .6l-.3 1.2.7 4.6c.1 1.1.7 1 1.2.6 0 0 5-3.8 6.3-5 3.3-3 3-5.2 2.4-9.3-.2-1.2-.6-1.4-.6-1.4z" id="Shape" fill="#F4F4F4"/><path d="M403.5 158.2s-1.2-.5-1.7.1c-.4.6-1.2 2.1-.6 5.6.2 1 .6 2 1.2 2.8.2.5 1.1 1.5 1.7 1.3.5-.2 1-.5 1.4-1.7 1-2.6.2-5.9-.3-6.5l-1.7-1.6z" id="Shape" fill="#48819B"/><path id="Shape" fill="#E8C5AC" d="M406 164.9l-5 .1.2-6h2.8z"/><path d="M402 158s2 .1 2.5 4.2c.2 1.6.2 3.3-.3 4.8-.2.5-.5.9-1 1l1.6-.2s1.2-1 1.2-4.2c0-4.6-2.7-5.6-2.7-5.6H402z" id="Shape" fill="#63A3C6"/><path d="M402 159.5c-.5-1-1-2-4.5-3.5 0 .3-.3.6-.6.6-1.5.3-2.6 1.4-3.7 2.3-.5.6 0 .3.2.3 2-.3 2.1-.5 2.3 0 .7 1.3 2.3 3.2 4 2.7 1.7-.4 2.6-1.4 2.2-2.4z" id="Shape" fill="#E8C5AC"/><path d="M476 204l-7.2-18.5-1-35.9-.6-14.5c-2.9-2.1-9.8-4.1-9.8-4.1a57 57 0 0 1-4.7 10.2c-1.3 2-2.7 31.4-2.7 53l1.6 11.8c.3 7 3 6.4 4.3 6.8 1.5.6 7.3-.3 7.3-.3 8.3-1.3 10.3-5.2 12.8-8.5zM433 145c3-7.6 4.7-12.4 6-14-2 0-4 .4-5.8 1.1 0 0-4.2 2-5.6 5.2-2 4.7-2 9-3.2 15.3-3.9 19.2-1.9 47.8-1.9 47.8 0 1.4 0 3.2 1.5 4.5 1.8 1.2 3.7 2.2 5.7 3.1 0 0-4.4-42.6 3.4-63z" id="Shape" fill="#282827"/><path d="M438.2 133l.8-2-1 .5c-1.3.7-3.6 3.4-3.6 3.4l-3.7 5c-.4 1.1-1.5 1.8-.7 3.7l1.3 3.7-2.4 1.5c-1.1.8-2 2.3-1.9 5.3l1.7 16.9s2.1-19.5 3.4-23.5a77 77 0 0 1 6-14.5zM456.7 131l1 .3s1.4.5 2.1 2.8c.2 1.1.2 2.3.2 3.4l-2.2 7.8c-.4 1.7-1 2.2-2.3 2.3L452 149l2.3 1.8c1 .7 1.7 1.1.4 4.3l-4.3 17.9s-1.4-18.3 1-27.1a97 97 0 0 1 5.3-14.9z" id="Shape" fill="#7A797A"/><path d="M466.5 137c6.3.6 6 15.2 6 15.2s3.2 21.4.1 24.2c-3.6 3.2-26.2 4.4-33.7 5.6-4 .6-.6-6.2-.6-6.2.1-1 28.5-4 27.7-6.1a69.6 69.6 0 0 1-3.2-20.4c.6-5.3-1.8-12.8 3.7-12.3z" id="Shape" fill="#EDCFBC"/><path d="M438.3 180c-1.8.4-3.6-1.9-4-3.6-.2-.6-3.7-.2-5.2-.8-.5-.1-.9-.5-1-1-.2-.5 0-1.1.3-1.5.2-.3 5.7.1 7 .2 4.6.1 5.2 1.9 5.5 3.6.4 1.8-.8 2.6-2.6 3z" id="Shape" fill="#EDCFBC"/><path d="M439 181.6l-.4-2.3-3.8-4.3s-.9.6-3.8 1.1l-5 1c-2 .3-3.2.5-3 1a5 5 0 0 0 1.7 2l2.2 2c1.9 1.3 8 1.1 12.1-.5z" id="Shape" fill="#EDCFBC"/><path d="M442.2 184c1.8.2 28.4-2.8 32-4 3-1.2 2.8-4.1 2.8-7.9-.2-10.8-3.7-29-3.7-29-.7-3.6-3.5-9.8-8-7.7-4.4 2-3.8 16-3.8 17.2 0 3.2 3.3 17.5 3.3 17.5l-25 4s-3 9.3 2.4 9.9z" id="Shape" fill="#383736"/><path d="M412.4 148.3c.7.1 1.2.6 1.4 1.2l8.2 27-.3.6c0 .2-.7.9-1 .9l-17.2-6c-.6-.2-1.1-.7-1.3-1.3l-9.2-26.4c.5-.5 1.3-1.4 1.7-1.3l17.7 5.3z" id="Shape" fill="#AEAFAF"/><path d="M411.4 149.3c.7.1 1.2.6 1.4 1.2l8.2 26.7c0 .2 0 .4-.2.6-.1.2-.3.2-.6.2l-17.6-5.3c-.7-.1-1.2-.6-1.4-1.2l-8.2-26.7c0-.2 0-.4.2-.6.1-.2.3-.2.6-.2l17.6 5.3z" id="Shape" fill="#7A7C7C"/><path d="M402.8 160.7l-.6-.7c-.6-.6-1.5-1-2.3-.7l-1.6.3c-.7.2-1.5.2-2.2 0l-1.4-.6s-3.6.3-2.5 2.5c.3.5.7.9 1.2 1.2.3 1 1.1 2.6 1.6 3.7 1 2.5 4.5 1.3 4.5 1.3l2.3-.5c2.3-1.8 3-4.5 1-6.5z" id="Shape" fill="#E8C5AC"/></g></g></g></g></svg>