<?xml version="1.0" encoding="UTF-8"?><svg width="1016" height="460" xmlns="http://www.w3.org/2000/svg"><!--Generator: Sketch 50.2 (55047) - http://www.bohemiancoding.com/sketch--><g id="Page-1" fill="none" fill-rule="evenodd"><g id="06-系统管理" transform="translate(-293 -198)"><g id="Group-6" transform="translate(292 197)"><g id="Group-5" transform="translate(558 77)" font-family="PingFang-SC-Semibold, PingFang SC" font-weight="500"><text id="anagement" font-size="60" fill="#F2F2F2"><tspan x="143" y="164">anagement</tspan></text><text id="acro" font-size="60" fill="#F2F2F2"><tspan x="143" y="111">acro</tspan></text><text id="M" font-size="160" fill="#E1E1E1"><tspan x="0" y="170">M</tspan></text></g><text id="抛弃传统概念-采用简便易于操作的-全局系" font-family="PingFang-SC-Medium, PingFang SC" font-size="20" font-weight="400" fill="#454545"><tspan x="569" y="291">抛弃传统概念 采用简便易于操作的 全局系统设置</tspan> <tspan x="569" y="331">轻轻松松几分钟 便可管理整个企业资源计划</tspan></text><g id="资源-7" fill-rule="nonzero"><path d="M1.1 361.8c1.3 6.2 10.8 11.5 16 14.7L155 455.3s16.2 9.5 32.4 2.4l302-174s12.3-5.9 9.3-17c-1.6-2.1-3.7-4-6-5.3l-144.8-84.6s-11.7-8.2-23.6-1.5L10.7 349.2a34.3 34.3 0 0 0-6.6 4.5c-2.1 2.6-3.5 5.4-3 8.1z" id="Shape" fill="#8380B7" style="mix-blend-mode:multiply"/><path d="M11.8 330c1.2 5.8 10.3 11 15.4 14L159 419.3s15.5 9.1 31 2.3l289-166.5s11.9-5.6 9-16.3c-1.6-2-3.6-3.7-5.8-5l-138.6-81s-11.2-7.9-22.6-1.5L21 317.8a32.2 32.2 0 0 0-6.3 4.4c-2 2.4-3.4 5.2-2.9 7.7z" id="Shape" fill="#ECF7FF"/><path d="M479.8 238l-17.2-10c-4.1 1.5-13.7 5.2-17.4 6a15 15 0 0 1-10.8-2.2l-90.2-53.5a5.7 5.7 0 0 1-1-7.7l7.6-8-9.7-5.8h-.2c-3-2-6.6-3-10.3-3.2-2.5 0-5 .7-7.3 2l-300 166.3-.2.2c-1.8 1-3.5 2-5 3.4a3.9 3.9 0 0 0-1.7 3.5c.5 3.7 8.8 8.3 12.3 10.4l.8.5 131.9 75.4c5 2.7 10.6 4.1 16.3 4.2 3.5 0 7-.6 10.2-2l289-166.4h.2c.3-.2 7-3.6 7.3-7.3.2-2.8-3-4.8-4.6-5.9z" id="Shape" fill="#FFBBC6"/><path d="M429.6 218.7c-.4.7-1 1-1.6.7l-57.1-34c-.5-.5-.6-1.2-.2-1.7.4-.7 1-1 1.6-.7l57.1 34c.5.4.6 1.2.2 1.7z" id="Shape" fill="#C2DCFA"/><path d="M129.2 385c-.4.7-1.1 1-1.6.8l-57.2-34c-.5-.5-.5-1.2-.1-1.7.4-.7 1-1 1.5-.7l57.2 34c.5.4.6 1.2.2 1.7z" id="Shape" fill="#FFF"/><path d="M367.2 179.6c0 1-1.5 2-3.4 2-2 0-3.5-1-3.5-2 0-1.1 1.6-2.1 3.5-2.1s3.4 1 3.4 2zM159 419.4L27.2 344c-5-3-14.2-8.1-15.4-14-.5-2.6.9-5.3 2.9-7.8-3.2 2.8-6.3 6.8-6.2 11.7 0 6.4-2.5 16.1 10 23.4L155 436a47.4 47.4 0 0 0 20.9 6.4v-18.1a41 41 0 0 1-17-4.8z" id="Shape" fill="#C2DCFA"/><path d="M488 239c2.9 10.6-9 16.2-9 16.2L190 421.7c-4.4 2-9.2 2.8-14 2.5v18.1c6.5.4 13-1.2 18.4-4.6l287.4-164.3s8.3-4.7 8.3-17.9c.1-7.3 1-12.2-2.1-16.6zM105.7 396.4c-.8-1-2-1.5-2.7-1-.7.5-.7 1.8 0 2.8.8 1 2 1.6 2.7 1 .7-.5.7-1.7 0-2.8zM50 365c-.7.5-.8 1.8 0 2.8.8 1 1.9 1.5 2.6 1 .8-.5.8-1.7 0-2.8-.7-1-1.9-1.5-2.6-1zm6.3 6.8L98.6 396v-4l-42.3-24.3v4z" id="Shape" fill="#ADD0F2"/><path d="M141.3 55.3A23 23 0 0 0 131.1 73v82c0 6.5 4.6 9.1 10.3 5.9l89.7-52a22.8 22.8 0 0 0 10.3-17.8v-83c0-6.4-4.6-9-10.2-5.8l-89.9 52.9z" id="Shape" fill="#C2DCFA"/><path id="Shape" fill="#FFF" d="M161.9 85.2V59.7l-23.1 12.8V98zM235.1 25.6V20L167 57.8v5.6zM235.1 35.7V30L167 67.9v5.6zM208.5 55.3l-41.6 23V84l41.6-23zM161.9 118.2V92.7l-23.1 12.8V131zM235.1 58.6V53L167 90.8v5.6zM208.5 88.3l-41.6 23v5.6l41.6-23zM225.7 68.3L167 100.9v5.6l58.8-32.6zM208.5 109.1l-41.6 23v5.7l41.6-23zM225.7 89.1L167 121.7v5.6l58.8-32.6zM161.9 138.6V125l-23.1 12.8v13.6z"/><path d="M399 80.5c6.4 3.8 11.7 13 11.7 20.5v94.4c0 7.5-5.3 10.5-11.7 6.8l-103.5-60a26.2 26.2 0 0 1-11.7-20.4V26.4c0-7.5 5.3-10.5 11.7-6.7L399 80.5z" id="Shape" fill="#C2DCFA"/><path id="Shape" fill="#2C41A8" d="M401.9 101.6v89.3l-23.8-14V88.4z"/><path id="Shape" fill="#365BC1" d="M372.9 130v43.8l-23.8-14v-43.7z"/><path id="Shape" fill="#779FF7" d="M315 50.4v89.2l-23.9-14V37.3z"/><path id="Shape" fill="#4462CC" d="M344 89.5v67.2l-23.9-14V75.5z"/><path d="M415.6 71.7L312.2 11c-3.1-1.8-5.9-2-8-1l-.3-.2-14.8 8.5c2.2-.3 4.5.3 6.4 1.5L399 80.5c3.9 2.5 7 6 9 10.2l16.2-9.8c-2-3.7-5-6.9-8.6-9.2z" id="Shape" fill="#ECF7FF"/><path d="M408 90.7c1.6 3.2 2.6 6.7 2.7 10.3v94.4c0 3.5-1.2 6-3 7.3l14-7.9c3.4-.5 5.6-3.4 5.6-8.3V92.2c-.1-4-1.2-7.8-3.2-11.3l-16.2 9.8z" id="Shape" fill="#ADD0F2"/><path id="Shape" fill="#8D849B" style="mix-blend-mode:multiply" d="M165 297l99.3-59.7 60 27.3-44.5 25.3 46.3 26.6-51.9 30.3L228 320l-28 17.3z"/><path id="Shape" fill="#D0DEFC" d="M133.9 230.3v72.3l63 36.6v-81z"/><path id="Shape" fill="#8EABDD" d="M196.9 258.2v81l3-1.9v-77.8z"/><path id="Shape" fill="#2F4289" d="M266.4 173.6l-28.5 19.1v60.8l52.8 32V179z"/><path id="Shape" fill="#A4BBEA" d="M290.7 179.1v106.3l33.7-20.8v-77.8z"/><path id="Shape" fill="#FFF" d="M329 180l-62.3-34.5L131 224.3v.8l61.1 34.8z"/><path id="Shape" fill="#E9F1FF" d="M130.9 225v5.4l60.8 35.3v-6z"/><path id="Shape" fill="#A4BBEA" d="M329 180l-137 80-.3-.3v6l.5.3 137-79.9v-5.9z"/><path id="Shape" fill="#D0DEFC" d="M206.3 216l45.4-25.6 15.6 8.4-45.3 26z"/><path id="Shape" fill="#F4C1B0" d="M266.3 197.8l-2.6-5-3.2-1-4.9-1.9-3.5 1.9-2 1.8-.8 2.1 1.7 1.4 10.6 5.6 2.8 1.1z"/><path id="Shape" fill="#2941A5" d="M278 198.7l-14.1-5.6-6.6 3.1v.4l19.4 8.3z"/><path id="Shape" fill="#182987" d="M257.3 196.6v5l11.8 6.1 7.5-2.3v-.5z"/><path id="Shape" fill="#122266" d="M259 287.5l2 15.6-6.4 1.3v2.6l5 1.1 7 1 1.6-3-1.1-14.9-7.2-6z"/><path id="Shape" fill="#FFDE8A" d="M248.4 277.9l-3.3-5.6 31.6-16.3 17.2 10.4-11.3 21.7-10 3.8z"/><path id="Shape" fill="#F4C1B0" d="M232.3 218l-2.5-5-3.3-1-4.8-1.8-3.5 1.8-2 1.9-.8 2 1.6 1.5 10.7 5.5 2.8 1.2z"/><path d="M281.9 264.5l-2.4 14-5.3 4-26.2-13.1-1 2.7 2.4 32.9.4 7.3.5 3.1-1.6 3-17.5-1.6-2.5-3.1 1-3 8-2.6 3.7-1.4-7-42.3 2.3-6.3 2.8-3 7.8-1.5 5.8 1.4.7-4 3.3-2.5 5.3-.8 21 9.2-1.5 7.6z" id="Shape" fill="#122266"/><path id="Shape" fill="#2941A5" d="M251 226.6l-19.1-12-3.7 2.5 19.4 14.2z"/><path d="M300.5 189.8c-4.7-.3-14 4.3-19 6.8-4.8 2.4-14.6 8.7-16.6 13l-14 17-3.3 4.6-19.4-14.1-.8 4.3v3.1l20.1 19.3 3.5 1.2 15.5-12.7-3.5 29.4 10.6 7 7.3-2.1 28.3-15.8.9-54.7s-5-6-9.6-6.3z" id="Shape" fill="#182987"/><path d="M301.5 186.9h-1.2l-4.9.8-9.3 2.3-3.2-1.2V186l3-1.5 1-2.5-.4-2.1-2.6-.6-2.4 3 .2-4.6-2.3-1.4-1.4-3.2-2.7-.9-.3 2.2.2 10.6.4 4.4 4.1 5.2h4.3l1.6 2.5 9.2-1.3 7.4-3.3-.8-4.2.1-1.5z" id="Shape" fill="#F4C1B0"/><path d="M279.5 176.4l2.3 1.4-.3 4.6 2.5-3 2.5.6.4 2-1 2.6-3 1.5v2.7l3.3 1.2 9.3-2.3 4.8-.8h1.3c.3-4 .9-15.6-.7-20.7-1.9-6.2-9-7.3-16.1-6.2-7.2 1-8.7 6.4-8.7 6.4l-.8 6 2.7 1 1.5 3z" id="Shape" fill="#240604"/><path d="M277.5 311c-14-.1-25.3 5.3-25.3 12 0 3.5 2.8 6.6 7.3 8.8l34.6-17.8c-5.3-2.1-11-3.1-16.6-3z" id="Shape" fill="#FFC152"/><path d="M294 314l-34.5 17.8a42 42 0 0 0 18 3.7c14 0 25.2-5.4 25.3-12.2 0-3.7-3.4-7-8.7-9.3z" id="Shape" fill="#FFA655"/><path d="M274.8 295.8v26.1s2.3 3.3 5.1 0v-29.8l-5 3.7z" id="Shape" fill="#240604"/><path d="M284.4 217.6l36.9-21.3a6.4 6.4 0 0 0-9.3-3.1l-34.7 20.3a7 7 0 0 0-2.4 2.6l7.2 4.2a8 8 0 0 1 2.3-2.7z" id="Shape" fill="#FFDE8A"/><path d="M282 220.3l-7-4.2a7 7 0 0 0-1 3.3v65.3c0 2.2-1.6 3-3.5 2l-24-14.1c-1.8-1.1-3.3-.3-3.3 2v2.1a7.6 7.6 0 0 0 3.4 6l30.2 17.5c.9.5 2 .8 3 .8a9.5 9.5 0 0 0 1-5.6c-.7-5.3 0-71.5 0-71.5a12 12 0 0 1 1.3-3.6z" id="Shape" fill="#FFA655"/><path d="M284.4 217.6c-3 2-3.7 6.3-3.7 6.3s-.7 66.2 0 71.5c.3 2 0 3.9-1 5.6 1.4.1 2.7-.2 3.9-.8l35-20.5c2-1.3 3.3-3.5 3.4-6v-74.6c0-1-.2-2-.7-2.8l-36.9 21.3z" id="Shape" fill="#FFC152"/><path id="Shape" fill="#9EB3DD" d="M204 179.8l-3.9 14.9 10.2 5.3 23.4-12.7-9.5-5.1 3-14z"/><path id="Shape" fill="#BCCEF7" d="M182 150v52.2l62.6-36.5v-52l-.5-.4z"/><path id="Shape" fill="#D0DEFC" d="M175.8 146.5v51.9l6 4 .3-.2V150l-6-3.6z"/><path id="Shape" fill="#E9F1FF" d="M238.6 110.4l-62.6 36 6 3.6 62-36.7z"/><path id="Shape" fill="#FFF" d="M184.8 151.2v41.4l58.1-33.6v-42z"/><path d="M197.2 155.6l4.9 7c.3.6.5 1.4.3 2.2l-2 10.3-4.8-6.6c-.4-.6-.5-1.4-.4-2.1l2-10.8zM208.9 162.3l-1.5 7.8c-.1.7-.5 1.4-1 1.8l-5.2 2.8 1.5-7.9c.2-.7.5-1.3 1.1-1.7l5.1-2.8zM203.1 152.3c.5-.2 1 0 1.4.3l3.6 5-5 2.9h-.1c-.5.2-1 0-1.4-.4l-3.6-5 5.1-2.8zM211.7 156.2c.2-.2.6-.2.9 0 .3.1.5.5.6 1l-.6.3c0-.2-.2-.4-.4-.5h-.5a1 1 0 0 0-.5.7v1.2c0 .4.2.7.4 1 .1.2.4.2.6.1.4-.3.7-.8.6-1.3l.6-.4c0 .5 0 1-.2 1.6a2 2 0 0 1-.9 1c-.4.1-.9.1-1.2-.2-.3-.4-.6-.9-.6-1.4a4 4 0 0 1 0-1.9c.2-.5.6-1 1-1.3h.2zM221.8 152.4l.5 2.8-.7.4v-.6l-.4.8a2 2 0 0 1-.6.5h-.1c-.2.2-.5.2-.7 0a1 1 0 0 1-.5-.7c0-.4 0-1 .3-1.3.2-.5.5-.8 1-1l.6-.4v-.2c0-.5-.3-.7-.7-.5a1 1 0 0 0-.5.4l-.2.6-.6.3c0-.5 0-1 .3-1.3.2-.4.5-.7.8-.8h.2c.2-.3.6-.3.9 0 .3.2.4.6.4 1zm-.6 2.4c.1-.3.2-.6.1-1v-.2l-.6.4c-.5.2-.7.7-.6 1.2 0 .1 0 .3.2.3h.3c.3-.1.5-.4.6-.7zM218 156.6l.2-.7.6-.3c0 .4 0 .9-.2 1.3s-.5.8-1 1a1 1 0 0 1-1 0c-.5-.5-.7-1-.8-1.6l.1-1.8c.2-.5.5-1 1-1.3a1 1 0 0 1 1.2.2c.4.5.6 1 .7 1.6l-2.2 1.3c0 .3.1.6.3.8h.6l.5-.5zm-1.4-2c-.1.3-.2.7-.1 1l1.5-.9c-.2-.6-.5-.8-1-.6a1 1 0 0 0-.4.5zM215 154.4l.3-.1.1 1-.3.1h-.1a1 1 0 0 0-.4.5 2 2 0 0 0-.1 1l.4 2.4-.7.3-.7-4.3.7-.4v.6l.3-.7c0-.2.2-.3.4-.5zM223 148.5l.2 1.5.6-.4.2.8-.7.3.4 2.5v.3h.3l.3-.3.2.8-.5.3h-.7l-.3-.7-.4-2.5-.5.3-.1-.8.5-.3-.2-1 .6-.8zM230.6 148.3c.1.6 0 1.2-.1 1.8-.2.5-.5 1-1 1.3h-.1a1 1 0 0 1-1.1-.1c-.4-.4-.7-.9-.7-1.4-.1-.7 0-1.3.1-2 .2-.5.5-1 1-1.2h.1a1 1 0 0 1 1.1.1c.4.4.7 1 .7 1.4zm-.7 1.5v-1.2c0-.3-.2-.7-.4-1a.5.5 0 0 0-.6-.1c-.4.1-.6.4-.6.8v1.2l.3.9c.2.2.4.3.7.1.3-.1.5-.4.6-.8zM225.6 148.5c.7-.3 1.1 0 1.3.8l-.6.3c0-.2-.2-.3-.3-.3h-.4l-.4.4c-.1.1-.2.3-.1.4 0 .2.1.3.3.3l.6-.1h.8c.3.1.5.4.5.7a2 2 0 0 1-1 2.2h-.2c-.8.4-1.2.1-1.5-.8l.7-.4c0 .2.1.4.3.5h.4c.5-.3.7-.7.6-1 0-.2-.1-.4-.3-.4l-.6.1h-.8a.8.8 0 0 1-.5-.7c-.1-.4 0-.8.1-1.1.2-.4.5-.7.9-.8h.2zM232.4 144.7c.7-.3 1.2 0 1.4 1.2l.4 2.8-.7.3-.4-2.6c-.1-.7-.4-1-.8-.8-.2.2-.4.3-.4.5-.1.3-.2.7-.1 1l.4 2.6-.7.4-.7-4.4.7-.4v.5l.4-.6c0-.2.2-.4.4-.5h.1z" id="Shape" fill="#0059E3"/><g id="Group" transform="translate(214 161)" fill="#0059E3"><path d="M2.3 1.6l-.5-.3v-.2c.3 0 .4.1.6.3l-.1.2zM2.2.8C2.1.6 2 .5 1.7.5l.1-.3.5.3v.3zM1.4 1.7c.2 0 .3.2.5.3v.3a4 4 0 0 0-.5-.4l.3 1.6-.2.1L1.3 2c0 .4-.1.8-.3 1.1V3l.2-1.3-.4.2v-.2l.4-.2V.9L.7 1V1l.7-.6v.2l-.2.3v.5l.4-.2v.3l-.3.1v.2z" id="Shape"/></g><g id="Group" transform="translate(217 158)" fill="#0059E3"><path d="M4.2 2.1c.1.2.3.4.6.5l-.1.3-.5-.6.1 1-.1.2L4 2.4c0 .3-.1.7-.3 1h-.1l.3-1h-.3v-.2L4 2v-.3l.1.3.5-.3v.2l-.4.2zM3.2 2.8l.3.2v.2L3.2 3l.1 1h-.1L3 3l-.2 1-.1-.1.3-1-.4.2v-.3l.4-.2v-.4l.1.3.4-.2v.3l-.4.1v.1zM2.6 2.4l-.2-.1.7-1-.7.4v-.3l.9-.4V.5h.1v.3l.9-.5v.2l-.8.4c.3.1.6.2 1 .1v.3c-.4 0-.8 0-1-.3v.8l-.1.1-.1-.8c-.2.4-.4.9-.7 1.2zM1.6 3.4l.6-.4.2 1.2-.1.3h-.1V4.3l-.1-.8h-.3L2 4.7H2l-.2-1h-.2l.2 1.2h-.1l-.2-1h-.2L1.4 5l-.2.1L1 3.7l.4-.2v-.4l-.5.3v-.2l1.3-.7v.2l-.6.3v.4z" id="Shape"/></g><path id="Shape" fill="#0059E3" d="M219 160.2l-1 .6-.2-.7.2-.1v.5l.4-.1-.2-.7h.2l.1.6.3-.2v-.5l.1-.1zM217.8 162.5l.2-.3v.2l-.6.8-.1-.2.3-.3-.2-1-.2.2v-.2l.2-.2-.1-.8-.3.2v-.3l.7-.3v.2l-.3.1.2.8h.2v.1l-.2.2.2.8zM217 162.6l-.2.2.2 1h-.2l-.1-.9-.7.6v-.2l.6-.6-.3-2h.2l.3 1.9.2-.2zM225.3 157.4l-.8.4-.2-1.2.8-.4.2 1.2zm-.3-1l-.5.3.2.8.4-.2-.1-.8zM223.9 158l-.4.9-.2-.2c.2-.2.4-.5.4-.8v-.1l-.4.2-.1-.2.5-.3v-.3l-.2.1-.2.4v-.9h.2v.3l.7-.4v.2l-.3.2v.4l.4-.3v.3l-.5.2v.1l.5.2v.2l-.4-.2z"/><path d="M223.7 158.6l1.5-.9.2 1.5h-.2v-.1l-1.1.6v.2h-.2l-.2-1.3zm.2 0v.4l1.1-.6v-.3l-1.2.6h.1zm0 1l1.2-.7v-.3l-1.2.6v.3zM226.8 156.3l-.7-.7a9 9 0 0 1-.4 1.4l-.2-.1.5-1.5h.1l.7.7v.2z" id="Shape" fill="#0059E3"/><path d="M226.9 158v-.5h.2v.6l-.2.2-.6.3c-.1 0-.2 0-.2-.2l-.3-1.7.8-.4.2.9c0 .1 0 .3-.2.4h-.2l-.1-.2h.2l.1-.3v-.6l-.6.3.3 1.4s0 .1 0 0l.5-.1.1-.2zM227.4 157.3h-.2l-.3-2 .1-.1zM228.8 153.9l.1.4.8-.4v.2l-.8.5.1.6 1-.5v.2l-.8.4c.2.4.5.6 1 .7l-.1.3c-.5-.2-.8-.5-1-1l.2 1.6-.2.1-.3-1.5c0 .6-.2 1.3-.6 1.8l-.1-.1c.3-.5.5-1 .6-1.6l-.7.4v-.3l1-.4-.2-.7-.8.5v-.3l.8-.4v-.5z" id="Shape" fill="#0059E3"/><path d="M227.8 157.4c.1.2 0 .3 0 .4l-.5.2v-.2l.3-.2v-.2l-.4-2.7h.2l.4 2.7zM230.6 153.7l.3.5-.1.2-.3-.5.1-.2z" id="Shape" fill="#0059E3"/><path d="M231.6 154.2c.2.3.6.5 1 .6l-.1.3a2 2 0 0 1-1-.8l.2 1.4h-.2l-.3-1.3a4 4 0 0 1-.6 1.7l-.2-.1c.4-.5.6-1 .7-1.5l-.8.4v-.3l1-.4-.2-.9-.8.5v-.3l.8-.4v-.4l.1-.1.1.4.8-.5v.2l-.8.5.1.9.3-.2v-.8h.3l-.2.7.6-.3v.3l-.8.4zM222.3 146.3c.2-.1.5 0 .6.5 0 .4-.1.8-.4 1-.3.2-.6 0-.7-.4 0-.4.1-.8.4-1z" id="Shape" fill="#0059E3"/></g></g></g></g></svg>