<?xml version="1.0" encoding="UTF-8"?>
<svg width="310px" height="314px" viewBox="0 0 310 314" version="1.1" xmlns="http://www.w3.org/2000/svg" xmlns:xlink="http://www.w3.org/1999/xlink">
    <!-- Generator: Sketch 49 (51002) - http://www.bohemiancoding.com/sketch -->
    <title>Group 2</title>
    <desc>Created with Sketch.</desc>
    <defs>
        <circle id="path-1" cx="127.5" cy="127.5" r="127.5"></circle>
    </defs>
    <g id="Page-1" stroke="none" stroke-width="1" fill="none" fill-rule="evenodd">
        <g id="价格设置列表页-copy" transform="translate(-471.000000, -587.000000)">
            <g id="Group-2" transform="translate(471.000000, 587.000000)">
                <g id="Group" transform="translate(0.000000, 59.000000)">
                    <mask id="mask-2" fill="white">
                        <use xlink:href="#path-1"></use>
                    </mask>
                    <use id="Mask" fill="#4B74FF" xlink:href="#path-1"></use>
                    <g mask="url(#mask-2)">
                        <g transform="translate(73.312500, 94.350000)">
                            <path d="M149.084252,0.388324873 L150.43382,89.9444079 C150.43382,89.9444079 100.838154,107.584231 21.2226597,106.480764 L0.281535533,16.2059355 C0.281535533,16.2059355 100.66899,21.613672 149.084252,0.388324873" id="Fill-35" fill="#FFFFFF"></path>
                            <polyline id="Fill-36" fill="#A384A0" points="150.10698 82.5837563 150.10698 82.5837563 149.786612 57.9898477 150.10698 82.5837563"></polyline>
                            <path d="M207.314973,107.923141 L174.729958,90.0606007 L149.911068,90.0218113 C149.911068,90.0218113 100.427132,107.670263 20.9921954,106.566256 L29.4603263,134.624452 L23.2528033,178.084297 C23.2528033,178.084297 66.8025505,183.115735 53.4875928,169.816177 C40.1718883,156.516619 31.2347578,168.31234 31.2347578,168.31234 L42.3525869,138.956189 L41.6177214,118.569352 C54.7848098,118.940089 93.661738,118.737936 146.113515,106.439444 L171.17512,102.339698 L208.043864,118.053153 C208.043864,118.053153 242.156115,82.4541396 221.402137,84.6203809 C202.508474,86.594167 207.314973,107.923141 207.314973,107.923141 Z" id="Fill-39" fill="#403844"></path>
                            <polyline id="Fill-43" fill="#9B83A6" points="149.893401 58.6370558 149.893401 58.6370558 149.786612 50.2233503 149.787259 50.2233503 149.893401 58.6370558"></polyline>
                            <polyline id="Fill-45" fill="#927690" points="149.841624 58.6370558 149.841624 58.6370558 149.786612 54.106599 149.841624 58.6370558"></polyline>
                        </g>
                    </g>
                </g>
                <polyline id="Fill-38" fill="#EECFB8" points="294.77547 145.343911 295 139.071587 284.008513 137.126199 278.370568 144.412546 280.505099 132.59262 287.131724 127.258303 280.276078 122 273.784171 128.911439 271.615212 143.861993 267.611844 135.898893 268.276452 125.718081 260.624474 126.692251 260.804846 139.504797 267.196464 147.416974 223 159.302583 223.223033 174 273.791655 160.296679 277.58621 167.828782 291.908972 167.528413 290.588736 158.413284 283.477874 160.918081 280.024605 152.551292 287.208813 143.812546 294.77547 145.343911"></polyline>
                <polygon id="Fill-42" fill="#EECFB8" points="310 201.824916 299.919856 193.448599 289.372712 193.410169 106.140698 184 106 198.629919 265.01018 205.933952 259.456334 210.91031 262.452912 220.224027 271.126072 217.421623 268.880136 211.217 276.887972 206.793738 283.4065 212.991579 278.121328 220.850969 283.663948 224 291.589461 214.394665 286.93369 204.808168 296.590242 212.273459 298.342237 220.703276 306.232575 217.047115 302.999505 207.997137 290.539461 199.030801 299.339849 200.106098 307.084998 206.181113"></polygon>
                <path d="M280.226876,261.727309 L247.658633,243.613182 L222.852517,243.573846 C222.852517,243.573846 173.394051,261.47087 94,260.351313 C142.421426,268.580056 184.107066,268.53719 219.056919,260.222716 L244.105625,256.065226 L280.955392,272 C280.955392,272 315.050085,235.899586 294.306789,238.096338 C275.422851,240.097924 280.226876,261.727309 280.226876,261.727309 Z" id="Fill-39" fill="#403844"></path>
                <path d="M222.999566,153.304205 C222.999566,153.304205 224.173585,-4.56748113 104.365131,57.4268472 C104.365131,57.4268472 67.6092693,89.0976036 73.6761572,169.112014 C172.751884,183.504832 222.999566,153.304205 222.999566,153.304205" id="Fill-54" fill="#EECFB8"></path>
                <path d="M147,138.231721 C147,138.231721 168.991172,129.409956 197.871072,131.25331 C197.871072,131.25331 200.917865,155.392216 177.389017,159.46189 C151.107985,164.010083 147,138.231721 147,138.231721" id="Fill-56" fill="#403844"></path>
                <polyline id="Fill-57" fill="#403844" points="147.414963 122 129 109.671012 131.585037 106 150 118.32973 147.414963 122"></polyline>
                <polyline id="Fill-58" fill="#403844" points="135.671182 125 132 122.414776 144.328818 104 148 106.584463 135.671182 125"></polyline>
                <polyline id="Fill-59" fill="#403844" points="202.414776 112 184 99.6704398 186.585224 96 205 108.32956 202.414776 112"></polyline>
                <polyline id="Fill-60" fill="#403844" points="189.67044 114 186 111.414776 198.32956 93 202 95.5852244 189.67044 114"></polyline>
                <path d="M221.962688,0 C221.962688,0 241.714914,97.492337 108.834399,83.1059459 L105.498148,113.407263 C105.498148,113.407263 91.3025939,102.342079 88.5261315,116.974596 C85.7466716,131.616869 102.974977,124.045479 102.974977,124.045479 C102.974977,124.045479 90.7862693,159.000687 73.7475581,169.993835 C74.4624691,171.127667 24.3894761,15.4669462 85.036257,36.1528236 C85.036257,36.1528236 85.326268,10.2300057 124.990337,2.3929794 C170.885523,-6.67542952 191.489796,47.7177651 221.962688,0" id="Fill-55" fill="#242424"></path>
            </g>
        </g>
    </g>
</svg>