<?xml version="1.0" encoding="UTF-8"?>
<svg width="524px" height="195px" viewBox="0 0 524 195" version="1.1" xmlns="http://www.w3.org/2000/svg" xmlns:xlink="http://www.w3.org/1999/xlink">
    <!-- Generator: Sketch 50.2 (55047) - http://www.bohemiancoding.com/sketch -->
    <title>Group 2</title>
    <desc>Created with Sketch.</desc>
    <defs>
        <path d="M2,-7.03437308e-13 L398.480469,-7.03437308e-13 C399.585038,-7.03640215e-13 400.480469,0.8954305 400.480469,2 L400.480469,117.587689 C400.480469,118.692259 399.585038,119.587689 398.480469,119.587689 L2,119.587689 C0.8954305,119.587689 1.3527075e-16,118.692259 0,117.587689 L0,2 C-1.3527075e-16,0.8954305 0.8954305,-7.03234402e-13 2,-7.03437308e-13 Z" id="path-1"></path>
        <filter x="-16.5%" y="-40.1%" width="133.0%" height="210.4%" filterUnits="objectBoundingBox" id="filter-2">
            <feOffset dx="0" dy="18" in="SourceAlpha" result="shadowOffsetOuter1"></feOffset>
            <feGaussianBlur stdDeviation="19" in="shadowOffsetOuter1" result="shadowBlurOuter1"></feGaussianBlur>
            <feComposite in="shadowBlurOuter1" in2="SourceAlpha" operator="out" result="shadowBlurOuter1"></feComposite>
            <feColorMatrix values="0 0 0 0 0.884160912   0 0 0 0 0.915962156   0 0 0 0 0.989105017  0 0 0 1 0" type="matrix" in="shadowBlurOuter1"></feColorMatrix>
        </filter>
        <rect id="path-3" x="0" y="0" width="100" height="46" rx="2"></rect>
        <filter x="-58.5%" y="-101.1%" width="217.0%" height="354.3%" filterUnits="objectBoundingBox" id="filter-4">
            <feOffset dx="0" dy="12" in="SourceAlpha" result="shadowOffsetOuter1"></feOffset>
            <feGaussianBlur stdDeviation="17.5" in="shadowOffsetOuter1" result="shadowBlurOuter1"></feGaussianBlur>
            <feColorMatrix values="0 0 0 0 0.202630807   0 0 0 0 0.30232908   0 0 0 0 0.698846726  0 0 0 0.340636322 0" type="matrix" in="shadowBlurOuter1"></feColorMatrix>
        </filter>
    </defs>
    <g id="Page-1" stroke="none" stroke-width="1" fill="none" fill-rule="evenodd">
        <g id="Desktop-Copy-3" transform="translate(-55.000000, -321.000000)">
            <g id="input" transform="translate(93.000000, 225.000000)">
                <g id="Group-2" transform="translate(0.000000, 116.000000)">
                    <g id="Fields">
                        <g id="Rectangle-21-Copy-2">
                            <use fill="black" fill-opacity="1" filter="url(#filter-2)" xlink:href="#path-1"></use>
                            <use fill-opacity="0" fill="#FFFFFF" fill-rule="evenodd" xlink:href="#path-1"></use>
                        </g>
                        <path d="M2,0 L398,0 C399.104569,-2.02906125e-16 400,0.8954305 400,2 L400,60 L0,60 L-2.22044605e-16,2 C-3.57315355e-16,0.8954305 0.8954305,2.02906125e-16 2,0 Z" id="Rectangle-21" fill="#FFFFFF"></path>
                        <path d="M0,60 L400,60 L400,118 C400,119.104569 399.104569,120 398,120 L2,120 C0.8954305,120 1.3527075e-16,119.104569 0,118 L0,60 Z" id="Rectangle-21-Copy" fill="#FFFFFF"></path>
                        <path d="M0.472813239,58.5 L399.527187,58.5" id="Line" stroke="#DCE2F0" stroke-linecap="square"></path>
                    </g>
                    <g id="SignIn-Btn" transform="translate(351.000000, 33.000000)">
                        <g id="Mask">
                            <use fill="black" fill-opacity="1" filter="url(#filter-4)" xlink:href="#path-3"></use>
                            <use fill="#0064FF" fill-rule="evenodd" xlink:href="#path-3"></use>
                        </g>
                        <text id="登-录" font-family="PingFang-SC-Medium, PingFang SC" font-size="14" font-weight="400" fill="#FFFFFF">
                            <tspan x="31.338" y="30">登  录</tspan>
                        </text>
                    </g>
                </g>
            </g>
        </g>
    </g>
</svg>