<?xml version="1.0" encoding="UTF-8"?>
<svg width="136px" height="35px" viewBox="0 0 136 35" version="1.1" xmlns="http://www.w3.org/2000/svg" xmlns:xlink="http://www.w3.org/1999/xlink">
    <!-- Generator: Sketch 50.2 (55047) - http://www.bohemiancoding.com/sketch -->
    <title>logo</title>
    <desc>Created with Sketch.</desc>
    <defs>
        <polygon id="path-1" points="0 -0.000116666667 19.0157647 -0.000116666667 19.0157647 34.90655 0 34.90655"></polygon>
    </defs>
    <g id="Page-1" stroke="none" stroke-width="1" fill="none" fill-rule="evenodd">
        <g id="Desktop-Copy-3" transform="translate(-41.000000, -43.000000)">
            <g id="logo" transform="translate(41.000000, 43.000000)">
                <g id="Group-3">
                    <mask id="mask-2" fill="white">
                        <use xlink:href="#path-1"></use>
                    </mask>
                    <g id="Clip-2"></g>
                    <path d="M18.5569412,15.8782167 L9.52164706,-0.000116666667 L0.451058824,15.8548833 C-0.163058824,17.08105 -0.148941176,18.5253833 0.486352941,19.7398833 L9.52164706,34.90655 L18.5569412,19.7398833 C19.1687059,18.5242167 19.1687059,17.0938833 18.5569412,15.8782167" id="Fill-1" fill="#0064FF" mask="url(#mask-2)"></path>
                </g>
                <path d="M21.8359025,21 C20.5400796,21.0885615 19.3586275,21.8164645 18.6449528,22.965338 L12,35 L25.1526604,35 C26.4507708,34.9114385 27.6356539,34.1847487 28.3550472,33.034662 L35,21 L21.8359025,21 Z" id="Fill-4" fill="#0064FF"></path>
                <path d="M21.8424453,14 L35,14 L28.3583499,1.96533795 C27.6393141,0.8152513 26.4550199,0.0885615251 25.1575547,0 L12,0 L18.6416501,12.034662 C19.3606859,13.1847487 20.5449801,13.9114385 21.8424453,14" id="Fill-6" fill="#0064FF"></path>
                <path d="M53.082695,14.0299497 C54.1500355,14.9007439 54.8241453,16.1459316 54.9633636,17.4987725 L52.2034213,17.4987725 C52.0935121,16.8205578 51.7430238,16.2021505 51.2142384,15.7523997 C50.6219499,15.3469062 49.9087613,15.1447576 49.1870242,15.1782497 C48.2308141,15.1244231 47.3124616,15.5478587 46.7445974,16.3026267 C46.1059028,17.2224628 45.7969358,18.3253092 45.8653237,19.4365287 C45.7908297,20.5668864 46.090027,21.6912635 46.7201731,22.6421993 C47.8168228,23.9483905 49.78664,24.1385777 51.1214262,23.0644388 C51.7430238,22.5632537 52.1435818,21.8467624 52.2400577,21.0632869 L55,21.0632869 C54.8302513,22.4974657 54.1366021,23.8227952 53.0460586,24.7952618 C51.9200998,25.6349561 50.5279165,26.0583917 49.1137514,25.9914075 C47.3869556,26.085903 45.7126721,25.3969231 44.5708375,24.1254201 C43.4827364,22.8108559 42.9270843,21.1506056 43.0076844,19.4604516 C42.9344116,17.8037897 43.4815152,16.1794237 44.5464133,14.8911747 C45.7090084,13.596945 47.4187072,12.9031804 49.1748121,13.0132258 C50.5560044,12.924711 51.9286483,13.2823586 53.082695,14.0299497" id="Fill-8" fill="#323C5A"></path>
                <path d="M63.4285714,13.2659782 L63.4285714,16.0603545 C62.8860148,15.8789652 62.3208044,15.7882705 61.752196,15.7907217 C61.0567268,15.8029778 60.3963708,16.1265371 59.9285714,16.6854124 C59.2920018,17.3692992 58.9544614,18.3142396 58.9997688,19.2836921 L58.9997688,26 L56.4285714,26 L56.4285714,13.2904903 L58.988442,13.2904903 L58.988442,15.1043837 C59.259154,14.52835 59.6465326,14.0258525 60.1211281,13.6336593 C60.6455617,13.1973444 61.2957235,12.9755102 61.9560795,13.0086015 C62.4589921,12.9706078 62.9630374,13.0588512 63.4285714,13.2659782" id="Fill-10" fill="#323C5A"></path>
                <path d="M68.740556,15.9530947 C68.1899964,16.574456 67.8426476,17.352957 67.748131,18.1842377 L74.0334898,18.1842377 C74.0535746,16.5408689 72.7575147,15.1937863 71.1389166,15.1733941 C71.0408556,15.1721946 70.9416131,15.1769928 70.843552,15.1853895 C70.0685153,15.1338093 69.3064746,15.4121025 68.740556,15.9530947 M75.3803524,15.017454 C76.4271245,16.5336717 76.9434219,18.3617695 76.8453608,20.211459 L67.7008726,20.211459 C67.7233203,21.1686914 68.0458585,22.0923366 68.6224102,22.8504454 C69.2001434,23.4766049 70.0224384,23.8124759 70.8671812,23.7620952 C71.5807821,23.7944828 72.2849313,23.5917607 72.8756605,23.1863164 C73.3470624,22.7748744 73.7192218,22.2566735 73.9626023,21.6748969 L76.6563275,21.6748969 C76.3952252,22.7964661 75.8009516,23.8088773 74.9550273,24.5765824 C73.81492,25.5374133 72.3699963,26.0412198 70.8908104,25.9932382 C69.2769382,26.0724078 67.7055985,25.4534456 66.5666725,24.2898925 C65.3899399,22.9847938 64.7779445,21.2574573 64.8653724,19.4917355 C64.805118,17.797986 65.3793068,16.1426219 66.4721559,14.8615139 C67.5461016,13.6019977 69.1339817,12.9194599 70.7726645,13.0142235 C72.536582,12.8858728 74.2544225,13.6319862 75.3803524,15.017454" id="Fill-12" fill="#323C5A"></path>
                <path d="M84.1770172,20.1412752 C82.076505,20.1412752 81.0377902,20.9473008 81.0377902,22.4171121 C81.0297113,22.8414609 81.2293754,23.242103 81.5686889,23.4839107 C81.9784042,23.7873556 82.4712166,23.94619 82.9767245,23.9343367 C83.9092596,23.960414 84.8187121,23.6403745 85.5388877,23.0322993 C86.2279018,22.4514867 86.619151,21.5778973 86.6018391,20.6616358 L86.6018391,20.0464487 L84.1770172,20.1412752 Z M88.1241334,14.4279763 C88.9320226,15.3643884 89.3475086,16.5912067 89.2782609,17.8417317 L89.2782609,25.664921 L86.7853454,25.664921 L86.7853454,24.0528699 C86.3283109,24.6479064 85.7443224,25.1267804 85.0772366,25.450376 C84.2254905,25.8296822 83.3044967,26.0157792 82.3765782,25.9956286 C81.3124726,26.0442272 80.266833,25.686257 79.4450942,24.989282 C78.7064526,24.3764655 78.2817337,23.4507214 78.2909667,22.4763787 C78.2228732,21.2045178 78.8207112,19.9931087 79.8605801,19.2996897 C81.0770306,18.4960348 82.5000698,18.0835393 83.9461916,18.114358 L86.555674,18.043238 L86.555674,17.5691054 C86.555674,15.9570542 85.7004655,15.1984419 83.9923567,15.1984419 C83.3829774,15.1605113 82.7735981,15.3003804 82.2380829,15.6014547 C81.7244961,15.9084556 81.3632542,16.4252602 81.2455332,17.0238528 L78.6372049,16.8104931 C78.8149406,15.5730067 79.5270373,14.4825015 80.5761392,13.8471637 C81.6771769,13.2307912 82.9247888,12.9427556 84.1770172,13.0174315 C85.6277555,12.8965277 87.0600278,13.408591 88.1241334,14.4279763 Z" id="Fill-14" fill="#323C5A"></path>
                <path d="M95.2135871,13.889138 L97.7142857,13.889138 L97.7142857,16.0782337 L95.2135871,16.0782337 L95.2135871,22.9366238 C95.1940249,23.1695063 95.2559718,23.4012244 95.3874731,23.5886949 C95.5407102,23.7400685 95.7450263,23.8169197 95.9536895,23.7982891 L97.4306341,23.7982891 L97.4306341,25.9873848 L95.5407102,25.9873848 C94.7354004,26.0677292 93.938785,25.7614887 93.3671347,25.1490077 C92.894382,24.5272114 92.6607226,23.7365753 92.7139752,22.9366238 L92.7139752,16.0782337 L90.7142857,16.0782337 L90.7142857,13.889138 L92.7367977,13.889138 L92.7367977,11.0945478 L95.2135871,10 L95.2135871,13.889138 Z" id="Fill-16" fill="#323C5A"></path>
                <path d="M109.740363,16.8738573 L107.114642,16.8738573 C106.995184,16.348268 106.692398,15.8812102 106.263057,15.5598839 C105.69415,15.2624481 105.056644,15.1310508 104.417955,15.1776371 C103.864425,15.1394124 103.309711,15.2469194 102.809405,15.4882127 C102.411999,15.6673908 102.167168,16.0771116 102.194371,16.515501 C102.194371,16.8977478 102.501888,17.2561042 103.164232,17.5427893 C103.961411,17.8306689 104.775148,18.0695732 105.600713,18.259502 C106.685301,18.4804885 107.724945,18.8842367 108.675882,19.4540233 C109.59725,19.9879743 110.15906,20.9853996 110.142501,22.0580797 C110.142501,24.6860266 108.297399,26 104.630851,26 C101.22451,26 99.4030638,24.542684 99.1428571,21.6519425 L101.756751,21.6519425 C101.827716,22.2910114 102.12104,22.883494 102.584681,23.3242723 C103.171329,23.6682944 103.847866,23.8259713 104.524403,23.7781904 C106.416815,23.7781904 107.363021,23.252601 107.363021,22.2492032 C107.321625,21.6161069 106.89938,21.0737942 106.298539,20.8874489 C105.53093,20.5864295 104.739665,20.3546924 103.933025,20.1946265 C102.866177,19.998725 101.837178,19.6367851 100.881511,19.1195574 C99.9554115,18.6298036 99.3782259,17.6550743 99.3912362,16.5991175 C99.3451087,15.5252428 99.879715,14.5098997 100.78689,13.9472802 C101.883306,13.2496798 103.171329,12.9223809 104.465265,13.0155536 C107.670538,13.0155536 109.456502,14.2100749 109.740363,16.8738573" id="Fill-18" fill="#323C5A"></path>
                <path d="M115.004489,16.5183122 C114.46675,17.4055927 114.201342,18.4401546 114.242884,19.487888 C114.201342,20.5272395 114.46675,21.5558143 115.004489,22.4335156 C116.017655,23.884776 117.972442,24.209274 119.371027,23.1579484 C119.641051,22.9567835 119.876456,22.7113146 120.070319,22.4335156 C120.609213,21.5558143 120.883852,20.5284369 120.855003,19.487888 C120.890776,18.4389572 120.616136,17.4020005 120.070319,16.5183122 C119.058307,15.0670518 117.102366,14.7425538 115.702628,15.792682 C115.434912,15.9950442 115.199506,16.2393158 115.004489,16.5183122 M121.928175,14.7940424 C123.041734,16.0776655 123.630247,17.7612234 123.56678,19.487888 C123.626785,21.1953941 123.047504,22.858596 121.952408,24.1338372 C119.524502,26.6220543 115.619543,26.6220543 113.192792,24.1338372 C112.08731,22.864583 111.508028,21.1965915 111.577265,19.487888 C111.50572,17.760026 112.094234,16.0728759 113.215871,14.7940424 C114.346739,13.5631054 115.941495,12.9105171 117.577792,13.0099021 C119.209474,12.9224912 120.796152,13.5726846 121.928175,14.7940424" id="Fill-20" fill="#323C5A"></path>
                <path d="M136,18.1905987 L136,26 L133.28102,26 L133.28102,18.4354075 C133.28102,16.3545326 132.349241,15.3263356 130.489262,15.3263356 C129.828308,15.3214394 129.193601,15.5858329 128.722343,16.060762 C128.116269,16.6789043 127.758351,17.5088062 127.721367,18.3864458 L127.721367,26 L125,26 L125,13.3433841 L127.721367,13.3433841 L127.721367,14.812237 C128.161605,14.2491768 128.715184,13.7901602 129.342733,13.4657886 C129.973861,13.1487611 130.668221,12.9884114 131.370933,13.0006518 C134.449024,13.061854 136,14.7143135 136,18.1905987" id="Fill-22" fill="#323C5A"></path>
                <path d="M93,2 C94.1049724,2 95,2.8961326 95,4 C95,5.10497238 94.1049724,6 93,6 C91.8950276,6 91,5.10497238 91,4 C91,2.8961326 91.8950276,2 93,2" id="Fill-24" fill="#0064FF"></path>
            </g>
        </g>
    </g>
</svg>