<?xml version="1.0" encoding="UTF-8"?>
<svg width="372px" height="104px" viewBox="0 0 372 104" version="1.1" xmlns="http://www.w3.org/2000/svg" xmlns:xlink="http://www.w3.org/1999/xlink">
    <!-- Generator: Sketch 50.2 (55047) - http://www.bohemiancoding.com/sketch -->
    <title>text2</title>
    <desc>Created with Sketch.</desc>
    <defs>
        <linearGradient x1="3.11503508%" y1="2.23521114%" x2="97.6308161%" y2="70.0555474%" id="linearGradient-1">
            <stop stop-color="#009DFF" offset="0%"></stop>
            <stop stop-color="#0064FF" offset="100%"></stop>
        </linearGradient>
        <path d="M0.64,7.32 L61.36,7.32 L61.36,15.84 L10.48,15.84 L10.48,44.52 L58.48,44.52 L58.48,53.04 L10.48,53.04 L10.48,84.48 L63.4,84.48 L63.4,93 L0.64,93 L0.64,7.32 Z M77.08,7.32 L114.04,7.32 C122.56,7.32 129.28,9.24 134.2,13.2 C139.24,17.28 141.88,23.28 141.88,31.2 C141.88,36 140.56,40.2 137.92,43.92 C135.04,47.76 131.2,50.16 126.28,51.36 L126.28,51.6 C134.44,53.4 139,58.56 139.96,67.2 L141.28,80.4 C141.76,85.68 143.32,89.88 145.84,93 L135.16,93 C133.24,90.12 132.04,86.4 131.68,81.6 L130.6,70.2 C130.12,65.16 128.32,61.44 125.2,59.28 C122.32,57.12 118.24,56.16 112.84,56.16 L86.92,56.16 L86.92,93 L77.08,93 L77.08,7.32 Z M86.92,15.84 L86.92,47.64 L112.84,47.64 C119.08,47.64 124,46.08 127.36,43.2 C130.36,40.44 131.92,36.6 131.92,31.56 C131.92,26.28 130.36,22.32 127.48,19.8 C124.36,17.16 119.44,15.84 112.84,15.84 L86.92,15.84 Z M158.2,7.32 L193.24,7.32 C212.92,7.32 222.76,15.72 222.76,32.52 C222.76,49.44 212.8,57.96 193.12,57.96 L168.04,57.96 L168.04,93 L158.2,93 L158.2,7.32 Z M168.04,15.84 L168.04,49.44 L192.64,49.44 C199.6,49.44 204.64,48 208,45.24 C211.24,42.48 212.92,38.28 212.92,32.52 C212.92,26.76 211.24,22.56 207.88,20.04 C204.52,17.16 199.48,15.84 192.64,15.84 L168.04,15.84 Z" id="path-2"></path>
    </defs>
    <g id="Page-1" stroke="none" stroke-width="1" fill="none" fill-rule="evenodd">
        <g id="Desktop-Copy-3" transform="translate(-108.000000, -225.000000)">
            <g id="input" transform="translate(93.000000, 225.000000)">
                <g id="text2" transform="translate(15.000000, 0.000000)">
                    <g id="ERP">
                        <use fill="#FFFFFF" xlink:href="#path-2"></use>
                        <use fill="url(#linearGradient-1)" xlink:href="#path-2"></use>
                    </g>
                    <path d="M21.7708832,71.0131645 C23.3011997,69.9013244 25.4430908,70.2405667 26.5549308,71.7708832 L46.040012,98.5897966 C47.151852,100.120113 46.8126098,102.262004 45.2822933,103.373844 C43.7519767,104.485684 41.6100857,104.146442 40.4982456,102.616126 L21.0131645,75.7972121 C19.9013244,74.2668956 20.2405667,72.1250045 21.7708832,71.0131645 Z" id="Rectangle-7-Copy-17" fill="#FBFCFC"></path>
                    <path d="M171.770883,1.01316446 C173.3012,-0.0986755697 175.443091,0.24056665 176.554931,1.77088317 L216.612496,56.9053914 C217.724336,58.4357079 217.385094,60.577599 215.854777,61.689439 C214.324461,62.8012791 212.182569,62.4620368 211.070729,60.9317203 L171.013164,5.79721209 C169.901324,4.26689557 170.240567,2.12500449 171.770883,1.01316446 Z" id="Rectangle-7-Copy-15" fill="#FBFCFC"></path>
                    <path d="M91.7708832,39.0131645 C93.3011997,37.9013244 95.4430908,38.2405667 96.5549308,39.7708832 L136.612496,94.9053914 C137.724336,96.4357079 137.385094,98.577599 135.854777,99.689439 C134.324461,100.801279 132.182569,100.462037 131.070729,98.9317203 L91.0131645,43.7972121 C89.9013244,42.2668956 90.2405667,40.1250045 91.7708832,39.0131645 Z" id="Rectangle-7-Copy-16" fill="#FBFCFC"></path>
                    <text id="科瑞森-专属定制-有色金属信息管理系统" font-family="PingFang-SC-Light, PingFang SC" font-size="18" font-weight="300" line-spacing="32" fill="#323C5A">
                        <tspan x="234.012" y="54">科瑞森  专属定制</tspan>
                        <tspan x="192" y="86">有色金属信息管理系统</tspan>
                    </text>
                    <circle id="Oval-2" fill="#323C5A" cx="294.5" cy="50.5" r="1.5"></circle>
                </g>
            </g>
        </g>
    </g>
</svg>